<svg id="Layer_1" data-name="Layer 1" xmlns="http://www.w3.org/2000/svg" viewBox="0 0 500 500"><title>Artboard 1</title><path d="M299.39,422.52l-15,15H215.61l-15-15H10v25.61l34.39,34.39H455.61L490,448.13V422.52ZM475,441.91l-25.61,25.61H50.61L25,441.91v-4.39H194.39l15,15h81.21l15-15H475Z"/><path d="M70,197.52a15,15,0,0,1,15-15H415a15,15,0,0,1,15,15v210h15v-210a30,30,0,0,0-30-30H85a30,30,0,0,0-30,30v210H70Z"/><polygon points="340.62 321.29 279.45 244.83 219.45 334.83 160.62 261.29 126.89 295.02 115 295.02 115 310.02 133.11 310.02 159.38 283.75 220.55 360.21 280.55 270.21 339.38 343.75 373.11 310.02 385 310.02 385 295.02 366.89 295.02 340.62 321.29"/><path d="M130.34,144.29a35.64,35.64,0,0,0,7.16.73,37.54,37.54,0,0,0,37.5-37.5A37.06,37.06,0,0,0,157.68,76,120.45,120.45,0,0,1,173.5,60.2,37.06,37.06,0,0,0,205,77.52,37.54,37.54,0,0,0,242.5,40a35.63,35.63,0,0,0-.73-7.16,96.4,96.4,0,0,1,16.45,0A35.65,35.65,0,0,0,257.5,40,37.54,37.54,0,0,0,295,77.52,37.06,37.06,0,0,0,326.5,60.2,120.44,120.44,0,0,1,342.32,76,37.06,37.06,0,0,0,325,107.52,37.54,37.54,0,0,0,362.5,145a35.64,35.64,0,0,0,7.16-.73c.24,2.88.34,5.59.34,8.23h15a132.81,132.81,0,0,0-1.55-19.44,7.5,7.5,0,0,0-10.83-5.6A22.21,22.21,0,0,1,362.5,130a22.52,22.52,0,0,1-22.5-22.5,22.3,22.3,0,0,1,16.11-21.44,7.49,7.49,0,0,0,4-11.52A134.65,134.65,0,0,0,328,42.43a7.49,7.49,0,0,0-11.52,4A22.3,22.3,0,0,1,295,62.52,22.52,22.52,0,0,1,272.5,40,22.21,22.21,0,0,1,275,29.9a7.5,7.5,0,0,0-5.6-10.83,119.4,119.4,0,0,0-38.88,0A7.5,7.5,0,0,0,225,29.9,22.21,22.21,0,0,1,227.5,40,22.52,22.52,0,0,1,205,62.52a22.3,22.3,0,0,1-21.44-16.11,7.49,7.49,0,0,0-11.52-4,134.66,134.66,0,0,0-32.13,32.13,7.49,7.49,0,0,0,4,11.52A22.3,22.3,0,0,1,160,107.52,22.52,22.52,0,0,1,137.5,130a22.26,22.26,0,0,1-10.13-2.55,7.5,7.5,0,0,0-10.82,5.61A132.77,132.77,0,0,0,115,152.52h15C130,149.88,130.11,147.17,130.34,144.29Z"/><path d="M220,152.52h15a15,15,0,1,1,30,0h15a30,30,0,0,0-60,0Z"/><path d="M302.5,152.52h15a67.5,67.5,0,0,0-135,0h15a52.5,52.5,0,1,1,105,0Z"/><path d="M85,407.52H415v-210H85Zm15-195H400v180H100Z"/></svg>