<?xml version="1.0" encoding="utf-8"?>
<!-- Generator: Adobe Illustrator 22.1.0, SVG Export Plug-In . SVG Version: 6.00 Build 0)  -->
<svg version="1.1" id="Layer_1" xmlns="http://www.w3.org/2000/svg" xmlns:xlink="http://www.w3.org/1999/xlink" x="0px" y="0px"
	 viewBox="0 0 500 500" style="enable-background:new 0 0 500 500;" xml:space="preserve">
<title>Artboard 1</title>
<path d="M298.7,414.1l-14.3,14.3h-65.8l-14.3-14.3H22v24.5l32.9,32.9h393.2l32.9-32.9v-24.5H298.7z M466.7,432.7l-24.5,24.5H60.8
	l-24.5-24.5v-4.2h162l14.3,14.3h77.7l14.3-14.3h162V432.7z"/>
<path d="M79.4,199c0-7.9,6.4-14.3,14.3-14.3l0,0h315.6c7.9,0,14.3,6.4,14.3,14.3l0,0v200.8H438V199c0-15.8-12.8-28.7-28.7-28.7H93.7
	C77.9,170.3,65,183.1,65,199v200.8h14.3V199z"/>
<polygon points="338.2,317.3 279.7,244.2 222.3,330.3 166,260 133.8,292.2 122.4,292.2 122.4,306.6 139.7,306.6 164.8,281.4 
	223.3,354.6 280.7,268.5 337,338.8 369.2,306.6 380.6,306.6 380.6,292.2 363.3,292.2 "/>
<path d="M137.1,148.1c2.3,0.5,4.5,0.7,6.8,0.7c19.8,0,35.8-16.1,35.9-35.9c0.1-12.2-6.2-23.6-16.6-30.1c4.6-5.5,9.6-10.6,15.1-15.1
	c6.5,10.3,17.9,16.6,30.1,16.6c19.8,0,35.8-16.1,35.9-35.9c0-2.3-0.2-4.6-0.7-6.8c5.2-0.4,10.5-0.4,15.7,0c-0.5,2.3-0.7,4.5-0.7,6.8
	c0,19.8,16.1,35.9,35.9,35.9c12.2,0,23.6-6.2,30.1-16.6c5.5,4.6,10.6,9.6,15.1,15.1c-10.4,6.5-16.6,17.9-16.6,30.1
	c0,19.8,16.1,35.8,35.9,35.8c2.3,0,4.6-0.2,6.8-0.7c0.2,2.8,0.3,5.3,0.3,7.9h14.3c0-6.2-0.5-12.4-1.5-18.6c-0.6-3.9-4.2-6.6-8.1-6.1
	c-0.8,0.1-1.5,0.4-2.2,0.7c-3,1.6-6.3,2.4-9.7,2.4c-11.9,0-21.5-9.6-21.5-21.5c0-9.5,6.3-17.9,15.4-20.5c3.8-1.1,6-5.1,4.9-8.9
	c-0.2-0.8-0.6-1.5-1-2.1c-8.4-11.9-18.8-22.3-30.7-30.7c-3.2-2.3-7.7-1.5-10,1.7c-0.5,0.6-0.8,1.4-1,2.1c-2.6,9.1-11,15.4-20.5,15.4
	c-11.9,0-21.5-9.6-21.5-21.5c0-3.4,0.8-6.7,2.4-9.7c1.8-3.5,0.4-7.8-3.1-9.6c-0.7-0.4-1.5-0.6-2.2-0.7c-12.3-2-24.9-2-37.2,0
	c-3.9,0.6-6.6,4.3-6,8.2c0.1,0.8,0.4,1.5,0.7,2.2c1.6,3,2.4,6.3,2.4,9.7c0,11.9-9.6,21.5-21.5,21.5c-9.5,0-17.9-6.3-20.5-15.4
	c-1.1-3.8-5.1-6-8.9-4.9c-0.8,0.2-1.5,0.6-2.1,1c-11.9,8.4-22.3,18.8-30.7,30.7c-2.3,3.2-1.5,7.7,1.7,10c0.6,0.5,1.4,0.8,2.1,1
	c9.1,2.6,15.4,11,15.4,20.5c0,11.9-9.6,21.5-21.5,21.5c-3.4,0-6.7-0.9-9.7-2.4c-3.5-1.8-7.8-0.4-9.6,3.1c-0.4,0.7-0.6,1.4-0.7,2.2
	c-1,6.2-1.4,12.4-1.5,18.6h14.3C136.8,153.4,136.9,150.8,137.1,148.1z"/>
<path d="M222.8,156h14.3c0-7.9,6.4-14.3,14.3-14.3c7.9,0,14.3,6.4,14.3,14.3h14.3c0-15.8-12.8-28.7-28.7-28.7S222.8,140.1,222.8,156
	z"/>
<path d="M301.7,156H316c0-35.6-28.9-64.5-64.5-64.5S187,120.3,187,156h14.3c0-27.7,22.5-50.2,50.2-50.2S301.7,128.2,301.7,156z"/>
<path d="M93.7,399.8h315.6V199H93.7V399.8z M108.1,213.3h286.9v172.1H108.1V213.3z"/>
</svg>
