<svg id="Layer_1" data-name="Layer 1" xmlns="http://www.w3.org/2000/svg" viewBox="0 0 1000 1000"><title>Artboard 1</title><rect x="237.49" y="499.54" width="174.83" height="25.87" transform="translate(-238.91 288.18) rotate(-35.93)"/><path d="M639.83,251a51,51,0,0,0-64.38-32.85A51.15,51.15,0,0,0,540.51,273L141.75,562.15a51.14,51.14,0,0,0-56.53-17.69,51.18,51.18,0,0,0-32.72,64.38L80.43,695A51.07,51.07,0,0,0,129,730.24a52.16,52.16,0,0,0,15.86-2.49A50.91,50.91,0,0,0,180,680.25h71.85a111.34,111.34,0,0,0,222.19,0H672.64a50.27,50.27,0,0,0,21.5,20.82,51,51,0,0,0,23.23,5.62h0a51,51,0,0,0,45.51-27.88,50.72,50.72,0,0,0,3-39ZM174.72,654.38,152.6,586.22,454.14,367.55,547.2,654.39Zm301.44-302.8,71.95-52.17,115.19,355H574.4Zm-324.65,339a25.12,25.12,0,0,1-14.6,12.53,26.22,26.22,0,0,1-7.94,1.25,25,25,0,0,1-11.39-2.73A25.36,25.36,0,0,1,105,687l-27.9-86.05a25.31,25.31,0,0,1,16.1-31.86,26.23,26.23,0,0,1,7.93-1.25,24.66,24.66,0,0,1,11.45,2.81,24.93,24.93,0,0,1,12.5,14.65l19.21,59.2,8.69,26.8A25.38,25.38,0,0,1,151.51,690.6Zm237.85,63.65a85.25,85.25,0,0,1-111.55-74H448.18A85.64,85.64,0,0,1,389.36,754.25Zm350.5-87.2a25.14,25.14,0,0,1-22.48,13.78h0a25.3,25.3,0,0,1-24-17.49L624.22,450.18l-57-175.67a25.23,25.23,0,1,1,48-15.56l126.12,388.9A25,25,0,0,1,739.86,667.05Z"/><rect x="754.61" y="393.35" width="137.63" height="25.86" transform="translate(-85.16 273.72) rotate(-17.96)"/><rect x="811.26" y="428.06" width="25.86" height="137.59" transform="translate(107.63 1139.26) rotate(-72.96)"/><rect x="702.02" y="319.62" width="137.72" height="25.86" transform="translate(41.17 747.72) rotate(-52.97)"/><path d="M811.67,360.85a8.18,8.18,0,1,0-10.32-5.22A8.17,8.17,0,0,0,811.67,360.85Z"/><path d="M868.72,303.38a19.06,19.06,0,1,0-24-12.27A19.11,19.11,0,0,0,868.72,303.38Z"/><path d="M718.3,269.93a10.9,10.9,0,1,0-6.72-20.74,10.9,10.9,0,0,0,6.72,20.74Z"/><path d="M924.5,533.28a8.16,8.16,0,1,0,5.05,15.52,8.16,8.16,0,0,0-5.05-15.52Z"/><path d="M948.81,440.27A24.51,24.51,0,1,0,933,471.13,24.53,24.53,0,0,0,948.81,440.27Z"/><path d="M822.1,548.53a21.83,21.83,0,1,0,27.48,14A21.9,21.9,0,0,0,822.1,548.53Z"/></svg>