<svg id="Layer_1" data-name="Layer 1" xmlns="http://www.w3.org/2000/svg" viewBox="0 0 1000 1000"><title>Artboard 8</title><path d="M950,729l0-62-47.39-18.07A165,165,0,0,0,891,621.09l20.74-46.27-43.84-43.9-46.32,20.76a166.42,166.42,0,0,0-27.82-11.55l-18.07-47.4h-62l-18,47.4a165.6,165.6,0,0,0-27.8,11.54l-46.29-20.75-43.87,43.89,20.74,46.27a165.32,165.32,0,0,0-11.56,27.84l-47.39,18v62l47.39,18.08a165.17,165.17,0,0,0,11.56,27.8l-20.74,46.31L621.54,865l46.29-20.72a166,166,0,0,0,27.8,11.52l18,47.4h62l18.09-47.4a166.87,166.87,0,0,0,27.8-11.53L867.93,865l43.84-43.84L891,774.88a165,165,0,0,0,11.58-27.8Zm-71-3.38-1.85,7.09A136.3,136.3,0,0,1,862.84,767l-3.69,6.32,18.63,41.6L861.66,831l-41.58-18.6-6.31,3.68a138.34,138.34,0,0,1-34.36,14.25l-7.06,1.87-16.24,42.53H733.3L717.1,832.23,710,830.37a137.19,137.19,0,0,1-34.33-14.24l-6.32-3.7L627.8,831l-16.13-16.11,18.64-41.61L626.59,767a136.81,136.81,0,0,1-14.27-34.3l-1.86-7.06L567.93,709.4V686.59l42.53-16.2,1.86-7.07A136.78,136.78,0,0,1,626.59,629l3.71-6.33-18.64-41.57,16.13-16.14,41.58,18.65,6.33-3.71A136.77,136.77,0,0,1,710,565.6l7.07-1.87L733.3,521.2H756.1l16.22,42.54,7.07,1.86a137.81,137.81,0,0,1,34.37,14.27l6.32,3.69,41.58-18.64,16.11,16.13-18.63,41.57,3.69,6.32a136.47,136.47,0,0,1,14.28,34.33l1.85,7.09,42.56,16.23v22.8Z"/><path d="M744.71,610.58A87.4,87.4,0,1,0,832.08,698,87.51,87.51,0,0,0,744.71,610.58Zm0,146.33A58.93,58.93,0,1,1,803.61,698,59,59,0,0,1,744.71,756.92Z"/><rect x="50" y="475.14" width="80.96" height="28.47"/><rect x="130.96" y="583.61" width="87.06" height="28.47"/><rect x="130.96" y="637.81" width="87.06" height="28.47"/><rect x="130.96" y="800.5" width="87.06" height="28.47"/><rect x="130.96" y="854.73" width="87.06" height="28.47"/><rect x="50" y="529.34" width="168.03" height="28.47"/><rect x="50" y="692.05" width="80.96" height="28.47"/><rect x="130.96" y="366.67" width="87.06" height="28.47"/><rect x="130.96" y="420.89" width="87.06" height="28.47"/><rect x="50" y="312.42" width="168.03" height="28.47"/><rect x="50" y="746.28" width="168.03" height="28.47"/><rect x="252.08" y="800.51" width="87.07" height="28.47"/><rect x="252.08" y="854.74" width="168.03" height="28.47"/><rect x="320.22" y="147.36" width="28.48" height="28.47"/><rect x="377.16" y="147.36" width="28.48" height="28.47"/><rect x="434.11" y="147.36" width="28.48" height="28.47"/><path d="M279.09,226.42H788.4V480.49h28.47V96.76H250.62v678H515.79V746.28H279.09Zm0-101.19H788.4V198H279.09Z"/><path d="M600,382.85A44.73,44.73,0,0,0,568.4,306.5H517.57a14.24,14.24,0,0,0-14.24,14.24V457h28.47V396h36.6A44.47,44.47,0,0,0,600,382.85ZM531.81,335h36.6a16.26,16.26,0,1,1,0,32.52h-36.6Z"/><path d="M474.88,457V351.23a44.73,44.73,0,0,0-44.73-44.73H409.81a44.74,44.74,0,0,0-44.73,44.73V457h28.47V396h52.86v61Zm-81.33-89.47V351.23A16.26,16.26,0,0,1,409.81,335h20.33a16.25,16.25,0,0,1,16.26,16.26v16.26Z"/><polygon points="702.42 334.97 702.42 306.5 641.41 306.5 641.41 334.97 657.68 334.97 657.68 428.49 641.41 428.49 641.41 456.96 702.42 456.96 702.42 428.49 686.15 428.49 686.15 334.97 702.42 334.97"/></svg>