<svg xmlns="http://www.w3.org/2000/svg" viewBox="0 0 142.62 142.62"><title>application-authorization</title><g id="Layer_2" data-name="Layer 2"><g id="Layer_1-2" data-name="Layer 1"><polygon points="95.82 127.02 104.73 127.02 104.73 131.47 95.82 131.47 95.82 138.16 86.91 138.16 86.91 93.59 82.45 93.59 82.45 142.62 100.28 142.62 100.28 135.93 109.19 135.93 109.19 122.56 95.82 122.56 95.82 127.02"/><path d="M42.34,44.57A24.52,24.52,0,0,1,85.12,28.22l3.32-3A29,29,0,0,0,40.52,56.6L0,97.13v14.29H22.28v-6.69H31.2V95.82h8.91V85.6L50.6,75.11,47.45,72l-11.8,11.8v7.6H26.74v8.92H17.83V107H4.46V99L42.78,60.65A29,29,0,0,0,57.39,72l1.46-4.22A24.51,24.51,0,0,1,42.34,44.57Z"/><path d="M51.25,44.57A15.62,15.62,0,0,1,66.85,29V24.51a20.08,20.08,0,0,0-20,20.06Z"/><path d="M142.62,31.2A31.2,31.2,0,0,0,85.13,14.4l3.75,2.4a26.74,26.74,0,1,1,31.21,39.69A29,29,0,1,0,91.36,89.14a28.46,28.46,0,0,0,4.46-.35V118.1h13.37v-4.45h-8.91V87.73a29,29,0,0,0,20-26.63A31.26,31.26,0,0,0,142.62,31.2ZM91.36,84.68a24.52,24.52,0,1,1,24.38-27.1A26.64,26.64,0,0,1,101.42,56a11,11,0,0,0,1.09-4.76,11.2,11.2,0,1,0-3.87,8.42,31.16,31.16,0,0,0,12.78,2.73,31.54,31.54,0,0,0,4.37-.32A24.53,24.53,0,0,1,91.36,84.68ZM92.43,50l-3.17,3.14a31.5,31.5,0,0,0,5,4.1,6.59,6.59,0,0,1-2.91.68A6.7,6.7,0,1,1,97.45,54,26.52,26.52,0,0,1,92.43,50Z"/></g></g></svg>