<svg id="Layer_1" data-name="Layer 1" xmlns="http://www.w3.org/2000/svg" viewBox="0 0 500 500"><title>Artboard 12</title><path d="M417.39,256.87H339.59a32.61,32.61,0,0,1,0-65.21h77.81a32.61,32.61,0,0,1,0,65.21Zm-77.81-51.45a18.84,18.84,0,0,0,0,37.68h77.81a18.84,18.84,0,0,0,0-37.68Z"/><path d="M402.84,308.31H339.59a32.61,32.61,0,0,1,0-65.21h63.25a32.61,32.61,0,0,1,0,65.21Zm-63.25-51.45a18.84,18.84,0,0,0,0,37.68h63.25a18.84,18.84,0,0,0,0-37.68Z"/><path d="M388.59,359.76h-49a32.61,32.61,0,0,1,0-65.21h49a32.61,32.61,0,0,1,0,65.21Zm-49-51.45a18.84,18.84,0,0,0,0,37.68h49a18.84,18.84,0,0,0,0-37.68Z"/><path d="M374.32,411.2H339.59a32.61,32.61,0,0,1,0-65.21h34.73a32.61,32.61,0,0,1,0,65.21Zm-34.73-51.45a18.84,18.84,0,0,0,0,37.68h34.73a18.84,18.84,0,0,0,0-37.68Z"/><rect x="153.62" y="397.4" width="185.96" height="13.77"/><path d="M339.59,205.42h-49a6.88,6.88,0,0,1-6.09-10.08,155.71,155.71,0,0,0,13.18-34.54,150.85,150.85,0,0,0,4.38-36.09v-16a18.84,18.84,0,0,0-37.68,0c0,13-2.32,23.78-8,37.35a102.44,102.44,0,0,1-22.59,33.54,89.91,89.91,0,0,1-63,25.85H153.62V191.65h17.12a76.16,76.16,0,0,0,53.37-21.89,88.74,88.74,0,0,0,19.56-29.06c4.93-11.76,6.94-21,6.94-32a32.6,32.6,0,0,1,65.21,0v16A164.68,164.68,0,0,1,311,164.09a167.57,167.57,0,0,1-9.49,27.56h38Z"/><path d="M191.71,334h-14V320.27h14A70.37,70.37,0,0,0,262,250h13.77A84.16,84.16,0,0,1,191.71,334Z"/><path d="M153.62,423.92H50V410.16h96.74V192.66H50V178.89H153.62a6.88,6.88,0,0,1,6.88,6.88V417A6.88,6.88,0,0,1,153.62,423.92Z"/><rect x="116.91" y="377.36" width="13.77" height="13.77"/><rect x="89.38" y="377.36" width="13.77" height="13.77"/></svg>