<svg id="Layer_1" data-name="Layer 1" xmlns="http://www.w3.org/2000/svg" viewBox="0 0 500 500"><title>Artboard 2</title><path d="M119.88,33.13H10V143H119.88Zm-17.35,92.53H27.35V50.48h75.18Z"/><path d="M380.12,33.13V143H490V33.13Zm92.53,92.53H397.47V50.48h75.18Z"/><path d="M10,466.87H119.88V357H10Zm17.35-92.53h75.18v75.18H27.35Z"/><path d="M380.12,466.87H490V357H380.12Zm17.35-92.53h75.18v75.18H397.47Z"/><path d="M435.55,227.35a27.75,27.75,0,0,0,8.19-19.76V161.33H426.39v46.27a10.61,10.61,0,0,1-10.6,10.6h-9.64v17.35h9.64A27.76,27.76,0,0,0,435.55,227.35Z"/><path d="M406.14,281.81h9.64a10.61,10.61,0,0,1,10.6,10.6v46.27h17.35V292.41a28,28,0,0,0-28-28h-9.64Z"/><path d="M93.86,218.19H84.22a10.6,10.6,0,0,1-10.6-10.6V161.33H56.27v46.27a28,28,0,0,0,28,28h9.64Z"/><path d="M64.45,272.65a27.75,27.75,0,0,0-8.19,19.76v46.27H73.61V292.41a10.61,10.61,0,0,1,10.6-10.6h9.64V264.46H84.22A27.76,27.76,0,0,0,64.45,272.65Z"/><path d="M258.67,319.4H388.8V180.6H258.67V143h46.27V33.13H195.06V143h46.27V180.6H111.2V319.4H241.33V357H195.06V466.87H304.94V357H258.67ZM212.41,125.66V50.48h75.18v75.18H258.67V88.07H241.33v37.59ZM128.55,302V198H371.45V302Zm159,72.29v75.18H212.41V374.34h28.92v37.59h17.35V374.34Z"/><rect x="206.63" y="241.33" width="17.35" height="17.35"/><rect x="241.33" y="241.33" width="17.35" height="17.35"/><rect x="276.02" y="241.33" width="17.35" height="17.35"/></svg>