<?xml version="1.0" encoding="utf-8"?>
<!-- Generator: Adobe Illustrator 22.1.0, SVG Export Plug-In . SVG Version: 6.00 Build 0)  -->
<svg version="1.1" id="Layer_1" xmlns="http://www.w3.org/2000/svg" xmlns:xlink="http://www.w3.org/1999/xlink" x="0px" y="0px"
	 viewBox="0 0 500 500" style="enable-background:new 0 0 500 500;" xml:space="preserve">
<title>atom</title>
<g id="Layer_2_1_">
	<g id="Layer_1-2">
		<path d="M432.2,200.6c-0.9-0.5-1.6-0.9-2.4-1.3c-11.5-6.3-23.5-11.5-36-15.6l-0.4-0.2l-2.4-0.8l-2-0.6l-0.7-0.2
			c-4.4-1.4-8.9-2.7-13.5-3.9c1.3-4.7,2.4-9.2,3.4-13.7l0.2-0.7c0-0.7,0.3-1.3,0.4-2c0.2-0.7,0.3-1.6,0.5-2.5v-0.4
			c2.7-12.8,4.3-25.9,4.5-39.1c0-0.9,0-1.8,0-2.7c0-27.8-8.3-47.6-24.4-56.8l0,0c-16-9.2-37.2-6.4-61.3,7.4c-0.9,0.5-1.6,1-2.3,1.5
			c-11.2,6.8-21.8,14.7-31.5,23.5l-0.3,0.3l-1.9,1.7l-1.5,1.4l-0.5,0.5c-3.4,3.1-6.8,6.3-10.2,9.8c-14.3-14.9-30.5-27.9-48.2-38.5
			c-24.1-13.8-45.2-16.6-61.2-7.4l0,0c-16,9.2-24.2,29-24.2,56.8c0.3,20.7,3.4,41.2,9.2,61c-20.1,5-39.4,12.6-57.5,22.7
			c-24,14.1-37,31.1-37,49.4l0,0c0,18.3,13,35.4,37,49.4c18.1,10,37.4,17.6,57.5,22.6c-5.7,19.8-8.8,40.4-9.2,61
			c0,27.8,8.3,47.6,24.4,56.8l0,0c16,9.2,37.1,6.4,61.3-7.4c17.7-10.7,33.9-23.6,48.2-38.5c3.4,3.4,6.8,6.7,10.2,9.8l0.5,0.5
			l1.5,1.4l1.9,1.7l0.3,0.3c9.8,8.8,20.3,16.6,31.5,23.5c0.7,0.5,1.5,1,2.3,1.5c24.2,13.8,45.4,16.6,61.3,7.4l0,0
			c16-9.2,24.1-29,24.4-56.8c0-0.9,0-1.8,0-2.7c-0.3-13.1-1.8-26.2-4.5-39.1c0-0.2,0-0.3,0-0.4c-0.2-0.8-0.4-1.6-0.5-2.5
			s-0.3-1.3-0.4-2l-0.2-0.7c-1-4.5-2.1-9.2-3.4-13.7c4.6-1.3,9.2-2.6,13.5-3.9l0.7-0.2l2-0.6l2.4-0.8h0.4
			c12.5-4.1,24.6-9.3,36.1-15.6c0.8-0.4,1.6-0.8,2.4-1.3c23.7-14.2,36.7-31.3,36.7-49.6l0,0C469.3,231.7,456.3,214.6,432.2,200.6z
			 M250,372c-10.3-11.4-20.1-23.3-29.2-35.7l5.6,0.2c7.8,0.3,15.7,0.5,23.6,0.5c9.9,0,19.7-0.2,29.3-0.7
			C270.1,348.7,260.4,360.7,250,372z M250,128.2c10.4,11.4,20.1,23.3,29.3,35.7c-9.6-0.5-19.4-0.7-29.3-0.7c-7.9,0-15.8,0-23.6,0.5
			l-5.6,0.2c9.1-12.5,18.9-24.4,29.2-35.9V128.2z M290.6,320.4c-11.3,0.9-23.1,1.3-34.9,1.5h-11.4c-11.2,0-22.3-0.6-33.1-1.3h-1.7
			c-6.4-9.4-12.7-19.3-18.7-29.5l-2.9-4.9l-2.8-5c-5.5-9.8-10.6-19.6-15.3-29.3c-0.3-0.5-0.5-1-0.8-1.6c0.2-0.5,0.5-1,0.8-1.6
			c4.7-9.7,9.9-19.6,15.3-29.3l2.8-5l2.9-4.9c6.1-10.2,12.2-20.1,18.7-29.5h1.7c10.8-0.8,21.9-1.2,33.1-1.3h11.4
			c11.8,0,23.6,0.6,34.9,1.5c0.3,0.5,0.6,0.9,1,1.4c6.1,9,12,18.3,17.7,28l2.9,4.9l2.8,5c5.8,10.3,11.2,20.7,16.2,30.9
			c-4.9,10.3-10.3,20.6-16.2,30.9l-2.8,5l-2.9,4.9c-5.7,9.6-11.7,19-17.7,28c-0.4,0.2-0.7,0.6-1,1V320.4z M174.6,206.6
			c-4,6.9-7.7,13.8-11.4,20.7l-2.6,5c-6.2-14.1-11.6-28.6-16.3-43.3c15-3.3,30.2-5.8,45.5-7.4C184.7,189.6,179.6,198.1,174.6,206.6
			L174.6,206.6z M160.7,267.8l2.6,5c3.6,6.9,7.4,13.8,11.4,20.7c4.9,8.5,10.1,16.9,15.3,25c-15.3-1.7-30.5-4.1-45.5-7.4
			C149.1,296.3,154.5,281.9,160.7,267.8z M313.1,313.7c4.2-6.6,8.3-13.3,12.2-20.2c4.9-8.5,9.6-17.1,14-25.7
			c6.2,14.1,11.6,28.5,16.3,43.2c-15,3.3-30.2,5.8-45.5,7.5L313.1,313.7z M339.3,232.2c-4.4-8.5-9.2-17.1-14-25.7
			c-4-6.9-8-13.6-12.2-20.2l-3.1-4.7c15.3,1.7,30.5,4.2,45.5,7.4C350.9,203.7,345.5,218.1,339.3,232.2z M288.7,92.2l0.7-0.5l1.2-0.8
			l1.6-1.2l0.5-0.4l4.8-3.3l0,0c9.2-6.5,19.5-11.3,30.3-14.5l0,0c9.6-2.4,17.8-1.9,24.4,1.8c6.6,3.7,11,10.6,13.7,20.1l0,0
			c2.7,11,3.6,22.3,2.7,33.6l0,0c0,1.9-0.2,3.8-0.4,5.8c0,0.2,0,0.4,0,0.6c0,0.6,0,1.3-0.2,2c-0.2,0.7,0,0.9-0.2,1.4
			c-0.2,0.5,0,0.6,0,0.9c-1.6,12.4-4.1,24.7-7.4,36.8c-20.1-4.4-40.5-7.5-61-9.2c-11.8-17-24.8-33.1-38.8-48.4
			C269.4,108.1,278.8,99.8,288.7,92.2z M131.4,110.9c1.2-18.7,6.7-31.7,16.6-37.6c9.9-5.9,24.1-3.9,40.8,4.5
			c15.3,7.7,32.6,21,50.7,39.2c-13.9,15.2-26.7,31.2-38.4,48.1c-20.5,1.7-40.9,4.7-61,9.2C133.4,149.7,130.6,128,131.4,110.9z
			 M46,250c0-11.4,8.7-22.8,24.4-33c14.3-9.4,34.5-17.8,59.2-24.4c6.2,19.6,13.7,38.8,22.4,57.4c-8.8,18.6-16.3,37.8-22.5,57.4
			c-24.7-6.6-44.9-14.9-59.2-24.4C54.7,272.8,46,261.4,46,250z M188.8,422.2c-16.7,8.5-30.9,10.3-40.8,4.5
			c-9.9-5.7-15.3-18.9-16.4-37.6c-0.9-17.1,1.9-38.8,8.6-63.5c20.1,4.4,40.5,7.5,61,9.2c11.7,16.9,24.6,33,38.4,48.1
			C221.4,401.1,204.1,414.4,188.8,422.2z M365.7,406.6L365.7,406.6c-2.7,9.5-7.3,16.4-13.7,20.1c-6.4,3.7-14.7,4.2-24.4,1.8l0,0
			c-10.8-3.1-21.1-8-30.3-14.5l0,0l-4.8-3.3l-0.5-0.4l-1.6-1.2l-1.2-0.8l-0.7-0.5c-10-7.6-19.4-15.9-28.2-24.8
			c13.9-15.2,26.8-31.3,38.6-48.2c20.5-1.7,40.9-4.7,61-9.2c3.3,12.1,5.8,24.4,7.4,36.8c0,0.3,0,0.6,0,0.9c0,0.3,0,0.9,0.2,1.4
			c0.2,0.5,0,1.3,0.2,2c0,0.2,0,0.4,0,0.6c0.2,2,0.3,3.9,0.4,5.8l0,0C369.2,384.4,368.3,395.7,365.7,406.6L365.7,406.6z
			 M443.5,271.9L443.5,271.9c-8.1,7.8-17.5,14.2-27.7,19l0,0c-1.7,0.9-3.4,1.7-5.2,2.5l-0.6,0.3l-1.8,0.8l-1.3,0.6l-0.8,0.3
			c-11.6,4.8-23.4,8.9-35.6,12c-6.2-19.6-13.7-38.8-22.5-57.4c8.7-18.6,16.2-37.8,22.5-57.4c12.1,3.2,24,7.2,35.5,12l0.8,0.3
			l1.3,0.6l1.8,0.8l0.6,0.3c1.8,0.8,3.5,1.6,5.2,2.5l0,0c10.2,4.8,19.6,11.2,27.7,19l0,0c6.9,7.1,10.5,14.5,10.5,21.9
			S450.4,264.8,443.5,271.9z"/>
		<path d="M282.5,228.9c1.6-12.5-1.5-21-9.7-24.9c6.1,4.3,6.4,12.2,1.6,21c-9.4,17-40.4,35-72.2,44.8c3.1,7.3,7.8,13.8,13.8,19
			c3.7,3,7.8,5.7,12.1,7.8C255.5,280.5,279.2,253.3,282.5,228.9"/>
		<path d="M298.1,268.5c0.2-0.7,0.5-1.3,0.7-1.9c0.2-0.6,0.5-1.5,0.7-2.3c0.2-0.8,0.5-1.7,0.7-2.5l0.4-1.9c0.3-1.5,0.5-3.1,0.7-4.5
			c0-0.2,0-0.3,0-0.5c0-1.4,0.2-2.8,0.2-4.3c0-0.5,0-1,0-1.4c0-1.1,0-2.2,0-3.3c0-0.6,0-1.1,0-1.7c-0.2-1-0.3-2.1-0.5-3.1
			c-0.2-0.9-0.4-1.9-0.6-2.9c-0.2-0.9-0.4-1.8-0.7-2.7c-0.3-0.9-0.5-1.5-0.8-2.3c-0.2-0.7-0.5-1.4-0.8-2c-0.3-0.7-0.6-1.4-0.9-2.1
			l-1-2.2c-0.3-0.6-0.6-1.2-0.9-1.8c-0.7-1.3-1.5-2.6-2.3-3.8c-0.1-0.1-0.2-0.2-0.2-0.3c-0.8-1.2-1.6-2.3-2.5-3.4l-0.8-0.9
			c-0.5-0.5-0.9-1-1.4-1.5c2.2,5.2,1.6,16,0.2,23.8c-4.1,21.4-20.7,43.7-45.8,62.1c2.5,0.4,5,0.6,7.6,0.6c6.5,0,13-1.2,19-3.7
			c11-4.5,20.2-12.5,26.1-22.8c0.5-0.9,1-1.9,1.4-2.9c0.2-0.4,0.4-0.8,0.6-1.3c0.2-0.4,0.7-1.7,1.1-2.5"/>
		<path d="M268.1,217.9c4.7-8.5,2.2-14.7-5.5-17.9c-27.6-6.9-55.6,9.8-62.5,37.4c-1.7,6.7-2,13.7-0.9,20.5
			c29.7-6.7,60.2-24.4,68.9-40.1"/>
	</g>
</g>
</svg>
