<svg xmlns="http://www.w3.org/2000/svg" viewBox="0 0 146.47 146.47"><title>authentication</title><g id="Layer_2" data-name="Layer 2"><g id="Layer_1-2" data-name="Layer 1"><path d="M91.55,64.5V57.22a16,16,0,0,0-16-16H71a16,16,0,0,0-16,16V64.5A6.86,6.86,0,0,0,50.35,71V98.41a6.88,6.88,0,0,0,6.87,6.87h32a6.87,6.87,0,0,0,6.86-6.87V71A6.86,6.86,0,0,0,91.55,64.5ZM71,45.77h4.58A11.46,11.46,0,0,1,87,57.22v6.86H59.51V57.22A11.46,11.46,0,0,1,71,45.77Zm20.6,52.64a2.3,2.3,0,0,1-2.29,2.29h-32a2.29,2.29,0,0,1-2.29-2.29V71a2.29,2.29,0,0,1,2.29-2.29h32A2.3,2.3,0,0,1,91.55,71Z"/><path d="M73.24,75.53A4.56,4.56,0,0,0,71,84v9.8h4.58V84a4.56,4.56,0,0,0-2.29-8.51Z"/><path d="M36.62,75.53V71H18a9.15,9.15,0,1,0,0,4.58ZM9.15,77.81a4.58,4.58,0,1,1,4.58-4.57A4.58,4.58,0,0,1,9.15,77.81Z"/><path d="M137.32,64.08A9.15,9.15,0,0,0,128.49,71H109.86v4.58h18.63a9.14,9.14,0,1,0,8.83-11.45Zm0,13.73a4.58,4.58,0,1,1,4.58-4.57A4.58,4.58,0,0,1,137.32,77.81Z"/><path d="M121.3,110.18V98.41A11.45,11.45,0,0,0,109.86,87H100.7v4.58h9.16a6.87,6.87,0,0,1,6.86,6.86v11.77a9.16,9.16,0,1,0,4.58,0ZM119,123.59a4.58,4.58,0,1,1,4.58-4.58A4.59,4.59,0,0,1,119,123.59Z"/><path d="M25.18,98.41v11.77a9.16,9.16,0,1,0,4.57,0V98.41a6.87,6.87,0,0,1,6.87-6.86h9.15V87H36.62A11.45,11.45,0,0,0,25.18,98.41ZM32,119a4.58,4.58,0,1,1-4.58-4.58A4.59,4.59,0,0,1,32,119Z"/><path d="M121.3,48.06V36.29a9.15,9.15,0,1,0-4.58,0V48.06a6.87,6.87,0,0,1-6.86,6.87H100.7v4.58h9.16A11.46,11.46,0,0,0,121.3,48.06Zm-6.87-20.6A4.58,4.58,0,1,1,119,32,4.58,4.58,0,0,1,114.43,27.46Z"/><path d="M29.75,48.06V36.29a9.16,9.16,0,1,0-4.57,0V48.06A11.46,11.46,0,0,0,36.62,59.51h9.15V54.93H36.62A6.88,6.88,0,0,1,29.75,48.06Zm-6.86-20.6A4.58,4.58,0,1,1,27.46,32,4.58,4.58,0,0,1,22.89,27.46Z"/><path d="M59.51,109.86a9.13,9.13,0,0,0-2.29,18v18.63h4.57V127.84a9.13,9.13,0,0,0-2.28-18Zm0,13.73A4.58,4.58,0,1,1,64.08,119,4.59,4.59,0,0,1,59.51,123.59Z"/><path d="M87,109.86a9.13,9.13,0,0,0-2.29,18v18.63h4.58V127.84a9.13,9.13,0,0,0-2.29-18Zm0,13.73A4.58,4.58,0,1,1,91.55,119,4.59,4.59,0,0,1,87,123.59Z"/><path d="M59.51,36.62a9.14,9.14,0,0,0,2.28-18V0H57.22V18.63a9.14,9.14,0,0,0,2.29,18Zm0-13.73a4.58,4.58,0,1,1-4.58,4.57A4.58,4.58,0,0,1,59.51,22.89Z"/><path d="M89.26,18.63V0H84.68V18.63a9.15,9.15,0,1,0,4.58,0ZM87,32a4.58,4.58,0,1,1,4.58-4.58A4.58,4.58,0,0,1,87,32Z"/><rect x="100.7" y="70.95" width="4.58" height="4.58"/><rect x="41.2" y="70.95" width="4.58" height="4.58"/></g></g></svg>