<?xml version="1.0" encoding="utf-8"?>
<!-- Generator: Adobe Illustrator 22.1.0, SVG Export Plug-In . SVG Version: 6.00 Build 0)  -->
<svg version="1.1" id="_x34_2_x5F_awareness_x5F_and_x5F_perception"
	 xmlns="http://www.w3.org/2000/svg" xmlns:xlink="http://www.w3.org/1999/xlink" x="0px" y="0px" viewBox="0 0 500 500"
	 style="enable-background:new 0 0 500 500;" xml:space="preserve">
<style type="text/css">
	.st0{fill:none;stroke:#222829;stroke-width:14;stroke-linejoin:round;stroke-miterlimit:10;}
	.st1{fill:none;stroke:#222829;stroke-width:14;stroke-miterlimit:10;}
</style>
<g>
	<line class="st0" x1="137.2" y1="187.7" x2="149.1" y2="187.7"/>
	<line class="st0" x1="107.5" y1="169.9" x2="119.4" y2="169.9"/>
	<line class="st0" x1="77.8" y1="152" x2="89.7" y2="152"/>
	<line class="st0" x1="184.7" y1="140.2" x2="196.6" y2="140.2"/>
	<line class="st0" x1="166.9" y1="110.5" x2="178.8" y2="110.5"/>
	<line class="st0" x1="149.1" y1="80.8" x2="161" y2="80.8"/>
	<line class="st0" x1="244.1" y1="92.7" x2="255.9" y2="92.7"/>
	<line class="st0" x1="244.1" y1="122.4" x2="255.9" y2="122.4"/>
	<line class="st0" x1="244.1" y1="63" x2="255.9" y2="63"/>
	<line class="st0" x1="362.8" y1="187.7" x2="350.9" y2="187.7"/>
	<line class="st0" x1="392.5" y1="169.9" x2="380.6" y2="169.9"/>
	<line class="st0" x1="422.2" y1="152" x2="410.3" y2="152"/>
	<line class="st0" x1="315.3" y1="140.2" x2="303.4" y2="140.2"/>
	<line class="st0" x1="333.1" y1="110.5" x2="321.2" y2="110.5"/>
	<line class="st0" x1="350.9" y1="80.8" x2="339" y2="80.8"/>
	<line class="st0" x1="89.7" y1="247" x2="101.6" y2="247"/>
	<line class="st0" x1="119.4" y1="247" x2="131.3" y2="247"/>
	<line class="st0" x1="60" y1="247" x2="71.9" y2="247"/>
	<line class="st0" x1="137.2" y1="306.4" x2="149.1" y2="306.4"/>
	<line class="st0" x1="107.5" y1="324.2" x2="119.4" y2="324.2"/>
	<line class="st0" x1="77.8" y1="342" x2="89.7" y2="342"/>
	<line class="st0" x1="410.3" y1="247" x2="398.4" y2="247"/>
	<line class="st0" x1="380.6" y1="247" x2="368.7" y2="247"/>
	<line class="st0" x1="440" y1="247" x2="428.1" y2="247"/>
	<line class="st0" x1="362.8" y1="306.4" x2="350.9" y2="306.4"/>
	<line class="st0" x1="392.5" y1="324.2" x2="380.6" y2="324.2"/>
	<line class="st0" x1="422.2" y1="342" x2="410.3" y2="342"/>
	<g>
		<line class="st1" x1="250" y1="401.4" x2="250" y2="437"/>
		<line class="st1" x1="250" y1="270.8" x2="250" y2="282.7"/>
		<line class="st1" x1="214.4" y1="383.6" x2="285.6" y2="383.6"/>
		<line class="st1" x1="214.4" y1="395.4" x2="214.4" y2="437"/>
		<path class="st1" d="M285.6,294.5v100.9h23.7V276.7c0-13.1-10.6-23.7-23.7-23.7h-71.2c-13.1,0-23.7,10.6-23.7,23.7v118.7h23.7
			V294.5"/>
		<line class="st1" x1="285.6" y1="437" x2="285.6" y2="395.4"/>
		<circle class="st1" cx="250" cy="205.5" r="23.7"/>
	</g>
</g>
</svg>
