<svg xmlns="http://www.w3.org/2000/svg" viewBox="0 0 85.03 85.03"><defs><style>.cls-1{fill:#003851;}</style></defs><title>Banking, Financial Services and Insurance</title><g id="Layer_2" data-name="Layer 2"><g id="Layer_1-2" data-name="Layer 1"><path class="cls-1" d="M80.53,26.57,71.23,8H59.09A21.22,21.22,0,0,0,25.94,8H13.79l-9.3,18.6H0v2.66H85V26.57ZM15.44,10.63h8.68a21.08,21.08,0,0,0-2.86,10.63h2.65a18.6,18.6,0,0,1,37.2,0h2.66a21.18,21.18,0,0,0-2.86-10.63h8.68l8,15.94H7.46Z"/><path class="cls-1" d="M9.3,42.51V66.43H6.64v5.31H4V74.4H81V71.74H78.38V66.43H75.73V42.51H73.07V66.43H67.76V42.51H65.1V66.43H62.44v5.31H59.78V66.43H57.13V42.51H54.47V66.43H49.16V42.51H46.5V66.43H43.84v5.31H41.18V66.43H38.53V42.51H35.87V66.43H30.56V42.51H27.9V66.43H25.24v5.31H22.59V66.43H19.93V42.51H17.27V66.43H12V42.51ZM65.1,69.08H75.73v2.66H65.1Zm-18.6,0H57.13v2.66H46.5Zm-18.6,0H38.53v2.66H27.9ZM9.3,71.74V69.08H19.93v2.66Z"/><path class="cls-1" d="M62.44,31.88H0v2.66H6.64v5.32h16V34.54h2.65v5.32H41.18V34.54h2.66v5.32H59.78V34.54h2.66v5.32H78.38V34.54H85V31.88H62.44ZM19.93,37.2H9.3V34.54H19.93Zm18.6,0H27.9V34.54H38.53Zm18.6,0H46.5V34.54H57.13Zm18.6,0H65.1V34.54H75.73Z"/><path class="cls-1" d="M42.51,8a6.65,6.65,0,1,0,6.65,6.64A6.65,6.65,0,0,0,42.51,8Zm0,10.63a4,4,0,1,1,4-4A4,4,0,0,1,42.51,18.6Z"/><rect class="cls-1" x="51.81" y="13.29" width="2.66" height="2.66"/><rect class="cls-1" x="30.56" y="13.29" width="2.66" height="2.66"/><path class="cls-1" d="M0,85H85v-8H0Zm2.66-5.32H82.37v2.66H2.66Z"/></g></g></svg>