<?xml version="1.0" encoding="utf-8"?>
<!-- Generator: Adobe Illustrator 22.1.0, SVG Export Plug-In . SVG Version: 6.00 Build 0)  -->
<svg version="1.1" id="Layer_1" xmlns="http://www.w3.org/2000/svg" xmlns:xlink="http://www.w3.org/1999/xlink" x="0px" y="0px"
	 viewBox="0 0 500 500" style="enable-background:new 0 0 500 500;" xml:space="preserve">
<style type="text/css">
	.st0{fill:#003851;}
</style>
<title>Banking, Financial Services and Insurance</title>
<g id="Layer_2_1_">
	<g id="Layer_1-2">
		<path class="st0" d="M438.6,170.9l-46.1-92.1h-60.2C296,33.4,229.8,26,184.3,62.3c-6.1,4.9-11.6,10.4-16.5,16.5h-60.3l-46.1,92.3
			H39.2v13.2h421.6v-13.3H438.6z M115.8,91.8h43.1c-9.3,16-14.2,34.2-14.2,52.7h13.1c0-51,41.3-92.3,92.3-92.3s92.3,41.3,92.3,92.3
			h13.2c0-18.5-4.9-36.7-14.2-52.7h43.1l39.7,79.1H76.2L115.8,91.8z"/>
		<path class="st0" d="M85.3,250v118.7H72.1V395H59v13.2h382V395h-13v-26.3h-13.1V250h-13.2v118.7h-26.3V250h-13.2v118.7h-13.2V395
			h-13.2v-26.3h-13.1V250h-13.2v118.7H283V250h-13.2v118.7h-13.2V395h-13.2v-26.3h-13.1V250h-13.2v118.7h-26.3V250h-13.2v118.7
			h-13.2V395h-13.1v-26.3H138V250h-13.2v118.7H98.7V250H85.3z M362.1,381.8h52.7V395h-52.7V381.8z M269.8,381.8h52.7V395h-52.7
			V381.8z M177.6,381.8h52.7V395h-52.7V381.8z M85.3,395v-13.2H138V395L85.3,395z"/>
		<path class="st0" d="M348.9,197.2H39.2v13.2h32.9v26.4h79.4v-26.4h13.1v26.4h78.8v-26.4h13.2v26.4h79.1v-26.4h13.2v26.4H428v-26.4
			h32.8v-13.2H348.9z M138,223.6H85.3v-13.2H138V223.6z M230.3,223.6h-52.7v-13.2h52.7V223.6z M322.6,223.6h-52.7v-13.2h52.7
			L322.6,223.6z M414.8,223.6h-52.7v-13.2h52.7L414.8,223.6z"/>
		<path class="st0" d="M250,78.8c-18.2,0-33,14.8-33,33s14.8,33,33,33c18.2,0,33-14.8,33-33c0,0,0,0,0,0
			C283,93.5,268.2,78.8,250,78.8z M250,131.5c-11,0-19.8-8.9-19.8-19.8s8.9-19.8,19.8-19.8c11,0,19.8,8.9,19.8,19.8
			c-0.1,10.9-8.9,19.7-19.8,19.7V131.5z"/>
		<rect x="296.2" y="105" class="st0" width="13.2" height="13.2"/>
		<rect x="190.8" y="105" class="st0" width="13.2" height="13.2"/>
		<path class="st0" d="M39.2,460.8h421.6v-39.7H39.2V460.8z M52.4,434.4h395.4v13.2H52.4V434.4z"/>
	</g>
</g>
</svg>
