<?xml version="1.0" encoding="utf-8"?>
<!-- Generator: Adobe Illustrator 22.1.0, SVG Export Plug-In . SVG Version: 6.00 Build 0)  -->
<svg version="1.1" id="_x30_4_x5F_blank_x5F_paper_x5F_write"
	 xmlns="http://www.w3.org/2000/svg" xmlns:xlink="http://www.w3.org/1999/xlink" x="0px" y="0px" viewBox="0 0 500 500"
	 style="enable-background:new 0 0 500 500;" xml:space="preserve">
<style type="text/css">
	.st0{fill:#222829;}
</style>
<g>
	<polygon class="st0" points="365.4,272.8 365.4,398.5 231.7,398.5 231.7,409.9 377.5,409.9 377.5,272.8 	"/>
	<polygon class="st0" points="316.9,72.9 316.9,124.3 371.5,124.3 371.5,113 329,113 329,72.9 	"/>
	<polygon class="st0" points="140.5,398.5 110.1,398.5 110.1,78.6 320.4,78.6 365.4,121 365.4,181.4 377.5,181.4 377.5,116.3 
		325.4,67.2 98,67.2 98,409.9 140.5,409.9 	"/>
	<polyline class="st0" points="205.6,405.9 175.3,377.3 166.6,385.3 197,413.9 	"/>
	<path class="st0" d="M266.5,265.4l56.4-53.1l44.3,41.7c2.3,2.2,6.2,2.2,8.6,0c2.3-2.2,2.3-5.8,0-8l-48.6-45.7
		c-1.1-1.1-2.7-1.7-4.3-1.7c-1.6,0-3.1,0.6-4.3,1.7l-60.8,57.2c-2.3,2.2-2.3,5.8,0,8C260.2,267.7,264,267.7,266.5,265.4L266.5,265.4
		z"/>
	<path class="st0" d="M365.4,198.6l-4.2-4L166.7,377.3c-0.6,0.6-1.1,1.3-1.4,2l-18.2,45.7c-0.9,2.1-0.3,4.5,1.4,6s4.1,2.1,6.4,1.3
		l48.6-17.1c0.8-0.2,1.6-0.7,2.2-1.3l194.6-182.7c1.1-1.1,1.8-2.5,1.8-4.1s-0.6-2.9-1.8-4.1l-30.4-28.6c-2.3-2.2-6.2-2.2-8.6,0
		L365.4,198.6l-4.2,4l26.1,24.5L197.9,404.9l-34.8,12.3l13.1-32.9l193.5-181.8L365.4,198.6l-4.2,4L365.4,198.6z"/>
	<path class="st0" d="M227.5,328.3l30.4,28.6c2.3,2.2,6.2,2.2,8.6,0c2.3-2.2,2.3-5.8,0-8L236,320.2c-2.3-2.2-6.2-2.2-8.6,0
		C225.1,322.4,225.1,326,227.5,328.3"/>
</g>
</svg>
