<?xml version="1.0" encoding="iso-8859-1"?>
<!-- Generator: Adobe Illustrator 17.0.0, SVG Export Plug-In . SVG Version: 6.00 Build 0)  -->
<!DOCTYPE svg PUBLIC "-//W3C//DTD SVG 1.1//EN" "http://www.w3.org/Graphics/SVG/1.1/DTD/svg11.dtd">
<svg version="1.1" id="_x31_7_x5F_blog_x5F_article"
	 xmlns="http://www.w3.org/2000/svg" xmlns:xlink="http://www.w3.org/1999/xlink" x="0px" y="0px" width="60px" height="64px"
	 viewBox="0 0 60 64" style="enable-background:new 0 0 60 64;" xml:space="preserve">
<g>
	<g>
		<g>
			<line style="fill:none;stroke:#222829;stroke-width:2;stroke-miterlimit:10;" x1="4" y1="55" x2="20" y2="55"/>
			<line style="fill:none;stroke:#222829;stroke-width:2;stroke-miterlimit:10;" x1="4" y1="59" x2="20" y2="59"/>
			<line style="fill:none;stroke:#222829;stroke-width:2;stroke-miterlimit:10;" x1="4" y1="63" x2="20" y2="63"/>
			<line style="fill:none;stroke:#222829;stroke-width:2;stroke-miterlimit:10;" x1="4" y1="51" x2="20" y2="51"/>
			<line style="fill:none;stroke:#222829;stroke-width:2;stroke-miterlimit:10;" x1="4" y1="47" x2="20" y2="47"/>
			<line style="fill:none;stroke:#222829;stroke-width:2;stroke-miterlimit:10;" x1="22" y1="9" x2="38" y2="9"/>
			<line style="fill:none;stroke:#222829;stroke-width:2;stroke-miterlimit:10;" x1="22" y1="13" x2="38" y2="13"/>
			<line style="fill:none;stroke:#222829;stroke-width:2;stroke-miterlimit:10;" x1="22" y1="17" x2="38" y2="17"/>
			<line style="fill:none;stroke:#222829;stroke-width:2;stroke-miterlimit:10;" x1="22" y1="5" x2="38" y2="5"/>
			<line style="fill:none;stroke:#222829;stroke-width:2;stroke-miterlimit:10;" x1="22" y1="1" x2="38" y2="1"/>
			<line style="fill:none;stroke:#222829;stroke-width:2;stroke-miterlimit:10;" x1="4" y1="43" x2="20" y2="43"/>
			<line style="fill:none;stroke:#222829;stroke-width:2;stroke-miterlimit:10;" x1="40" y1="1" x2="56" y2="1"/>
			<line style="fill:none;stroke:#222829;stroke-width:2;stroke-miterlimit:10;" x1="40" y1="43" x2="56" y2="43"/>
			<line style="fill:none;stroke:#222829;stroke-width:2;stroke-miterlimit:10;" x1="40" y1="17" x2="56" y2="17"/>
			<line style="fill:none;stroke:#222829;stroke-width:2;stroke-miterlimit:10;" x1="40" y1="5" x2="56" y2="5"/>
			<line style="fill:none;stroke:#222829;stroke-width:2;stroke-miterlimit:10;" x1="40" y1="9" x2="56" y2="9"/>
			<line style="fill:none;stroke:#222829;stroke-width:2;stroke-miterlimit:10;" x1="40" y1="13" x2="56" y2="13"/>
			<line style="fill:none;stroke:#222829;stroke-width:2;stroke-miterlimit:10;" x1="4" y1="21" x2="20" y2="21"/>
			<line style="fill:none;stroke:#222829;stroke-width:2;stroke-miterlimit:10;" x1="40" y1="21" x2="56" y2="21"/>
			<line style="fill:none;stroke:#222829;stroke-width:2;stroke-miterlimit:10;" x1="22" y1="21" x2="38" y2="21"/>
			<line style="fill:none;stroke:#222829;stroke-width:2;stroke-miterlimit:10;" x1="22" y1="55" x2="38" y2="55"/>
			<line style="fill:none;stroke:#222829;stroke-width:2;stroke-miterlimit:10;" x1="22" y1="59" x2="38" y2="59"/>
			<line style="fill:none;stroke:#222829;stroke-width:2;stroke-miterlimit:10;" x1="22" y1="63" x2="38" y2="63"/>
			<line style="fill:none;stroke:#222829;stroke-width:2;stroke-miterlimit:10;" x1="22" y1="51" x2="38" y2="51"/>
			<line style="fill:none;stroke:#222829;stroke-width:2;stroke-miterlimit:10;" x1="22" y1="47" x2="38" y2="47"/>
			<line style="fill:none;stroke:#222829;stroke-width:2;stroke-miterlimit:10;" x1="22" y1="43" x2="38" y2="43"/>
			<polyline style="fill:none;stroke:#222829;stroke-width:2;stroke-linejoin:round;stroke-miterlimit:10;" points="52,59 45,59 
				51,51 44,51 			"/>
			<path style="fill:none;stroke:#222829;stroke-width:2;stroke-miterlimit:10;" d="M15,14V8c0-1.656-1.344-3-3-3l0,0
				c-1.656,0-3,1.344-3,3v6"/>
			<line style="fill:none;stroke:#222829;stroke-width:2;stroke-miterlimit:10;" x1="9" y1="10" x2="15" y2="10"/>
			<line style="fill:none;stroke:#222829;stroke-width:2;stroke-miterlimit:10;" x1="8" y1="30" x2="10" y2="30"/>
			<line style="fill:none;stroke:#222829;stroke-width:2;stroke-miterlimit:10;" x1="52" y1="34" x2="50" y2="34"/>
			<line style="fill:none;stroke:#222829;stroke-width:2;stroke-miterlimit:10;" x1="12" y1="32" x2="26" y2="32"/>
			<line style="fill:none;stroke:#222829;stroke-width:2;stroke-miterlimit:10;" x1="28" y1="32" x2="48" y2="32"/>
			<line style="fill:none;stroke:#222829;stroke-width:2;stroke-miterlimit:10;" x1="1" y1="0" x2="1" y2="64"/>
			<line style="fill:none;stroke:#222829;stroke-width:2;stroke-miterlimit:10;" x1="59" y1="0" x2="59" y2="64"/>
			<rect x="5" y="1" style="fill:none;stroke:#222829;stroke-width:2;stroke-miterlimit:10;" width="14" height="16"/>
			<rect x="41" y="47" style="fill:none;stroke:#222829;stroke-width:2;stroke-miterlimit:10;" width="14" height="16"/>
			<rect x="5" y="26" style="fill:none;stroke:#222829;stroke-width:2;stroke-miterlimit:10;" width="50" height="12"/>
		</g>
	</g>
</g>
</svg>
