<?xml version="1.0" encoding="utf-8"?>
<!-- Generator: Adobe Illustrator 22.1.0, SVG Export Plug-In . SVG Version: 6.00 Build 0)  -->
<svg version="1.1" id="_x31_7_x5F_blog_x5F_article"
	 xmlns="http://www.w3.org/2000/svg" xmlns:xlink="http://www.w3.org/1999/xlink" x="0px" y="0px" viewBox="0 0 500 500"
	 style="enable-background:new 0 0 500 500;" xml:space="preserve">
<style type="text/css">
	.st0{fill:#222829;}
</style>
<g>
	<polyline class="st0" points="71.6,414.8 181.4,414.8 181.4,400.8 71.6,400.8 	"/>
	<polyline class="st0" points="71.6,442.3 181.4,442.3 181.4,428.3 71.6,428.3 	"/>
	<polyline class="st0" points="71.6,469.7 181.4,469.7 181.4,455.7 71.6,455.7 	"/>
	<polyline class="st0" points="71.6,387.4 181.4,387.4 181.4,373.4 71.6,373.4 	"/>
	<polyline class="st0" points="71.6,359.9 181.4,359.9 181.4,345.9 71.6,345.9 	"/>
	<polyline class="st0" points="195.1,99.2 304.9,99.2 304.9,85.2 195.1,85.2 	"/>
	<polyline class="st0" points="195.1,126.6 304.9,126.6 304.9,112.6 195.1,112.6 	"/>
	<polyline class="st0" points="195.1,154.1 304.9,154.1 304.9,140.1 195.1,140.1 	"/>
	<polyline class="st0" points="195.1,71.7 304.9,71.7 304.9,57.7 195.1,57.7 	"/>
	<polyline class="st0" points="195.1,44.3 304.9,44.3 304.9,30.3 195.1,30.3 	"/>
	<polyline class="st0" points="71.6,332.5 181.4,332.5 181.4,318.5 71.6,318.5 	"/>
	<polyline class="st0" points="318.6,44.3 428.4,44.3 428.4,30.3 318.6,30.3 	"/>
	<polyline class="st0" points="318.6,332.5 428.4,332.5 428.4,318.5 318.6,318.5 	"/>
	<polyline class="st0" points="318.6,154.1 428.4,154.1 428.4,140.1 318.6,140.1 	"/>
	<polyline class="st0" points="318.6,71.7 428.4,71.7 428.4,57.7 318.6,57.7 	"/>
	<polyline class="st0" points="318.6,99.2 428.4,99.2 428.4,85.2 318.6,85.2 	"/>
	<polyline class="st0" points="318.6,126.6 428.4,126.6 428.4,112.6 318.6,112.6 	"/>
	<polyline class="st0" points="71.6,181.5 181.4,181.5 181.4,167.5 71.6,167.5 	"/>
	<polyline class="st0" points="318.6,181.5 428.4,181.5 428.4,167.5 318.6,167.5 	"/>
	<polyline class="st0" points="195.1,181.5 304.9,181.5 304.9,167.5 195.1,167.5 	"/>
	<polyline class="st0" points="195.1,414.8 304.9,414.8 304.9,400.8 195.1,400.8 	"/>
	<polyline class="st0" points="195.1,442.3 304.9,442.3 304.9,428.3 195.1,428.3 	"/>
	<polyline class="st0" points="195.1,469.7 304.9,469.7 304.9,455.7 195.1,455.7 	"/>
	<polyline class="st0" points="195.1,387.4 304.9,387.4 304.9,373.4 195.1,373.4 	"/>
	<polyline class="st0" points="195.1,359.9 304.9,359.9 304.9,345.9 195.1,345.9 	"/>
	<polyline class="st0" points="195.1,332.5 304.9,332.5 304.9,318.5 195.1,318.5 	"/>
	<path class="st0" d="M401,428.3h-34.1l32.8-43.7c1.6-2.1,1.9-5,0.7-7.3c-1.2-2.4-3.6-3.9-6.3-3.9h-48v14h34l-32.8,43.7
		c-1.6,2.1-1.9,5-0.7,7.3c1.2,2.4,3.6,3.9,6.3,3.9H401V428.3z"/>
	<path class="st0" d="M154.1,126.5V85.3c0-3.8-0.8-7.4-2.2-10.8c-2.1-5-5.6-9.2-10-12.1c-4.4-3-9.7-4.7-15.4-4.7
		c-3.8,0-7.4,0.8-10.7,2.2c-5,2.1-9.2,5.6-12.1,10c-3,4.4-4.7,9.7-4.7,15.4v41.2h14l0-41.2c0-1.9,0.4-3.7,1.1-5.3
		c1-2.4,2.8-4.5,4.9-6c2.2-1.5,4.8-2.3,7.6-2.3c1.9,0,3.7,0.4,5.3,1.1c2.4,1,4.5,2.8,6,4.9c1.5,2.2,2.3,4.8,2.3,7.6v41.2H154.1
		L154.1,126.5z"/>
	<polyline class="st0" points="105.9,106 147.1,106 147.1,92 105.9,92 	"/>
	<polyline class="st0" points="99,243.3 112.8,243.3 112.8,229.3 99,229.3 	"/>
	<polyline class="st0" points="401,256.7 387.2,256.7 387.2,270.7 401,270.7 	"/>
	<polyline class="st0" points="126.5,257 222.6,257 222.6,243 126.5,243 	"/>
	<polyline class="st0" points="236.3,257 373.5,257 373.5,243 236.3,243 	"/>
	<polyline class="st0" points="44,30.4 44,469.6 58,469.6 58,30.4 	"/>
	<polyline class="st0" points="442,30.4 442,469.6 456,469.6 456,30.4 	"/>
	<polygon class="st0" points="78.4,37.3 78.4,44.3 167.5,44.3 167.5,140.1 85.4,140.1 85.4,37.3 78.4,37.3 78.4,44.3 78.4,37.3 
		71.4,37.3 71.4,154.1 181.5,154.1 181.5,30.3 71.4,30.3 71.4,37.3 	"/>
	<polygon class="st0" points="325.5,352.9 325.5,359.9 414.6,359.9 414.6,455.7 332.5,455.7 332.5,352.9 325.5,352.9 325.5,359.9 
		325.5,352.9 318.5,352.9 318.5,469.7 428.6,469.7 428.6,345.9 318.5,345.9 318.5,352.9 	"/>
	<polygon class="st0" points="78.4,208.8 78.4,215.8 414.5,215.8 414.5,284.1 85.4,284.1 85.4,208.8 78.4,208.8 78.4,215.8 
		78.4,208.8 71.4,208.8 71.4,298.1 428.5,298.1 428.5,201.8 71.4,201.8 71.4,208.8 	"/>
</g>
</svg>
