<svg id="Layer_1" data-name="Layer 1" xmlns="http://www.w3.org/2000/svg" viewBox="0 0 500 500"><title>book</title><rect x="211.4" y="170.23" width="77.21" height="15.22"/><path d="M404.13,68h-37V57.13A44.64,44.64,0,0,0,322.46,12.5h-7.61v37H140.52A44.63,44.63,0,0,0,95.88,94.16V402.44c0,.09,0,.18,0,.28a44.59,44.59,0,0,0,37,43.95V487.5l29-10.78,29.12,10.76V447.35H404.13ZM388.91,83.26V358.08H356.06a44.28,44.28,0,0,0,11-29.32V83.26ZM148.13,358.08V307.74H343l.25.23a29.38,29.38,0,0,1-18.77,50.12ZM314.85,203.8H177.54V219H314.85v18.35H177.54v15.22H314.85v39.93H148.13V130.3H314.85ZM330.07,28.7a29.46,29.46,0,0,1,21.81,28.43V295.22a44.18,44.18,0,0,0-21.81-10.45Zm-15.22,86.38H148.13V64.74H314.85ZM119.71,73.36a29.23,29.23,0,0,1,13.2-7.59v293a44.3,44.3,0,0,0-21.81,10.43v-275A29.24,29.24,0,0,1,119.71,73.36Zm56.14,392.28-13.91-5.14-13.81,5.12v-55.3h27.72Zm15.22-33.51v-37H132.91v36a29.41,29.41,0,0,1-21.83-28.4h0v-.27a30.05,30.05,0,0,1,2.12-10.8,29.72,29.72,0,0,1,6.48-9.74,29.33,29.33,0,0,1,20.81-8.6h182v.1c.68,0,1.36-.07,2-.1h64.42v58.83Z"/></svg>