<?xml version="1.0" encoding="utf-8"?>
<!-- Generator: Adobe Illustrator 22.1.0, SVG Export Plug-In . SVG Version: 6.00 Build 0)  -->
<svg version="1.1" id="_x32_9_x5F_brain_x5F_process"
	 xmlns="http://www.w3.org/2000/svg" xmlns:xlink="http://www.w3.org/1999/xlink" x="0px" y="0px" viewBox="0 0 500 500"
	 style="enable-background:new 0 0 500 500;" xml:space="preserve">
<style type="text/css">
	.st0{fill:#222829;}
</style>
<g>
	<path class="st0" d="M250,156.8h7c0-1.5,0.3-2.8,0.8-4c0.8-1.8,2.2-3.4,4.1-4.7c1.9-1.3,4.2-2.1,6.7-2.3c2.3-0.2,4.3-1.5,5.5-3.6
		s1.2-4.5,0.1-6.5l-18-36.1c-0.9-1.9-2.7-3.3-4.8-3.7c-2.1-0.4-4.2,0.1-5.9,1.4c-1.4,1.2-2.9,2-4.3,2.6c-1.4,0.5-2.7,0.8-3.9,0.8
		c-1.1,0-2.2-0.2-3.2-0.6c-1-0.4-2.1-1.1-3.2-2.2c-1.1-1.1-1.8-2.2-2.3-3.2c-0.4-1.1-0.6-2.1-0.7-3.2c0-1.2,0.2-2.5,0.8-3.9
		c0.5-1.4,1.4-2.8,2.6-4.2c1.4-1.6,1.9-3.8,1.5-5.9c-0.4-2.1-1.8-3.9-3.7-4.8l-36.1-18c-2.1-1-4.5-1-6.5,0.1c-2,1.1-3.4,3.1-3.6,5.4
		c-0.3,3.4-1.8,6.5-3.8,8.5c-1,1-2.1,1.8-3.3,2.4c-1.2,0.5-2.5,0.8-4,0.8c-1.5,0-2.8-0.3-4-0.8c-1.8-0.8-3.4-2.2-4.7-4.1
		c-1.3-1.9-2.1-4.2-2.3-6.7c-0.2-2.3-1.5-4.3-3.6-5.5c-2-1.1-4.5-1.2-6.5-0.1l-36.1,18c-1.9,0.9-3.3,2.7-3.7,4.8
		c-0.4,2.1,0.1,4.2,1.4,5.9c1.2,1.4,2,2.9,2.6,4.3c0.5,1.4,0.8,2.7,0.8,3.9c0,1.1-0.2,2.2-0.6,3.2c-0.4,1-1.1,2.1-2.2,3.2
		c-1.1,1.1-2.2,1.8-3.2,2.3c-1.1,0.4-2.1,0.6-3.2,0.7c-1.2,0-2.5-0.2-3.9-0.8c-1.4-0.5-2.8-1.4-4.2-2.6c-1.5-1.3-3.5-1.8-5.5-1.5
		s-3.7,1.4-4.8,3.1c-3.4,5.1-7.4,11.2-10.9,17.7c-1.8,3.3-3.4,6.7-4.8,10.2c-1.4,3.5-2.6,7.1-3.3,10.7c-0.4,1.9,0.1,3.9,1.3,5.5
		c1.2,1.6,2.9,2.6,4.9,2.8c3.4,0.3,6.5,1.8,8.5,3.8c1,1,1.8,2.1,2.4,3.3c0.5,1.2,0.8,2.5,0.8,4c0,1.5-0.3,2.8-0.8,4
		c-0.8,1.8-2.2,3.4-4.1,4.7c-1.9,1.3-4.2,2.1-6.7,2.3c-2.3,0.2-4.3,1.5-5.5,3.6c-1.1,2-1.2,4.5-0.1,6.5l18,36.1
		c0.9,1.9,2.7,3.3,4.8,3.7s4.2-0.1,5.9-1.4c1.4-1.2,2.9-2,4.3-2.6c1.4-0.5,2.7-0.8,3.9-0.8c1.1,0,2.2,0.2,3.2,0.6
		c1,0.4,2.1,1.1,3.2,2.2c1.1,1.1,1.8,2.2,2.3,3.2c0.4,1.1,0.6,2.1,0.7,3.2c0,1.2-0.2,2.5-0.8,3.9c-0.5,1.4-1.4,2.8-2.6,4.2
		c-1.4,1.6-1.9,3.8-1.5,5.9c0.4,2.1,1.8,3.9,3.7,4.8l36.1,18c2.1,1,4.5,1,6.5-0.1c2-1.1,3.4-3.1,3.6-5.4c0.3-3.4,1.8-6.5,3.8-8.5
		c1-1,2.1-1.8,3.3-2.4c1.2-0.5,2.5-0.8,4-0.8c1.5,0,2.8,0.3,4,0.8c1.8,0.8,3.4,2.2,4.7,4.1c1.3,1.9,2.1,4.2,2.3,6.7
		c0.2,2.3,1.5,4.3,3.6,5.5s4.5,1.2,6.5,0.1l36.1-18c1.9-0.9,3.3-2.7,3.7-4.8c0.4-2.1-0.1-4.2-1.4-5.9c-1.2-1.4-2-2.9-2.6-4.3
		c-0.5-1.4-0.8-2.7-0.8-3.9c0-1.1,0.2-2.2,0.6-3.2c0.4-1,1.1-2.1,2.2-3.2c1.1-1.1,2.2-1.8,3.2-2.3c1.1-0.4,2.1-0.6,3.2-0.7
		c1.2,0,2.5,0.2,3.9,0.8c1.4,0.5,2.8,1.4,4.2,2.6c1.6,1.4,3.8,1.9,5.9,1.5c2.1-0.4,3.9-1.8,4.8-3.7l18-36.1c1-2.1,1-4.5-0.1-6.5
		c-1.1-2-3.1-3.4-5.4-3.6c-1.7-0.2-3.3-0.6-4.7-1.3c-2.2-1-4-2.4-5.2-4.1c-0.6-0.8-1-1.7-1.4-2.6c-0.3-0.9-0.5-1.9-0.5-3H250h-7
		c0,3.5,0.7,6.8,2.1,9.7c2,4.4,5.3,8,9.1,10.6c3.9,2.6,8.3,4.2,13.1,4.7l0.7-7l-6.3-3.1l-18,36.1l6.3,3.1l4.5-5.4
		c-2.4-2-5.1-3.7-8-4.8c-2.9-1.1-5.9-1.8-9-1.8c-2.9,0-5.9,0.6-8.7,1.8c-2.8,1.2-5.4,3-7.7,5.2c-2.3,2.3-4.1,4.9-5.2,7.7
		c-1.2,2.8-1.7,5.7-1.7,8.7c0,3.1,0.6,6.2,1.8,9c1.1,2.9,2.7,5.5,4.7,8l5.4-4.4l-3.1-6.3l-36.1,18l3.1,6.3l7-0.7
		c-0.6-6.3-3.2-12.3-7.5-16.8c-2.2-2.3-4.7-4.2-7.7-5.5c-3-1.3-6.3-2.1-9.7-2.1c-3.5,0-6.8,0.7-9.7,2.1c-4.4,2-8,5.2-10.6,9.1
		c-2.6,3.9-4.2,8.4-4.7,13.1l7,0.7l3.1-6.3l-36.1-18l-3.1,6.3l5.4,4.5c2-2.4,3.7-5.1,4.8-8c1.1-2.9,1.8-5.9,1.8-9
		c0-2.9-0.6-5.9-1.8-8.7c-1.2-2.8-3-5.4-5.2-7.7c-2.3-2.3-4.9-4.1-7.7-5.2c-2.8-1.2-5.7-1.7-8.7-1.7c-3.1,0-6.2,0.6-9,1.8
		c-2.9,1.1-5.5,2.7-8,4.7l4.4,5.4l6.3-3.1l-18-36.1l-6.3,3.1l0.7,7c6.3-0.6,12.3-3.2,16.8-7.5c2.3-2.2,4.2-4.7,5.5-7.7
		c1.3-3,2.1-6.3,2.1-9.7c0-3.5-0.7-6.8-2.1-9.7c-2-4.4-5.2-8-9.1-10.6c-3.9-2.6-8.4-4.2-13.1-4.7l-0.7,7l6.9,1.3
		c0.5-2.5,1.4-5.3,2.5-8.2c1.7-4.3,4.1-8.8,6.6-13.1c2.6-4.3,5.3-8.5,7.8-12.3l-5.8-3.9l-4.5,5.4c2.4,2,5.1,3.7,8,4.8
		c2.9,1.1,5.9,1.8,9,1.8c2.9,0,5.9-0.6,8.7-1.8c2.8-1.2,5.4-3,7.7-5.2c2.3-2.3,4.1-4.9,5.2-7.7c1.2-2.8,1.7-5.7,1.7-8.7
		c0-3.1-0.6-6.2-1.8-9c-1.1-2.9-2.7-5.5-4.7-8l-5.4,4.4l3.1,6.3L157,67l-3.1-6.3l-7,0.7c0.6,6.3,3.2,12.3,7.5,16.8
		c2.2,2.3,4.7,4.2,7.7,5.5c3,1.3,6.3,2.1,9.7,2.1c3.5,0,6.8-0.7,9.7-2.1c4.4-2,8-5.2,10.6-9.1c2.6-3.9,4.2-8.4,4.7-13.1l-7-0.7
		l-3.1,6.3l36.1,18l3.1-6.3l-5.4-4.5c-2,2.4-3.7,5.1-4.8,8c-1.1,2.9-1.8,5.9-1.8,9c0,2.9,0.6,5.9,1.8,8.7c1.2,2.8,3,5.4,5.2,7.7
		c2.3,2.3,4.9,4.1,7.7,5.2c2.8,1.2,5.7,1.7,8.7,1.7c3.1,0,6.2-0.6,9-1.8c2.9-1.1,5.5-2.7,8-4.7l-4.4-5.4l-6.3,3.1l18,36.1l6.3-3.1
		l-0.7-7c-6.3,0.6-12.3,3.2-16.8,7.5c-2.3,2.2-4.2,4.7-5.5,7.7c-1.3,3-2.1,6.3-2.1,9.7H250z"/>
	<path class="st0" d="M171.8,114.7v7c4.9,0,9.5,1,13.7,2.8c6.3,2.7,11.7,7.1,15.4,12.7c3.8,5.6,6,12.3,6,19.6c0,4.9-1,9.5-2.8,13.7
		c-2.7,6.3-7.1,11.7-12.7,15.4c-5.6,3.8-12.3,6-19.6,6c-4.9,0-9.5-1-13.7-2.8c-6.3-2.7-11.7-7.1-15.4-12.7c-3.8-5.6-6-12.3-6-19.6
		c0-4.9,1-9.5,2.8-13.7c2.7-6.3,7.1-11.7,12.7-15.4c5.6-3.8,12.3-6,19.6-6V114.7v-7c-6.8,0-13.2,1.4-19.1,3.9
		c-8.8,3.7-16.3,9.9-21.6,17.8c-5.3,7.8-8.4,17.3-8.4,27.5c0,6.8,1.4,13.2,3.9,19.1c3.7,8.8,9.9,16.3,17.8,21.6
		c7.8,5.3,17.3,8.4,27.5,8.4c6.8,0,13.2-1.4,19.1-3.9c8.8-3.7,16.3-9.9,21.6-17.8c5.3-7.8,8.4-17.3,8.4-27.5
		c0-6.8-1.4-13.2-3.9-19.1c-3.7-8.8-9.9-16.3-17.8-21.6c-7.8-5.3-17.3-8.4-27.5-8.4V114.7z"/>
	<path class="st0" d="M184.8,439.5v-72.2c0-15.5-3-30.3-7.5-44.6c-4.5-14.3-10.3-28.3-16.2-42.3l-12.9,5.4c5.9,14,11.5,27.6,15.7,41
		c4.2,13.5,6.8,26.8,6.8,40.5v72.2H184.8L184.8,439.5z"/>
	<path class="st0" d="M185.2,272.4c2.1,9.1,5.7,17.6,10.5,25.3c1.1,1.8,3,3,5,3.3c2.1,0.3,4.2-0.4,5.7-1.8c1-0.9,2.2-1.7,3.4-2.2
		c1.3-0.5,2.7-0.8,4.1-0.8c1.6,0,3,0.3,4.3,0.9c2,0.8,3.7,2.2,4.8,4c1.2,1.8,1.9,3.8,1.9,6.1c0,1.5-0.3,2.8-0.8,4.1
		c-0.5,1.3-1.3,2.4-2.2,3.4c-1.4,1.5-2.1,3.6-1.8,5.7c0.3,2.1,1.5,3.9,3.3,5c7.7,4.8,16.2,8.4,25.3,10.5c1.9,0.4,4,0,5.6-1.1
		c1.6-1.1,2.7-2.9,2.9-4.9c0.3-2.8,1.7-5.2,3.6-7c1-0.9,2.1-1.6,3.3-2c1.2-0.5,2.5-0.7,4-0.7c2.8,0,5.3,1.1,7.3,2.8
		c2,1.8,3.3,4.2,3.6,6.9c0.2,2,1.3,3.8,2.9,4.9c1.6,1.2,3.7,1.6,5.6,1.1c9.1-2.1,17.6-5.7,25.3-10.5c1.8-1.1,3-3,3.3-5.1
		s-0.4-4.2-1.9-5.7c-0.9-1-1.7-2.1-2.1-3.3c-0.5-1.2-0.8-2.6-0.8-4.1c0-1.6,0.3-3,0.9-4.3c0.8-2,2.2-3.7,4-4.8
		c1.8-1.2,3.8-1.9,6.1-1.9c1.5,0,2.8,0.3,4.1,0.8c1.3,0.5,2.4,1.3,3.4,2.2c1.5,1.4,3.6,2.1,5.7,1.8c2.1-0.3,3.9-1.5,5-3.3
		c4.8-7.7,8.4-16.2,10.5-25.3c0.4-1.9,0-4-1.1-5.6c-1.1-1.6-2.9-2.7-4.9-2.9c-2.8-0.3-5.2-1.7-7-3.6c-0.9-1-1.6-2.1-2-3.3
		c-0.5-1.2-0.7-2.5-0.7-4c0-2.8,1.1-5.3,2.8-7.3c1.8-2,4.2-3.3,6.9-3.6c2-0.2,3.8-1.3,4.9-2.9c1.2-1.6,1.6-3.7,1.1-5.6
		c-2.1-9.1-5.7-17.6-10.5-25.3c-1.1-1.8-3-3-5.1-3.3c-2.1-0.3-4.2,0.4-5.7,1.9c-1,0.9-2.1,1.6-3.3,2.1c-1.2,0.5-2.6,0.8-4.1,0.8
		c-1.6,0-3-0.3-4.3-0.9c-2-0.8-3.7-2.2-4.8-4c-1.2-1.8-1.9-3.8-1.9-6.1c0-1.5,0.3-2.8,0.8-4.1c0.5-1.3,1.3-2.4,2.2-3.4
		c1.4-1.5,2.1-3.6,1.8-5.7c-0.3-2.1-1.5-3.9-3.3-5c-7.7-4.8-16.2-8.4-25.3-10.5l-3.1,13.6c7.5,1.7,14.6,4.7,21.1,8.7l3.7-6l-5.1-4.8
		c-2.1,2.2-3.8,4.8-4.9,7.7c-1.2,2.9-1.8,6.1-1.8,9.4c0,6.9,2.8,13.1,7.3,17.7c2.3,2.3,4.9,4.1,7.9,5.4c3,1.3,6.3,2,9.8,2
		c3.3,0,6.5-0.6,9.4-1.8c2.9-1.2,5.6-2.9,7.8-5.1l-4.9-5l-6,3.7c4,6.5,7,13.6,8.7,21.1l6.8-1.6l-0.8-7c-6.2,0.7-11.7,3.7-15.7,8.1
		c-4,4.4-6.4,10.3-6.4,16.7c0,3.2,0.6,6.2,1.7,9.1c1.7,4.2,4.4,7.9,7.9,10.6c3.5,2.7,7.8,4.5,12.4,5.1l0.8-6.9l-6.8-1.6
		c-1.7,7.5-4.7,14.6-8.7,21.1l6,3.7l4.8-5.1c-2.2-2.1-4.8-3.8-7.7-4.9c-2.9-1.2-6.1-1.8-9.4-1.8c-6.9,0-13.1,2.8-17.7,7.3
		c-2.3,2.3-4.1,4.9-5.4,7.9c-1.3,3-2,6.3-2,9.8c0,3.3,0.6,6.5,1.8,9.4c1.2,2.9,2.9,5.6,5.1,7.8l5-4.9l-3.7-6c-6.5,4-13.6,7-21.1,8.7
		l1.6,6.8l7-0.8c-0.7-6.2-3.7-11.7-8.1-15.7c-4.4-4-10.3-6.4-16.7-6.4c-3.2,0-6.2,0.6-9.1,1.7c-4.2,1.7-7.9,4.4-10.6,7.9
		c-2.7,3.5-4.5,7.8-5.1,12.4l6.9,0.8l1.6-6.8c-7.5-1.7-14.6-4.7-21.1-8.7l-3.7,6l5.1,4.8c2.1-2.2,3.8-4.8,4.9-7.7
		c1.2-2.9,1.8-6.1,1.8-9.4c0-6.9-2.8-13.1-7.3-17.7c-2.3-2.3-4.9-4.1-7.9-5.4c-3-1.3-6.3-2-9.8-2c-3.3,0-6.5,0.7-9.4,1.8
		c-2.9,1.2-5.5,2.9-7.7,5l4.8,5.1l6-3.7c-4-6.5-7-13.6-8.7-21.1L185.2,272.4L185.2,272.4z"/>
	<path class="st0" d="M268,228.9v7c2.4,0,4.6,0.5,6.7,1.3c3.1,1.3,5.7,3.5,7.5,6.2c1.8,2.7,2.9,6,2.9,9.6c0,2.4-0.5,4.6-1.3,6.7
		c-1.3,3.1-3.5,5.7-6.2,7.5c-2.7,1.8-6,2.9-9.6,2.9c-2.4,0-4.6-0.5-6.7-1.3c-3.1-1.3-5.7-3.5-7.5-6.2c-1.8-2.7-2.9-6-2.9-9.6
		c0-2.4,0.5-4.6,1.3-6.7c1.3-3.1,3.5-5.7,6.2-7.5c2.7-1.8,6-2.9,9.6-2.9V228.9v-7c-4.3,0-8.4,0.9-12.1,2.4
		c-5.6,2.4-10.3,6.3-13.7,11.3c-3.4,5-5.3,11-5.3,17.4c0,4.3,0.9,8.4,2.4,12.1c2.4,5.6,6.3,10.3,11.3,13.7c5,3.4,11,5.3,17.4,5.3
		c4.3,0,8.4-0.9,12.1-2.4c5.6-2.4,10.3-6.3,13.7-11.3c3.4-5,5.3-11,5.3-17.4c0-4.3-0.9-8.4-2.4-12.1c-2.4-5.6-6.3-10.3-11.3-13.7
		c-5-3.4-11-5.3-17.4-5.3V228.9z"/>
	<path class="st0" d="M244,67.5h18c16.5,0,32.2,3.3,46.5,9.4c21.4,9.1,39.6,24.2,52.5,43.2c12.9,19.1,20.4,42,20.4,66.7
		c0,1,0.2,2,0.6,2.9l35.5,76.8v3.5h-29.1c-1.8,0-3.6,0.7-4.9,2.1c-1.3,1.3-2.1,3.1-2.1,4.9v54.1c0,4-0.8,7.8-2.3,11.3
		c-2.2,5.2-5.9,9.7-10.6,12.8c-4.7,3.1-10.2,5-16.2,5h-36.1c-1.8,0-3.6,0.7-4.9,2.1c-1.3,1.3-2.1,3.1-2.1,4.9v72.2h14l0-65.2h29.1
		c5.9,0,11.6-1.2,16.8-3.4c7.7-3.3,14.3-8.7,19-15.6c4.6-6.9,7.4-15.2,7.4-24.1V284l29.1,0c1.8,0,3.6-0.7,4.9-2.1s2.1-3.1,2.1-4.9
		v-12c0-1-0.2-2-0.6-2.9l-36.1-78.2l-6.4,2.9h7c0-36.8-14.9-70.1-39-94.2c-24.1-24.1-57.5-39.1-94.3-39.1h-18V67.5L244,67.5z"/>
	<polyline class="st0" points="316.2,360.3 298.1,360.3 298.1,374.3 316.2,374.3 	"/>
</g>
</svg>
