<svg id="Layer_1" data-name="Layer 1" xmlns="http://www.w3.org/2000/svg" viewBox="0 0 500 500"><title>Artboard 7</title><path d="M410.36,193.78C410.36,114.5,345.86,50,266.59,50S122.79,114.5,122.79,193.75l-.08,15.41L89.64,305.92h38.87l6.94,87.41L204.62,387l7.74,62.76,13-1.6L216,372.79l-68.6,6.3-6.85-86.25H107.93l27.85-81.48.09-17.58c0-72.07,58.64-130.7,130.71-130.7s130.69,58.63,130.69,130.7a130.67,130.67,0,0,1-7.1,42.54l-31,101.86L377.6,450l12.9-2.13-17.94-108.8,30.05-98.72A143.24,143.24,0,0,0,410.36,193.78Z"/><path d="M266.56,219.53a25.75,25.75,0,1,0-25.74-25.75A25.77,25.77,0,0,0,266.56,219.53Zm0-38.41a12.67,12.67,0,1,1-12.66,12.67A12.68,12.68,0,0,1,266.56,181.12Z"/><path d="M308.56,253.44l-7.35-12.75a58.81,58.81,0,0,0,12.29-12.28l12.75,7.36,6.54-11.33-12.7-7.33a57.86,57.86,0,0,0,4.51-16.8h14.63V187.24H324.6a57.86,57.86,0,0,0-4.51-16.8l12.7-7.33-6.54-11.33-12.75,7.36a58.8,58.8,0,0,0-12.29-12.28l7.35-12.75-11.33-6.54-7.32,12.7a57.93,57.93,0,0,0-16.8-4.51V121.12H260v14.66a57.87,57.87,0,0,0-16.8,4.51l-7.33-12.7-11.33,6.54,7.36,12.75a58.8,58.8,0,0,0-12.27,12.28l-12.75-7.36-6.54,11.33,12.7,7.33a57.9,57.9,0,0,0-4.51,16.8H193.9v13.08h14.66a57.9,57.9,0,0,0,4.51,16.8l-12.7,7.33,6.54,11.33,12.75-7.36a58.79,58.79,0,0,0,12.27,12.28l-7.36,12.75L235.89,260l7.33-12.7a57.87,57.87,0,0,0,16.8,4.51v14.66H273.1V251.79a57.93,57.93,0,0,0,16.8-4.51l7.32,12.7Zm-87.31-59.66a45.33,45.33,0,1,1,45.31,45.32A45.37,45.37,0,0,1,221.25,193.78Z"/><path d="M155,209.32l13-1.79A100.66,100.66,0,0,1,167,194l-13.08,0A113.36,113.36,0,0,0,155,209.32Z"/><path d="M181.37,142.24l-11.18-6.78a113.23,113.23,0,0,0-7.05,13.66l12,5.19A100.26,100.26,0,0,1,181.37,142.24Z"/><path d="M189.42,256.71a99.89,99.89,0,0,1-7.85-11.07l-11.16,6.82A113.36,113.36,0,0,0,179.29,265Z"/><path d="M175.29,233.6a98.75,98.75,0,0,1-4.57-12.78l-12.59,3.54a112.11,112.11,0,0,0,5.17,14.48Z"/><path d="M214.84,293.86A112.42,112.42,0,0,0,229,300l4.37-12.33a99.11,99.11,0,0,1-12.46-5.4Z"/><path d="M154.94,178.68l13,1.74a100.21,100.21,0,0,1,2.72-13.3L158,163.62A112.44,112.44,0,0,0,154.94,178.68Z"/><path d="M189.79,276.19a114,114,0,0,0,11.92,9.68l7.54-10.69a100.75,100.75,0,0,1-10.55-8.57Z"/><path d="M243.77,304.11A113.34,113.34,0,0,0,259,306.16l.87-13.05a99.91,99.91,0,0,1-13.46-1.82Z"/><path d="M273.45,293.1l.89,13a113,113,0,0,0,15.22-2.09l-2.66-12.81A99.93,99.93,0,0,1,273.45,293.1Z"/><path d="M189.49,111.65A114.28,114.28,0,0,0,179,122.89l10.16,8.24a100.78,100.78,0,0,1,9.25-10Z"/><path d="M362.35,166.56a99,99,0,0,1,2.8,13.28l13-1.81a111.88,111.88,0,0,0-3.17-15Z"/><path d="M357.91,233.43l12,5.22a112.36,112.36,0,0,0,5.15-14.49l-12.6-3.52A99.08,99.08,0,0,1,357.91,233.43Z"/><path d="M379.19,193.78v-.41H366.11v.41a100.67,100.67,0,0,1-.92,13.55l13,1.77A113.81,113.81,0,0,0,379.19,193.78Z"/><path d="M351.65,245.49a99.93,99.93,0,0,1-7.84,11.09L354,264.84a113.22,113.22,0,0,0,8.87-12.55Z"/><path d="M343.18,111.23l-8.9,9.59a101,101,0,0,1,9.31,9.9l10.11-8.3A114,114,0,0,0,343.18,111.23Z"/><path d="M351.46,141.77a99.44,99.44,0,0,1,6.29,12l12-5.26a112.48,112.48,0,0,0-7.12-13.61Z"/><path d="M304,87.51a112,112,0,0,0-14.83-4.1l-2.61,12.82a99.48,99.48,0,0,1,13.1,3.62Z"/><path d="M273.07,94.44l.83-13.05a115.65,115.65,0,0,0-15.35,0l.91,13A101.33,101.33,0,0,1,273.07,94.44Z"/><path d="M243.34,83.55a112,112,0,0,0-14.79,4.18L233,100A98.71,98.71,0,0,1,246,96.35Z"/><path d="M220.53,105.49,214.47,93.9a113.34,113.34,0,0,0-13.09,8L209,112.58A100.07,100.07,0,0,1,220.53,105.49Z"/><path d="M300,287.59l4.39,12.32a112.27,112.27,0,0,0,14.09-6.14l-6-11.6A99.33,99.33,0,0,1,300,287.59Z"/><path d="M324,275.1l7.56,10.67a113.8,113.8,0,0,0,11.9-9.7l-8.94-9.55A100.24,100.24,0,0,1,324,275.1Z"/><path d="M318.08,93.6l-6,11.63a100,100,0,0,1,11.63,7l7.52-10.71A113.82,113.82,0,0,0,318.08,93.6Z"/></svg>