<svg id="Layer_1" data-name="Layer 1" xmlns="http://www.w3.org/2000/svg" viewBox="0 0 500 500"><title>build</title><path d="M50,95.13V404.87H450V95.13ZM62.83,108H437.61v24.78H62.83ZM437.17,392H62.83V145.13H437.61V392Z"/><rect x="69.91" y="113.27" width="11.95" height="12.83"/><rect x="91.15" y="113.27" width="11.95" height="12.83"/><rect x="111.95" y="113.27" width="11.95" height="12.83"/><path d="M119.91,307.08a27.61,27.61,0,0,0,27.43,23.45,15.05,15.05,0,0,0,4.42-.44,27.31,27.31,0,0,0,22.57-21.68l54-3.54a21.57,21.57,0,0,0,1.77,4.87c4.87,11.95,16.81,19,28.76,19a29.2,29.2,0,0,0,11.95-2.65,37.85,37.85,0,0,0,9.73-6.64l30.09,18.58a27.42,27.42,0,0,0,27.43,31.42,25.06,25.06,0,0,0,8-1.33,27.53,27.53,0,0,0,18.14-34.51,28.82,28.82,0,0,0-13.27-16.37A29.53,29.53,0,0,0,329.65,315,26.22,26.22,0,0,0,314.16,327l-27.88-16.81c.44-.44.44-.88.88-1.33a31.88,31.88,0,0,0,0-23.89,30.89,30.89,0,0,0-10.62-13.27l25.22-51.77a15.05,15.05,0,0,0,4.42.44,30.42,30.42,0,0,0,10.62-2.21c6.64-2.65,11.95-8.41,15-15a29.31,29.31,0,0,0,0-21.24,27.28,27.28,0,0,0-36.28-14.6c-6.64,2.65-11.95,8.41-15,15a29.31,29.31,0,0,0,0,21.24,26.33,26.33,0,0,0,10.62,12.39L267.26,267.7A32,32,0,0,0,246.9,269a31.29,31.29,0,0,0-16.81,16.81,53.5,53.5,0,0,0-2.21,8l-53.54,3.54a27.16,27.16,0,0,0-11.06-16.81,25.84,25.84,0,0,0-20.35-4.87A27.54,27.54,0,0,0,119.91,307.08Zm213.27,19.47a18.82,18.82,0,0,1,4.87-.88A15.89,15.89,0,0,1,354,337.17a16.66,16.66,0,1,1-31.86.44c0-.44,0-.44.44-.88.44-.88.44-1.77.88-2.65A20.78,20.78,0,0,1,333.19,326.55ZM291.59,187.17c1.77-4,4.87-7.52,8.85-8.85a17.37,17.37,0,0,1,6.19-1.33,16.93,16.93,0,0,1,15.49,10.18,16.16,16.16,0,0,1,0,12.83c-1.77,4-4.87,7.52-8.85,8.85a16.16,16.16,0,0,1-12.83,0c-4-1.77-7.52-4.87-8.85-8.85A16.16,16.16,0,0,1,291.59,187.17Zm-51.77,103.1a20.81,20.81,0,0,1,11.06-11.06,25.84,25.84,0,0,1,8-1.77,19.47,19.47,0,0,1,18.58,12.39h0a18.9,18.9,0,0,1,0,15.49,20.81,20.81,0,0,1-11.06,11.06,20.31,20.31,0,0,1-26.55-10.62A23.24,23.24,0,0,1,239.82,290.27Zm-95.13-3.54h2.65a15.93,15.93,0,0,1,9.73,3.1,18.24,18.24,0,0,1,6.64,10.62c1.33,8.85-4.87,17.7-13.72,19s-17.7-4.87-19-13.72C129.65,296.46,135.4,288.05,144.69,286.73Z"/></svg>