<?xml version="1.0" encoding="iso-8859-1"?>
<!-- Generator: Adobe Illustrator 17.0.0, SVG Export Plug-In . SVG Version: 6.00 Build 0)  -->
<!DOCTYPE svg PUBLIC "-//W3C//DTD SVG 1.1//EN" "http://www.w3.org/Graphics/SVG/1.1/DTD/svg11.dtd">
<svg version="1.1" id="_x30_4_x5F_business_x5F_paper"
	 xmlns="http://www.w3.org/2000/svg" xmlns:xlink="http://www.w3.org/1999/xlink" x="0px" y="0px" width="50px" height="64px"
	 viewBox="0 0 50 64" style="enable-background:new 0 0 50 64;" xml:space="preserve">
<g>
	<g>
		<g>
			<polyline style="fill:none;stroke:#222829;stroke-width:2;stroke-miterlimit:10;" points="41,5 49,5 49,63 5,63 5,59 			"/>
			<line style="fill:none;stroke:#222829;stroke-width:2;stroke-miterlimit:10;" x1="6" y1="17" x2="40" y2="17"/>
			<line style="fill:none;stroke:#222829;stroke-width:2;stroke-miterlimit:10;" x1="6" y1="21" x2="40" y2="21"/>
			<line style="fill:none;stroke:#222829;stroke-width:2;stroke-miterlimit:10;" x1="6" y1="25" x2="40" y2="25"/>
			<line style="fill:none;stroke:#222829;stroke-width:2;stroke-miterlimit:10;" x1="6" y1="29" x2="20" y2="29"/>
			<line style="fill:none;stroke:#222829;stroke-width:2;stroke-miterlimit:10;" x1="7" y1="54" x2="7" y2="39"/>
			<line style="fill:none;stroke:#222829;stroke-width:2;stroke-miterlimit:10;" x1="11" y1="54" x2="11" y2="44"/>
			<line style="fill:none;stroke:#222829;stroke-width:2;stroke-miterlimit:10;" x1="15" y1="54" x2="15" y2="35"/>
			<line style="fill:none;stroke:#222829;stroke-width:2;stroke-miterlimit:10;" x1="19" y1="54" x2="19" y2="41"/>
			<line style="fill:none;stroke:#222829;stroke-width:2;stroke-miterlimit:10;" x1="23" y1="54" x2="23" y2="37"/>
			<line style="fill:none;stroke:#222829;stroke-width:2;stroke-miterlimit:10;" x1="27" y1="54" x2="27" y2="43"/>
			<line style="fill:none;stroke:#222829;stroke-width:2;stroke-miterlimit:10;" x1="31" y1="54" x2="31" y2="41"/>
			<line style="fill:none;stroke:#222829;stroke-width:2;stroke-miterlimit:10;" x1="35" y1="54" x2="35" y2="34"/>
			<line style="fill:none;stroke:#222829;stroke-width:2;stroke-miterlimit:10;" x1="39" y1="54" x2="39" y2="37"/>
			<g>
				<polyline style="fill:none;stroke:#222829;stroke-width:2;stroke-miterlimit:10;" points="37,2 37,9 44,9 				"/>
				<polygon style="fill:none;stroke:#222829;stroke-width:2;stroke-miterlimit:10;" points="37,1 45,9 45,59 1,59 1,1 				"/>
			</g>
			
				<rect x="7" y="7" style="fill:none;stroke:#222829;stroke-width:2;stroke-linejoin:round;stroke-miterlimit:10;" width="24" height="6"/>
		</g>
	</g>
</g>
</svg>
