<?xml version="1.0" encoding="utf-8"?>
<!-- Generator: Adobe Illustrator 22.1.0, SVG Export Plug-In . SVG Version: 6.00 Build 0)  -->
<svg version="1.1" id="_x30_4_x5F_business_x5F_paper"
	 xmlns="http://www.w3.org/2000/svg" xmlns:xlink="http://www.w3.org/1999/xlink" x="0px" y="0px" viewBox="0 0 497 500"
	 style="enable-background:new 0 0 497 500;" xml:space="preserve">
<style type="text/css">
	.st0{fill:#222829;}
</style>
<g>
	<polygon class="st0" points="349.9,85.9 393.6,85.9 393.6,439.5 128.7,439.5 128.7,421.1 114.7,421.1 114.7,453.5 407.6,453.5 
		407.6,71.9 349.9,71.9 349.9,85.9 	"/>
	<polyline class="st0" points="128.1,161.9 343.6,161.9 343.6,147.9 128.1,147.9 	"/>
	<polyline class="st0" points="128.1,187.3 343.6,187.3 343.6,173.3 128.1,173.3 	"/>
	<polyline class="st0" points="128.1,212.6 343.6,212.6 343.6,198.6 128.1,198.6 	"/>
	<polyline class="st0" points="128.1,238 216.8,238 216.8,224 128.1,224 	"/>
	<polyline class="st0" points="141.4,389.5 141.4,294.4 127.4,294.4 127.4,389.5 	"/>
	<polyline class="st0" points="166.8,389.5 166.8,326.1 152.8,326.1 152.8,389.5 	"/>
	<polyline class="st0" points="192.1,389.5 192.1,269 178.1,269 178.1,389.5 	"/>
	<polyline class="st0" points="217.5,389.5 217.5,307 203.5,307 203.5,389.5 	"/>
	<polyline class="st0" points="242.8,389.5 242.8,281.7 228.8,281.7 228.8,389.5 	"/>
	<polyline class="st0" points="268.2,389.5 268.2,319.7 254.2,319.7 254.2,389.5 	"/>
	<polyline class="st0" points="293.5,389.5 293.5,307 279.5,307 279.5,389.5 	"/>
	<polyline class="st0" points="318.9,389.5 318.9,262.7 304.9,262.7 304.9,389.5 	"/>
	<polyline class="st0" points="344.2,389.5 344.2,281.7 330.2,281.7 330.2,389.5 	"/>
	<polygon class="st0" points="317.6,59.8 317.6,111.2 368.9,111.2 368.9,97.2 331.6,97.2 331.6,59.8 317.6,59.8 	"/>
	<polygon class="st0" points="324.6,53.5 319.6,58.4 368.3,107.1 368.3,414.1 103.4,414.1 103.4,60.5 324.6,60.5 324.6,53.5 
		319.6,58.4 324.6,53.5 324.6,46.5 89.4,46.5 89.4,428.1 382.3,428.1 382.3,101.3 327.5,46.5 324.6,46.5 	"/>
	<path class="st0" d="M134.4,91.5v7h145.1v24H141.4l0-31H134.4v7V91.5h-7v38c0,1.8,0.7,3.6,2.1,4.9c1.3,1.3,3.1,2.1,4.9,2.1h152.1
		c1.8,0,3.6-0.7,4.9-2.1s2.1-3.1,2.1-4.9v-38c0-1.8-0.7-3.6-2.1-4.9c-1.3-1.3-3.1-2.1-4.9-2.1H134.4c-1.8,0-3.6,0.7-4.9,2.1
		s-2.1,3.1-2.1,4.9H134.4z"/>
</g>
</svg>
