<svg id="Layer_1" data-name="Layer 1" xmlns="http://www.w3.org/2000/svg" viewBox="0 0 500 500"><title>calendar</title><path d="M87.84,205.87V360.31H242.28V205.87ZM228.38,346.41H101.74V219.77H228.38Z"/><path d="M135.15,313.21H123.36a7,7,0,0,1-6.95-6.95V294.68a18.54,18.54,0,0,1,18.53-18.54h7.71a4.63,4.63,0,1,0,0-9.26h-7.71a4.62,4.62,0,0,0-4.63,4.63h-13.9A18.52,18.52,0,0,1,134.94,253h7.71a18.53,18.53,0,1,1,0,37.06h-7.71a4.64,4.64,0,0,0-4.63,4.64v4.63h4.84Z"/><rect x="128.2" y="299.31" width="32.99" height="13.9"/><path d="M213.71,290H187.45a18.54,18.54,0,0,1-18.53-18.54V253h13.9V271.5a4.64,4.64,0,0,0,4.63,4.64h26.26Z"/><rect x="199.81" y="252.97" width="13.9" height="60.24"/><rect x="257.72" y="205.87" width="15.44" height="15.44"/><rect x="285.52" y="205.87" width="15.44" height="15.44"/><rect x="257.72" y="233.67" width="15.44" height="15.44"/><rect x="285.52" y="233.67" width="15.44" height="15.44"/><rect x="313.32" y="233.67" width="15.44" height="15.44"/><rect x="341.12" y="233.67" width="15.44" height="15.44"/><rect x="368.92" y="233.67" width="15.44" height="15.44"/><rect x="396.72" y="233.67" width="15.44" height="15.44"/><rect x="257.72" y="261.47" width="15.44" height="15.44"/><rect x="285.52" y="261.47" width="15.44" height="15.44"/><rect x="313.32" y="261.47" width="15.44" height="15.44"/><rect x="341.12" y="261.47" width="15.44" height="15.44"/><rect x="368.92" y="261.47" width="15.44" height="15.44"/><rect x="396.72" y="261.47" width="15.44" height="15.44"/><rect x="257.72" y="289.27" width="15.44" height="15.44"/><rect x="285.52" y="289.27" width="15.44" height="15.44"/><rect x="313.32" y="289.27" width="15.44" height="15.44"/><rect x="341.12" y="289.27" width="15.44" height="15.44"/><rect x="368.92" y="289.27" width="15.44" height="15.44"/><rect x="396.72" y="289.27" width="15.44" height="15.44"/><rect x="257.72" y="317.07" width="15.44" height="15.44"/><rect x="285.52" y="317.07" width="15.44" height="15.44"/><rect x="313.32" y="317.07" width="15.44" height="15.44"/><rect x="341.12" y="317.07" width="15.44" height="15.44"/><rect x="368.92" y="317.07" width="15.44" height="15.44"/><rect x="396.72" y="317.07" width="15.44" height="15.44"/><rect x="257.72" y="344.87" width="15.44" height="15.44"/><rect x="285.52" y="344.87" width="15.44" height="15.44"/><rect x="313.32" y="344.87" width="15.44" height="15.44"/><rect x="341.12" y="344.87" width="15.44" height="15.44"/><rect x="368.92" y="344.87" width="15.44" height="15.44"/><polygon points="407.32 398.14 50 398.14 50 182.69 63.9 182.69 63.9 384.24 401.56 384.24 436.1 349.7 436.1 182.69 450 182.69 450 355.45 407.32 398.14"/><polygon points="411.39 391.2 397.49 391.2 397.49 345.64 443.05 345.64 443.05 359.54 411.39 359.54 411.39 391.2"/><path d="M450,189.64H50V114H450ZM63.9,175.74H436.1V127.87H63.9Z"/><rect x="88.61" y="101.86" width="13.9" height="52.51"/><rect x="397.49" y="101.86" width="13.9" height="52.51"/></svg>