<svg id="Layer_1" data-name="Layer 1" xmlns="http://www.w3.org/2000/svg" viewBox="0 0 500 500"><title>Artboard 10</title><path d="M396.83,50H183.42a46.65,46.65,0,0,0-46.59,46.6v256H56.59v6.47a46.65,46.65,0,0,0,46.59,46.6H316.58a46.65,46.65,0,0,0,46.59-46.6v-256h80.24V96.6A46.65,46.65,0,0,0,396.83,50ZM103.17,392.71a33.7,33.7,0,0,1-33-27.19h200.3a46.52,46.52,0,0,0,14,27.19Zm247.05-33.66a33.64,33.64,0,1,1-67.28,0v-6.47H149.77V96.6a33.69,33.69,0,0,1,33.65-33.66H364.63c-.12.12-.23.25-.35.37-.59.57-1.13,1.18-1.69,1.78s-.95,1-1.4,1.53-1,1.31-1.54,2-.83,1.07-1.22,1.63-.92,1.44-1.36,2.17c-.35.57-.72,1.12-1,1.71-.42.76-.79,1.56-1.17,2.35-.28.59-.59,1.16-.85,1.77-.36.83-.65,1.68-1,2.53-.22.6-.47,1.19-.66,1.8-.28.9-.5,1.82-.73,2.75-.15.59-.33,1.17-.46,1.78-.21,1-.35,2.09-.5,3.15-.07.52-.18,1-.24,1.54a46.88,46.88,0,0,0-.25,4.83V359.05ZM363.81,90.13c0-.06,0-.11,0-.17.06-.29.14-.58.21-.87.17-.74.35-1.47.56-2.19.11-.36.24-.72.36-1.07.21-.63.44-1.26.69-1.87.15-.37.32-.74.48-1.1.26-.58.54-1.16.83-1.73q.28-.54.58-1.06c.32-.56.65-1.1,1-1.64.21-.33.42-.66.64-1,.38-.55.79-1.09,1.21-1.61.22-.28.42-.56.65-.83.51-.61,1-1.19,1.6-1.76.16-.16.3-.33.46-.49q1.1-1.09,2.29-2.08l.38-.29c.67-.54,1.36-1.06,2.07-1.55.28-.19.57-.36.85-.54.58-.37,1.16-.74,1.76-1.07.34-.19.68-.36,1-.54.57-.3,1.15-.58,1.74-.84l1.12-.47q.89-.36,1.8-.66c.39-.13.78-.26,1.17-.38.63-.19,1.27-.34,1.91-.49.39-.09.77-.19,1.17-.26.71-.14,1.43-.24,2.15-.33.34,0,.68-.1,1-.14,1.07-.1,2.15-.17,3.25-.17a33.7,33.7,0,0,1,33,27.19Z"/><path d="M170.47,151.62h43.14V108.48H170.47Zm12.94-30.2h17.26v17.26H183.41Z"/><rect x="230.86" y="109.19" width="98.67" height="12.94"/><rect x="230.86" y="137.95" width="49.33" height="12.94"/><path d="M170.47,209.14h43.14V166H170.47Zm12.94-30.2h17.26v17.26H183.41Z"/><rect x="230.86" y="166.71" width="98.67" height="12.94"/><rect x="230.86" y="195.47" width="49.33" height="12.94"/><path d="M170.47,266.66h43.14V223.52H170.47Zm12.94-30.2h17.26v17.26H183.41Z"/><rect x="230.86" y="224.24" width="98.67" height="12.94"/><rect x="230.86" y="253" width="49.33" height="12.94"/><path d="M170.47,324.18h43.14V281H170.47ZM183.41,294h17.26v17.26H183.41Z"/><rect x="230.86" y="281.76" width="98.67" height="12.94"/><rect x="230.86" y="310.52" width="49.33" height="12.94"/><path d="M424,168.76h0l-20.28-44.85-20.28,44.85h0a6.42,6.42,0,0,0-.59,2.66V429.15a20.85,20.85,0,0,0,41.7,0V171.42A6.42,6.42,0,0,0,424,168.76ZM408.06,165h-8.71l4.35-9.63Zm3.56,264.2a7.86,7.86,0,0,1-2.32,5.6,8.09,8.09,0,0,1-11.18,0,7.86,7.86,0,0,1-2.31-5.59v-11h15.82Zm-15.82-23.9V177.9h15.82V405.25Z"/></svg>