<svg id="Layer_1" data-name="Layer 1" xmlns="http://www.w3.org/2000/svg" viewBox="0 0 540 540"><title>Artboard 2</title><path d="M371.47,285H324.08V392.9h61.2v47.37H495.95V329.6H385.27V377H340V301h31.45m-202.93,0H200v76H154.73V329.6H44.05V440.27H154.73V392.9h61.21V285h-47.4M138.79,424.33H60v-78.8h78.8V377H99.39V392.9h39.4ZM480,345.53v78.8h-78.8V392.9h39.4V377h-39.4V345.53Z"/><path d="M278,285H262V424.33H214.66V535H325.34V424.33H278ZM309.4,440.27v78.79H230.6V440.27H262v39.4H278v-39.4Z"/><rect x="230.15" y="231.49" width="15.94" height="15.94"/><rect x="262.03" y="231.49" width="15.94" height="15.94"/><rect x="293.91" y="231.49" width="15.94" height="15.94"/><path d="M411,299.77l-1.15-14c39.72-3.28,70.83-37.11,70.83-77,0-40.05-27.18-70.26-63.23-70.26h-7v-7c0-27.17-14.77-56.21-56.21-56.21H343.08l-2-3.62c-18.24-32.93-52.71-52.58-92.21-52.58A105.5,105.5,0,0,0,143.47,124.44v7h-7a77.37,77.37,0,0,0-77.28,77.28c0,39.9,31.11,73.74,70.83,77l-1.15,14c-46.95-3.88-83.73-43.86-83.73-91a91.46,91.46,0,0,1,84.5-91.08A119.58,119.58,0,0,1,248.86,5C292.08,5,330,25.93,351.27,61.21h3c40.39,0,67.25,24.7,70,63.52,40.64,3.52,70.49,38.46,70.49,84C494.76,255.91,458,295.89,411,299.77Z"/></svg>