<svg id="Layer_1" data-name="Layer 1" xmlns="http://www.w3.org/2000/svg" viewBox="0 0 500 500"><title>Artboard 13</title><path d="M326.58,261.33H290.81v81.42H337v35.75h83.53V295H337v35.75H302.84V273.36h23.74m-153.16,0h23.74v57.36H163V295H79.47v83.53H163V342.75H209.2V261.33H173.42M151,366.48H91.5V307H151v23.72H121.24v12H151ZM408.5,307v59.47H349V342.75h29.74v-12H349V307Z"/><path d="M256,261.33H244V366.48H208.24V450h83.53V366.48H256Zm23.72,117.17V438H220.26V378.51H244v29.73h12V378.51Z"/><rect x="219.93" y="220.94" width="12.03" height="12.03"/><rect x="243.99" y="220.94" width="12.03" height="12.03"/><rect x="268.04" y="220.94" width="12.03" height="12.03"/><path d="M356.43,272.47l-.87-10.57A58.63,58.63,0,0,0,409,203.77c0-30.23-20.52-53-47.72-53H356v-5.3c0-20.51-11.14-42.42-42.42-42.42h-8.43l-1.52-2.73C289.87,75.44,263.85,60.6,234,60.6a79.62,79.62,0,0,0-79.54,79.54v5.3h-5.3a58.33,58.33,0,0,0-4.87,116.45l-.87,10.57c-35.43-2.93-63.19-33.1-63.19-68.7A69,69,0,0,1,144,135a90.25,90.25,0,0,1,90-85c32.62,0,61.28,15.79,77.29,42.42h2.24c30.48,0,50.76,18.64,52.85,47.94,30.67,2.66,53.2,29,53.2,63.41C419.63,239.36,391.87,269.54,356.43,272.47Z"/></svg>