<svg id="Layer_1" data-name="Layer 1" xmlns="http://www.w3.org/2000/svg" viewBox="0 0 500 500"><title>Artboard 15</title><path d="M387.29,177.21c-2.47-34.53-26.36-56.51-62.29-56.51h-2.64c-18.88-31.38-52.66-50-91.11-50A106.38,106.38,0,0,0,125.17,170.93,81.36,81.36,0,0,0,50,252c0,42,32.72,77.52,74.49,81h0L201.6,334a15,15,0,0,1,15,15V372H179.73L237,429.29,294.26,372H257.41V346.08H243.8v39.56h17.6L237,410l-24.41-24.4h17.6V349a28.59,28.59,0,0,0-28.59-28.58l-76.09.08h0c-35.33-2.92-63-33-63-68.51a68.83,68.83,0,0,1,68.75-68.75h6.25V177a93.85,93.85,0,0,1,93.75-93.75c35.14,0,65.81,17.49,82,46.78l1.79,3.22H325c36.86,0,50,25.83,50,50v6.25h6.25c32.07,0,56.25,26.87,56.25,62.5s-27.68,65.59-63,68.51l1,12.46c41.77-3.46,74.49-39,74.49-81C450,211.42,423.44,180.35,387.29,177.21Z"/><path d="M299.61,320.39a15,15,0,0,1-15-15V282.19h36.85l-57.27-57.27L207,282.19H243.8v25.95h13.61V268.58H239.82l24.4-24.4,24.4,24.4H271v36.84A28.59,28.59,0,0,0,299.61,334l75.9-1.07-1-12.46Z"/><rect x="243.8" y="320.39" width="13.61" height="13.61"/></svg>