<svg id="Layer_1" data-name="Layer 1" xmlns="http://www.w3.org/2000/svg" viewBox="0 0 1000 1000"><title>Artboard 11</title><path d="M663.31,500A163.31,163.31,0,1,0,500,663.31,163.31,163.31,0,0,0,663.31,500Zm-297.58,0c0-74,60.24-134.27,134.27-134.27S634.28,426,634.28,500a133.78,133.78,0,0,1-43,98.2A61.81,61.81,0,0,0,533.75,559h-67.5a61.88,61.88,0,0,0-57.53,39.2A133.79,133.79,0,0,1,365.73,500Zm68.13,116.71A32.56,32.56,0,0,1,466.25,588h67.5a32.78,32.78,0,0,1,23.2,9.62,32.44,32.44,0,0,1,9.2,19.06,133.33,133.33,0,0,1-132.3,0Z"/><path d="M500,537.35a63.79,63.79,0,1,0-63.79-63.79A63.85,63.85,0,0,0,500,537.35Zm0-98.54a34.75,34.75,0,1,1-34.75,34.75A34.78,34.78,0,0,1,500,438.81Z"/><path d="M878.89,548.71,850.08,545c-1.27,10-3,20-5.07,29.66l28.38,6.14C875.66,570.33,877.51,559.51,878.89,548.71Z"/><path d="M873.38,419.09,845,425.21c2.1,9.78,3.81,19.76,5.07,29.67l28.81-3.67C877.52,440.5,875.66,429.69,873.38,419.09Z"/><path d="M882,500q0-8.18-.35-16.29l-29,1.23q.32,7.5.32,15.07t-.32,15l29,1.23Q882,508.17,882,500Z"/><path d="M756.71,217.06c-8-7.23-16.41-14.24-25.08-20.83l-17.58,23.11c8,6.09,15.8,12.55,23.16,19.23Z"/><path d="M647.2,147.48c-10-4.17-20.26-8-30.57-11.29l-8.89,27.63c9.53,3.06,19,6.58,28.23,10.45Z"/><path d="M689.32,202.14l15.57-24.51q-6.84-4.33-13.94-8.44t-14.28-7.84l-13.43,25.73c4.44,2.32,8.85,4.75,13.22,7.26S685.11,199.46,689.32,202.14Z"/><path d="M392.2,163.85l-8.88-27.63c-10.24,3.29-20.53,7.09-30.57,11.3L364,174.29C373.25,170.4,382.74,166.89,392.2,163.85Z"/><path d="M285.89,219.38l-17.58-23.11c-8.6,6.54-17,13.55-25.06,20.82l19.49,21.52C270.15,231.89,278,225.43,285.89,219.38Z"/><path d="M323.53,194.37q6.54-3.78,13.18-7.25l-13.43-25.74q-7.18,3.76-14.28,7.85t-13.93,8.46l15.57,24.5Q317,198.15,323.53,194.37Z"/><path d="M155,425.28l-28.38-6.12c-2.27,10.52-4.12,21.33-5.49,32.13l28.8,3.67C151.19,445,152.89,435,155,425.28Z"/><path d="M155,574.79c-2.11-9.78-3.81-19.77-5.07-29.67l-28.81,3.67c1.37,10.72,3.22,21.53,5.5,32.12Z"/><path d="M118,500c0,5.46.12,10.89.35,16.28l29-1.23c-.21-5-.32-10-.32-15.07s.1-10.06.32-15l-29-1.23C118.16,489.14,118,494.56,118,500Z"/><path d="M352.81,852.51c10,4.18,20.25,8,30.56,11.29l8.89-27.63c-9.53-3.06-19-6.59-28.23-10.43Z"/><path d="M310.69,797.85l-15.57,24.51q6.84,4.35,13.94,8.44t14.28,7.84l13.43-25.73q-6.65-3.48-13.22-7.26T310.69,797.85Z"/><path d="M243.3,782.94c8,7.22,16.41,14.23,25.08,20.82L286,780.66c-8-6.1-15.8-12.56-23.16-19.23Z"/><path d="M676.48,805.63c-4.36,2.51-8.76,4.94-13.18,7.25l13.43,25.73c4.79-2.49,9.54-5.12,14.29-7.85s9.36-5.54,13.92-8.44l-15.56-24.51Q683,801.83,676.48,805.63Z"/><path d="M714.11,780.61l17.58,23.11c8.61-6.54,17-13.55,25.06-20.82l-19.49-21.52C729.85,768.11,722.05,774.56,714.11,780.61Z"/><path d="M607.8,836.14l8.88,27.65c10.24-3.3,20.53-7.11,30.57-11.32L636,825.69C626.75,829.59,617.26,833.1,607.8,836.14Z"/><rect x="485.49" y="238" width="29.03" height="77.42"/><path d="M500,215.12a82.56,82.56,0,1,0-82.56-82.56A82.65,82.65,0,0,0,500,215.12ZM500,79a53.53,53.53,0,1,1-53.53,53.53A53.59,53.59,0,0,1,500,79Z"/><rect x="292.11" y="349.65" width="29.03" height="77.42" transform="translate(-183.01 459.73) rotate(-60)"/><path d="M140.51,387.78a82.53,82.53,0,0,0,41.2,11.07h0A82.58,82.58,0,1,0,110.29,275a82.55,82.55,0,0,0,30.22,112.78Zm-5.08-98.27a53.53,53.53,0,1,1,46.29,80.3h0a53.54,53.54,0,0,1-46.29-80.3Z"/><rect x="267.91" y="597.13" width="77.42" height="29.03" transform="translate(-264.77 235.3) rotate(-30)"/><path d="M253.28,642.44a82.56,82.56,0,1,0-71.44,123.85h0a82.58,82.58,0,0,0,71.44-123.85Zm-44.73,87.63a53.5,53.5,0,0,1-26.7,7.18h0a53.54,53.54,0,1,1,26.71-7.18Z"/><rect x="485.48" y="684.58" width="29.03" height="77.42"/><path d="M500,784.88A82.56,82.56,0,0,0,500,950h0a82.56,82.56,0,0,0,0-165.12Zm37.86,120.41A53.17,53.17,0,0,1,500,921h0a53.51,53.51,0,1,1,37.86-15.68Z"/><rect x="678.85" y="572.93" width="29.03" height="77.42" transform="translate(-183.01 906.31) rotate(-60)"/><path d="M859.48,612.23a82.56,82.56,0,1,0-41.33,154.08h0A82.85,82.85,0,0,0,889.7,725a82.55,82.55,0,0,0-30.23-112.78Zm5.08,98.27a53.73,53.73,0,0,1-46.4,26.78h0a53.55,53.55,0,1,1,46.41-26.78Z"/><rect x="654.66" y="373.84" width="77.42" height="29.03" transform="translate(-101.28 398.77) rotate(-30)"/><path d="M746.71,357.58a82.53,82.53,0,0,0,112.78,30.21A82.54,82.54,0,0,0,889.71,275a82.56,82.56,0,0,0-143,82.57Zm44.75-87.64a53.53,53.53,0,1,1-19.6,73.12A53.43,53.43,0,0,1,791.45,269.94Z"/></svg>