<svg id="Layer_1" data-name="Layer 1" xmlns="http://www.w3.org/2000/svg" viewBox="0 0 500 500"><title>Artboard 11</title><path d="M91,411.15a9.46,9.46,0,0,1-9.45-9.45v-27A31.91,31.91,0,0,1,50,342.81V224.64a31.92,31.92,0,0,1,31.91-31.92h52.36v13.9H81.91a18,18,0,0,0-18,18V342.81a18,18,0,0,0,18,18H95.45V391l30.12-30.12h156a18,18,0,0,0,18-18v-39h13.9v39a31.91,31.91,0,0,1-31.92,31.91H131.32L97.68,408.38A9.46,9.46,0,0,1,91,411.15Z"/><path d="M400.93,355.79a10.1,10.1,0,0,1-7.1-2.94l-42.11-42.12H165.16a37.84,37.84,0,0,1-37.84-37.84V126.69a37.84,37.84,0,0,1,37.84-37.84h247A37.84,37.84,0,0,1,450,126.69V272.89a37.83,37.83,0,0,1-37.84,37.84H411v35a10,10,0,0,1-10,10Zm-235.77-253a23.93,23.93,0,0,0-23.94,23.94V272.89a23.93,23.93,0,0,0,23.94,23.94H357.47l39.59,39.6v-39.6h15.09a23.94,23.94,0,0,0,23.94-23.94V126.69a23.94,23.94,0,0,0-23.94-23.94Z"/><rect x="253.91" y="192.84" width="13.9" height="13.9"/><rect x="281.71" y="192.84" width="13.9" height="13.9"/><rect x="309.51" y="192.84" width="13.9" height="13.9"/><path d="M412.93,273.67H164.39V125.91H412.93Zm-234.64-13.9H399v-120H178.29Z"/></svg>