<?xml version="1.0" encoding="utf-8"?>
<!-- Generator: Adobe Illustrator 22.1.0, SVG Export Plug-In . SVG Version: 6.00 Build 0)  -->
<svg version="1.1" id="_x31_9_x5F_computer_x5F_api_x5F_interface"
	 xmlns="http://www.w3.org/2000/svg" xmlns:xlink="http://www.w3.org/1999/xlink" x="0px" y="0px" viewBox="0 0 500 500"
	 style="enable-background:new 0 0 500 500;" xml:space="preserve">
<style type="text/css">
	.st0{fill:#222829;}
</style>
<g>
	<path class="st0" d="M169.2,256.8v-81c0-1.9,0.4-3.6,1-5.1c1-2.4,2.7-4.4,4.8-5.8c2.1-1.4,4.6-2.2,7.4-2.2h6.8c1.9,0,3.6,0.4,5.1,1
		c2.4,1,4.4,2.7,5.8,4.8c1.4,2.1,2.2,4.6,2.2,7.4v81h14l0-81c0-7.5-3-14.3-7.9-19.2c-2.5-2.5-5.4-4.5-8.6-5.8
		c-3.3-1.4-6.9-2.2-10.6-2.2h-6.8c-7.5,0-14.3,3-19.2,7.9c-2.5,2.5-4.5,5.4-5.8,8.6c-1.4,3.3-2.2,6.9-2.2,10.6v81H169.2L169.2,256.8
		z"/>
	<polyline class="st0" points="162.2,223.2 209.5,223.2 209.5,209.2 162.2,209.2 	"/>
	<path class="st0" d="M243.5,256.8v-94.3h20c1.9,0,3.6,0.4,5.1,1c2.4,1,4.4,2.7,5.8,4.8c1.4,2.1,2.2,4.6,2.2,7.4V196
		c0,1.9-0.4,3.6-1,5.1c-1,2.4-2.7,4.4-4.8,5.8c-2.1,1.4-4.6,2.2-7.4,2.2h-27v14l27,0c7.5,0,14.3-3,19.2-7.9c2.5-2.5,4.5-5.4,5.8-8.6
		c1.4-3.3,2.2-6.9,2.2-10.6v-20.3c0-7.5-3-14.3-7.9-19.2c-2.5-2.5-5.4-4.5-8.6-5.8c-3.3-1.4-6.9-2.2-10.6-2.2h-34v108.3H243.5
		L243.5,256.8z"/>
	<polyline class="st0" points="317.2,155.5 317.2,250 331.2,250 331.2,155.5 	"/>
	<polyline class="st0" points="304,162.5 344.5,162.5 344.5,148.5 304,148.5 	"/>
	<polyline class="st0" points="304,257 344.5,257 344.5,243 304,243 	"/>
	<path class="st0" d="M459.2,81.2h7c0-3.7-0.8-7.4-2.2-10.6c-2.1-4.9-5.5-9-9.9-12c-4.3-2.9-9.6-4.6-15.2-4.6H61
		c-3.7,0-7.4,0.8-10.6,2.2c-4.9,2.1-9,5.5-12,9.9c-2.9,4.3-4.6,9.6-4.6,15.2v270c0,3.7,0.8,7.4,2.2,10.6c2.1,4.9,5.5,9,9.9,12
		c4.3,2.9,9.6,4.6,15.2,4.6h378c3.7,0,7.4-0.8,10.6-2.2c4.9-2.1,9-5.5,12-9.9c2.9-4.3,4.6-9.6,4.6-15.2v-270H459.2h-7v270
		c0,3.6-1.5,6.9-3.9,9.3c-1.2,1.2-2.6,2.2-4.2,2.8c-1.6,0.7-3.3,1-5.1,1H61c-3.6,0-6.9-1.5-9.3-3.9c-1.2-1.2-2.2-2.6-2.8-4.2
		c-0.7-1.6-1-3.3-1-5.1v-270c0-3.6,1.5-6.9,3.9-9.3c1.2-1.2,2.6-2.2,4.2-2.8c1.6-0.7,3.3-1,5.1-1h378c3.6,0,6.9,1.5,9.3,3.9
		c1.2,1.2,2.2,2.6,2.8,4.2c0.7,1.6,1,3.3,1,5.1H459.2z"/>
	<polyline class="st0" points="283.6,372.9 297.1,440.4 310.9,437.6 297.4,370.1 	"/>
	<polyline class="st0" points="202.9,440.4 216.4,372.9 202.6,370.1 189.1,437.6 	"/>
	<polyline class="st0" points="162.2,446 337.8,446 337.8,432 162.2,432 	"/>
	<polyline class="st0" points="243.2,351.5 256.8,351.5 256.8,337.5 243.2,337.5 	"/>
	<polyline class="st0" points="439,195.8 364.8,195.8 364.8,209.8 439,209.8 	"/>
	<polygon class="st0" points="439,141.8 409.1,141.8 382.1,168.8 364.8,168.8 364.8,182.8 387.9,182.8 414.9,155.8 439,155.8 
		439,141.8 	"/>
	<polygon class="st0" points="364.8,236.8 382.1,236.8 409.1,263.8 439,263.8 439,249.8 414.9,249.8 387.9,222.8 364.8,222.8 
		364.8,236.8 	"/>
	<polyline class="st0" points="61,209.8 135.2,209.8 135.2,195.8 61,195.8 	"/>
	<polygon class="st0" points="61,155.8 85.1,155.8 112.1,182.8 135.2,182.8 135.2,168.8 117.9,168.8 90.9,141.8 61,141.8 61,155.8 	
		"/>
	<polygon class="st0" points="135.2,222.8 112.1,222.8 85.1,249.8 61,249.8 61,263.8 90.9,263.8 117.9,236.8 135.2,236.8 
		135.2,222.8 	"/>
	<polygon class="st0" points="74.8,128.5 74.8,95 425.2,95 425.2,128.5 439.2,128.5 439.2,81 60.8,81 60.8,128.5 74.8,128.5 	"/>
	<polygon class="st0" points="425.2,277 425.2,310.5 74.8,310.5 74.8,277 60.8,277 60.8,324.5 439.2,324.5 439.2,277 425.2,277 	"/>
	<polyline class="st0" points="61,182.8 74.5,182.8 74.5,168.8 61,168.8 	"/>
	<polyline class="st0" points="61,236.8 74.5,236.8 74.5,222.8 61,222.8 	"/>
	<polyline class="st0" points="425.5,182.8 439,182.8 439,168.8 425.5,168.8 	"/>
	<polyline class="st0" points="425.5,236.8 439,236.8 439,222.8 425.5,222.8 	"/>
	<path class="st0" d="M364.8,270.2h-7h0.2l-0.2-0.1l0,0.1h0.2l-0.2-0.1l0.1,0.1l-0.1-0.1l-0.1,0.1l0.1,0.1l-0.1-0.1l0.1,0.2V270
		l-0.1,0l0.1,0.2V270H142v0.2l0.1-0.2l-0.1,0v0.2l0.1-0.2l-0.1,0.1l0.1-0.1l-0.1-0.1l-0.1,0.1l0.1-0.1l-0.2,0.1h0.2l0-0.1l-0.2,0.1
		h0.2v-135H142l0.2,0.1l0-0.1H142l0.2,0.1l-0.1-0.1l0.1,0.1l0.1-0.1l-0.1-0.1l0.1,0.1l-0.1-0.2l0,0.2l0.1,0l-0.1-0.2l0,0.2h216v-0.2
		l-0.1,0.2l0.1,0v-0.2l-0.1,0.2l0.1-0.1l-0.1,0.1l0.1,0.1l0.1-0.1l-0.1,0.1l0.2-0.1l-0.2,0l0,0.1l0.2-0.1l-0.2,0v135H364.8h7v-135
		c0-1.9-0.4-3.8-1.1-5.4c-1.1-2.5-2.8-4.6-5-6.1c-2.2-1.5-4.9-2.3-7.7-2.3H142c-1.9,0-3.8,0.4-5.4,1.1c-2.5,1.1-4.6,2.8-6.1,5
		c-1.5,2.2-2.3,4.9-2.3,7.7v135c0,1.9,0.4,3.8,1.1,5.4c1.1,2.5,2.8,4.6,5,6.1c2.2,1.5,4.9,2.3,7.7,2.3h216c1.9,0,3.8-0.4,5.4-1.1
		c2.5-1.1,4.6-2.8,6.1-5c1.5-2.2,2.3-4.9,2.3-7.7H364.8z"/>
</g>
</svg>
