<?xml version="1.0" encoding="iso-8859-1"?>
<!-- Generator: Adobe Illustrator 17.0.0, SVG Export Plug-In . SVG Version: 6.00 Build 0)  -->
<!DOCTYPE svg PUBLIC "-//W3C//DTD SVG 1.1//EN" "http://www.w3.org/Graphics/SVG/1.1/DTD/svg11.dtd">
<svg version="1.1" id="_x31_9_x5F_computer_x5F_api_x5F_interface"
	 xmlns="http://www.w3.org/2000/svg" xmlns:xlink="http://www.w3.org/1999/xlink" x="0px" y="0px" width="64px" height="58px"
	 viewBox="0 0 64 58" style="enable-background:new 0 0 64 58;" xml:space="preserve">
<g>
	<g>
		<g>
			<g>
				<g>
					<path style="fill:none;stroke:#222829;stroke-width:2;stroke-miterlimit:10;" d="M19,30V18c0-1.656,1.344-3,3-3h1
						c1.656,0,3,1.344,3,3v12"/>
				</g>
				<line style="fill:none;stroke:#222829;stroke-width:2;stroke-miterlimit:10;" x1="19" y1="24" x2="26" y2="24"/>
			</g>
			<g>
				<path style="fill:none;stroke:#222829;stroke-width:2;stroke-miterlimit:10;" d="M30,30V15h4c1.656,0,3,1.344,3,3v3
					c0,1.656-1.344,3-3,3h-4"/>
			</g>
			<line style="fill:none;stroke:#222829;stroke-width:2;stroke-miterlimit:10;" x1="43" y1="15" x2="43" y2="29"/>
			<line style="fill:none;stroke:#222829;stroke-width:2;stroke-miterlimit:10;" x1="40" y1="15" x2="46" y2="15"/>
			<line style="fill:none;stroke:#222829;stroke-width:2;stroke-miterlimit:10;" x1="40" y1="29" x2="46" y2="29"/>
		</g>
		<path style="fill:none;stroke:#222829;stroke-width:2;stroke-miterlimit:10;" d="M63,4c0-1.657-1.344-3-3-3H4C2.344,1,1,2.343,1,4
			v40c0,1.657,1.344,3,3,3h56c1.656,0,3-1.343,3-3V4z"/>
		<line style="fill:none;stroke:#222829;stroke-width:2;stroke-miterlimit:10;" x1="38" y1="47" x2="40" y2="57"/>
		<line style="fill:none;stroke:#222829;stroke-width:2;stroke-miterlimit:10;" x1="24" y1="57" x2="26" y2="47"/>
		<line style="fill:none;stroke:#222829;stroke-width:2;stroke-miterlimit:10;" x1="19" y1="57" x2="45" y2="57"/>
		<line style="fill:none;stroke:#222829;stroke-width:2;stroke-miterlimit:10;" x1="31" y1="43" x2="33" y2="43"/>
		<line style="fill:none;stroke:#222829;stroke-width:2;stroke-miterlimit:10;" x1="60" y1="22" x2="49" y2="22"/>
		<polyline style="fill:none;stroke:#222829;stroke-width:2;stroke-miterlimit:10;" points="60,14 56,14 52,18 49,18 		"/>
		<polyline style="fill:none;stroke:#222829;stroke-width:2;stroke-miterlimit:10;" points="49,26 52,26 56,30 60,30 		"/>
		<line style="fill:none;stroke:#222829;stroke-width:2;stroke-miterlimit:10;" x1="4" y1="22" x2="15" y2="22"/>
		<polyline style="fill:none;stroke:#222829;stroke-width:2;stroke-miterlimit:10;" points="4,14 8,14 12,18 15,18 		"/>
		<polyline style="fill:none;stroke:#222829;stroke-width:2;stroke-miterlimit:10;" points="15,26 12,26 8,30 4,30 		"/>
		<polyline style="fill:none;stroke:#222829;stroke-width:2;stroke-miterlimit:10;" points="5,11 5,5 59,5 59,11 		"/>
		<polyline style="fill:none;stroke:#222829;stroke-width:2;stroke-miterlimit:10;" points="59,33 59,39 5,39 5,33 		"/>
		<line style="fill:none;stroke:#222829;stroke-width:2;stroke-miterlimit:10;" x1="4" y1="18" x2="6" y2="18"/>
		<line style="fill:none;stroke:#222829;stroke-width:2;stroke-miterlimit:10;" x1="4" y1="26" x2="6" y2="26"/>
		<line style="fill:none;stroke:#222829;stroke-width:2;stroke-miterlimit:10;" x1="58" y1="18" x2="60" y2="18"/>
		<line style="fill:none;stroke:#222829;stroke-width:2;stroke-miterlimit:10;" x1="58" y1="26" x2="60" y2="26"/>
		<path style="fill:none;stroke:#222829;stroke-width:2;stroke-miterlimit:10;" d="M49,32c0,0.553-0.447,1-1,1H16
			c-0.553,0-1-0.447-1-1V12c0-0.553,0.447-1,1-1h32c0.553,0,1,0.447,1,1V32z"/>
	</g>
</g>
</svg>
