<svg id="Layer_1" data-name="Layer 1" xmlns="http://www.w3.org/2000/svg" viewBox="0 0 500 500"><title>Artboard 1</title><path d="M287.15,185.33,280.05,144l30-29.3-41.53-6L250,71l-18.57,37.64-41.53,6,30,29.3-7.1,41.36L250,165.8Zm-62.73-59.44,17.67-2.57,7.91-16,7.91,16,17.67,2.57-12.79,12.47,3,17.6L250,147.65,234.19,156l3-17.6Z"/><path d="M356.44,421.36V355.77H327.29v-3.35a38.66,38.66,0,0,0-38.65-38.65H283v-48.3a113,113,0,0,0,79.77-100.62,60.4,60.4,0,0,0,52.75-60V44.37H363V5H137V44.37H84.52v60.51a60.42,60.42,0,0,0,52.75,60A113,113,0,0,0,217,265.47v48.3h-5.67a38.66,38.66,0,0,0-38.65,38.65v3.35H143.56v65.59H45.15V495H61.22V437.42h82.34V495h16.07V371.84H340.37V495h16.07V437.42h82.34V495h16.07V421.36Zm43-360.93v44.45A44.41,44.41,0,0,1,363,148.58V60.43ZM100.58,104.88V60.43H137v88.15a44.42,44.42,0,0,1-36.42-43.7ZM227,251.54a97,97,0,0,1-73.91-94.17V21.07H346.93v136.3A97,97,0,0,1,273,251.54L266.89,253v60.74H233.1V253ZM188.78,355.77v-3.35a22.59,22.59,0,0,1,22.58-22.59h77.27a22.59,22.59,0,0,1,22.59,22.59v3.35Z"/><path d="M258,407.79H242a11.57,11.57,0,0,1-11.56,11.57v16.07A27.4,27.4,0,0,0,242,432.85v46.08H230.41V495h39.18V478.93H258Z"/></svg>