<svg xmlns="http://www.w3.org/2000/svg" viewBox="0 0 80.19 153.7"><title>connection</title><g id="Layer_2" data-name="Layer 2"><g id="Layer_1-2" data-name="Layer 1"><path d="M80.19,66.82H0v-20H80.19ZM6.68,60.14H73.51V53.46H6.68Z"/><path d="M33.41,53.46h-20V10a10,10,0,0,1,20,0ZM20.05,46.78h6.68V10a3.34,3.34,0,0,0-6.68,0Z"/><path d="M66.82,53.46h-20V10a10,10,0,1,1,20,0ZM53.46,46.78h6.68V10a3.34,3.34,0,0,0-6.68,0Z"/><path d="M40.09,113.6A33.45,33.45,0,0,1,6.68,80.19V63.48h6.68V80.19a26.73,26.73,0,1,0,53.46,0V63.48h6.69V80.19A33.45,33.45,0,0,1,40.09,113.6Z"/><rect x="20.05" y="73.51" width="6.68" height="6.68"/><rect x="53.46" y="73.51" width="6.68" height="6.68"/><rect x="30.07" y="110.26" width="6.68" height="43.44"/><rect x="43.44" y="110.26" width="6.68" height="43.44"/></g></g></svg>