<?xml version="1.0" encoding="utf-8"?>
<!-- Generator: Adobe Illustrator 22.1.0, SVG Export Plug-In . SVG Version: 6.00 Build 0)  -->
<svg version="1.1" id="Layer_1" xmlns="http://www.w3.org/2000/svg" xmlns:xlink="http://www.w3.org/1999/xlink" x="0px" y="0px"
	 viewBox="0 0 500 500" style="enable-background:new 0 0 500 500;" xml:space="preserve">
<style type="text/css">
	.st0{fill:#003851;stroke:#000000;stroke-miterlimit:10;}
</style>
<title>connect</title>
<g id="Layer_2_1_">
	<g id="Layer_1-2">
		<path class="st0" d="M440.3,421.2c0-29-24.6-52.5-54.9-52.6c-7.1,0-14.1,1.3-20.7,3.9l-37-61.1c33.7-23.2,41.3-68.2,17.2-100.5
			c-4.7-6.3-10.6-11.9-17.2-16.5l37.1-61.7c6.6,2.6,13.6,3.9,20.7,3.9c30.4,0.2,55.3-23.3,55.5-52.4s-24.3-53-54.6-53.2
			c-30.4-0.2-55.3,23.3-55.5,52.4c-0.1,16.4,7.6,31.9,21.1,42L315,187c-9.7-4.3-20.2-6.4-30.8-6.4c-38.5,0-70.8,28-74.8,64.8h-74
			c-4.1-28.9-31.8-49-61.9-45c-30.1,3.9-51.1,30.5-46.9,59.3s31.8,49,61.9,45c24.4-3.3,43.6-21.6,46.9-45h74
			c4.1,39.5,40.9,68.5,82.2,64.6c8-0.8,16-2.8,23.5-6.1l37.1,61.7c-23.9,17.7-28.3,50.8-9.7,73.7c18.6,22.9,53,27.1,76.9,9.3
			C432.6,452.8,440.3,437.6,440.3,421.2L440.3,421.2z M345.6,83.9c0-21.2,17.9-38.3,40-38.3s40,17.2,40,38.3s-17.9,38.3-40,38.3l0,0
			C363.6,122.3,345.6,105.1,345.6,83.9z M81,291.1c-22.1,0-40-17.2-40-38.3s17.9-38.3,40-38.3s40,17.2,40,38.3l0,0
			c-0.2,21.1-18,38.1-40,38.1V291.1z M223.9,252.9c-0.1-31.9,26.7-57.9,60-58.1c33.3-0.2,60.4,25.6,60.6,57.5s-26.7,57.9-60,58.1
			c-0.1,0-0.1,0-0.2,0c-33.3,0-60.2-25.9-60.3-57.8L223.9,252.9L223.9,252.9z M345.6,421.2c0-21.2,17.9-38.3,40-38.3
			s40,17.2,40,38.3s-17.9,38.3-40,38.3C363.6,459.4,345.6,442.4,345.6,421.2z"/>
	</g>
</g>
</svg>
