<svg xmlns="http://www.w3.org/2000/svg" viewBox="0 0 70.94 79.01"><defs><style>.cls-1{fill:#003851;}</style></defs><title>connect</title><g id="Layer_2" data-name="Layer 2"><g id="Layer_1-2" data-name="Layer 1"><path class="cls-1" d="M70.94,69.63a9.4,9.4,0,0,0-9.39-9.39,9.27,9.27,0,0,0-3.54.7L51.67,50a12.86,12.86,0,0,0,0-20.89l6.34-11a9.27,9.27,0,0,0,3.54.7,9.43,9.43,0,1,0-5.74-2l-6.35,11a12.69,12.69,0,0,0-5.29-1.15A12.88,12.88,0,0,0,31.36,38.23H18.68a9.4,9.4,0,1,0,0,2.55H31.36a12.87,12.87,0,0,0,18.1,10.45l6.35,11a9.38,9.38,0,1,0,15.13,7.41ZM54.71,9.39a6.84,6.84,0,1,1,6.84,6.84A6.85,6.85,0,0,1,54.71,9.39Zm-45.32,37a6.84,6.84,0,1,1,6.84-6.84A6.85,6.85,0,0,1,9.39,46.35Zm24.46-6.84A10.32,10.32,0,1,1,44.17,49.83,10.33,10.33,0,0,1,33.85,39.51ZM54.71,69.63a6.84,6.84,0,1,1,6.84,6.84A6.85,6.85,0,0,1,54.71,69.63Z"/></g></g></svg>