<?xml version="1.0" encoding="utf-8"?>
<!-- Generator: Adobe Illustrator 22.1.0, SVG Export Plug-In . SVG Version: 6.00 Build 0)  -->
<svg version="1.1" id="Layer_1" xmlns="http://www.w3.org/2000/svg" xmlns:xlink="http://www.w3.org/1999/xlink" x="0px" y="0px"
	 viewBox="0 0 500 500" style="enable-background:new 0 0 500 500;" xml:space="preserve">
<style type="text/css">
	.st0{fill:#003851;stroke:#000000;stroke-miterlimit:10;}
</style>
<title>connect</title>
<g id="Layer_2_1_">
	<g id="Layer_1-2">
		<path class="st0" d="M454.3,436.6c0-32.1-26.1-58.1-58.2-58.2c-7.5,0-15,1.4-21.9,4.3L335,315.1c35.7-25.6,43.8-75.4,18.2-111.1
			c-5-7-11.2-13.2-18.2-18.2l39.3-68.2c7,2.9,14.4,4.3,21.9,4.3c32.2,0.2,58.6-25.8,58.8-57.9S429.2,5.4,397.1,5.2
			c-32.2-0.2-58.6,25.8-58.8,57.9c-0.1,18.1,8.1,35.3,22.4,46.4l-39.3,68.2c-10.3-4.7-21.4-7.1-32.7-7.1c-40.8,0-75.1,31-79.3,71.6
			h-78.5c-4.3-31.9-33.7-54.2-65.6-49.7c-31.9,4.3-54.2,33.7-49.7,65.6s33.7,54.2,65.6,49.7c25.9-3.6,46.2-23.9,49.7-49.7h78.5
			c4.3,43.7,43.4,75.7,87.2,71.4c8.5-0.9,17-3.1,24.9-6.7l39.3,68.2c-25.3,19.6-30,56.2-10.3,81.5s56.2,30,81.5,10.3
			C446.1,471.6,454.3,454.7,454.3,436.6L454.3,436.6z M353.9,63.7c0-23.4,19-42.4,42.4-42.4c23.4,0,42.4,19,42.4,42.4
			s-19,42.4-42.4,42.4l0,0C372.9,106.1,353.9,87.1,353.9,63.7z M73.3,292.8c-23.4,0-42.4-19-42.4-42.4s19-42.4,42.4-42.4
			s42.4,19,42.4,42.4l0,0c-0.2,23.3-19.1,42.1-42.4,42.1V292.8z M224.8,250.5c-0.1-35.3,28.3-64,63.6-64.2s64,28.3,64.2,63.6
			s-28.3,64-63.6,64.2c-0.1,0-0.1,0-0.2,0c-35.3,0-63.8-28.6-63.9-63.9L224.8,250.5L224.8,250.5z M353.9,436.6
			c0-23.4,19-42.4,42.4-42.4c23.4,0,42.4,19,42.4,42.4c0,23.4-19,42.4-42.4,42.4C372.9,478.9,353.9,460,353.9,436.6z"/>
	</g>
</g>
</svg>
