<?xml version="1.0" encoding="utf-8"?>
<!-- Generator: Adobe Illustrator 22.1.0, SVG Export Plug-In . SVG Version: 6.00 Build 0)  -->
<svg version="1.1" id="_x30_9_x5F_consulting_x5F_manager"
	 xmlns="http://www.w3.org/2000/svg" xmlns:xlink="http://www.w3.org/1999/xlink" x="0px" y="0px" viewBox="0 0 500 500"
	 style="enable-background:new 0 0 500 500;" xml:space="preserve">
<style type="text/css">
	.st0{fill:#222829;}
</style>
<g>
	<path class="st0" d="M293.9,245.2l36.8-36.8h94.4c2.7,0,5.4-0.6,7.8-1.6c3.6-1.5,6.6-4,8.8-7.2c2.2-3.2,3.4-7.1,3.4-11.2V58.7
		c0-2.7-0.6-5.4-1.6-7.8c-1.5-3.6-4-6.6-7.2-8.8c-3.2-2.2-7.1-3.4-11.2-3.4H217.6c-2.7,0-5.4,0.6-7.8,1.6c-3.6,1.5-6.6,4-8.8,7.2
		c-2.2,3.2-3.4,7.1-3.4,11.2v58.4h14l0-58.4c0-0.9,0.2-1.6,0.5-2.3c0.4-1.1,1.2-2,2.2-2.6c1-0.6,2.1-1,3.4-1h207.5
		c0.9,0,1.6,0.2,2.3,0.5c1.1,0.4,2,1.2,2.6,2.2c0.6,1,1,2.1,1,3.4v129.7c0,0.9-0.2,1.6-0.5,2.3c-0.4,1.1-1.2,2-2.2,2.6
		c-1,0.6-2.1,1-3.4,1H324.9l-40.9,41L293.9,245.2L293.9,245.2z"/>
	<polyline class="st0" points="288.9,130.6 301.9,130.6 301.9,116.6 288.9,116.6 	"/>
	<polyline class="st0" points="314.8,130.6 327.8,130.6 327.8,116.6 314.8,116.6 	"/>
	<polyline class="st0" points="340.8,130.6 353.7,130.6 353.7,116.6 340.8,116.6 	"/>
	<path class="st0" d="M69,454.2v-45.4c0-7.7,0.7-14.2,1.9-19.7c1.1-4.8,2.5-8.8,4.3-12.3c1.5-3.1,3.3-5.7,5.4-8.1
		c3.6-4.1,7.9-7.5,13.1-10.5c7.8-4.5,17.4-8.1,28.2-12.2c10.7-4.1,22.5-8.7,34.5-15.5l-6.9-12.2c-10.8,6.2-21.8,10.5-32.4,14.5
		c-7.9,3-15.7,5.9-23,9.3c-5.5,2.6-10.7,5.5-15.4,9.2c-3.6,2.7-6.9,5.9-9.8,9.5c-4.4,5.5-7.9,12.1-10.2,20c-2.3,7.9-3.5,17-3.5,27.8
		v45.4H69L69,454.2z"/>
	<path class="st0" d="M253,330.7c11.9,6.8,23.6,11.4,34.3,15.4c8,3.1,15.4,5.8,21.9,8.9c4.9,2.3,9.2,4.8,12.9,7.7
		c2.8,2.1,5.3,4.5,7.4,7.2c3.2,4,5.8,8.9,7.7,15.2c1.9,6.3,2.9,14.1,2.9,23.8v45.4h14l0-45.4c0-8.5-0.7-16-2.2-22.7
		c-1.3-5.8-3.1-11-5.5-15.7c-2.1-4.1-4.5-7.7-7.2-10.9c-4.8-5.6-10.6-9.9-16.7-13.5c-9.3-5.3-19.5-9.1-30.2-13.1
		c-10.6-4.1-21.7-8.4-32.5-14.6L253,330.7L253,330.7z"/>
	<polygon class="st0" points="230.5,350.5 233.6,344.2 204.6,329.7 180.1,342 161.7,323.7 169,312.8 204.6,318.7 240.2,312.8 
		247.5,323.7 225.6,345.5 230.5,350.5 233.6,344.2 230.5,350.5 235.4,355.5 265.5,325.5 246.8,297.4 204.6,304.5 162.4,297.4 
		143.7,325.5 177.3,359 204.6,345.3 231.9,359 235.4,355.5 	"/>
	<polyline class="st0" points="230,279.2 230,305.1 244,305.1 244,279.2 	"/>
	<polyline class="st0" points="179.2,305.1 179.2,279.2 165.2,279.2 165.2,305.1 	"/>
	<polyline class="st0" points="198.1,402.9 211.1,402.9 211.1,388.9 198.1,388.9 	"/>
	<polyline class="st0" points="198.1,377 211.1,377 211.1,363 198.1,363 	"/>
	<path class="st0" d="M263,194.9h7c0-10.4-1.2-19.7-3.9-27.9c-2-6.2-4.9-11.7-8.6-16.5c-2.8-3.6-6-6.7-9.7-9.4
		c-5.5-4-12-6.9-19.2-8.8c-7.2-1.9-15.2-2.8-24-2.8c-10.4,0-19.7,1.2-27.9,3.9c-6.2,2-11.7,4.9-16.5,8.6c-3.6,2.8-6.7,6-9.4,9.7
		c-4,5.5-6.9,12-8.8,19.2c-1.9,7.2-2.8,15.2-2.8,24v26.4l0.1,0.5c3.4,23.6,10.2,39.2,16.4,49c6.2,9.8,11.8,13.8,12.5,14.2l0.4,0.2
		l0.4,0.2c3.9,1.9,8,3.3,12,4.3c6,1.5,11.8,2.2,16.1,2.6c4.4,0.4,7.3,0.4,7.4,0.4c0.2,0,5.3,0,12.2-0.9c3.5-0.4,7.4-1.1,11.4-2.1
		c4-1,8.1-2.4,12-4.3l0.4-0.2l0.4-0.2c0.7-0.5,6.3-4.4,12.6-14.2c6.2-9.8,13.1-25.4,16.4-49l0.1-0.5v-26.4h-7v7h0.2h7v-7H263v-7
		h-0.2h-7v32.9h7l-6.9-1c-3.1,21.8-9.2,35.4-14.3,43.4c-2.6,4-4.9,6.7-6.4,8.2c-0.8,0.8-1.4,1.3-1.8,1.6c-0.2,0.1-0.3,0.2-0.4,0.3
		l0,0l0,0l2.1,3l-2-3.1l-0.1,0.1l2.1,3l-2-3.1l3.9,5.8l-3.1-6.3c-2.6,1.3-5.8,2.4-9.1,3.2c-4.9,1.2-10.1,1.9-13.9,2.2
		c-1.9,0.2-3.5,0.2-4.6,0.3c-0.6,0-1,0-1.3,0c-0.1,0-0.2,0-0.3,0l-0.1,0l0,0l0,3v-3h0l0,3v-3v1.7l0-1.7h0v1.7l0-1.7
		c-0.1,0-4.7,0-10.7-0.8c-3-0.4-6.3-1-9.6-1.8c-3.2-0.8-6.4-1.9-9-3.2l-3.1,6.3l3.9-5.8l-2.3,3.4l2.3-3.3l-0.1-0.1l-2.3,3.4l2.3-3.3
		l0,0c-0.1-0.1-4.3-3.2-9.3-11.3c-4.9-8.2-10.7-21.5-13.7-42.3l-6.9,1h7v-25.9c0-9.3,1.1-17.1,3.2-23.6c1.6-4.8,3.7-8.9,6.3-12.3
		c2-2.5,4.2-4.7,6.9-6.7c3.9-2.9,8.7-5.1,14.5-6.6c5.8-1.5,12.6-2.3,20.5-2.3c9.3,0,17.1,1.1,23.6,3.2c4.8,1.6,8.9,3.7,12.3,6.3
		c2.5,2,4.7,4.2,6.7,6.9c2.9,3.9,5.1,8.7,6.6,14.5c1.5,5.8,2.3,12.6,2.3,20.5H263v-7V194.9z"/>
	<polygon class="st0" points="149.4,201.2 172.5,189.6 202,201.4 237.3,215.6 266.1,201.2 259.9,188.6 236.7,200.2 207.2,188.4 
		171.9,174.2 143.2,188.6 149.4,201.2 	"/>
	<polyline class="st0" points="120.8,454.2 120.8,415.3 106.8,415.3 106.8,454.2 	"/>
	<polyline class="st0" points="302.4,454.2 302.4,415.3 288.4,415.3 288.4,454.2 	"/>
</g>
</svg>
