<?xml version="1.0" encoding="iso-8859-1"?>
<!-- Generator: Adobe Illustrator 17.0.0, SVG Export Plug-In . SVG Version: 6.00 Build 0)  -->
<!DOCTYPE svg PUBLIC "-//W3C//DTD SVG 1.1//EN" "http://www.w3.org/Graphics/SVG/1.1/DTD/svg11.dtd">
<svg version="1.1" id="_x30_9_x5F_consulting_x5F_manager"
	 xmlns="http://www.w3.org/2000/svg" xmlns:xlink="http://www.w3.org/1999/xlink" x="0px" y="0px" width="60px" height="64px"
	 viewBox="0 0 60 64" style="enable-background:new 0 0 60 64;" xml:space="preserve">
<g>
	<g>
		<g>
			<path style="fill:none;stroke:#222829;stroke-width:2;stroke-miterlimit:10;" d="M36,31l6-6h15c1.104,0,2-0.896,2-2V3
				c0-1.105-0.896-2-2-2H25c-1.105,0-2,0.895-2,2v9"/>
			<line style="fill:none;stroke:#222829;stroke-width:2;stroke-miterlimit:10;" x1="36" y1="13" x2="38" y2="13"/>
			<line style="fill:none;stroke:#222829;stroke-width:2;stroke-miterlimit:10;" x1="40" y1="13" x2="42" y2="13"/>
			<line style="fill:none;stroke:#222829;stroke-width:2;stroke-miterlimit:10;" x1="44" y1="13" x2="46" y2="13"/>
			<g>
				<path style="fill:none;stroke:#222829;stroke-width:2;stroke-miterlimit:10;" d="M30,44"/>
				<path style="fill:none;stroke:#222829;stroke-width:2;stroke-miterlimit:10;" d="M1,64v-7c0-10,7-9,14-13"/>
				<path style="fill:none;stroke:#222829;stroke-width:2;stroke-miterlimit:10;" d="M31,44c7,4,14,3,14,13v7"/>
				<polygon style="fill:none;stroke:#222829;stroke-width:2;stroke-miterlimit:10;" points="27,48 23,46 19,48 15,44 17,41 23,42 
					29,41 31,44 				"/>
				<line style="fill:none;stroke:#222829;stroke-width:2;stroke-miterlimit:10;" x1="28" y1="37" x2="28" y2="41"/>
				<line style="fill:none;stroke:#222829;stroke-width:2;stroke-miterlimit:10;" x1="18" y1="41" x2="18" y2="37"/>
				<line style="fill:none;stroke:#222829;stroke-width:2;stroke-miterlimit:10;" x1="22" y1="55" x2="24" y2="55"/>
				<line style="fill:none;stroke:#222829;stroke-width:2;stroke-miterlimit:10;" x1="22" y1="51" x2="24" y2="51"/>
				<path style="fill:none;stroke:#222829;stroke-width:2;stroke-miterlimit:10;" d="M32,24c0-6.075-2.925-9-9-9
					c-6.075,0-9,2.925-9,9v4c1,7,4,9,4,9c2,1,5,1,5,1s3,0,5-1c0,0,3-2,4-9V24z"/>
				<polyline style="fill:none;stroke:#222829;stroke-width:2;stroke-miterlimit:10;" points="14,24 18,22 23,24 28,26 32,24 				
					"/>
				<line style="fill:none;stroke:#222829;stroke-width:2;stroke-miterlimit:10;" x1="9" y1="64" x2="9" y2="58"/>
				<line style="fill:none;stroke:#222829;stroke-width:2;stroke-miterlimit:10;" x1="37" y1="64" x2="37" y2="58"/>
			</g>
		</g>
	</g>
</g>
</svg>
