<?xml version="1.0" encoding="iso-8859-1"?>
<!-- Generator: Adobe Illustrator 17.0.0, SVG Export Plug-In . SVG Version: 6.00 Build 0)  -->
<!DOCTYPE svg PUBLIC "-//W3C//DTD SVG 1.1//EN" "http://www.w3.org/Graphics/SVG/1.1/DTD/svg11.dtd">
<svg version="1.1" id="_x31_0_x5F_crossroad_x5F_arrows"
	 xmlns="http://www.w3.org/2000/svg" xmlns:xlink="http://www.w3.org/1999/xlink" x="0px" y="0px" width="64px" height="64px"
	 viewBox="0 0 64 64" style="enable-background:new 0 0 64 64;" xml:space="preserve">
<g>
	<g>
		<g>
			<path style="fill:none;stroke:#222829;stroke-width:2;stroke-linejoin:round;stroke-miterlimit:10;" d="M6.074,14.997
				C2.866,19.879,1,25.722,1,32c0,19,17,31,25,31V29c0-9.941-10-19-10-19l-5,5V1h14l-5,5c0,0,12,10,12,23C32,16,44,6,44,6l-5-5h14
				v14l-5-5c0,0-10,9.059-10,19v34c8,0,25-12,25-31c0-6.278-1.866-12.121-5.074-17.003"/>
			
				<line style="fill:none;stroke:#222829;stroke-width:2;stroke-linejoin:round;stroke-miterlimit:10;" x1="32" y1="64" x2="32" y2="62"/>
			
				<line style="fill:none;stroke:#222829;stroke-width:2;stroke-linejoin:round;stroke-miterlimit:10;" x1="32" y1="60" x2="32" y2="58"/>
			
				<line style="fill:none;stroke:#222829;stroke-width:2;stroke-linejoin:round;stroke-miterlimit:10;" x1="32" y1="52" x2="32" y2="50"/>
			
				<line style="fill:none;stroke:#222829;stroke-width:2;stroke-linejoin:round;stroke-miterlimit:10;" x1="32" y1="48" x2="32" y2="46"/>
			
				<line style="fill:none;stroke:#222829;stroke-width:2;stroke-linejoin:round;stroke-miterlimit:10;" x1="32" y1="40" x2="32" y2="38"/>
			
				<line style="fill:none;stroke:#222829;stroke-width:2;stroke-linejoin:round;stroke-miterlimit:10;" x1="32" y1="36" x2="32" y2="34"/>
		</g>
	</g>
</g>
</svg>
