<?xml version="1.0" encoding="utf-8"?>
<!-- Generator: Adobe Illustrator 22.1.0, SVG Export Plug-In . SVG Version: 6.00 Build 0)  -->
<svg version="1.1" id="_x31_0_x5F_crossroad_x5F_arrows"
	 xmlns="http://www.w3.org/2000/svg" xmlns:xlink="http://www.w3.org/1999/xlink" x="0px" y="0px" viewBox="0 0 500 500"
	 style="enable-background:new 0 0 500 500;" xml:space="preserve">
<style type="text/css">
	.st0{fill:#222829;}
</style>
<g>
	<path class="st0" d="M78.7,134.5c-21.2,32.3-33.6,70.9-33.5,112.3c0,31.3,7,59.9,18.4,84.9c8.5,18.8,19.4,35.6,31.6,50.3
		c18.3,22.1,39.5,39.3,60,51.1c10.2,5.9,20.3,10.5,29.8,13.6c9.5,3.1,18.5,4.8,26.6,4.8c1.8,0,3.6-0.7,4.9-2.1s2.1-3.1,2.1-4.9v-217
		c0-17-4.3-33.4-10.5-48.4c-9.4-22.4-23.2-41.8-34.7-55.7c-11.5-13.9-20.7-22.2-20.9-22.3c-2.8-2.5-7-2.4-9.6,0.2l-20,20V56h65.4
		l-20,20c-1.4,1.4-2.1,3.3-2,5.3c0.1,2,1,3.8,2.5,5.1l0,0c0.3,0.2,19.1,16,37.6,41.6c9.2,12.8,18.4,28,25.2,44.9
		c6.8,16.9,11.3,35.4,11.3,54.9c0,1.8,0.7,3.6,2.1,4.9s3.1,2.1,4.9,2.1c1.8,0,3.6-0.7,4.9-2.1c1.3-1.3,2.1-3.1,2.1-4.9
		c0-19.7,4.5-38.3,11.5-55.3c10.4-25.5,26.1-47.2,39.2-62.3c6.6-7.6,12.5-13.6,16.7-17.6c2.1-2,3.8-3.6,5-4.6c0.6-0.5,1-0.9,1.3-1.2
		c0.1-0.1,0.3-0.2,0.3-0.3l0.1-0.1l0,0l0,0l-1.7-2.1l1.7,2.1l0,0l-1.7-2.1l1.7,2.1l0,0l-4.2-5.1l4.2,5.1l0,0l-4.2-5.1l4.2,5.1
		c1.5-1.3,2.4-3.1,2.5-5.1c0.1-2-0.6-3.9-2-5.3l-19.9-20H377v65.4l-20-20c-2.6-2.6-6.9-2.7-9.6-0.2c-0.2,0.2-16.5,14.9-32.9,37.9
		c-8.2,11.5-16.4,25.1-22.7,40.1c-6.2,15-10.5,31.3-10.5,48.4v217c0,1.8,0.7,3.6,2.1,4.9s3.1,2.1,4.9,2.1c7.2,0,15.1-1.3,23.5-3.8
		c14.6-4.3,30.7-12.2,46.7-23.3c24-16.6,48-40.3,66.1-70.3c18.1-30,30.2-66.2,30.2-107.4c0-41.5-12.3-80.1-33.5-112.3l-11.7,7.7
		c19.8,30.1,31.2,65.9,31.2,104.7c0,29.3-6.5,55.7-17.1,79.2c-7.9,17.5-18.2,33.3-29.7,47.2c-17.2,20.7-37.2,37-56.2,48
		c-9.5,5.5-18.7,9.7-27.2,12.4c-8.4,2.8-16.1,4.1-22.3,4.1v7h7v-217c0-14.7,3.7-29.3,9.4-43c8.6-20.6,21.6-39,32.6-52.1
		c5.5-6.6,10.4-11.8,13.9-15.5c1.8-1.8,3.2-3.2,4.2-4.1c0.5-0.5,0.9-0.8,1.1-1c0.1-0.1,0.2-0.2,0.3-0.2l0.1-0.1l0,0l-1-1.1l1,1.1
		l0,0l-1-1.1l1,1.1l-4.7-5.2l-4.9,4.9l31.9,31.9c2,2,5,2.6,7.6,1.5c2.6-1.1,4.3-3.6,4.3-6.5V49c0-1.8-0.7-3.6-2.1-4.9
		c-1.3-1.3-3.1-2.1-4.9-2.1h-89.3c-2.8,0-5.4,1.7-6.5,4.3s-0.5,5.6,1.5,7.6l31.9,31.9l4.9-4.9l-4.5-5.4
		c-0.3,0.2-19.8,16.5-39.5,43.5c-9.8,13.5-19.7,29.7-27.2,48.1c-7.4,18.3-12.5,38.8-12.5,60.6c0,1.8,0.7,3.6,2.1,4.9
		s3.1,2.1,4.9,2.1c1.8,0,3.6-0.7,4.9-2.1c1.3-1.3,2.1-3.1,2.1-4.9c0-21.8-5-42.3-12.5-60.6c-11.2-27.5-27.8-50.2-41.6-66.2
		c-13.8-16-24.8-25.2-25.1-25.4l-4.5,5.4l4.9,4.9l31.9-31.9c2-2,2.6-5,1.5-7.6s-3.6-4.3-6.5-4.3H116c-1.8,0-3.6,0.7-4.9,2.1
		c-1.3,1.3-2.1,3.1-2.1,4.9v89.3c0,2.8,1.7,5.4,4.3,6.5c2.6,1.1,5.6,0.5,7.6-1.5l31.9-31.9l-4.9-4.9l-4.7,5.2l0,0
		c0.3,0.2,15.9,14.5,31.3,36.2c7.7,10.8,15.3,23.5,20.9,37.1c5.6,13.6,9.3,28.1,9.3,42.7v217h7v-7c-5.5,0-12.2-1.1-19.5-3.2
		c-12.9-3.8-27.8-11-42.8-21.4c-22.5-15.5-45.1-37.9-62.1-66c-16.9-28.1-28.2-61.8-28.2-100.2c0-38.7,11.5-74.5,31.3-104.7
		L78.7,134.5L78.7,134.5z"/>
	<polyline class="st0" points="257,451 257,438.2 243,438.2 243,451 	"/>
	<polyline class="st0" points="257,425.5 257,412.7 243,412.7 243,425.5 	"/>
	<polyline class="st0" points="257,374.4 257,361.7 243,361.7 243,374.4 	"/>
	<polyline class="st0" points="257,348.9 257,336.1 243,336.1 243,348.9 	"/>
	<polyline class="st0" points="257,297.9 257,285.1 243,285.1 243,297.9 	"/>
	<polyline class="st0" points="257,272.3 257,259.6 243,259.6 243,272.3 	"/>
</g>
</svg>
