<?xml version="1.0" encoding="utf-8"?>
<!-- Generator: Adobe Illustrator 22.1.0, SVG Export Plug-In . SVG Version: 6.00 Build 0)  -->
<svg version="1.1" id="_x34_3_x5F_daily_x5F_tasks_x5F_and_x5F_routine"
	 xmlns="http://www.w3.org/2000/svg" xmlns:xlink="http://www.w3.org/1999/xlink" x="0px" y="0px" viewBox="0 0 500 500"
	 style="enable-background:new 0 0 500 500;" xml:space="preserve">
<style type="text/css">
	.st0{fill:#222829;}
</style>
<g>
	<path class="st0" d="M115.5,250v7c9.3,0,18.1,1.9,26.1,5.3c12,5.1,22.3,13.6,29.5,24.3c7.2,10.7,11.4,23.6,11.4,37.5
		c0,9.3-1.9,18.1-5.3,26.1c-5.1,12-13.6,22.3-24.3,29.5c-10.7,7.2-23.6,11.4-37.5,11.4c-9.3,0-18.1-1.9-26.1-5.3
		c-12-5.1-22.3-13.6-29.5-24.3c-7.2-10.7-11.4-23.6-11.4-37.5c0-9.3,1.9-18.1,5.3-26.1c5.1-12,13.6-22.3,24.3-29.5
		c10.7-7.2,23.6-11.4,37.5-11.4V250v-7c-11.2,0-21.8,2.3-31.5,6.4c-14.5,6.2-26.9,16.4-35.6,29.3c-8.7,12.9-13.8,28.5-13.8,45.3
		c0,11.2,2.3,21.8,6.4,31.5c6.2,14.5,16.4,26.9,29.3,35.6c12.9,8.7,28.5,13.8,45.3,13.8c11.2,0,21.8-2.3,31.5-6.4
		c14.5-6.2,26.9-16.4,35.6-29.3c8.7-12.9,13.8-28.5,13.8-45.3c0-11.2-2.3-21.8-6.4-31.5c-6.2-14.5-16.4-26.9-29.3-35.6
		c-12.9-8.7-28.5-13.8-45.3-13.8V250z"/>
	<path class="st0" d="M384.5,250v7c9.3,0,18.1,1.9,26.1,5.3c12,5.1,22.3,13.6,29.5,24.3c7.2,10.7,11.4,23.6,11.4,37.5
		c0,9.3-1.9,18.1-5.3,26.1c-5.1,12-13.6,22.3-24.3,29.5c-10.7,7.2-23.6,11.4-37.5,11.4c-9.3,0-18.1-1.9-26.1-5.3
		c-12-5.1-22.3-13.6-29.5-24.3c-7.2-10.7-11.4-23.6-11.4-37.5c0-9.3,1.9-18.1,5.3-26.1c5.1-12,13.6-22.3,24.3-29.5
		c10.7-7.2,23.6-11.4,37.5-11.4V250v-7c-11.2,0-21.8,2.3-31.5,6.4c-14.5,6.2-26.9,16.4-35.6,29.3c-8.7,12.9-13.8,28.5-13.8,45.3
		c0,11.2,2.3,21.8,6.4,31.5c6.2,14.5,16.4,26.9,29.3,35.6c12.9,8.7,28.5,13.8,45.3,13.8c11.2,0,21.8-2.3,31.5-6.4
		c14.5-6.2,26.9-16.4,35.6-29.3c8.7-12.9,13.8-28.5,13.8-45.3c0-11.2-2.3-21.8-6.4-31.5c-6.2-14.5-16.4-26.9-29.3-35.6
		c-12.9-8.7-28.5-13.8-45.3-13.8V250z"/>
	<path class="st0" d="M250,41.5v7c9.3,0,18.1,1.9,26.1,5.3c12,5.1,22.3,13.6,29.5,24.3c7.2,10.7,11.4,23.6,11.4,37.5
		c0,9.3-1.9,18.1-5.3,26.1c-5.1,12-13.6,22.3-24.3,29.5c-10.7,7.2-23.6,11.4-37.5,11.4c-9.3,0-18.1-1.9-26.1-5.3
		c-12-5.1-22.3-13.6-29.5-24.3c-7.2-10.7-11.4-23.6-11.4-37.5c0-9.3,1.9-18.1,5.3-26.1c5.1-12,13.6-22.3,24.3-29.5
		c10.7-7.2,23.6-11.4,37.5-11.4V41.5v-7c-11.2,0-21.8,2.3-31.5,6.4c-14.5,6.2-26.9,16.4-35.6,29.3c-8.7,12.9-13.8,28.5-13.8,45.3
		c0,11.2,2.3,21.8,6.4,31.5c6.2,14.5,16.4,26.9,29.3,35.6c12.9,8.7,28.5,13.8,45.3,13.8c11.2,0,21.8-2.3,31.5-6.4
		c14.5-6.2,26.9-16.4,35.6-29.3c8.7-12.9,13.8-28.5,13.8-45.3c0-11.2-2.3-21.8-6.4-31.5c-6.2-14.5-16.4-26.9-29.3-35.6
		c-12.9-8.7-28.5-13.8-45.3-13.8V41.5z"/>
	<path class="st0" d="M318.8,110.3c45,20.3,79.5,59.7,92.9,107.9l13.5-3.8c-14.6-52.2-51.9-95-100.7-116.9L318.8,110.3L318.8,110.3z
		"/>
	<path class="st0" d="M82.1,263.5c0-26,5.9-50.5,16.4-72.5c10.5-21.9,25.7-41.2,44.2-56.6l-9-10.8c-20.1,16.7-36.5,37.6-47.9,61.4
		c-11.4,23.8-17.8,50.4-17.8,78.5H82.1L82.1,263.5z"/>
	<path class="st0" d="M360.3,390c-29.5,25.7-68,41.3-110.3,41.3c-22.9,0-44.7-4.6-64.6-12.9l-5.4,12.9c21.5,8.9,45.2,13.9,70,13.9
		c45.7,0,87.6-16.9,119.5-44.7L360.3,390L360.3,390z"/>
	<path class="st0" d="M208.9,454.9l-16-26.6l26.1-10.4c3.6-1.4,5.3-5.5,3.9-9.1s-5.5-5.3-9.1-3.9l-41.3,16.6l24.4,40.6
		c2,3.3,6.3,4.4,9.6,2.4C209.8,462.5,210.9,458.2,208.9,454.9L208.9,454.9z"/>
	<path class="st0" d="M102,135.9h26.7v26.7c0,3.9,3.1,7,7,7c3.9,0,7-3.1,7-7l0-40.7H102c-3.9,0-7,3.1-7,7
		C95,132.8,98.1,135.9,102,135.9L102,135.9z"/>
	<path class="st0" d="M425.1,180.1l-10.9,27.2l-27.1-10.9c-3.6-1.4-7.7,0.3-9.1,3.9c-1.4,3.6,0.3,7.7,3.9,9.1l40.1,16.1l16.1-40.2
		c1.4-3.6-0.3-7.7-3.9-9.1C430.6,174.8,426.5,176.5,425.1,180.1L425.1,180.1z"/>
	<polyline class="st0" points="243.3,257 256.7,257 256.7,243 243.3,243 	"/>
	<polyline class="st0" points="270.2,257 283.6,257 283.6,243 270.2,243 	"/>
	<polyline class="st0" points="216.4,257 229.8,257 229.8,243 216.4,243 	"/>
	<polyline class="st0" points="362.5,355.9 416.4,302 406.5,292.1 352.6,346 	"/>
	<polyline class="st0" points="352.6,302 406.5,355.9 416.4,346 362.5,292.1 	"/>
	<polygon class="st0" points="278.6,90.4 243.3,125.8 221.3,103.9 211.5,113.7 243.3,145.6 288.6,100.2 278.6,90.4 	"/>
	<polyline class="st0" points="108.5,357.6 108.5,371.1 122.5,371.1 122.5,357.6 	"/>
	<path class="st0" d="M102.3,303.8c0-3.6,1.5-6.9,3.9-9.3c1.2-1.2,2.6-2.2,4.2-2.8c1.6-0.7,3.3-1,5.1-1c1.9,0,3.6,0.4,5.2,1
		c2.4,1,4.4,2.7,5.8,4.8c1.4,2.1,2.2,4.6,2.2,7.4c0,3.6-1.5,6.9-3.9,9.3c-1.2,1.2-2.6,2.2-4.2,2.8c-1.6,0.7-3.3,1-5.1,1h-7v27.2h14
		l0-20.2h-7v7c3.7,0,7.4-0.8,10.6-2.2c4.9-2.1,9-5.5,12-9.9c2.9-4.3,4.6-9.6,4.6-15.2c0-3.7-0.8-7.3-2.1-10.6c-2.1-4.9-5.5-9-9.8-12
		c-4.3-2.9-9.6-4.6-15.2-4.6c-3.7,0-7.4,0.8-10.6,2.2c-4.9,2.1-9,5.5-12,9.9c-2.9,4.3-4.6,9.6-4.6,15.2H102.3L102.3,303.8z"/>
</g>
</svg>
