<?xml version="1.0" encoding="iso-8859-1"?>
<!-- Generator: Adobe Illustrator 17.0.0, SVG Export Plug-In . SVG Version: 6.00 Build 0)  -->
<!DOCTYPE svg PUBLIC "-//W3C//DTD SVG 1.1//EN" "http://www.w3.org/Graphics/SVG/1.1/DTD/svg11.dtd">
<svg version="1.1" id="_x34_3_x5F_daily_x5F_tasks_x5F_and_x5F_routine"
	 xmlns="http://www.w3.org/2000/svg" xmlns:xlink="http://www.w3.org/1999/xlink" x="0px" y="0px" width="64px" height="64px"
	 viewBox="0 0 64 64" style="enable-background:new 0 0 64 64;" xml:space="preserve">
<g>
	<circle style="fill:none;stroke:#222829;stroke-width:2;stroke-miterlimit:10;" cx="12" cy="43" r="11"/>
	<circle style="fill:none;stroke:#222829;stroke-width:2;stroke-miterlimit:10;" cx="52" cy="43" r="11"/>
	<circle style="fill:none;stroke:#222829;stroke-width:2;stroke-miterlimit:10;" cx="32" cy="12" r="11"/>
	<path style="fill:none;stroke:#222829;stroke-width:2;stroke-miterlimit:10;" d="M42.657,10.279
		c6.968,3.135,12.305,9.248,14.39,16.719"/>
	<path style="fill:none;stroke:#222829;stroke-width:2;stroke-miterlimit:10;" d="M6,34c0-8.041,3.65-15.23,9.386-19.998"/>
	<path style="fill:none;stroke:#222829;stroke-width:2;stroke-miterlimit:10;" d="M49.077,53.605C44.51,57.588,38.536,60,32,60
		c-3.544,0-6.923-0.709-10.002-1.992"/>
	<polyline style="fill:none;stroke:#222829;stroke-width:2;stroke-linecap:round;stroke-miterlimit:10;" points="25,63 22,58 27,56 
			"/>
	<polyline style="fill:none;stroke:#222829;stroke-width:2;stroke-linecap:round;stroke-miterlimit:10;" points="10,14 15,14 15,19 
			"/>
	<polyline style="fill:none;stroke:#222829;stroke-width:2;stroke-linecap:round;stroke-miterlimit:10;" points="59,22 57,27 52,25 
			"/>
	<line style="fill:none;stroke:#222829;stroke-width:2;stroke-miterlimit:10;" x1="31" y1="32" x2="33" y2="32"/>
	<line style="fill:none;stroke:#222829;stroke-width:2;stroke-miterlimit:10;" x1="35" y1="32" x2="37" y2="32"/>
	<line style="fill:none;stroke:#222829;stroke-width:2;stroke-miterlimit:10;" x1="27" y1="32" x2="29" y2="32"/>
	<line style="fill:none;stroke:#222829;stroke-width:2;stroke-miterlimit:10;" x1="48" y1="47" x2="56" y2="39"/>
	<line style="fill:none;stroke:#222829;stroke-width:2;stroke-miterlimit:10;" x1="48" y1="39" x2="56" y2="47"/>
	<polyline style="fill:none;stroke:#222829;stroke-width:2;stroke-miterlimit:10;" points="37,9 31,15 27,11 	"/>
	<g>
		<line style="fill:none;stroke:#222829;stroke-width:2;stroke-miterlimit:10;" x1="12" y1="48" x2="12" y2="50"/>
		<path style="fill:none;stroke:#222829;stroke-width:2;stroke-miterlimit:10;" d="M9,40c0-1.656,1.344-3,3-3c1.656,0,3,1.344,3,3
			c0,1.657-1.344,3-3,3v3"/>
	</g>
</g>
</svg>
