<?xml version="1.0" encoding="iso-8859-1"?>
<!-- Generator: Adobe Illustrator 17.0.0, SVG Export Plug-In . SVG Version: 6.00 Build 0)  -->
<!DOCTYPE svg PUBLIC "-//W3C//DTD SVG 1.1//EN" "http://www.w3.org/Graphics/SVG/1.1/DTD/svg11.dtd">
<svg version="1.1" id="_x31_1_x5F_data_x5F_management"
	 xmlns="http://www.w3.org/2000/svg" xmlns:xlink="http://www.w3.org/1999/xlink" x="0px" y="0px" width="64px" height="64px"
	 viewBox="0 0 64 64" style="enable-background:new 0 0 64 64;" xml:space="preserve">
<g>
	<g>
		<circle style="fill:none;stroke:#222829;stroke-width:2;stroke-miterlimit:10;" cx="32" cy="32" r="23"/>
		<circle style="fill:none;stroke:#222829;stroke-width:2;stroke-miterlimit:10;" cx="32" cy="32" r="31"/>
		<line style="fill:none;stroke:#222829;stroke-width:2;stroke-miterlimit:10;" x1="32" y1="1" x2="32" y2="9"/>
		<line style="fill:none;stroke:#222829;stroke-width:2;stroke-miterlimit:10;" x1="16" y1="48" x2="10" y2="54"/>
		<line style="fill:none;stroke:#222829;stroke-width:2;stroke-miterlimit:10;" x1="10" y1="10" x2="16" y2="16"/>
		<line style="fill:none;stroke:#222829;stroke-width:2;stroke-miterlimit:10;" x1="9" y1="16" x2="11" y2="16"/>
		<line style="fill:none;stroke:#222829;stroke-width:2;stroke-miterlimit:10;" x1="7" y1="20" x2="9" y2="20"/>
		<line style="fill:none;stroke:#222829;stroke-width:2;stroke-miterlimit:10;" x1="5" y1="24" x2="7" y2="24"/>
		<line style="fill:none;stroke:#222829;stroke-width:2;stroke-miterlimit:10;" x1="4" y1="28" x2="6" y2="28"/>
		<line style="fill:none;stroke:#222829;stroke-width:2;stroke-miterlimit:10;" x1="4" y1="32" x2="6" y2="32"/>
		<line style="fill:none;stroke:#222829;stroke-width:2;stroke-miterlimit:10;" x1="4" y1="36" x2="6" y2="36"/>
		<line style="fill:none;stroke:#222829;stroke-width:2;stroke-miterlimit:10;" x1="5" y1="40" x2="7" y2="40"/>
		<line style="fill:none;stroke:#222829;stroke-width:2;stroke-miterlimit:10;" x1="7" y1="44" x2="9" y2="44"/>
		<line style="fill:none;stroke:#222829;stroke-width:2;stroke-miterlimit:10;" x1="9" y1="48" x2="11" y2="48"/>
		<line style="fill:none;stroke:#222829;stroke-width:2;stroke-miterlimit:10;" x1="55" y1="32" x2="63" y2="32"/>
		<line style="fill:none;stroke:#222829;stroke-width:2;stroke-miterlimit:10;" x1="48" y1="48" x2="54" y2="54"/>
		<circle style="fill:none;stroke:#222829;stroke-width:2;stroke-miterlimit:10;" cx="32" cy="32" r="9"/>
		<path style="fill:none;stroke:#222829;stroke-width:2;stroke-miterlimit:10;" d="M47,32c0-0.611-0.047-1.211-0.119-1.803
			l1.846-1.154c-0.278-1.582-0.775-3.084-1.459-4.483l-2.162,0.15c-0.59-1.058-1.311-2.029-2.128-2.91l0.817-2.027
			c-1.131-1.09-2.406-2.029-3.804-2.775l-1.681,1.408c-1.081-0.503-2.225-0.889-3.428-1.123l-0.525-2.102
			C33.585,15.074,32.803,15,32,15c-0.803,0-1.585,0.074-2.357,0.182l-0.525,2.102c-1.202,0.234-2.347,0.62-3.428,1.123l-1.681-1.408
			c-1.397,0.746-2.673,1.686-3.804,2.775l0.818,2.027c-0.818,0.881-1.539,1.852-2.129,2.91l-2.162-0.15
			c-0.684,1.399-1.181,2.9-1.459,4.483l1.846,1.154C17.047,30.789,17,31.389,17,32c0,0.611,0.047,1.211,0.119,1.803l-1.846,1.154
			c0.278,1.582,0.775,3.084,1.459,4.482l2.162-0.15c0.59,1.058,1.311,2.029,2.128,2.91l-0.817,2.027
			c1.131,1.09,2.406,2.029,3.804,2.775l1.681-1.408c1.08,0.503,2.226,0.889,3.428,1.123l0.525,2.102C30.415,48.926,31.197,49,32,49
			c0.803,0,1.585-0.074,2.357-0.182l0.525-2.102c1.202-0.234,2.348-0.62,3.428-1.123l1.681,1.408
			c1.398-0.746,2.673-1.686,3.804-2.775l-0.817-2.027c0.817-0.881,1.538-1.853,2.128-2.91l2.162,0.15
			c0.684-1.398,1.181-2.9,1.459-4.482l-1.846-1.154C46.953,33.211,47,32.611,47,32z"/>
	</g>
</g>
</svg>
