<?xml version="1.0" encoding="utf-8"?>
<!-- Generator: Adobe Illustrator 22.1.0, SVG Export Plug-In . SVG Version: 6.00 Build 0)  -->
<svg version="1.1" id="_x33_5_x5F_data_x5F_science"
	 xmlns="http://www.w3.org/2000/svg" xmlns:xlink="http://www.w3.org/1999/xlink" x="0px" y="0px" viewBox="0 0 500 500"
	 style="enable-background:new 0 0 500 500;" xml:space="preserve">
<style type="text/css">
	.st0{fill:#222829;}
</style>
<g>
	<path class="st0" d="M250,37.5v7c6.1,0,12.1,1.3,18,3.8c5.2,2.2,10.3,5.3,15.3,9.4c8.8,7.1,17.1,17.1,24.7,29.6
		c11.4,18.7,20.9,42.8,27.5,70.5c6.6,27.7,10.4,59.1,10.4,92.2c0,28.9-2.8,56.4-7.9,81.3c-3.8,18.7-8.9,36-15,51.3
		c-9.2,23-20.6,41.5-33.2,54c-6.3,6.3-12.8,11-19.4,14.2c-6.6,3.2-13.3,4.8-20.2,4.8c-6.1,0-12.1-1.3-18-3.8
		c-5.2-2.2-10.3-5.3-15.3-9.4c-8.8-7.1-17.1-17.1-24.7-29.6c-11.4-18.7-20.9-42.8-27.5-70.5c-6.6-27.7-10.4-59.1-10.4-92.2
		c0-28.9,2.8-56.4,7.9-81.3c3.8-18.7,8.9-36,15-51.3c4.6-11.5,9.7-21.9,15.3-30.9c8.4-13.6,17.7-24.2,27.5-31.3
		c4.9-3.5,9.8-6.2,14.8-8c5-1.8,10.1-2.7,15.2-2.7V37.5v-7c-8.1,0-16,1.7-23.4,4.9c-6.5,2.8-12.8,6.6-18.7,11.4
		c-10.3,8.4-19.6,19.7-27.8,33.2c-12.3,20.3-22.2,45.6-29.1,74.5c-6.9,28.9-10.7,61.3-10.7,95.5c0,29.8,2.9,58.2,8.2,84.1
		c4,19.4,9.3,37.5,15.8,53.6c9.7,24.3,21.9,44.4,36.3,58.7c7.2,7.2,15,12.9,23.3,16.9c8.3,4,17.1,6.1,26.2,6.1
		c8.1,0,16-1.7,23.4-4.9c6.5-2.8,12.8-6.6,18.7-11.4c10.3-8.4,19.6-19.7,27.8-33.2c12.3-20.3,22.2-45.6,29.1-74.5
		c6.9-28.9,10.7-61.3,10.7-95.5c0-29.8-2.9-58.2-8.2-84.1c-4-19.4-9.3-37.5-15.8-53.6c-9.7-24.3-21.9-44.4-36.3-58.7
		c-7.2-7.2-15-12.9-23.3-16.9c-8.3-4-17.1-6.1-26.2-6.1V37.5z"/>
	<path class="st0" d="M250,147.2v7c28.9,0,56.4,2.8,81.3,7.9c18.7,3.8,36,8.9,51.3,15c23,9.2,41.5,20.6,54,33.2
		c6.3,6.3,11,12.8,14.2,19.4c3.2,6.6,4.8,13.3,4.8,20.2c0,6.1-1.3,12.1-3.8,18c-2.2,5.2-5.3,10.3-9.4,15.3
		c-7.1,8.8-17.1,17.1-29.6,24.7c-18.7,11.4-42.8,20.9-70.5,27.5c-27.7,6.6-59.1,10.4-92.2,10.4c-28.9,0-56.4-2.8-81.3-7.9
		c-18.7-3.8-36-8.9-51.3-15c-11.5-4.6-21.9-9.7-30.9-15.3c-13.6-8.4-24.2-17.7-31.3-27.5c-3.5-4.9-6.2-9.8-8-14.8
		c-1.8-5-2.7-10.1-2.7-15.2c0-6.1,1.3-12.1,3.8-18c2.2-5.2,5.3-10.3,9.4-15.3c7.1-8.8,17.1-17.1,29.6-24.7
		c18.7-11.4,42.8-20.9,70.5-27.5c27.7-6.6,59.1-10.4,92.2-10.4V147.2v-7c-29.8,0-58.2,2.9-84.1,8.2c-19.4,4-37.5,9.3-53.6,15.8
		c-24.3,9.7-44.4,21.9-58.7,36.3c-7.2,7.2-12.9,15-16.9,23.3c-4,8.3-6.1,17.1-6.1,26.2c0,8.1,1.7,16,4.9,23.4
		c2.8,6.5,6.6,12.8,11.4,18.7c8.4,10.3,19.7,19.6,33.2,27.8c20.3,12.3,45.6,22.2,74.5,29.1c28.9,6.9,61.3,10.7,95.5,10.7
		c29.8,0,58.2-2.9,84.1-8.2c19.4-4,37.5-9.3,53.6-15.8c24.3-9.7,44.4-21.9,58.7-36.3c7.2-7.2,12.9-15,16.9-23.3
		c4-8.3,6.1-17.1,6.1-26.2c0-8.1-1.7-16-4.9-23.4c-2.8-6.5-6.6-12.8-11.4-18.7c-8.4-10.3-19.7-19.6-33.2-27.8
		c-20.3-12.3-45.6-22.2-74.5-29.1c-28.9-6.9-61.3-10.7-95.5-10.7V147.2z"/>
	<path class="st0" d="M177.3,177.3l4.9,4.9c29.3-29.3,60.8-52.5,90.6-68.2c14.9-7.9,29.5-13.9,43.1-17.9c13.6-4,26.4-6.1,37.7-6.1
		c8.9,0,16.9,1.3,23.9,3.7c6.9,2.5,12.8,6.1,17.7,10.9c4.9,4.9,8.5,10.8,10.9,17.7c2.4,6.9,3.7,15,3.7,23.9c0,11.3-2,24.1-6.1,37.7
		c-6,20.5-16.6,42.9-31.1,65.8c-14.5,22.8-33.1,46-55,68c-29.3,29.3-60.8,52.5-90.6,68.2c-14.9,7.9-29.5,13.9-43.1,17.9
		c-13.6,4-26.4,6.1-37.7,6.1c-8.9,0-16.9-1.3-23.9-3.7c-6.9-2.5-12.8-6.1-17.7-10.9c-4.9-4.9-8.5-10.8-10.9-17.7
		c-2.4-6.9-3.7-15-3.7-23.9c0-11.3,2-24.1,6.1-37.7c6-20.5,16.6-42.9,31.1-65.8c14.5-22.8,33.1-46,55-68L177.3,177.3l-4.9-4.9
		c-30.2,30.2-54.2,62.7-70.7,94c-8.2,15.6-14.6,31-19,45.7c-4.3,14.7-6.6,28.7-6.6,41.7c0,10.2,1.4,19.8,4.5,28.5
		c3.1,8.7,7.8,16.5,14.3,23c6.4,6.5,14.3,11.2,23,14.3c8.7,3.1,18.3,4.5,28.5,4.5c13,0,27-2.3,41.7-6.6c22-6.5,45.6-17.6,69.3-32.7
		c23.7-15.1,47.7-34.3,70.4-57c30.2-30.3,54.2-62.7,70.7-94c8.2-15.6,14.6-31,19-45.7c4.3-14.7,6.6-28.7,6.6-41.7
		c0-10.2-1.4-19.8-4.5-28.5c-3.1-8.7-7.8-16.5-14.2-23c-6.4-6.5-14.3-11.2-23-14.3c-8.7-3.1-18.3-4.5-28.5-4.5
		c-13,0-27,2.3-41.7,6.6c-22,6.5-45.6,17.6-69.3,32.7c-23.7,15.1-47.7,34.3-70.4,57L177.3,177.3z"/>
	<path class="st0" d="M99.7,99.7l4.9,4.9c4.9-4.9,10.8-8.5,17.7-10.9c6.9-2.4,15-3.7,23.9-3.7c11.3,0,24.1,2,37.7,6.1
		c20.5,6,42.9,16.6,65.8,31.1c22.8,14.5,46,33.1,68,55c29.3,29.3,52.5,60.8,68.2,90.6c7.9,14.9,13.9,29.5,17.9,43.1
		c4,13.6,6.1,26.4,6.1,37.7c0,8.9-1.3,16.9-3.7,23.9c-2.5,6.9-6.1,12.8-10.9,17.7c-4.9,4.9-10.8,8.5-17.7,10.9
		c-6.9,2.4-15,3.7-23.9,3.7c-11.3,0-24.1-2-37.7-6.1c-20.5-6-42.9-16.6-65.8-31.1c-22.8-14.5-46-33.1-68-55
		c-29.3-29.3-52.5-60.8-68.2-90.6c-7.9-14.9-13.9-29.5-17.9-43.1c-4-13.6-6.1-26.4-6.1-37.7c0-8.9,1.3-16.9,3.7-23.9
		c2.5-6.9,6.1-12.8,10.9-17.7L99.7,99.7l-4.9-4.9c-6.5,6.4-11.2,14.3-14.3,23c-3.1,8.7-4.5,18.3-4.5,28.5c0,13,2.3,27,6.6,41.7
		c6.5,22,17.6,45.6,32.7,69.3c15.1,23.7,34.3,47.7,57,70.4c30.2,30.2,62.7,54.2,94,70.7c15.6,8.2,31,14.6,45.7,19
		c14.7,4.3,28.7,6.6,41.7,6.6c10.2,0,19.8-1.4,28.5-4.5c8.7-3.1,16.5-7.8,23-14.3c6.5-6.4,11.2-14.3,14.3-23
		c3.1-8.7,4.5-18.3,4.5-28.5c0-13-2.3-27-6.6-41.7c-6.5-22-17.6-45.6-32.7-69.3c-15.1-23.7-34.3-47.7-57-70.4
		c-30.3-30.2-62.7-54.2-94-70.7c-15.6-8.2-31-14.6-45.7-19c-14.7-4.3-28.7-6.6-41.7-6.6c-10.2,0-19.8,1.4-28.5,4.5
		c-8.7,3.1-16.5,7.8-23,14.3L99.7,99.7z"/>
	<path class="st0" d="M250,188.3v7c6.2,0,12.1,0.5,17.4,1.5c4,0.7,7.6,1.7,10.8,2.8c2.4,0.8,4.5,1.8,6.2,2.7c2.6,1.4,4.5,3,5.5,4.2
		c0.5,0.6,0.8,1.1,0.9,1.5c0.2,0.4,0.2,0.6,0.2,0.9c0,0.3-0.1,0.6-0.3,1.1c-0.2,0.4-0.6,1-1.2,1.7c-1.1,1.2-2.8,2.5-5.3,3.8
		c-3.6,2-8.6,3.7-14.5,5c-5.9,1.2-12.6,2-19.8,2c-6.2,0-12.1-0.5-17.4-1.5c-4-0.7-7.6-1.7-10.8-2.8c-2.4-0.8-4.5-1.8-6.2-2.7
		c-2.6-1.4-4.5-3-5.5-4.2c-0.5-0.6-0.8-1.1-0.9-1.5c-0.2-0.4-0.2-0.6-0.2-0.9c0-0.3,0.1-0.6,0.3-1.1c0.2-0.4,0.6-1,1.2-1.7
		c1.1-1.2,2.8-2.5,5.3-3.8c3.6-2,8.6-3.7,14.5-5c5.9-1.2,12.6-2,19.8-2V188.3v-7c-7,0-13.8,0.6-19.9,1.7c-4.6,0.8-9,2-12.9,3.4
		c-3,1.1-5.7,2.3-8.2,3.6c-3.8,2.1-7,4.5-9.6,7.6c-1.3,1.5-2.3,3.3-3.1,5.2c-0.8,1.9-1.2,4-1.2,6.1c0,2.5,0.6,5,1.7,7.2
		c0.9,1.9,2.1,3.6,3.5,5.1c2.5,2.7,5.5,4.8,8.9,6.7c5.2,2.8,11.3,4.9,18.3,6.4c6.9,1.5,14.6,2.3,22.7,2.3c7,0,13.8-0.6,19.9-1.7
		c4.6-0.8,9-2,12.9-3.4c3-1.1,5.7-2.3,8.2-3.6c3.8-2.1,7-4.5,9.6-7.6c1.3-1.5,2.3-3.3,3.1-5.2c0.8-1.9,1.2-4,1.2-6.1
		c0-2.5-0.6-5-1.7-7.2c-0.9-1.9-2.1-3.6-3.5-5.1c-2.5-2.7-5.5-4.8-8.9-6.7c-5.2-2.8-11.3-4.9-18.3-6.4c-6.9-1.5-14.6-2.3-22.7-2.3
		V188.3z"/>
	<path class="st0" d="M291,236.3c0,0.3-0.1,0.6-0.3,1.1c-0.2,0.4-0.6,1-1.2,1.7c-1.1,1.2-2.8,2.5-5.3,3.8c-3.6,2-8.6,3.7-14.5,5
		c-5.9,1.2-12.6,2-19.8,2c-6.2,0-12.1-0.5-17.4-1.5c-4-0.7-7.6-1.7-10.8-2.8c-2.4-0.8-4.5-1.8-6.2-2.7c-2.6-1.4-4.5-3-5.5-4.2
		c-0.5-0.6-0.8-1.1-0.9-1.5c-0.2-0.4-0.2-0.7-0.2-0.9h-14c0,2.5,0.6,5,1.7,7.2c0.9,1.9,2.1,3.6,3.5,5.1c2.5,2.7,5.5,4.8,8.9,6.7
		c5.2,2.8,11.3,4.9,18.3,6.4c6.9,1.5,14.6,2.3,22.6,2.3c7,0,13.7-0.6,19.9-1.7c4.6-0.8,9-2,12.9-3.4c3-1.1,5.7-2.3,8.2-3.6
		c3.8-2.1,7-4.5,9.6-7.6c1.3-1.5,2.3-3.3,3.1-5.2c0.8-1.9,1.2-4,1.2-6.1H291L291,236.3z"/>
	<path class="st0" d="M291,263.7c0,0.3-0.1,0.6-0.3,1.1c-0.2,0.4-0.6,1-1.2,1.7c-1.1,1.2-2.8,2.5-5.3,3.8c-3.6,2-8.6,3.7-14.5,5
		c-5.9,1.2-12.6,2-19.8,2c-6.2,0-12.1-0.5-17.4-1.5c-4-0.7-7.6-1.7-10.8-2.8c-2.4-0.8-4.5-1.8-6.2-2.7c-2.6-1.4-4.5-3-5.5-4.2
		c-0.5-0.6-0.8-1.1-0.9-1.5c-0.2-0.4-0.2-0.6-0.2-0.9h-14c0,2.5,0.6,5,1.7,7.2c0.9,1.9,2.1,3.6,3.5,5.1c2.5,2.7,5.5,4.8,8.9,6.7
		c5.2,2.8,11.3,4.9,18.3,6.4c6.9,1.5,14.6,2.3,22.6,2.3c7,0,13.7-0.6,19.9-1.7c4.6-0.8,9-2,12.9-3.4c3-1.1,5.7-2.3,8.2-3.6
		c3.8-2.1,7-4.5,9.6-7.6c1.3-1.5,2.3-3.3,3.1-5.2c0.8-1.9,1.2-4,1.2-6.1H291L291,263.7z"/>
	<path class="st0" d="M291,208.9v82.3c0,0.3-0.1,0.6-0.3,1.1c-0.2,0.4-0.6,1-1.2,1.7c-1.1,1.2-2.8,2.5-5.3,3.8
		c-3.6,2-8.6,3.7-14.5,5c-5.9,1.2-12.6,2-19.8,2c-6.2,0-12.1-0.5-17.4-1.5c-4-0.7-7.6-1.7-10.8-2.8c-2.4-0.8-4.5-1.8-6.2-2.7
		c-2.6-1.4-4.5-3-5.5-4.2c-0.5-0.6-0.8-1.1-0.9-1.5c-0.2-0.4-0.2-0.6-0.2-0.9v-82.3h-14l0,82.3c0,2.5,0.6,5,1.7,7.2
		c0.9,1.9,2.1,3.6,3.5,5.1c2.5,2.7,5.5,4.8,8.9,6.7c5.2,2.8,11.3,4.9,18.3,6.4c6.9,1.5,14.6,2.3,22.6,2.3c7,0,13.7-0.6,19.9-1.7
		c4.6-0.8,9-2,12.9-3.4c3-1.1,5.7-2.3,8.2-3.6c3.8-2.1,7-4.5,9.6-7.6c1.3-1.5,2.3-3.3,3.1-5.2c0.8-1.9,1.2-4,1.2-6.1v-82.3H291
		L291,208.9z"/>
	<polyline class="st0" points="366.5,133.6 380.2,133.6 380.2,119.6 366.5,119.6 	"/>
	<polyline class="st0" points="366.5,380.4 380.2,380.4 380.2,366.4 366.5,366.4 	"/>
	<polyline class="st0" points="119.8,380.4 133.5,380.4 133.5,366.4 119.8,366.4 	"/>
	<polyline class="st0" points="119.8,133.6 133.5,133.6 133.5,119.6 119.8,119.6 	"/>
</g>
</svg>
