<?xml version="1.0" encoding="utf-8"?>
<!-- Generator: Adobe Illustrator 22.1.0, SVG Export Plug-In . SVG Version: 6.00 Build 0)  -->
<svg version="1.1" id="_x31_1_x5F_data_x5F_management"
	 xmlns="http://www.w3.org/2000/svg" xmlns:xlink="http://www.w3.org/1999/xlink" x="0px" y="0px" viewBox="0 0 500 500"
	 style="enable-background:new 0 0 500 500;" xml:space="preserve">
<style type="text/css">
	.st0{fill:#222829;}
</style>
<g>
	<path class="st0" d="M250,107.5v7c37.4,0,71.3,15.2,95.8,39.7c24.5,24.5,39.7,58.4,39.7,95.8c0,37.4-15.2,71.3-39.7,95.8
		c-24.5,24.5-58.4,39.7-95.8,39.7c-37.4,0-71.3-15.2-95.8-39.7c-24.5-24.5-39.7-58.4-39.7-95.8c0-37.4,15.2-71.3,39.7-95.8
		c24.5-24.5,58.4-39.7,95.8-39.7V107.5v-7c-41.3,0-78.7,16.7-105.7,43.8c-27,27-43.8,64.5-43.8,105.7c0,41.3,16.7,78.7,43.8,105.7
		c27,27,64.5,43.8,105.7,43.8c41.3,0,78.7-16.7,105.7-43.8c27-27,43.8-64.5,43.8-105.7c0-41.3-16.7-78.7-43.8-105.7
		c-27-27-64.5-43.8-105.7-43.8V107.5z"/>
	<path class="st0" d="M250,58v7c51.1,0,97.3,20.7,130.8,54.2C414.3,152.7,435,198.9,435,250c0,51.1-20.7,97.3-54.2,130.8
		C347.3,414.3,301.1,435,250,435c-51.1,0-97.3-20.7-130.8-54.2C85.7,347.3,65,301.1,65,250c0-51.1,20.7-97.3,54.2-130.8
		C152.7,85.7,198.9,65,250,65V58v-7c-54.9,0-104.7,22.3-140.7,58.3C73.3,145.3,51,195.1,51,250c0,54.9,22.3,104.7,58.3,140.7
		c36,36,85.8,58.3,140.7,58.3c54.9,0,104.7-22.3,140.7-58.3c36-36,58.3-85.8,58.3-140.7c0-54.9-22.3-104.7-58.3-140.7
		C354.7,73.3,304.9,51,250,51V58z"/>
	<polyline class="st0" points="243,58 243,107.5 257,107.5 257,58 	"/>
	<polyline class="st0" points="146,344.1 108.8,381.4 118.6,391.2 155.8,354 	"/>
	<polyline class="st0" points="108.8,118.6 146,155.8 155.8,146 118.6,108.8 	"/>
	<polyline class="st0" points="107.5,157.9 119.9,157.9 119.9,143.9 107.5,143.9 	"/>
	<polyline class="st0" points="95.2,182.7 107.5,182.7 107.5,168.7 95.2,168.7 	"/>
	<polyline class="st0" points="82.8,207.5 95.2,207.5 95.2,193.5 82.8,193.5 	"/>
	<polyline class="st0" points="76.6,232.2 89,232.2 89,218.2 76.6,218.2 	"/>
	<polyline class="st0" points="76.6,257 89,257 89,243 76.6,243 	"/>
	<polyline class="st0" points="76.6,281.8 89,281.8 89,267.8 76.6,267.8 	"/>
	<polyline class="st0" points="82.8,306.5 95.2,306.5 95.2,292.5 82.8,292.5 	"/>
	<polyline class="st0" points="95.2,331.3 107.5,331.3 107.5,317.3 95.2,317.3 	"/>
	<polyline class="st0" points="107.5,356.1 119.9,356.1 119.9,342.1 107.5,342.1 	"/>
	<polyline class="st0" points="392.5,257 442,257 442,243 392.5,243 	"/>
	<polyline class="st0" points="344.1,354 381.4,391.2 391.2,381.4 354,344.1 	"/>
	<path class="st0" d="M250,194.3v7c6.7,0,13.1,1.4,19,3.8c8.7,3.7,16.2,9.9,21.4,17.7c5.3,7.8,8.3,17.1,8.3,27.2
		c0,6.7-1.4,13.1-3.8,19c-3.7,8.7-9.9,16.2-17.7,21.4c-7.8,5.3-17.1,8.3-27.2,8.3c-6.7,0-13.1-1.4-19-3.8
		c-8.7-3.7-16.2-9.9-21.4-17.7c-5.3-7.8-8.3-17.1-8.3-27.2c0-6.7,1.4-13.1,3.8-19c3.7-8.7,9.9-16.2,17.7-21.4
		c7.8-5.3,17.1-8.3,27.2-8.3V194.3v-7c-8.6,0-16.9,1.8-24.4,4.9c-11.3,4.8-20.8,12.7-27.6,22.7c-6.8,10-10.7,22.1-10.7,35.1
		c0,8.6,1.8,16.9,4.9,24.4c4.8,11.3,12.7,20.8,22.7,27.6c10,6.8,22.1,10.7,35.1,10.7c8.6,0,16.9-1.8,24.4-4.9
		c11.3-4.8,20.8-12.7,27.6-22.7c6.8-10,10.7-22.1,10.7-35.1c0-8.6-1.8-16.9-4.9-24.4c-4.8-11.3-12.7-20.8-22.7-27.6
		c-10-6.8-22.1-10.7-35.1-10.7V194.3z"/>
	<path class="st0" d="M342.9,250h7c0-4.2-0.3-8.1-0.7-12l-7,0.8l3.7,5.9l15.4-9.6l-0.8-4.6c-1.8-10.5-5.1-20.4-9.6-29.6l-2.1-4.3
		l-18.1,1.2l0.5,7l6.1-3.4c-4-7.1-8.7-13.6-14.2-19.4l-5.1,4.8l6.5,2.6l6.9-17l-3.4-3.3c-7.5-7.2-15.9-13.4-25.2-18.4l-4.2-2.2
		l-14,11.7l4.5,5.4l2.9-6.4c-7.2-3.3-14.8-5.9-22.7-7.5l-1.4,6.9l6.8-1.7l-4.5-17.5l-4.6-0.7c-5.1-0.7-10.2-1.2-15.6-1.2
		c-5.5,0-10.6,0.5-15.5,1.2l-4.7,0.6l-4.5,17.6l6.8,1.7l-1.3-6.9c-8,1.5-15.7,4.1-22.9,7.6l3,6.3l4.5-5.4l-14-11.7l-4.2,2.2
		c-9.3,4.9-17.7,11.1-25.2,18.4l-3.4,3.3l6.9,17l6.5-2.6l-5.1-4.8c-5.5,5.9-10.2,12.3-14.2,19.3l6.1,3.5l0.5-7l-18.1-1.2l-2.1,4.3
		c-4.5,9.2-7.8,19.2-9.6,29.6l-0.8,4.6l15.4,9.6l3.7-5.9l-7-0.8c-0.4,3.8-0.7,7.8-0.7,12c0,4.2,0.3,8.1,0.7,12l7-0.8l-3.7-5.9
		l-15.4,9.6l0.8,4.6c1.8,10.5,5.1,20.4,9.6,29.6l2.1,4.3l18.1-1.2l-0.5-7l-6.1,3.4c4,7.1,8.7,13.6,14.2,19.4l5.1-4.8l-6.5-2.6
		l-6.9,17l3.4,3.3c7.5,7.2,15.9,13.4,25.2,18.4l4.2,2.2l14-11.7l-4.5-5.4l-2.9,6.4c7.2,3.3,14.8,5.9,22.7,7.5l1.4-6.9l-6.8,1.7
		l4.4,17.5l4.6,0.7c5.1,0.7,10.2,1.2,15.6,1.2c5.5,0,10.6-0.5,15.5-1.2l4.7-0.6l4.5-17.6l-6.8-1.7l1.3,6.9c8-1.5,15.7-4.1,22.9-7.6
		l-3-6.3l-4.5,5.4l14,11.7l4.2-2.2c9.3-4.9,17.7-11.1,25.2-18.4l3.4-3.3l-6.9-17l-6.5,2.6l5.1,4.8c5.5-5.9,10.2-12.3,14.2-19.3
		l-6.1-3.5l-0.5,7l18.1,1.2l2.1-4.3c4.5-9.2,7.8-19.2,9.6-29.6l0.8-4.6l-15.4-9.6l-3.7,5.9l7,0.8c0.4-3.8,0.7-7.8,0.7-12H342.9h-7
		c0,3.4-0.3,6.9-0.7,10.4l-0.5,4.4l15.1,9.4l3.7-5.9l-6.9-1.2c-1.6,9.1-4.5,17.8-8.4,26l6.3,3l0.5-7l-17.8-1.2l-2.2,3.8
		c-3.4,6-7.5,11.6-12.2,16.7l-3,3.3l6.8,16.7l6.5-2.6l-4.9-5c-6.5,6.4-13.9,11.8-22,16l3.3,6.2l4.5-5.4L290.1,326l-4.1,1.9
		c-6.2,3-12.7,5.2-19.5,6.4l-4.4,0.8l-4.4,17.3l6.8,1.7l-0.9-6.9c-4.7,0.6-9.2,1-13.7,1c-4.6,0-9.1-0.4-13.6-1l-1,6.9l6.8-1.7
		l-4.4-17.3l-4.3-0.9c-6.8-1.4-13.4-3.6-19.7-6.5l-4-1.9L196,337.6l4.5,5.4l3.3-6.2c-8.1-4.3-15.5-9.7-22-16l-4.9,5l6.5,2.6
		l6.8-16.8l-3.1-3.3c-4.7-5-8.8-10.5-12.2-16.6l-2.2-3.9l-17.8,1.2l0.5,7l6.3-3c-3.9-8.2-6.8-16.8-8.4-26l-6.9,1.2l3.7,5.9l15.1-9.4
		l-0.5-4.4c-0.4-3.6-0.7-7-0.7-10.4c0-3.4,0.3-6.9,0.7-10.4l0.5-4.4l-15.1-9.4l-3.7,5.9l6.9,1.2c1.6-9.1,4.5-17.8,8.4-26l-6.3-3
		l-0.5,7l17.8,1.2l2.2-3.8c3.4-6,7.5-11.6,12.2-16.7l3-3.3l-6.8-16.7l-6.5,2.6l4.9,5c6.5-6.4,13.9-11.8,22-16l-3.3-6.2l-4.5,5.4
		l13.8,11.6l4.1-1.9c6.2-3,12.7-5.2,19.5-6.4l4.4-0.8l4.4-17.3l-6.8-1.7l0.9,6.9c4.7-0.6,9.2-1,13.7-1c4.6,0,9.1,0.4,13.6,1l1-6.9
		l-6.8,1.7l4.4,17.3l4.3,0.9c6.8,1.4,13.4,3.6,19.7,6.5l4,1.9l13.8-11.5l-4.5-5.4l-3.3,6.2c8.1,4.3,15.5,9.7,22,16l4.9-5l-6.5-2.6
		l-6.8,16.8l3.1,3.3c4.7,5,8.8,10.5,12.2,16.6l2.2,3.9l17.8-1.2l-0.5-7l-6.3,3c3.9,8.2,6.8,16.8,8.4,26l6.9-1.2l-3.7-5.9l-15.1,9.4
		l0.5,4.4c0.4,3.6,0.7,7,0.7,10.4H342.9z"/>
</g>
</svg>
