<?xml version="1.0" encoding="utf-8"?>
<!-- Generator: Adobe Illustrator 22.1.0, SVG Export Plug-In . SVG Version: 6.00 Build 0)  -->
<svg version="1.1" id="Layer_1" xmlns="http://www.w3.org/2000/svg" xmlns:xlink="http://www.w3.org/1999/xlink" x="0px" y="0px"
	 viewBox="0 0 70 70" style="enable-background:new 0 0 70 70;" xml:space="preserve">
<g>
	<path d="M22.2,39.8h-3.3V13.2h-2v26.5h-3.1c-0.6,0-1.2,0.5-1.2,1.2v8.4c0,0.6,0.5,1.2,1.2,1.2h3.1v6.3h2v-6.3h3.3
		c0.6,0,1.2-0.5,1.2-1.2v-8.4C23.3,40.3,22.8,39.8,22.2,39.8z M21.3,48.4h-6.6v-6.6h6.6V48.4z"/>
	<path d="M39.2,19.5h-3.3v-6.3h-2v6.3h-3.1c-0.6,0-1.2,0.5-1.2,1.2v8.4c0,0.6,0.5,1.2,1.2,1.2h3.1v26.5h2V30.2h3.3
		c0.6,0,1.2-0.5,1.2-1.2v-8.4C40.4,20,39.8,19.5,39.2,19.5z M38.3,28.2h-6.6v-6.6h6.6V28.2z"/>
	<path d="M56.2,24.8h-3.3V13.2h-2v11.6h-3.1c-0.6,0-1.2,0.5-1.2,1.2v8.4c0,0.6,0.5,1.2,1.2,1.2h3.1v21.3h2V35.5h3.3
		c0.6,0,1.2-0.5,1.2-1.2v-8.4C57.4,25.3,56.9,24.8,56.2,24.8z M55.3,33.5h-6.6v-6.6h6.6V33.5z"/>
	<path d="M65.4,1.1H4.6C2.1,1.1,0,3.2,0,5.7v58.6c0,2.5,2.1,4.6,4.6,4.6h60.8c2.5,0,4.6-2.1,4.6-4.6V5.7C70,3.2,67.9,1.1,65.4,1.1z
		 M67.6,64.3c0,1.2-1,2.2-2.2,2.2H4.6c-1.2,0-2.2-1-2.2-2.2V5.7c0-1.2,1-2.2,2.2-2.2h60.8c1.2,0,2.2,1,2.2,2.2V64.3z"/>
</g>
</svg>
