<?xml version="1.0" encoding="utf-8"?>
<!-- Generator: Adobe Illustrator 22.1.0, SVG Export Plug-In . SVG Version: 6.00 Build 0)  -->
<svg version="1.1" id="Layer_1" xmlns="http://www.w3.org/2000/svg" xmlns:xlink="http://www.w3.org/1999/xlink" x="0px" y="0px"
	 viewBox="0 0 500 500" style="enable-background:new 0 0 500 500;" xml:space="preserve">
<style type="text/css">
	.st0{stroke:#000000;stroke-width:4;stroke-miterlimit:10;}
</style>
<g>
	<path class="st0" d="M179.3,278.1h-18.2V155.6h-10.8v122h-17.5c-3.4,0-6.7,2.2-6.7,5.6v38.6c0,2.8,2.7,5.6,6.7,5.6h17.5v29.1h10.8
		v-29.1h18.2c3.4,0,6.7-2.2,6.7-5.6v-38.6C185.3,280.4,182.6,278.1,179.3,278.1z M173.9,317.3h-36.4v-30.2h36.4V317.3z"/>
	<path class="st0" d="M273.6,184.2h-18.2v-29.1h-10.8v29.1h-17.5c-3.4,0-6.7,2.2-6.7,5.6v38.6c0,2.8,2.7,5.6,6.7,5.6h17.5v122h10.8
		V233.4h18.2c3.4,0,6.7-2.2,6.7-5.6v-38.6C279.7,187,277,184.2,273.6,184.2z M268.2,224.4h-36.4v-30.2h36.4V224.4z"/>
	<path class="st0" d="M367.3,208.8h-18.2v-53.2h-10.8v53.2h-17.5c-3.4,0-6.7,2.2-6.7,5.6V253c0,2.8,2.7,5.6,6.7,5.6h17.5v97.9h10.8
		V258h18.2c3.4,0,6.7-2.2,6.7-5.6v-38.6C374,211.1,371.3,208.8,367.3,208.8z M362.6,249h-36.4v-30.2h36.4V249z"/>
	<path class="st0" d="M418.6,99.7H81.5c-14.2,0-25.6,9.5-25.6,21.3v269.7c0,11.8,11.5,21.3,25.6,21.3h337c14.2,0,25.6-9.5,25.6-21.3
		V121C444.1,109.2,432.7,99.7,418.6,99.7z M430.7,390.6c0,5.6-5.4,10.1-12.1,10.1H81.5c-6.7,0-12.1-4.5-12.1-10.1V121
		c0-5.6,5.4-10.1,12.1-10.1h337c6.7,0,12.1,4.5,12.1,10.1L430.7,390.6L430.7,390.6z"/>
</g>
</svg>
