<?xml version="1.0" encoding="utf-8"?>
<!-- Generator: Adobe Illustrator 22.1.0, SVG Export Plug-In . SVG Version: 6.00 Build 0)  -->
<svg version="1.1" id="Layer_1" xmlns="http://www.w3.org/2000/svg" xmlns:xlink="http://www.w3.org/1999/xlink" x="0px" y="0px"
	 viewBox="0 0 100 80" style="enable-background:new 0 0 100 80;" xml:space="preserve">
<g>
	<path d="M39.5,44h-2.7V22.1h-1.6v21.8h-2.6c-0.5,0-1,0.4-1,1v6.9c0,0.5,0.4,1,1,1h2.6v5.2h1.6v-5.2h2.7c0.5,0,1-0.4,1-1v-6.9
		C40.4,44.4,40,44,39.5,44z M38.7,51h-5.4v-5.4h5.4V51z"/>
	<path d="M53.5,27.2h-2.7v-5.2h-1.6v5.2h-2.6c-0.5,0-1,0.4-1,1v6.9c0,0.5,0.4,1,1,1h2.6v21.8h1.6V36h2.7c0.5,0,1-0.4,1-1v-6.9
		C54.4,27.7,54,27.2,53.5,27.2z M52.7,34.4h-5.4V29h5.4V34.4z"/>
	<path d="M67.4,31.6h-2.7v-9.5h-1.6v9.5h-2.6c-0.5,0-1,0.4-1,1v6.9c0,0.5,0.4,1,1,1h2.6V58h1.6V40.4h2.7c0.5,0,1-0.4,1-1v-6.9
		C68.4,32,68,31.6,67.4,31.6z M66.7,38.8h-5.4v-5.4h5.4V38.8z"/>
	<path d="M75,12.1H25c-2.1,0-3.8,1.7-3.8,3.8v48.2c0,2.1,1.7,3.8,3.8,3.8h50c2.1,0,3.8-1.7,3.8-3.8V15.9
		C78.8,13.8,77.1,12.1,75,12.1z M76.8,64.1c0,1-0.8,1.8-1.8,1.8H25c-1,0-1.8-0.8-1.8-1.8V15.9c0-1,0.8-1.8,1.8-1.8h50
		c1,0,1.8,0.8,1.8,1.8V64.1z"/>
</g>
</svg>
