<?xml version="1.0" encoding="utf-8"?>
<!-- Generator: Adobe Illustrator 22.1.0, SVG Export Plug-In . SVG Version: 6.00 Build 0)  -->
<svg version="1.1" id="Layer_1" xmlns="http://www.w3.org/2000/svg" xmlns:xlink="http://www.w3.org/1999/xlink" x="0px" y="0px"
	 viewBox="0 0 500 500" style="enable-background:new 0 0 500 500;" xml:space="preserve">
<style type="text/css">
	.st0{stroke:#000000;stroke-width:4;stroke-miterlimit:10;}
</style>
<g>
	<path class="st0" d="M174.1,278.9h-19.5V120.6H143v157.6h-18.8c-3.6,0-7.2,2.9-7.2,7.2v49.9c0,3.6,2.9,7.2,7.2,7.2H143v37.6h11.6
		v-37.6h19.5c3.6,0,7.2-2.9,7.2-7.2v-49.9C180.6,281.8,177.7,278.9,174.1,278.9z M168.3,329.5h-39v-39h39V329.5z"/>
	<path class="st0" d="M275.3,157.5h-19.5v-37.6h-11.6v37.6h-18.8c-3.6,0-7.2,2.9-7.2,7.2v49.9c0,3.6,2.9,7.2,7.2,7.2h18.8v157.6
		h11.6V221.1h19.5c3.6,0,7.2-2.9,7.2-7.2V164C281.8,161.1,278.9,157.5,275.3,157.5z M269.5,209.5h-39v-39h39V209.5z"/>
	<path class="st0" d="M375.8,189.3h-19.5v-68.7h-11.6v68.7h-18.8c-3.6,0-7.2,2.9-7.2,7.2v49.9c0,3.6,2.9,7.2,7.2,7.2h18.8v126.5
		h11.6V252.9h19.5c3.6,0,7.2-2.9,7.2-7.2v-49.9C383,192.2,380.1,189.3,375.8,189.3z M370.7,241.3h-39v-39h39V241.3z"/>
	<path class="st0" d="M430.8,48.3H69.2c-15.2,0-27.5,12.3-27.5,27.5v348.5c0,15.2,12.3,27.5,27.5,27.5h361.5
		c15.2,0,27.5-12.3,27.5-27.5V75.8C458.2,60.6,445.9,48.3,430.8,48.3z M443.8,424.2c0,7.2-5.8,13-13,13H69.2c-7.2,0-13-5.8-13-13
		V75.8c0-7.2,5.8-13,13-13h361.5c7.2,0,13,5.8,13,13V424.2z"/>
</g>
</svg>
