<svg id="Layer_1" data-name="Layer 1" xmlns="http://www.w3.org/2000/svg" viewBox="0 0 500 500"><title>Artboard 5</title><path d="M403.56,144.34a17.35,17.35,0,0,0-5.15-12.43,17.68,17.68,0,0,0-12.5-5.26H87.38A17.61,17.61,0,0,0,75,131.84a17.42,17.42,0,0,0-5.23,12.51v8H10v93.61H69.72v85H37.2V352.1a21.22,21.22,0,0,0,21.23,21.24H414.82a21.24,21.24,0,0,0,21.24-21.24V330.9h-32.5ZM151.38,245.94V166.32H363.93V330.89H109.37V245.94ZM83.71,144.34a3.57,3.57,0,0,1,1.13-2.61,3.61,3.61,0,0,1,2.54-1.09H385.9a3.68,3.68,0,0,1,2.62,1.17,3.49,3.49,0,0,1,1.05,2.54V330.89H377.92V152.33H83.71ZM24,166.32H137.4V232H24Zm71.4,79.62v84.95H83.71V245.94ZM422.07,352.1a7.26,7.26,0,0,1-7.25,7.26H58.43a7.28,7.28,0,0,1-5.13-2.13,7.2,7.2,0,0,1-2.11-5.13v-7.22H422.07Z"/><path d="M490,266.89l-68.24-24.73,24.75,68.26,16.8-16.82,15,15,9.9-9.89-15-15Zm-44.89-1.39,19.47,7.06L452.17,285Z"/><rect x="215.91" y="191.3" width="18.02" height="5.15"/><path d="M206,206.75a12.87,12.87,0,1,1,12.87-12.87A12.89,12.89,0,0,1,206,206.75Zm0-20.6a7.72,7.72,0,1,0,7.72,7.72A7.73,7.73,0,0,0,206,186.15Z"/><path d="M244.23,206.75a12.87,12.87,0,1,1,12.87-12.87A12.89,12.89,0,0,1,244.23,206.75Zm0-20.6a7.72,7.72,0,1,0,7.72,7.72A7.73,7.73,0,0,0,244.23,186.15Z"/><rect x="285.8" y="242.8" width="18.02" height="5.15"/><path d="M314.13,258.25A12.87,12.87,0,1,1,327,245.37,12.89,12.89,0,0,1,314.13,258.25Zm0-20.6a7.72,7.72,0,1,0,7.72,7.72A7.73,7.73,0,0,0,314.13,237.65Z"/><rect x="203.04" y="204.17" width="5.15" height="18.02"/><path d="M192.74,232.5a12.87,12.87,0,1,1,12.87,12.87A12.89,12.89,0,0,1,192.74,232.5Zm20.6,0a7.72,7.72,0,1,0-7.72,7.72A7.73,7.73,0,0,0,213.34,232.5Z"/><rect x="203.04" y="245.01" width="5.15" height="9.56"/><path d="M192.74,264.87a12.87,12.87,0,1,1,12.87,12.87A12.89,12.89,0,0,1,192.74,264.87Zm20.6,0a7.72,7.72,0,1,0-7.72,7.72A7.73,7.73,0,0,0,213.34,264.87Z"/><rect x="243.87" y="283.26" width="5.15" height="9.56"/><path d="M233.57,303.13A12.87,12.87,0,1,1,246.44,316,12.89,12.89,0,0,1,233.57,303.13Zm20.6,0a7.72,7.72,0,1,0-7.72,7.72A7.73,7.73,0,0,0,254.17,303.13Z"/><rect x="165.6" y="249.63" width="37.28" height="5.15" transform="translate(-124.38 204.15) rotate(-45)"/><path d="M154.68,263.57a12.87,12.87,0,1,1,0,18.21A12.89,12.89,0,0,1,154.68,263.57Zm14.57,14.57a7.72,7.72,0,1,0-10.92,0A7.73,7.73,0,0,0,169.24,278.14Z"/><rect x="223.67" y="233.57" width="5.15" height="37.28" transform="translate(-112.07 233.85) rotate(-45)"/><path d="M255.81,281.78a12.87,12.87,0,1,1,0-18.21A12.89,12.89,0,0,1,255.81,281.78Zm-3.64-3.64a7.72,7.72,0,1,0-10.92,0A7.73,7.73,0,0,0,252.17,278.14Z"/><rect x="252.14" y="256.59" width="19.51" height="5.15" transform="translate(-106.55 261.09) rotate(-45)"/><path d="M284.87,254.4a12.87,12.87,0,1,1,0-18.21A12.89,12.89,0,0,1,284.87,254.4ZM270.3,239.83a7.72,7.72,0,1,0,10.92,0A7.73,7.73,0,0,0,270.3,239.83Z"/></svg>