<?xml version="1.0" encoding="utf-8"?>
<!-- Generator: Adobe Illustrator 22.1.0, SVG Export Plug-In . SVG Version: 6.00 Build 0)  -->
<svg version="1.1" id="_x34_5_x5F_development_x5F_solutions"
	 xmlns="http://www.w3.org/2000/svg" xmlns:xlink="http://www.w3.org/1999/xlink" x="0px" y="0px" viewBox="0 0 100 80"
	 style="enable-background:new 0 0 100 80;" xml:space="preserve">
<style type="text/css">
	.st0{fill:#222829;}
</style>
<g>
	<path class="st0" d="M34.2,50.8L28,44.7v-0.5c0-0.5,0.2-0.9,0.5-1.3c0.3-0.3,0.8-0.5,1.3-0.5h0.5l8.9,8.9l0,0
		c0.7,0.7,1.1,1.7,1.3,2.5c0.1,0.4,0.1,0.8,0.2,1c0,0.1,0,0.2,0,0.3l0,0.1l0,0l0.2,0h-0.2l0,0l0.2,0h-0.2v6.4h-8.1v-0.8
		c0-0.1,0-0.6-0.3-1.4c-0.3-0.8-0.8-1.9-1.8-2.9l0,0L24.1,50c-0.8-0.8-1.1-1.5-1.3-2.1c-0.1-0.3-0.1-0.5-0.2-0.7l0-0.2l0,0l-0.3,0
		h0.3l0,0l-0.3,0h0.3V32.2c0-0.5,0.2-0.9,0.5-1.3c0.3-0.3,0.8-0.5,1.3-0.5c0.5,0,1,0.2,1.3,0.5c0.3,0.3,0.5,0.7,0.5,1.3v7.4h2l0-7.4
		c0-1.1-0.4-2-1.1-2.7c-0.7-0.7-1.7-1.1-2.7-1.1c-1.1,0-2,0.4-2.7,1.1c-0.7,0.7-1.1,1.6-1.1,2.7V47c0,0.1,0,0.7,0.3,1.5
		c0.3,0.8,0.8,1.9,1.8,2.9l6.4,6.4l0.7-0.7l-0.7,0.7c0.8,0.8,1.2,1.6,1.4,2.2c0.1,0.3,0.1,0.5,0.2,0.7l0,0.2l0,0l0.4,0h-0.4l0,0
		l0.4,0h-0.4v2.8h12.1v-8.4c0-0.1,0-0.8-0.3-1.9c-0.3-1-0.8-2.4-1.8-3.4l-9.5-9.5h-1.3c-1.1,0-2,0.4-2.7,1.1
		c-0.7,0.7-1.1,1.6-1.1,2.7v0.9v0.4l6.8,6.7L34.2,50.8L34.2,50.8z"/>
	<path class="st0" d="M67.2,52.2l6.7-6.7v-1.3c0-1-0.4-2-1.1-2.7c-0.7-0.7-1.6-1.1-2.7-1.1h-0.9h-0.4l-9.5,9.5l0,0
		c-1.1,1.1-1.6,2.4-1.8,3.4c-0.3,1-0.3,1.8-0.3,1.9v8.4h12.1v-2.8h-0.4l0.4,0l0,0h-0.4l0.4,0c0,0,0.1-1.5,1.5-3l-0.7-0.7l0.7,0.7
		l6.4-6.4c1-1,1.6-2.1,1.8-2.9c0.3-0.8,0.3-1.4,0.3-1.5V32.2c0-1-0.4-2-1.1-2.7c-0.7-0.7-1.6-1.1-2.7-1.1c-1.1,0-2,0.5-2.6,1.2
		c-0.6,0.7-0.9,1.7-0.9,2.6v7.4h2l0-7.4c0-0.6,0.2-1,0.4-1.3c0.3-0.3,0.6-0.5,1.1-0.5c0.5,0,1,0.2,1.3,0.5c0.3,0.3,0.5,0.8,0.5,1.3
		V47h0.3l-0.3,0l0,0h0.3l-0.3,0c0,0,0,0.4-0.2,1c-0.2,0.6-0.6,1.3-1.3,2l-6.4,6.4l0,0c-1,1.1-1.5,2.1-1.8,2.9
		c-0.3,0.8-0.3,1.4-0.3,1.4v0.8h-8.1v-6.4H59l0.2,0l0,0H59l0.2,0c0,0,0-0.7,0.2-1.5c0.2-0.8,0.6-1.7,1.3-2.4l0,0l8.9-8.9h0.5
		c0.5,0,1,0.2,1.3,0.5c0.3,0.3,0.5,0.8,0.5,1.3v0.5l-6.1,6.1L67.2,52.2L67.2,52.2z"/>
	<path class="st0" d="M57.4,69v-5.5h-0.1l0.1,0.1l0-0.1h-0.1l0.1,0.1l-0.1-0.1l0,0.1l0.1,0l-0.1-0.1l0,0.1h12v-0.1l-0.1,0.1l0.1,0
		v-0.1l-0.1,0.1l0.1-0.1h-0.1l0,0.1l0.1-0.1h-0.1V69h2l0-5.5c0-0.5-0.2-1-0.6-1.3c-0.3-0.3-0.8-0.6-1.3-0.6h-12
		c-0.5,0-1,0.2-1.3,0.6c-0.3,0.3-0.6,0.8-0.6,1.3V69H57.4L57.4,69z"/>
	<path class="st0" d="M30.8,69v-5.5h-0.1l0.1,0.1l0-0.1h-0.1l0.1,0.1l-0.1-0.1l0,0.1l0.1,0l-0.1-0.1l0,0.1h12v-0.1l-0.1,0.1l0.1,0
		v-0.1l-0.1,0.1l0.1-0.1h-0.1l0,0.1l0.1-0.1h-0.1V69h2l0-5.5c0-0.5-0.2-1-0.6-1.3c-0.3-0.3-0.8-0.6-1.3-0.6h-12
		c-0.5,0-1,0.2-1.3,0.6c-0.3,0.3-0.6,0.8-0.6,1.3V69H30.8L30.8,69z"/>
	<path class="st0" d="M68.3,31.4l1,0.2c0.1-0.7,0.1-1.5,0.1-2.1c0-0.7,0-1.4-0.1-2.1l-0.1-0.6l-4.5-1.2l-0.2,1l1-0.2
		c-0.1-0.7-0.3-1.4-0.5-2l-0.9,0.3l0.7,0.7l3.4-3.3l-0.3-0.6c-0.5-1.3-1.3-2.5-2-3.6l-0.4-0.6l-4.6,1.3l0.3,1l0.8-0.6
		c-0.4-0.6-0.9-1-1.5-1.5l-0.6,0.8l1,0.3l1.3-4.4l-0.5-0.4c-1.1-0.9-2.4-1.5-3.6-2l-0.6-0.3l-3.3,3.4l0.7,0.7l0.3-0.9
		c-0.6-0.2-1.2-0.4-2-0.5l-0.2,1l1-0.2l-1.2-4.5L52,10.2c-0.5-0.1-1.2-0.2-2-0.2c-0.7,0-1.4,0-2.1,0.1l-0.6,0.1l-1.2,4.5l1,0.2
		l-0.2-1c-0.7,0.1-1.4,0.3-2,0.5l0.3,0.9l0.7-0.7l-3.3-3.4l-0.6,0.3c-1.3,0.5-2.5,1.3-3.6,2l-0.6,0.4l1.3,4.5l1-0.3l-0.6-0.8
		c-0.6,0.4-1,0.9-1.5,1.5l0.8,0.6l0.3-1l-4.4-1.3l-0.4,0.5c-0.9,1.1-1.5,2.4-2,3.6L32,22.1l3.4,3.3l0.7-0.7l-0.9-0.3
		c-0.2,0.6-0.4,1.2-0.5,2l1,0.2l-0.2-1l-4.5,1.2l-0.1,0.6c-0.1,0.7-0.1,1.5-0.1,2.1c0,0.7,0,1.4,0.1,2.1l0.1,0.6l4.5,1.2l0.2-1
		l-1,0.2c0.1,0.7,0.3,1.4,0.5,2l0.9-0.3l-0.7-0.7L32,36.7l0.3,0.6c0.5,1.3,1.3,2.5,2,3.6l0.4,0.6l4.5-1.3l-0.3-1l-0.8,0.6
		c0.4,0.6,0.9,1,1.5,1.5l0.6-0.8l-1-0.3L38,44.7l0.5,0.4c1.1,0.9,2.4,1.5,3.6,2l0.6,0.3L46,44l-0.7-0.7L45,44.2
		c0.6,0.2,1.2,0.4,2,0.5l0.2-1l-1,0.2l1.2,4.5l0.6,0.1c0.7,0.1,1.5,0.1,2.1,0.1c0.7,0,1.4,0,2.1-0.1l0.6-0.1l1.2-4.5l-1-0.2l0.2,1
		c0.7-0.1,1.4-0.3,2-0.5l-0.3-0.9L54,44l3.3,3.4l0.6-0.3c1.3-0.5,2.5-1.3,3.6-2l0.6-0.4l-1.3-4.5l-1,0.3l0.6,0.8
		c0.6-0.4,1-0.9,1.5-1.5l-0.8-0.6l-0.3,1l4.4,1.3l0.4-0.5c0.9-1.1,1.5-2.4,2-3.6l0.3-0.6l-3.4-3.3l-0.7,0.7l0.9,0.3
		c0.2-0.6,0.4-1.2,0.5-2l-1-0.2l0.2,1l4.6-1.1l0.1-0.7L68.3,31.4l-0.2-1l-4.6,1.1l-0.1,0.7c-0.1,0.5-0.3,1.1-0.5,1.7l-0.2,0.6
		l3.4,3.2l0.7-0.7l-0.9-0.4c-0.5,1.2-1,2.3-1.8,3.2l0.8,0.6l0.3-1l-4.4-1.3l-0.4,0.5c-0.4,0.4-0.7,0.8-1.1,1.1l-0.5,0.4l1.3,4.4
		l1-0.3l-0.5-0.8c-1.1,0.7-2.2,1.4-3.2,1.8l0.4,0.9l0.7-0.7L55,42.2l-0.6,0.2c-0.6,0.2-1.2,0.4-1.6,0.5l-0.6,0.1l-1.2,4.5l1,0.2
		l-0.2-1c-0.5,0.1-1,0.1-1.7,0.1c-0.6,0-1.3,0-1.7-0.1l-0.2,1l1-0.2l-1.2-4.5l-0.6-0.1c-0.5-0.1-1-0.3-1.6-0.5L45,42.2l-3.2,3.4
		l0.7,0.7l0.4-0.9c-1.2-0.5-2.3-1-3.2-1.8l-0.6,0.8l1,0.3l1.3-4.4l-0.5-0.4c-0.4-0.4-0.8-0.7-1.1-1.1l-0.4-0.5l-4.4,1.3l0.3,1
		l0.8-0.5c-0.7-1.1-1.4-2.2-1.8-3.2l-0.9,0.4l0.7,0.7l3.4-3.2L37,33.8c-0.2-0.6-0.4-1.2-0.5-1.6l-0.1-0.6l-4.5-1.2l-0.2,1l1-0.2
		c-0.1-0.5-0.1-1-0.1-1.7c0-0.6,0-1.3,0.1-1.7l-1-0.2l0.2,1l4.5-1.2l0.1-0.6c0.1-0.5,0.3-1,0.5-1.6l0.2-0.6l-3.4-3.2l-0.7,0.7
		l0.9,0.4c0.5-1.2,1-2.3,1.8-3.2l-0.8-0.6l-0.3,1l4.4,1.3l0.4-0.5c0.4-0.4,0.7-0.8,1.1-1.1l0.5-0.4l-1.3-4.4l-1,0.3l0.5,0.8
		c1.1-0.7,2.2-1.4,3.2-1.8l-0.4-0.9l-0.7,0.7l3.2,3.4l0.6-0.2c0.6-0.2,1.2-0.4,1.6-0.5l0.6-0.1l1.2-4.5l-1-0.2l0.2,1
		c0.5-0.1,1-0.1,1.7-0.1c0.6,0,1.1,0.1,1.6,0.2l0.2-1l-1,0.2L52,16l0.6,0.1c0.5,0.1,1,0.3,1.6,0.5l0.6,0.2l3.2-3.4l-0.7-0.7L57,13.6
		c1.2,0.5,2.3,1,3.2,1.8l0.6-0.8l-1-0.3l-1.3,4.4l0.5,0.4c0.4,0.4,0.8,0.7,1.1,1.1l0.4,0.5l4.5-1.3l-0.3-1l-0.8,0.5
		c0.7,1.1,1.4,2.2,1.8,3.2l0.9-0.4l-0.7-0.7l-3.4,3.2l0.2,0.6c0.2,0.6,0.4,1.2,0.5,1.7l0.1,0.6l4.5,1.2l0.2-1l-1,0.2
		c0.1,0.5,0.1,1,0.1,1.7c0,0.6,0,1.3-0.1,1.7L68.3,31.4l-0.2-1L68.3,31.4z"/>
	<path class="st0" d="M50,19.3v1c2.5,0,4.8,1,6.4,2.7c1.6,1.6,2.7,3.9,2.7,6.4c0,2.5-1,4.8-2.7,6.4c-1.6,1.6-3.9,2.7-6.4,2.7
		c-2.5,0-4.8-1-6.4-2.7c-1.6-1.6-2.7-3.9-2.7-6.4c0-2.5,1-4.8,2.7-6.4c1.6-1.6,3.9-2.7,6.4-2.7V19.3v-1c-6.1,0-11.1,5-11.1,11.1
		c0,6.1,5,11.1,11.1,11.1c6.1,0,11.1-5,11.1-11.1c0-6.1-5-11.1-11.1-11.1V19.3z"/>
	<path class="st0" d="M50,23v1c1.5,0,2.8,0.6,3.8,1.6c1,1,1.6,2.3,1.6,3.8c0,1.5-0.6,2.8-1.6,3.8c-1,1-2.3,1.6-3.8,1.6
		c-1.5,0-2.8-0.6-3.8-1.6c-1-1-1.6-2.3-1.6-3.8c0-1.5,0.6-2.8,1.6-3.8c1-1,2.3-1.6,3.8-1.6V23v-1c-4.1,0-7.4,3.3-7.4,7.4
		c0,4.1,3.3,7.4,7.4,7.4c4.1,0,7.4-3.3,7.4-7.4c0-4.1-3.3-7.4-7.4-7.4V23z"/>
</g>
</svg>
