<?xml version="1.0" encoding="utf-8"?>
<!-- Generator: Adobe Illustrator 22.1.0, SVG Export Plug-In . SVG Version: 6.00 Build 0)  -->
<svg version="1.1" id="_x34_5_x5F_development_x5F_solutions"
	 xmlns="http://www.w3.org/2000/svg" xmlns:xlink="http://www.w3.org/1999/xlink" x="0px" y="0px" viewBox="0 0 500 500"
	 style="enable-background:new 0 0 500 500;" xml:space="preserve">
<style type="text/css">
	.st0{fill:#222829;}
</style>
<g>
	<path class="st0" d="M145.9,324.7l-41-40.3v-3.3c0-3.3,1.3-5.9,3.3-8.6c2-2,5.3-3.3,8.6-3.3h3.3l58.8,58.8l0,0
		c4.6,4.6,7.3,11.2,8.6,16.5c0.7,2.6,0.7,5.3,1.3,6.6c0,0.7,0,1.3,0,2v0.7l0,0h1.3h-1.3l0,0h1.3h-1.3v42.3h-53.5v-5.3
		c0-0.7,0-4-2-9.3s-5.3-12.6-11.9-19.2l0,0l-42.3-43c-5.3-5.3-7.3-9.9-8.6-13.9c-0.7-2-0.7-3.3-1.3-4.6v-1.3l0,0h-2h2l0,0h-2h2
		v-97.8c0-3.3,1.3-5.9,3.3-8.6c2-2,5.3-3.3,8.6-3.3s6.6,1.3,8.6,3.3s3.3,4.6,3.3,8.6v48.9h13.2v-48.9c0-7.3-2.6-13.2-7.3-17.8
		s-11.2-7.3-17.8-7.3c-7.3,0-13.2,2.6-17.8,7.3S56,194.5,56,201.7v97.8c0,0.7,0,4.6,2,9.9c2,5.3,5.3,12.6,11.9,19.2l42.3,42.3
		l4.6-4.6l-4.6,4.6c5.3,5.3,7.9,10.6,9.3,14.5c0.7,2,0.7,3.3,1.3,4.6v1.3l0,0h2.6h-2.6l0,0h2.6h-2.6V410h80v-55.5
		c0-0.7,0-5.3-2-12.6c-2-6.6-5.3-15.9-11.9-22.5l-62.8-62.8h-8.6c-7.3,0-13.2,2.6-17.8,7.3c-4.6,4.6-7.3,10.6-7.3,17.8v5.9v2.6
		l44.9,44.3L145.9,324.7L145.9,324.7z"/>
	<path class="st0" d="M364,333.9l44.3-44.3v-8.6c0-6.6-2.6-13.2-7.3-17.8c-4.6-4.6-10.6-7.3-17.8-7.3h-5.9h-2.6l-62.8,62.8l0,0
		c-7.3,7.3-10.6,15.9-11.9,22.5c-2,6.6-2,11.9-2,12.6v55.5h80v-18.5h-2.6h2.6l0,0h-2.6h2.6c0,0,0.7-9.9,9.9-19.8l-4.6-4.6l4.6,4.6
		l42.3-42.3c6.6-6.6,10.6-13.9,11.9-19.2c2-5.3,2-9.3,2-9.9v-97.8c0-6.6-2.6-13.2-7.3-17.8c-4.6-4.6-10.6-7.3-17.8-7.3
		s-13.2,3.3-17.2,7.9s-5.9,11.2-5.9,17.2v48.9H409v-48.9c0-4,1.3-6.6,2.6-8.6c2-2,4-3.3,7.3-3.3s6.6,1.3,8.6,3.3s3.3,5.3,3.3,8.6
		v97.8h2h-2l0,0h2h-2c0,0,0,2.6-1.3,6.6s-4,8.6-8.6,13.2l-42.3,42.3l0,0c-6.6,7.3-9.9,13.9-11.9,19.2c-2,5.3-2,9.3-2,9.3v5.3h-53.5
		v-42.3h-1.3h1.3l0,0h-1.3h1.3c0,0,0-4.6,1.3-9.9c1.3-5.3,4-11.2,8.6-15.9l0,0l58.8-58.8h3.3c3.3,0,6.6,1.3,8.6,3.3
		c2,2,3.3,5.3,3.3,8.6v3.3L354.8,324L364,333.9L364,333.9z"/>
	<path class="st0" d="M299.2,445v-36.4h-0.7l0.7,0.7v-0.7h-0.7l0.7,0.7l-0.7-0.7v0.7h0.7l-0.7-0.7v0.7h79.3v-0.7l-0.7,0.7h0.7v-0.7
		l-0.7,0.7l0.7-0.7h-0.7v0.7l0.7-0.7h-0.7V445h13.2v-36.4c0-3.3-1.3-6.6-4-8.6c-2-2-5.3-4-8.6-4h-79.3c-3.3,0-6.6,1.3-8.6,4
		c-2,2-4,5.3-4,8.6V445H299.2L299.2,445z"/>
	<path class="st0" d="M123.4,445v-36.4h-0.7l0.7,0.7v-0.7h-0.7l0.7,0.7l-0.7-0.7v0.7h0.7l-0.7-0.7v0.7h79.3v-0.7l-0.7,0.7h0.7v-0.7
		l-0.7,0.7l0.7-0.7h-0.7v0.7l0.7-0.7h-0.7V445h13.2v-36.4c0-3.3-1.3-6.6-4-8.6c-2-2-5.3-4-8.6-4h-79.3c-3.3,0-6.6,1.3-8.6,4
		c-2,2-4,5.3-4,8.6V445H123.4L123.4,445z"/>
	<path class="st0" d="M371.3,196.5l6.6,1.3c0.7-4.6,0.7-9.9,0.7-13.9c0-4.6,0-9.3-0.7-13.9l-0.7-4l-29.7-7.9l-1.3,6.6l6.6-1.3
		c-0.7-4.6-2-9.3-3.3-13.2l-5.9,2l4.6,4.6l22.5-21.8l-2-4c-3.3-8.6-8.6-16.5-13.2-23.8l-2.6-4l-30.4,8.6l2,6.6l5.3-4
		c-2.6-4-5.9-6.6-9.9-9.9l-4,5.3l6.6,2l8.6-29.1l-3.3-2.6c-7.3-5.9-15.9-9.9-23.8-13.2l-4-2l-21.8,22.5l4.6,4.6l2-5.9
		c-4-1.3-7.9-2.6-13.2-3.3l-1.3,6.6l6.6-1.3l-7.9-29.7l-5.3-2c-3.3-0.7-7.9-1.3-13.2-1.3c-4.6,0-9.3,0-13.9,0.7l-4,0.7l-7.9,29.7
		l6.6,1.3l-1.3-6.6c-4.6,0.7-9.3,2-13.2,3.3l2,5.9l4.6-4.6l-21.8-22.5l-4,2c-8.6,3.3-16.5,8.6-23.8,13.2l-4,2.6l8.6,29.7l6.6-2
		l-4-5.3c-4,2.6-6.6,5.9-9.9,9.9l5.3,4l2-6.6l-29.1-8.6l-2.6,3.3c-5.9,7.3-9.9,15.9-13.2,23.8l-2,5.9l22.5,21.8l4.6-4.6l-5.9-2
		c-1.3,4-2.6,7.9-3.3,13.2l6.6,1.3l-1.3-6.6l-29.7,7.9l-0.7,4c-0.7,4.6-0.7,9.9-0.7,13.9c0,4.6,0,9.3,0.7,13.9l0.7,4l29.7,7.9
		l1.3-6.6l-6.6,1.3c0.7,4.6,2,9.3,3.3,13.2l5.9-2l-4.6-4.6l-22.5,20.5l2,4c3.3,8.6,8.6,16.5,13.2,23.8l2.6,4l29.7-8.6l-2-6.6l-5.3,4
		c2.6,4,5.9,6.6,9.9,9.9l4-5.3l-6.6-2l-7.9,29.7l3.3,2.6c7.3,5.9,15.9,9.9,23.8,13.2l4,2l21.8-22.5l-4.6-4.6l-2,5.9
		c4,1.3,7.9,2.6,13.2,3.3l1.3-6.6l-6.6,1.3l7.9,29.7l4,0.7c4.6,0.7,9.9,0.7,13.9,0.7c4.6,0,9.3,0,13.9-0.7l4-0.7l7.9-29.7l-6.6-1.3
		l1.3,6.6c4.6-0.7,9.3-2,13.2-3.3l-2-5.9l-5.9,4.6l21.8,22.5l4-2c8.6-3.3,16.5-8.6,23.8-13.2l4-2.6l-8.6-29.7l-6.6,2l4,5.3
		c4-2.6,6.6-5.9,9.9-9.9l-5.3-4l-2,6.6l29.1,8.6l2.6-3.3c5.9-7.3,9.9-15.9,13.2-23.8l2-4l-22.5-21.8l-4.6,4.6l5.9,2
		c1.3-4,2.6-7.9,3.3-13.2l-6.6-1.3l1.3,6.6l30.4-7.3l0.7-4.6L371.3,196.5l-1.3-6.6l-30.4,7.3l-0.7,4.6c-0.7,3.3-2,7.3-3.3,11.2
		l-1.3,4l22.5,21.2l4.6-4.6l-5.9-2.6c-3.3,7.9-6.6,15.2-11.9,21.2l5.3,4l2-6.6l-29.1-8.6l-2.6,3.3c-2.6,2.6-4.6,5.3-7.3,7.3
		l-3.3,2.6l8.6,29.1l6.6-2l-3.3-5.3c-7.3,4.6-14.5,9.3-21.2,11.9l2.6,5.9l4.6-4.6l-23.1-21.2l-4,1.3c-4,1.3-7.9,2.6-10.6,3.3l-4,0.7
		l-7.9,29.7l6.6,1.3l-1.3-6.6c-3.3,0.7-6.6,0.7-11.2,0.7c-4,0-8.6,0-11.2-0.7l-1.3,6.6l6.6-1.3l-7.9-29.7l-4-0.7
		c-3.3-0.7-6.6-2-10.6-3.3l-5.3-1.3l-21.2,22.5l4.6,4.6l2.6-5.9c-7.9-3.3-15.2-6.6-21.2-11.9l-4,5.3l6.6,2l8.6-29.1l-3.3-2.6
		c-2.6-2.6-5.3-4.6-7.3-7.3l-2.6-3.3l-29.1,8.6l2,6.6l5.3-3.3c-4.6-7.3-9.3-14.5-11.9-21.2l-5.9,2.6l4.6,4.6l22.5-21.2l-3.3-6.6
		c-1.3-4-2.6-7.9-3.3-10.6l-0.7-4l-29.7-7.9l-1.3,6.6l6.6-1.3c-0.7-3.3-0.7-6.6-0.7-11.2c0-4,0-8.6,0.7-11.2l-6.6-1.3l1.3,6.6
		l29.7-7.9l0.7-4c0.7-3.3,2-6.6,3.3-10.6l1.3-4l-22.5-21.2l-4.6,4.6l5.9,2.6c3.3-7.9,6.6-15.2,11.9-21.2l-5.3-4l-2,6.6l29.1,8.6
		l2.6-3.3c2.6-2.6,4.6-5.3,7.3-7.3l3.3-2.6l-8.6-29.1l-6.6,2l3.3,5.3c7.3-4.6,14.5-9.3,21.2-11.9l-2.6-5.9l-4.6,4.6l21.2,22.5l4-1.3
		c4-1.3,7.9-2.6,10.6-3.3l4-0.7l7.9-29.7l-6.6-1.3l1.3,6.6c3.3-0.7,6.6-0.7,11.2-0.7c4,0,7.3,0.7,10.6,1.3l1.3-6.6l-6.6,1.3
		l11.2,27.1l4,0.7c3.3,0.7,6.6,2,10.6,3.3l4,1.3l21.2-22.5l-4.6-4.6l-2,5.9c7.9,3.3,15.2,6.6,21.2,11.9l4-5.3l-6.6-2l-8.6,29.1
		l3.3,2.6c2.6,2.6,5.3,4.6,7.3,7.3l2.6,3.3l29.7-8.6l-2-6.6l-5.3,3.3c4.6,7.3,9.3,14.5,11.9,21.2l5.9-2.6l-4.6-4.6L333,148.9l1.3,4
		c1.3,4,2.6,7.9,3.3,11.2l0.7,4L368,176l1.3-6.6l-6.6,1.3c0.7,3.3,0.7,6.6,0.7,11.2c0,4,0,8.6-0.7,11.2L371.3,196.5l-1.3-6.6
		L371.3,196.5z"/>
	<path class="st0" d="M250.3,116.5v6.6c16.5,0,31.7,6.6,42.3,17.8c10.6,10.6,17.8,25.8,17.8,42.3s-6.6,31.7-17.8,42.3
		c-10.6,10.6-25.8,17.8-42.3,17.8s-31.7-6.6-42.3-17.8c-10.6-10.6-17.8-25.8-17.8-42.3s6.6-31.7,17.8-42.3
		c10.6-10.6,25.8-17.8,42.3-17.8V116.5v-6.6c-40.3,0-73.4,33.1-73.4,73.4s33.1,73.4,73.4,73.4s73.4-33.1,73.4-73.4
		s-33.1-73.4-73.4-73.4V116.5z"/>
	<path class="st0" d="M250.3,140.9v6.6c9.9,0,18.5,4,25.1,10.6s10.6,15.2,10.6,25.1s-4,18.5-10.6,25.1s-15.2,10.6-25.1,10.6
		s-18.5-4-25.1-10.6s-10.6-15.2-10.6-25.1c0-9.9,4-18.5,10.6-25.1c6.6-6.6,15.2-10.6,25.1-10.6V140.9v-6.6
		c-27.1,0-48.9,21.8-48.9,48.9s21.8,48.9,48.9,48.9s48.9-21.8,48.9-48.9s-21.8-48.9-48.9-48.9V140.9z"/>
</g>
</svg>
