<?xml version="1.0" encoding="utf-8"?>
<!-- Generator: Adobe Illustrator 22.1.0, SVG Export Plug-In . SVG Version: 6.00 Build 0)  -->
<svg version="1.1" id="_x34_5_x5F_development_x5F_solutions"
	 xmlns="http://www.w3.org/2000/svg" xmlns:xlink="http://www.w3.org/1999/xlink" x="0px" y="0px" viewBox="0 0 500 500"
	 style="enable-background:new 0 0 500 500;" xml:space="preserve">
<style type="text/css">
	.st0{fill:#222829;}
</style>
<g>
	<path class="st0" d="M197.8,419.7h-84.9v-19.6c0-0.4-0.4-10.7-11.1-21.5l-45.7-45.7c-14.8-14.8-15-30.1-15-30.7V197.8
		c0-14.4,11.7-26.1,26.1-26.1c14.4,0,26.1,11.7,26.1,26.1V250H80.3v-52.2c0-7.2-5.9-13.1-13.1-13.1c-7.2,0-13.1,5.9-13.1,13.1v104.4
		c0,0.4,0.4,10.7,11.1,21.5l45.7,45.7c14.8,14.8,15,30.1,15,30.7v6.5h58.7V361c0-0.1-0.2-17.1-11.1-28l-63.4-63.4h-3.8
		c-7.2,0-13.1,5.9-13.1,13.1v3.8l43.8,43.8l-9.2,9.2l-47.6-47.6v-9.2c0-14.4,11.7-26.1,26.1-26.1h9.2l67.2,67.2
		c14.8,14.8,15,36.4,15,37.3V419.7z"/>
	<path class="st0" d="M387.1,419.7h-84.9V361c0-0.9,0.2-22.5,15-37.3l67.2-67.2h9.2c14.4,0,26.1,11.7,26.1,26.1v9.2l-47.6,47.6
		l-9.2-9.2l43.8-43.8v-3.8c0-7.2-5.9-13.1-13.1-13.1h-3.8l-63.4,63.4c-11,11-11.1,27.9-11.1,28v45.7H374v-6.5
		c0-0.6,0.2-15.9,15-30.7l45.7-45.7c10.8-10.8,11.1-21.1,11.1-21.6V197.8c0-7.2-5.9-13.1-13.1-13.1c-7.2,0-13.1,5.9-13.1,13.1V250
		h-13.1v-52.2c0-14.4,11.7-26.1,26.1-26.1s26.1,11.7,26.1,26.1v104.4c0,0.6-0.2,15.9-15,30.7l-45.7,45.7
		c-10.8,10.8-11.1,21.1-11.1,21.6V419.7z"/>
	<path class="st0" d="M400.1,458.9h-13.1v-39.2h-84.9v39.2h-13.1v-39.2c0-7.2,5.9-13.1,13.1-13.1h84.9c7.2,0,13.1,5.9,13.1,13.1
		V458.9z"/>
	<path class="st0" d="M210.8,458.9h-13.1v-39.2h-84.9v39.2H99.9v-39.2c0-7.2,5.9-13.1,13.1-13.1h84.9c7.2,0,13.1,5.9,13.1,13.1
		V458.9z"/>
	<path class="st0" d="M250,315.3c-4.7,0-9.6-0.3-14.4-0.8L231,314l-7-28c-1.8-0.4-3.6-0.9-5.5-1.5l-20,20.7l-4.2-1.9
		c-8.7-3.9-17.1-8.7-25-14.5l-3.7-2.7l7.9-27.7c-1.3-1.3-2.7-2.6-3.9-3.9l-27.7,7.9l-2.7-3.7c-5.8-7.9-10.7-16.4-14.5-25l-1.8-4.2
		l20.7-20c-0.6-1.9-1.1-3.7-1.5-5.5l-28-7l-0.5-4.5c-0.5-4.9-0.8-9.7-0.8-14.4c0-4.7,0.3-9.5,0.8-14.4l0.5-4.5l28-7
		c0.4-1.8,0.9-3.6,1.5-5.5l-20.7-20l1.8-4.2c3.9-8.7,8.7-17.1,14.5-25l2.7-3.7l27.7,7.9c1.3-1.3,2.6-2.7,3.9-3.9l-7.9-27.7l3.7-2.7
		c7.9-5.8,16.3-10.7,25-14.5l4.2-1.9l20,20.7c1.9-0.6,3.7-1.1,5.5-1.5l7-28l4.5-0.5c9.8-1,19-1,28.8,0l4.5,0.5l7,28
		c1.8,0.4,3.6,0.9,5.5,1.5l20-20.7l4.2,1.9c8.7,3.9,17.1,8.7,25,14.5l3.7,2.7l-7.9,27.7c1.3,1.3,2.7,2.6,3.9,3.9l27.7-7.9l2.7,3.7
		c5.8,7.9,10.7,16.4,14.5,25l1.8,4.2l-20.7,20c0.6,1.9,1.1,3.7,1.5,5.5l28,7l0.5,4.5c0.5,4.9,0.8,9.7,0.8,14.4s-0.3,9.5-0.8,14.4
		l-0.5,4.5l-28,7c-0.4,1.8-0.9,3.6-1.5,5.5l20.7,20l-1.8,4.2c-3.9,8.7-8.7,17.1-14.5,25l-2.7,3.7l-27.7-7.9
		c-1.3,1.3-2.6,2.7-3.9,3.9l7.9,27.7l-3.7,2.7c-7.9,5.8-16.3,10.7-25,14.5l-4.2,1.9l-20-20.7c-1.9,0.6-3.7,1.1-5.5,1.5l-7,28
		l-4.5,0.5C259.6,315,254.7,315.3,250,315.3z M241.5,301.9c5.8,0.4,11.3,0.4,17.1,0l6.7-26.9l4-0.8c3.7-0.7,7.6-1.8,11.9-3.2
		l3.9-1.3l19.3,19.9c5.1-2.5,10-5.4,14.8-8.6l-7.6-26.7l3.1-2.7c3.1-2.7,6-5.6,8.7-8.7l2.7-3.1l26.7,7.6c3.2-4.8,6.1-9.8,8.6-14.8
		l-19.9-19.3l1.3-3.9c1.4-4.3,2.5-8.2,3.2-11.9l0.8-4l26.9-6.7c0.2-2.9,0.3-5.7,0.3-8.5c0-2.8-0.1-5.6-0.3-8.5l-26.9-6.7l-0.8-4
		c-0.7-3.7-1.8-7.6-3.3-11.9l-1.3-3.9l19.9-19.3c-2.5-5.1-5.4-10-8.6-14.8l-26.7,7.6l-2.7-3.1c-2.7-3.1-5.6-6-8.7-8.7l-3.1-2.7
		l7.6-26.7c-4.8-3.2-9.7-6.1-14.8-8.6l-19.3,20l-3.9-1.3c-4.3-1.4-8.1-2.5-11.9-3.3l-4-0.8l-6.7-26.9c-5.8-0.4-11.3-0.4-17.1,0
		l-6.7,26.9l-4,0.8c-3.7,0.8-7.6,1.8-11.9,3.3l-3.9,1.3l-19.3-19.9c-5.1,2.5-10,5.4-14.8,8.6l7.6,26.7l-3.1,2.7
		c-3.1,2.7-6,5.6-8.7,8.7l-2.7,3.1l-26.7-7.6c-3.3,4.8-6.1,9.8-8.6,14.8l19.9,19.3l-1.3,3.9c-1.4,4.3-2.5,8.2-3.2,11.9l-0.8,4.1
		l-26.9,6.7c-0.2,2.9-0.3,5.7-0.3,8.5c0,2.8,0.1,5.7,0.3,8.6l26.9,6.7l0.8,4.1c0.7,3.7,1.8,7.6,3.3,11.9l1.3,3.9l-19.9,19.3
		c2.5,5.1,5.4,10,8.6,14.8l26.7-7.6l2.7,3.1c2.7,3.1,5.6,6,8.7,8.7l3.1,2.7l-7.6,26.7c4.8,3.2,9.7,6.1,14.8,8.6l19.3-19.9l3.9,1.3
		c4.3,1.4,8.2,2.5,11.9,3.2l4,0.8L241.5,301.9z"/>
	<path class="st0" d="M250,256.5c-43.2,0-78.3-35.1-78.3-78.3c0-43.2,35.1-78.3,78.3-78.3s78.3,35.1,78.3,78.3
		C328.3,221.4,293.2,256.5,250,256.5z M250,112.9c-36,0-65.3,29.3-65.3,65.3c0,36,29.3,65.3,65.3,65.3s65.3-29.3,65.3-65.3
		C315.3,142.2,286,112.9,250,112.9z"/>
	<path class="st0" d="M250,230.4c-28.8,0-52.2-23.4-52.2-52.2S221.2,126,250,126c28.8,0,52.2,23.4,52.2,52.2S278.8,230.4,250,230.4z
		 M250,139c-21.6,0-39.2,17.6-39.2,39.2c0,21.6,17.6,39.2,39.2,39.2c21.6,0,39.2-17.6,39.2-39.2C289.2,156.6,271.6,139,250,139z"/>
</g>
</svg>
