<?xml version="1.0" encoding="iso-8859-1"?>
<!-- Generator: Adobe Illustrator 17.0.0, SVG Export Plug-In . SVG Version: 6.00 Build 0)  -->
<!DOCTYPE svg PUBLIC "-//W3C//DTD SVG 1.1//EN" "http://www.w3.org/Graphics/SVG/1.1/DTD/svg11.dtd">
<svg version="1.1" id="_x34_5_x5F_development_x5F_solutions"
	 xmlns="http://www.w3.org/2000/svg" xmlns:xlink="http://www.w3.org/1999/xlink" x="0px" y="0px" width="64px" height="64px"
	 viewBox="0 0 64 64" style="enable-background:new 0 0 64 64;" xml:space="preserve">
<g>
	<g>
		<path style="fill:none;stroke:#222829;stroke-width:2;stroke-miterlimit:10;" d="M14,45l-7-7v-1c0-1.656,1.344-3,3-3h1l10,10
			c2,2,2,5,2,5v8H12v-2c0,0,0-2-2-4l-7-7c-2-2-2-4-2-4V24c0-1.656,1.344-3,3-3c1.656,0,3,1.344,3,3v8"/>
		<path style="fill:none;stroke:#222829;stroke-width:2;stroke-miterlimit:10;" d="M50,45l7-7v-1c0-1.656-1.344-3-3-3h-1L43,44
			c-2,2-2,5-2,5v8h11v-2c0,0,0-2,2-4l7-7c2-2,2-4,2-4V24c0-1.656-1.344-3-3-3c-1.656,0-3,1.344-3,3v8"/>
		<path style="fill:none;stroke:#222829;stroke-width:2;stroke-miterlimit:10;" d="M39,64v-6c0-0.553,0.447-1,1-1h13
			c0.553,0,1,0.447,1,1v6"/>
		<path style="fill:none;stroke:#222829;stroke-width:2;stroke-miterlimit:10;" d="M10,64v-6c0-0.553,0.447-1,1-1h13
			c0.553,0,1,0.447,1,1v6"/>
	</g>
	<path style="fill:none;stroke:#222829;stroke-width:2;stroke-miterlimit:10;" d="M51.888,23.106C51.96,22.414,52,21.713,52,21
		c0-0.711-0.04-1.413-0.112-2.105l-4.202-1.052c-0.134-0.665-0.318-1.311-0.53-1.942l3.114-3.014
		c-0.576-1.297-1.292-2.515-2.119-3.648l-4.163,1.189c-0.442-0.501-0.914-0.973-1.415-1.415l1.189-4.163
		c-1.134-0.827-2.352-1.542-3.648-2.119l-3.013,3.115c-0.633-0.213-1.278-0.396-1.943-0.53l-1.052-4.202C33.413,1.041,32.712,1,32,1
		c-0.712,0-1.413,0.041-2.105,0.113l-1.052,4.202c-0.665,0.134-1.312,0.317-1.944,0.53L23.887,2.73
		c-1.297,0.577-2.515,1.292-3.648,2.119l1.189,4.163c-0.501,0.442-0.973,0.914-1.415,1.415L15.85,9.238
		c-0.827,1.134-1.543,2.351-2.119,3.648l3.114,3.014c-0.213,0.632-0.397,1.277-0.53,1.942l-4.202,1.052
		C12.04,19.587,12,20.289,12,21c0,0.713,0.04,1.414,0.112,2.106l4.202,1.052c0.133,0.665,0.317,1.311,0.53,1.943l-3.114,3.013
		c0.576,1.297,1.292,2.515,2.119,3.648l4.163-1.189c0.442,0.501,0.914,0.973,1.415,1.415l-1.189,4.163
		c1.134,0.827,2.351,1.542,3.648,2.119l3.012-3.114c0.633,0.213,1.279,0.396,1.944,0.529l1.052,4.203C30.587,40.961,31.288,41,32,41
		c0.712,0,1.413-0.039,2.105-0.111l1.052-4.203c0.665-0.133,1.311-0.316,1.943-0.529l3.013,3.114
		c1.297-0.577,2.515-1.292,3.648-2.119l-1.189-4.163c0.501-0.442,0.973-0.914,1.415-1.415l4.163,1.189
		c0.827-1.134,1.543-2.352,2.119-3.648l-3.114-3.013c0.212-0.633,0.396-1.278,0.53-1.943L51.888,23.106z"/>
	<circle style="fill:none;stroke:#222829;stroke-width:2;stroke-miterlimit:10;" cx="32" cy="21" r="11"/>
	<circle style="fill:none;stroke:#222829;stroke-width:2;stroke-miterlimit:10;" cx="32" cy="21" r="7"/>
</g>
</svg>
