<?xml version="1.0" encoding="utf-8"?>
<!-- Generator: Adobe Illustrator 22.1.0, SVG Export Plug-In . SVG Version: 6.00 Build 0)  -->
<svg version="1.1" id="_x34_5_x5F_development_x5F_solutions"
	 xmlns="http://www.w3.org/2000/svg" xmlns:xlink="http://www.w3.org/1999/xlink" x="0px" y="0px" viewBox="0 0 100 80"
	 style="enable-background:new 0 0 100 80;" xml:space="preserve">
<style type="text/css">
	.st0{fill:none;stroke:#222829;stroke-width:2;stroke-miterlimit:10;}
</style>
<g>
	<g>
		<path class="st0" d="M33.5,51.5L27,45.1v-0.9c0-1.5,1.2-2.8,2.8-2.8h0.9l9.2,9.2c1.8,1.8,1.8,4.6,1.8,4.6v7.4H31.6v-1.8
			c0,0,0-1.8-1.8-3.7l-6.4-6.4c-1.8-1.8-1.8-3.7-1.8-3.7V32.2c0-1.5,1.2-2.8,2.8-2.8s2.8,1.2,2.8,2.8v7.4"/>
		<path class="st0" d="M66.5,51.5l6.4-6.4v-0.9c0-1.5-1.2-2.8-2.8-2.8h-0.9l-9.2,9.2c-1.8,1.8-1.8,4.6-1.8,4.6v7.4h10.1v-1.8
			c0,0,0-1.8,1.8-3.7l6.4-6.4c1.8-1.8,1.8-3.7,1.8-3.7V32.2c0-1.5-1.2-2.8-2.8-2.8S73,30.7,73,32.2v7.4"/>
		<path class="st0" d="M56.4,69v-5.5c0-0.5,0.4-0.9,0.9-0.9h12c0.5,0,0.9,0.4,0.9,0.9V69"/>
		<path class="st0" d="M29.8,69v-5.5c0-0.5,0.4-0.9,0.9-0.9h12c0.5,0,0.9,0.4,0.9,0.9V69"/>
	</g>
	<path class="st0" d="M68.3,31.4c0.1-0.6,0.1-1.3,0.1-1.9c0-0.7,0-1.3-0.1-1.9l-3.9-1c-0.1-0.6-0.3-1.2-0.5-1.8l2.9-2.8
		c-0.5-1.2-1.2-2.3-1.9-3.4L61,19.7c-0.4-0.5-0.8-0.9-1.3-1.3l1.1-3.8c-1-0.8-2.2-1.4-3.4-1.9l-2.8,2.9c-0.6-0.2-1.2-0.4-1.8-0.5
		l-1-3.9C51.3,11.1,50.7,11,50,11c-0.7,0-1.3,0-1.9,0.1l-1,3.9c-0.6,0.1-1.2,0.3-1.8,0.5l-2.8-2.9c-1.2,0.5-2.3,1.2-3.4,1.9l1.1,3.8
		c-0.5,0.4-0.9,0.8-1.3,1.3l-3.8-1.1c-0.8,1-1.4,2.2-1.9,3.4l2.9,2.8c-0.2,0.6-0.4,1.2-0.5,1.8l-3.9,1c-0.1,0.6-0.1,1.3-0.1,1.9
		c0,0.7,0,1.3,0.1,1.9l3.9,1c0.1,0.6,0.3,1.2,0.5,1.8l-2.9,2.8c0.5,1.2,1.2,2.3,1.9,3.4l3.8-1.1c0.4,0.5,0.8,0.9,1.3,1.3l-1.1,3.8
		c1,0.8,2.2,1.4,3.4,1.9l2.8-2.9c0.6,0.2,1.2,0.4,1.8,0.5l1,3.9c0.6,0.1,1.3,0.1,1.9,0.1c0.7,0,1.3,0,1.9-0.1l1-3.9
		c0.6-0.1,1.2-0.3,1.8-0.5l2.8,2.9c1.2-0.5,2.3-1.2,3.4-1.9l-1.1-3.8c0.5-0.4,0.9-0.8,1.3-1.3l3.8,1.1c0.8-1,1.4-2.2,1.9-3.4
		l-2.9-2.8c0.2-0.6,0.4-1.2,0.5-1.8L68.3,31.4z"/>
	<circle class="st0" cx="50" cy="29.4" r="10.1"/>
	<circle class="st0" cx="50" cy="29.4" r="6.4"/>
</g>
</svg>
