<?xml version="1.0" encoding="iso-8859-1"?>
<!-- Generator: Adobe Illustrator 17.0.0, SVG Export Plug-In . SVG Version: 6.00 Build 0)  -->
<!DOCTYPE svg PUBLIC "-//W3C//DTD SVG 1.1//EN" "http://www.w3.org/Graphics/SVG/1.1/DTD/svg11.dtd">
<svg version="1.1" id="_x31_2_x5F_distribution_x5F_channels"
	 xmlns="http://www.w3.org/2000/svg" xmlns:xlink="http://www.w3.org/1999/xlink" x="0px" y="0px" width="64px" height="64px"
	 viewBox="0 0 64 64" style="enable-background:new 0 0 64 64;" xml:space="preserve">
<g>
	<g>
		<g>
			<circle style="fill:none;stroke:#222829;stroke-width:2;stroke-linejoin:round;stroke-miterlimit:10;" cx="32" cy="32" r="21"/>
			<g>
				
					<line style="fill:none;stroke:#222829;stroke-width:2;stroke-linejoin:round;stroke-miterlimit:10;" x1="32" y1="18" x2="32" y2="1"/>
				<polyline style="fill:none;stroke:#222829;stroke-width:2;stroke-linejoin:round;stroke-miterlimit:10;" points="36,5 32,1 
					28,5 				"/>
				
					<line style="fill:none;stroke:#222829;stroke-width:2;stroke-linejoin:round;stroke-miterlimit:10;" x1="32" y1="46" x2="32" y2="63"/>
				<polyline style="fill:none;stroke:#222829;stroke-width:2;stroke-linejoin:round;stroke-miterlimit:10;" points="28,59 32,63 
					36,59 				"/>
				
					<line style="fill:none;stroke:#222829;stroke-width:2;stroke-linejoin:round;stroke-miterlimit:10;" x1="18" y1="32" x2="1" y2="32"/>
				<polyline style="fill:none;stroke:#222829;stroke-width:2;stroke-linejoin:round;stroke-miterlimit:10;" points="5,28 1,32 
					5,36 				"/>
				
					<line style="fill:none;stroke:#222829;stroke-width:2;stroke-linejoin:round;stroke-miterlimit:10;" x1="46" y1="32" x2="63" y2="32"/>
				<polyline style="fill:none;stroke:#222829;stroke-width:2;stroke-linejoin:round;stroke-miterlimit:10;" points="59,36 63,32 
					59,28 				"/>
			</g>
			<g>
				
					<line style="fill:none;stroke:#222829;stroke-width:2;stroke-linejoin:round;stroke-miterlimit:10;" x1="20.929" y1="20.929" x2="8.322" y2="8.322"/>
				<polyline style="fill:none;stroke:#222829;stroke-width:2;stroke-linejoin:round;stroke-miterlimit:10;" points="14,8 8,8 8,14 
									"/>
				
					<line style="fill:none;stroke:#222829;stroke-width:2;stroke-linejoin:round;stroke-miterlimit:10;" x1="43.071" y1="43.071" x2="55.678" y2="55.678"/>
				<polyline style="fill:none;stroke:#222829;stroke-width:2;stroke-linejoin:round;stroke-miterlimit:10;" points="50,56 56,56 
					56,50 				"/>
				
					<line style="fill:none;stroke:#222829;stroke-width:2;stroke-linejoin:round;stroke-miterlimit:10;" x1="20.929" y1="43.071" x2="8.322" y2="55.678"/>
				<polyline style="fill:none;stroke:#222829;stroke-width:2;stroke-linejoin:round;stroke-miterlimit:10;" points="8,50 8,56 
					14,56 				"/>
				
					<line style="fill:none;stroke:#222829;stroke-width:2;stroke-linejoin:round;stroke-miterlimit:10;" x1="43.071" y1="20.929" x2="55.678" y2="8.322"/>
				<polyline style="fill:none;stroke:#222829;stroke-width:2;stroke-linejoin:round;stroke-miterlimit:10;" points="56,14 56,8 
					50,8 				"/>
			</g>
			<circle style="fill:none;stroke:#222829;stroke-width:2;stroke-linejoin:round;stroke-miterlimit:10;" cx="32" cy="32" r="9"/>
			<circle style="fill:none;stroke:#222829;stroke-width:2;stroke-linejoin:round;stroke-miterlimit:10;" cx="32" cy="32" r="4"/>
		</g>
	</g>
</g>
</svg>
