<?xml version="1.0" encoding="utf-8"?>
<!-- Generator: Adobe Illustrator 22.1.0, SVG Export Plug-In . SVG Version: 6.00 Build 0)  -->
<svg version="1.1" id="_x31_2_x5F_distribution_x5F_channels"
	 xmlns="http://www.w3.org/2000/svg" xmlns:xlink="http://www.w3.org/1999/xlink" x="0px" y="0px" viewBox="0 0 500 500"
	 style="enable-background:new 0 0 500 500;" xml:space="preserve">
<style type="text/css">
	.st0{fill:#222829;}
</style>
<g>
	<path class="st0" d="M250,123.7v7c33,0,62.7,13.3,84.4,34.9c21.6,21.6,34.9,51.4,34.9,84.4c0,33-13.3,62.7-34.9,84.4
		C312.7,356,283,369.3,250,369.3c-33,0-62.7-13.3-84.4-34.9C144,312.7,130.7,283,130.7,250c0-33,13.3-62.7,34.9-84.4
		c21.6-21.6,51.4-34.9,84.4-34.9V123.7v-7c-36.8,0-70.2,14.9-94.3,39c-24.1,24.1-39,57.5-39,94.3c0,36.8,14.9,70.2,39,94.3
		c24.1,24.1,57.5,39,94.3,39c36.8,0,70.2-14.9,94.3-39c24.1-24.1,39-57.5,39-94.3c0-36.8-14.9-70.2-39-94.3
		c-24.1-24.1-57.5-39-94.3-39V123.7z"/>
	<polyline class="st0" points="257,165.8 257,63.5 243,63.5 243,165.8 	"/>
	<path class="st0" d="M279,82.7l-24.1-24.1c-1.3-1.3-3.1-2.1-4.9-2.1c-1.8,0-3.6,0.7-4.9,2.1L221,82.7l9.9,9.9L250,73.4l19.1,19.2
		L279,82.7L279,82.7z"/>
	<polyline class="st0" points="243,334.2 243,436.5 257,436.5 257,334.2 	"/>
	<path class="st0" d="M221,417.4l24.1,24.1c2.7,2.7,7.2,2.7,9.9,0l24.1-24.1l-9.9-9.9L250,426.6l-19.2-19.1L221,417.4L221,417.4z"/>
	<polyline class="st0" points="165.8,243 63.5,243 63.5,257 165.8,257 	"/>
	<path class="st0" d="M82.7,221l-24.1,24.1c-1.3,1.3-2.1,3.1-2.1,4.9c0,1.8,0.7,3.6,2.1,4.9L82.7,279l9.9-9.9L73.4,250l19.2-19.2
		L82.7,221L82.7,221z"/>
	<polyline class="st0" points="334.2,257 436.5,257 436.5,243 334.2,243 	"/>
	<path class="st0" d="M417.4,279l24.1-24.1c2.7-2.7,2.7-7.2,0-9.9L417.4,221l-9.9,9.9l19.1,19.2l-19.1,19.1L417.4,279L417.4,279z"/>
	<polyline class="st0" points="188.3,178.5 112.5,102.7 102.7,112.5 178.5,188.3 	"/>
	<path class="st0" d="M141.7,98.6h-36.1c-1.8,0-3.6,0.7-4.9,2.1c-1.3,1.3-2.1,3.1-2.1,4.9v36.1h14l0-29.1l29.1,0V98.6L141.7,98.6z"
		/>
	<polyline class="st0" points="311.6,321.5 387.5,397.4 397.4,387.5 321.5,311.6 	"/>
	<path class="st0" d="M358.3,401.4h36.1c1.8,0,3.6-0.7,4.9-2.1s2.1-3.1,2.1-4.9v-36.1h-14l0,29.1h-29.1V401.4L358.3,401.4z"/>
	<polyline class="st0" points="178.5,311.6 102.7,387.5 112.5,397.4 188.3,321.5 	"/>
	<path class="st0" d="M98.6,358.3v36.1c0,1.8,0.7,3.6,2.1,4.9c1.3,1.3,3.1,2.1,4.9,2.1h36.1v-14h-29.1v-29.1H98.6L98.6,358.3z"/>
	<polyline class="st0" points="321.5,188.3 397.4,112.5 387.5,102.7 311.6,178.5 	"/>
	<path class="st0" d="M401.4,141.7v-36.1c0-1.8-0.7-3.6-2.1-4.9c-1.3-1.3-3.1-2.1-4.9-2.1h-36.1v14l29.1,0l0,29.1H401.4L401.4,141.7
		z"/>
	<path class="st0" d="M250,195.9v7c6.5,0,12.7,1.3,18.3,3.7c8.4,3.6,15.6,9.6,20.7,17.1c5.1,7.5,8,16.6,8,26.3
		c0,6.5-1.3,12.7-3.7,18.3c-3.6,8.4-9.6,15.6-17.1,20.7c-7.5,5.1-16.6,8-26.3,8c-6.5,0-12.7-1.3-18.3-3.7
		c-8.4-3.6-15.6-9.6-20.7-17.1c-5.1-7.5-8-16.6-8-26.3c0-6.5,1.3-12.7,3.7-18.3c3.6-8.4,9.6-15.6,17.1-20.7c7.5-5.1,16.6-8,26.3-8
		V195.9v-7c-8.4,0-16.5,1.7-23.8,4.8c-11,4.6-20.3,12.4-26.9,22.1c-6.6,9.7-10.4,21.5-10.4,34.2c0,8.4,1.7,16.5,4.8,23.8
		c4.6,11,12.4,20.3,22.1,26.9c9.7,6.6,21.5,10.4,34.2,10.4c8.4,0,16.5-1.7,23.8-4.8c11-4.6,20.3-12.4,26.9-22.1
		c6.6-9.7,10.4-21.5,10.4-34.2c0-8.4-1.7-16.5-4.8-23.8c-4.6-11-12.4-20.3-22.1-26.9c-9.7-6.6-21.5-10.4-34.2-10.4V195.9z"/>
	<path class="st0" d="M250,225.9v7c2.4,0,4.6,0.5,6.7,1.3c3.1,1.3,5.7,3.5,7.5,6.2c1.8,2.7,2.9,6,2.9,9.6c0,2.4-0.5,4.6-1.3,6.7
		c-1.3,3.1-3.5,5.7-6.2,7.5c-2.7,1.8-6,2.9-9.6,2.9c-2.4,0-4.6-0.5-6.7-1.3c-3.1-1.3-5.7-3.5-7.5-6.2c-1.8-2.7-2.9-6-2.9-9.6
		c0-2.4,0.5-4.6,1.3-6.7c1.3-3.1,3.5-5.7,6.2-7.5c2.7-1.8,6-2.9,9.6-2.9V225.9v-7c-4.3,0-8.4,0.9-12.1,2.4
		c-5.6,2.4-10.3,6.3-13.7,11.3c-3.4,5-5.3,11-5.3,17.4c0,4.3,0.9,8.4,2.4,12.1c2.4,5.6,6.3,10.3,11.3,13.7c5,3.4,11,5.3,17.4,5.3
		c4.3,0,8.4-0.9,12.1-2.4c5.6-2.4,10.3-6.3,13.7-11.3c3.4-5,5.3-11,5.3-17.4c0-4.3-0.9-8.4-2.4-12.1c-2.4-5.6-6.3-10.3-11.3-13.7
		c-5-3.4-11-5.3-17.4-5.3V225.9z"/>
</g>
</svg>
