<svg id="Layer_1" data-name="Layer 1" xmlns="http://www.w3.org/2000/svg" viewBox="0 0 540 540"><title>Artboard 5</title><path d="M185.62,266.21H315.68v55.74H185.62Zm120.77,9.29H194.91v37.16H306.39Z"/><path d="M351.84,266.21H481.89v55.74H351.84ZM472.6,275.5H361.13v37.16H472.6Z"/><path d="M185.62,164.72H315.68v55.74H185.62ZM306.39,174H194.91v37.16H306.39Z"/><path d="M351.84,368.49H481.89v55.74H351.84Zm120.77,9.29H361.13v37.16H472.6Z"/><rect x="120.37" y="289.43" width="41.8" height="9.29"/><rect x="315.35" y="289.43" width="41.8" height="9.29"/><rect x="245.31" y="215.76" width="9.29" height="57.54"/><polygon points="140.31 309.37 155.6 294.08 140.31 278.78 146.88 272.21 168.74 294.08 146.88 315.94 140.31 309.37"/><path d="M337.6,391.62v9.29H261.24A14,14,0,0,1,247.3,387V320.45h9.29V387a4.65,4.65,0,0,0,4.64,4.64Z"/><polygon points="342.57 396.46 320.71 418.32 314.14 411.76 329.44 396.46 314.14 381.17 320.71 374.6 342.57 396.46"/><path d="M414.66,252.23H424V199.84A14,14,0,0,0,410,185.9H311.53v9.29H410a4.65,4.65,0,0,1,4.64,4.64Z"/><polygon points="419.51 257.2 441.37 235.34 434.8 228.77 419.51 244.06 404.21 228.77 397.64 235.34 419.51 257.2"/><path d="M106.61,294.08a27.87,27.87,0,1,1-27.87-27.87A27.9,27.9,0,0,1,106.61,294.08Zm-46.45,0A18.58,18.58,0,1,0,78.74,275.5,18.6,18.6,0,0,0,60.16,294.08Z"/><path d="M5,64.8V475.2H535V64.8Zm17,17H518.58v32.83H22ZM518,458.2H22V131.05H518.58L518,458.2Z"/><rect x="31.38" y="88.84" width="15.83" height="17"/><rect x="59.52" y="88.84" width="15.83" height="17"/><rect x="87.08" y="88.84" width="15.83" height="17"/></svg>