<?xml version="1.0" encoding="utf-8"?>
<!-- Generator: Adobe Illustrator 22.1.0, SVG Export Plug-In . SVG Version: 6.00 Build 0)  -->
<svg version="1.1" id="Layer_1" xmlns="http://www.w3.org/2000/svg" xmlns:xlink="http://www.w3.org/1999/xlink" x="0px" y="0px"
	 viewBox="0 0 500 500" style="enable-background:new 0 0 500 500;" xml:space="preserve">
<style type="text/css">
	.st0{stroke:#000000;stroke-width:5;stroke-miterlimit:10;}
</style>
<title>Artboard 5</title>
<path class="st0" d="M180.5,246.9h107.1v45.9H180.5V246.9z M280,254.5h-91.8v30.6H280L280,254.5z"/>
<path class="st0" d="M317.4,246.9h107.1v45.9H317.4V246.9z M416.8,254.5H325v30.6h91.8V254.5z"/>
<path class="st0" d="M180.5,163.3h107.1v45.9H180.5V163.3z M280,171h-91.8v30.6H280V171z"/>
<path class="st0" d="M317.4,331.1h107.1V377H317.4V331.1z M416.8,338.7H325v30.6h91.8L416.8,338.7z"/>
<rect x="126.8" y="266" class="st0" width="34.4" height="7.6"/>
<rect x="287.3" y="266" class="st0" width="34.4" height="7.6"/>
<rect x="229.7" y="205.3" class="st0" width="7.6" height="47.4"/>
<polygon class="st0" points="143.2,282.4 155.8,269.8 143.2,257.2 148.6,251.8 166.6,269.8 148.6,287.8 "/>
<path class="st0" d="M305.7,350.1v7.6h-62.9c-6.3,0-11.4-5.1-11.5-11.5v-54.8h7.6v54.8c0,2.1,1.7,3.8,3.8,3.8L305.7,350.1z"/>
<polygon class="st0" points="309.7,354.1 291.8,372.1 286.3,366.7 298.9,354.1 286.3,341.5 291.8,336.1 "/>
<path class="st0" d="M369.1,235.4h7.7v-43.1c0-6.3-5.2-11.5-11.5-11.5h-81.1v7.6h81.1c2.1,0,3.8,1.7,3.8,3.8L369.1,235.4z"/>
<polygon class="st0" points="373.1,239.5 391.1,221.5 385.7,216.1 373.1,228.6 360.5,216.1 355.1,221.5 "/>
<path class="st0" d="M115.5,269.8c0,12.7-10.3,22.9-22.9,22.9s-22.9-10.3-22.9-22.9c0-12.7,10.3-22.9,22.9-22.9l0,0
	C105.2,246.9,115.5,257.2,115.5,269.8z M77.2,269.8c0,8.4,6.8,15.3,15.3,15.3s15.3-6.8,15.3-15.3c0-8.4-6.8-15.3-15.3-15.3
	c0,0,0,0,0,0C84.1,254.5,77.2,261.4,77.2,269.8z"/>
<path d="M31.8,81.1v337.9h436.4V81.1H31.8z M45.8,95h408.9v27H45.8V95z M454.2,405H45.8V135.6h408.9L454.2,405z"/>
<rect x="53.5" y="100.8" width="13" height="14"/>
<rect x="76.7" y="100.8" width="13" height="14"/>
<rect x="99.4" y="100.8" width="13" height="14"/>
</svg>
