<svg xmlns="http://www.w3.org/2000/svg" viewBox="0 0 96.14 129.5"><title>dynamic-forms</title><g id="Layer_2" data-name="Layer 2"><g id="Layer_1-2" data-name="Layer 1"><path d="M76.45,0H0V129.5H96.14V19.69Zm1.32,7.68,10.69,10.7H77.77ZM4.5,125V4.5H73.27V22.88H91.64V125Z"/><path d="M39,116.19H57.18V98H39Zm4.5-13.73h9.22v9.23H43.46Z"/><path d="M39,94.09H57.18V75.87H39Zm4.5-13.72h9.22v9.22H43.46Z"/><path d="M39,72H57.18V53.78H39Zm4.5-13.72h9.22V67.5H43.46Z"/><path d="M18.38,49.91H77.77V31.69H18.38Zm4.5-13.72H73.27v9.22H22.88Z"/><path d="M18.38,73.94A13.3,13.3,0,0,0,31.67,87.23v-4.5a8.8,8.8,0,0,1,0-17.59v-4.5A13.31,13.31,0,0,0,18.38,73.94Z"/><path d="M64.47,82.73v4.5a8.8,8.8,0,0,1,0,17.6v4.5a13.3,13.3,0,0,0,0-26.6Z"/><rect x="18.13" y="18.38" width="29.95" height="4.5"/></g></g></svg>