<svg id="Layer_1" data-name="Layer 1" xmlns="http://www.w3.org/2000/svg" viewBox="0 0 500 500"><title>Artboard 3</title><path d="M392.5,325H310V310h82.5A82.59,82.59,0,0,0,475,227.5c0-42.76-29-75-67.5-75H400V145c0-29-15.76-60-60-60H328.08l-2.15-3.87C306.47,46,269.67,25,227.5,25A112.63,112.63,0,0,0,115,137.5V145h-7.5a82.5,82.5,0,0,0,0,165H190v15H107.5a97.5,97.5,0,0,1-7.3-194.73A127.65,127.65,0,0,1,227.5,10c46.15,0,86.68,22.34,109.33,60H340c43.12,0,71.79,26.37,74.75,67.81C458.13,141.56,490,178.86,490,227.5A97.61,97.61,0,0,1,392.5,325Z"/><path d="M160,145H145c0-47.94,38.55-90,82.5-90V70C195.64,70,160,102.07,160,145Z"/><rect x="70" y="370" width="52.5" height="15"/><path d="M197.5,385h-15V370h15A22.52,22.52,0,0,0,220,347.5V250h15v97.5A37.54,37.54,0,0,1,197.5,385Z"/><rect x="377.5" y="445" width="45" height="15"/><path d="M317.5,460h-15A37.54,37.54,0,0,1,265,422.5V250h15V422.5A22.52,22.52,0,0,0,302.5,445h15Z"/><rect x="190" y="235" width="120" height="15"/><path d="M47.5,415A37.5,37.5,0,1,1,85,377.5,37.54,37.54,0,0,1,47.5,415Zm0-60A22.5,22.5,0,1,0,70,377.5,22.52,22.52,0,0,0,47.5,355Z"/><path d="M152.5,415A37.5,37.5,0,1,1,190,377.5,37.54,37.54,0,0,1,152.5,415Zm0-60A22.5,22.5,0,1,0,175,377.5,22.52,22.52,0,0,0,152.5,355Z"/><path d="M347.5,490A37.5,37.5,0,1,1,385,452.5,37.54,37.54,0,0,1,347.5,490Zm0-60A22.5,22.5,0,1,0,370,452.5,22.52,22.52,0,0,0,347.5,430Z"/><path d="M452.5,490A37.5,37.5,0,1,1,490,452.5,37.54,37.54,0,0,1,452.5,490Zm0-60A22.5,22.5,0,1,0,475,452.5,22.52,22.52,0,0,0,452.5,430Z"/><rect x="325" y="235" width="15" height="15"/><rect x="355" y="235" width="15" height="15"/><rect x="385" y="235" width="15" height="15"/><rect x="100" y="235" width="15" height="15"/><rect x="130" y="235" width="15" height="15"/><rect x="160" y="235" width="15" height="15"/></svg>