<svg id="Layer_1" data-name="Layer 1" xmlns="http://www.w3.org/2000/svg" viewBox="0 0 60 60"><title>energy_power-modernization</title><path d="M53,60H7a7,7,0,0,1-7-7V7A7,7,0,0,1,7,0H53a7,7,0,0,1,7,7V53A7,7,0,0,1,53,60ZM7,2A5,5,0,0,0,2,7V53a5,5,0,0,0,5,5H53a5,5,0,0,0,5-5V7a5,5,0,0,0-5-5Z"/><path d="M39.89,48.93,35,36.82v-.51h3.79v1.26h1.26V36.31h1.26v1.26h1.26V35.68h0a.63.63,0,0,0-.18-.45L35,27.85v-.37h3.79v1.26h1.26V27.48h1.26v1.26h1.26V26.85h0a.63.63,0,0,0-.18-.45L35,18.93l-3.11-8.7a.63.63,0,0,0-.59-.42H28.74a.63.63,0,0,0-.59.42L25,18.93,17.57,26.4a.63.63,0,0,0-.18.45h0v1.89h1.26V27.48h1.26v1.26h1.26V27.48H25v.37l-7.39,7.39a.63.63,0,0,0-.18.45h0v1.89h1.26V36.31h1.26v1.26h1.26V36.31H25v.51L20.11,48.93H9.81v1.26H50.19V48.93Zm-13.41-12L30,33.42l3.52,3.52L30,40.46Zm10.2,12H23.32L30,42.25Zm-5.79-16.4,2.89-2.89v5.79Zm2-5H27.11L30,24.58Zm-2-3.79,2.89-2.89v5.79Zm-4.68,2.89V20.8l2.89,2.89Zm.89,2.15h5.79L30,31.63Zm2,3.79-2.89,2.89V29.63ZM30,22.8l-2.89-2.89h5.79ZM40.46,35H35V29.63ZM35,26.21V20.8l5.42,5.42ZM29.18,11.07h1.63l2.7,7.57h-7ZM19.54,26.21,25,20.8v5.42Zm0,8.83L25,29.63V35Zm1.93,13.88,4.35-10.86,3.29,3.29-7.57,7.57Zm9.42-7.57,3.29-3.29,4.35,10.86h-.07Z"/></svg>