<svg xmlns="http://www.w3.org/2000/svg" viewBox="0 0 84.03 84.03"><defs><style>.cls-1{fill:#003851;}</style></defs><title>energy and utilities</title><g id="Layer_2" data-name="Layer 2"><g id="Layer_1-2" data-name="Layer 1"><path class="cls-1" d="M62.6,81.4,52.52,56.21v-15L63.79,52.52H55.14v2.62H60.4v2.63H63V55.14h2.63v2.63h2.62V53.83h0a1.31,1.31,0,0,0-.37-.93L52.52,37.53V22.86L63.79,34.14H55.14v2.62H60.4v2.63H63V36.76h2.63v2.63h2.62V35.45h0a1.31,1.31,0,0,0-.37-.93L52.34,19,45.88.87A1.32,1.32,0,0,0,44.64,0H39.39a1.32,1.32,0,0,0-1.24.87L31.69,19,16.14,34.52a1.31,1.31,0,0,0-.37.93h0v3.94h2.62V36.76H21v2.63h2.62V36.76h5.26V34.14H20.24L31.51,22.86V37.53L16.14,52.9a1.31,1.31,0,0,0-.37.93h0v3.94h2.62V55.14H21v2.63h2.62V55.14h5.26V52.52H20.24L31.51,41.25v15L21.43,81.4H0V84H84V81.4ZM34.68,56.46,42,49.12l7.33,7.34L42,63.79ZM55.91,81.4H28.12L42,67.51Zm-12-34.13,6-6v12ZM48,39.39l-6,6-6-6ZM36,36.76l6-6,6,6Zm7.88-7.87,6-6v12ZM42,27l-6-6H48Zm-1.86,1.86-6,6v-12Zm0,18.38-6,6v-12Zm.16-44.64h3.4l5.62,15.75H34.69ZM24.26,81.4l9-22.61,6.86,6.86L24.4,81.4Zm35.37,0L43.87,65.65l6.86-6.86,9,22.61Z"/></g></g></svg>