<?xml version="1.0" encoding="utf-8"?>
<!-- Generator: Adobe Illustrator 22.1.0, SVG Export Plug-In . SVG Version: 6.00 Build 0)  -->
<svg version="1.1" id="Layer_1" xmlns="http://www.w3.org/2000/svg" xmlns:xlink="http://www.w3.org/1999/xlink" x="0px" y="0px"
	 viewBox="0 0 500 500" style="enable-background:new 0 0 500 500;" xml:space="preserve">
<style type="text/css">
	.st0{fill:#003851;}
</style>
<title>energy and utilities</title>
<g id="Layer_2_1_">
	<g id="Layer_1-2">
		<path class="st0" d="M349.3,440l-48.6-121.5v-72.3l54.3,54.5h-41.7v12.6h25.4V326h12.5v-12.7h12.7V326h12.6v-19l0,0
			c0-1.7-0.6-3.3-1.8-4.5l-74.1-74.1v-70.7l54.3,54.4h-41.7v12.6h25.4v12.7h12.5v-12.7h12.7v12.7h12.6v-19l0,0
			c0-1.7-0.6-3.3-1.8-4.5l-74.9-74.8l-31.1-87.4c-0.9-2.5-3.3-4.2-6-4.2h-25.3c-2.7,0-5.1,1.7-6,4.2l-31.1,87.4l-75,74.8
			c-1.2,1.2-1.8,2.8-1.8,4.5l0,0v19h12.6v-12.7h12.6v12.7h12.6v-12.7h25.4v-12.6h-41.7l54.3-54.4v70.7l-74.1,74.1
			c-1.2,1.2-1.8,2.8-1.8,4.5l0,0v19h12.6v-12.7h12.6V326h12.6v-12.7h25.4v-12.6h-41.7l54.3-54.3v72.3L150.8,440H47.5v12.5h405V440
			H349.3z M214.7,319.7l35.3-35.4l35.3,35.4L250,355.1L214.7,319.7z M317.1,440h-134l66.9-67L317.1,440z M259.2,275.4l28.9-28.9
			v57.9L259.2,275.4z M278.9,237.4L250,266.3l-28.9-28.9H278.9z M221.1,224.7l28.9-28.9l28.9,28.9H221.1z M259.1,186.8l28.9-28.9
			v57.9L259.1,186.8z M250,177.7l-28.9-28.9h57.9L250,177.7z M241,186.6l-28.9,28.9v-57.9L241,186.6z M241,275.3l-28.9,28.9v-57.9
			L241,275.3z M241.8,60h16.4l27.1,75.9h-70.5L241.8,60z M164.5,440l43.4-109l33.1,33.1L165.1,440H164.5z M335,440L259,364
			l33.1-33.1l43.4,109H335z"/>
	</g>
</g>
</svg>
