<svg id="Layer_1" data-name="Layer 1" xmlns="http://www.w3.org/2000/svg" viewBox="0 0 60 60"><title>energy_increase-efficiency</title><path d="M53,60H7a7,7,0,0,1-7-7V7A7,7,0,0,1,7,0H53a7,7,0,0,1,7,7V53A7,7,0,0,1,53,60ZM7,2A5,5,0,0,0,2,7V53a5,5,0,0,0,5,5H53a5,5,0,0,0,5-5V7a5,5,0,0,0-5-5Z"/><path d="M30,32.66h0a.88.88,0,0,0,0-1.75H30a.84.84,0,0,0-.83.85A.92.92,0,0,0,30,32.66Z"/><path d="M36.92,33.69a.81.81,0,0,0-1.19.08,1,1,0,0,0,.08,1.3.88.88,0,1,0,1.24-1.24Z"/><path d="M37.57,37.67a.88.88,0,0,0,.82.57.85.85,0,0,0,.31-.06.88.88,0,0,0,.51-1.13l-.09-.21a.81.81,0,0,0-1.1-.37A1,1,0,0,0,37.57,37.67Z"/><path d="M33.86,31.67l-.16-.07A.88.88,0,0,0,33,33.23l.16.07a.88.88,0,1,0,.66-1.63Z"/><path d="M38.21,40.8a.88.88,0,1,0,1.76,0v-.2a.87.87,0,0,0-.9-.78A1,1,0,0,0,38.21,40.8Z"/><path d="M38.77,43.3a.92.92,0,0,0-1.11.62A.87.87,0,0,0,38.5,45a.91.91,0,0,0,.85-.61l0-.08A.84.84,0,0,0,38.77,43.3Z"/><path d="M30.31,41.19l-2.64-9.47A.88.88,0,1,0,26,32.2l2.64,9.44-.17.15a2.12,2.12,0,0,0-.62,1.53A2.21,2.21,0,0,0,30,45.5h0a2.13,2.13,0,0,0,2.14-2.17A2.21,2.21,0,0,0,30.31,41.19Zm.09,2.16a.37.37,0,0,1-.11.28.38.38,0,0,1-.27.11h0a.45.45,0,0,1-.44-.44.37.37,0,0,1,.27-.37H30a.45.45,0,0,1,.44.44Z"/><path d="M50.19,9.81H9.81a.88.88,0,0,0-.88.88V44a.88.88,0,0,0,.88.88h4a.88.88,0,0,0,0-1.76h-3.1V18.59H49.31V43.17H46.19a.88.88,0,0,0,0,1.76h4a.88.88,0,0,0,.88-.88V10.69A.88.88,0,0,0,50.19,9.81Zm-39.5,7V11.57H49.31v5.27Z"/><path d="M13.95,13.59a.89.89,0,0,0-1-.19.72.72,0,0,0-.28.19.89.89,0,0,0,0,1.23.85.85,0,0,0,.61.26.86.86,0,0,0,.63-.26.78.78,0,0,0,.19-.28,1,1,0,0,0,.05-.33,1.08,1.08,0,0,0-.05-.33A1.11,1.11,0,0,0,13.95,13.59Z"/><path d="M17.46,13.59a.73.73,0,0,0-.28-.19.92.92,0,0,0-.68,0,.72.72,0,0,0-.28.19.82.82,0,0,0-.19.28,1.17,1.17,0,0,0-.07.33.89.89,0,0,0,.26.61.87.87,0,0,0,1.25,0,.89.89,0,0,0,.26-.61.88.88,0,0,0-.26-.62Z"/><path d="M21.16,13.87a1.11,1.11,0,0,0-.19-.28.73.73,0,0,0-.28-.19.92.92,0,0,0-.68,0,.72.72,0,0,0-.28.19.82.82,0,0,0-.19.28,1.17,1.17,0,0,0-.07.33.89.89,0,0,0,.26.61.86.86,0,0,0,.63.26.81.81,0,0,0,.33-.07.75.75,0,0,0,.28-.19.89.89,0,0,0,.26-.61A1.11,1.11,0,0,0,21.16,13.87Z"/><path d="M24.73,23a.88.88,0,0,0-.88-.88H15.07a.88.88,0,0,0,0,1.76h8.78A.88.88,0,0,0,24.73,23Z"/><path d="M39.65,23.86a.88.88,0,0,0,0-1.76H37.89a.88.88,0,0,0,0,1.76Z"/><path d="M45.79,23a.88.88,0,0,0-.88-.88H43.16a.88.88,0,0,0,0,1.76h1.76A.88.88,0,0,0,45.79,23Z"/><path d="M30,27.39A13.49,13.49,0,0,0,20,49.9a.88.88,0,0,0,.65.29H39.39A.88.88,0,0,0,40,49.9,13.49,13.49,0,0,0,30,27.39Zm9,21H21a11.75,11.75,0,1,1,18,0Z"/><path d="M24,32.89a10,10,0,0,0-3.17,11.47.88.88,0,0,0,1.64-.63A8.14,8.14,0,0,1,22,40.78a8.24,8.24,0,0,1,3.17-6.51A.88.88,0,1,0,24,32.89Z"/></svg>