<svg id="Layer_1" data-name="Layer 1" xmlns="http://www.w3.org/2000/svg" viewBox="0 0 60 60"><title>energy_improve-b2b-b2c</title><path d="M53,60H7a7,7,0,0,1-7-7V7A7,7,0,0,1,7,0H53a7,7,0,0,1,7,7V53A7,7,0,0,1,53,60ZM7,2A5,5,0,0,0,2,7V53a5,5,0,0,0,5,5H53a5,5,0,0,0,5-5V7a5,5,0,0,0-5-5Z"/><path d="M16.39,24.81a.9.9,0,0,0,.62-.25l3.9-3.69,5.74,1.87a.9.9,0,0,0,.92-.22l5.7-5.67,5.4.35a1,1,0,0,0,.7-.26l5.14-5.15,0,2.95a.9.9,0,0,0,.89.92h0a.9.9,0,0,0,.9-.89l.07-5.17h0a.9.9,0,0,0,0-.16h0a.9.9,0,0,0,0-.16h0a.9.9,0,0,0-.08-.15h0l-.11-.13h0l-.13-.11h0l-.14-.07h0l-.15,0h0l-.17,0H40.19a.9.9,0,0,0,0,1.81h3.07l-4.89,4.9L33,15a1,1,0,0,0-.7.26l-5.6,5.57L21,19a.9.9,0,0,0-.9.2l-4.29,4.06a.9.9,0,0,0,.62,1.56Z"/><path d="M51.52,42,47.67,28.38a.9.9,0,0,0-1.12-.62L40,29.61a.9.9,0,0,0-.65.78l-1.22.37c-6-3-8.56-2.39-8.74-2.33a8.51,8.51,0,0,0-2.84,1,48.61,48.61,0,0,0-5.92.39.9.9,0,0,0-.6-.55l-6.56-1.86a.9.9,0,0,0-1.12.62L8.48,41.61a.9.9,0,0,0,.63,1.12l6.57,1.86a.89.89,0,0,0,.25,0,.9.9,0,0,0,.87-.66l.48-1.69c2.65,3.48,8.52,8.07,9.28,8.65a3.13,3.13,0,0,0,2,.82,2.5,2.5,0,0,0,1.91-.89,2.61,2.61,0,0,0,.46-.8l.34.3a3,3,0,0,0,2,.79,2.64,2.64,0,0,0,2-1,2.81,2.81,0,0,0,.57-1.11A2.57,2.57,0,0,0,37.35,49a3.06,3.06,0,0,0,1.94-2.3,2.8,2.8,0,0,0,0-.36,2.94,2.94,0,0,0,1.91-1A3.07,3.07,0,0,0,41.9,44a3.89,3.89,0,0,0,1.18-.19l.14.49a.91.91,0,0,0,1.12.62l6.56-1.86A.9.9,0,0,0,51.52,42ZM15.3,42.6l-4.83-1.37,3.36-11.85,4.82,1.37Zm24.57,1.54a.93.93,0,0,1-1.37.17l-.15-.12h0l-3.87-3.25a.9.9,0,1,0-1.16,1.38l3.86,3.24h0a.83.83,0,0,1,.33.83,1.27,1.27,0,0,1-.77.92.84.84,0,0,1-.87-.19l-.92-.78a.89.89,0,0,0-.17-.19l-3.16-2.58A.9.9,0,1,0,30.47,45l3.12,2.55a.89.89,0,0,0,.16.18h0A.91.91,0,0,1,33.86,49c-.17.2-.65.59-1.4,0l-3.74-3.25-.05,0-.08-.06-.07,0-.09,0-.08,0-.09,0H28l-.1,0-.07,0-.09,0-.07,0-.08,0-.08.07,0,0v0l0,0,0,.07,0,.06-.05.1,0,.06a.9.9,0,0,0,0,.1v.06a.89.89,0,0,0,0,.1s0,0,0,.07a.91.91,0,0,0,0,.1v.08l0,.09,0,.08,0,.08,0,.08.05.07,0,.06,1.42,1.38a.86.86,0,0,1,.19,1.25c-.31.37-.83.32-1.41-.17-2.38-1.84-8.6-7-9.77-9.56l2.34-8.26a23.49,23.49,0,0,1,4-.41,8,8,0,0,0-1.68,3.23c-.41,1.69-.06,3.14.94,3.87,1.51,1.1,3.48.28,5.43-2.25a.55.55,0,0,1,.36-.23,8.5,8.5,0,0,0,1.66-.39l8.86,7.22a1,1,0,0,1,.28.36.9.9,0,0,0,.06.25A1.15,1.15,0,0,1,39.86,44.14Zm1.8-1.93a3,3,0,0,0-.7-.85L31.7,33.81a.9.9,0,0,0-.9-.14,8.27,8.27,0,0,1-1.69.45A2.32,2.32,0,0,0,27.5,35c-.92,1.19-2.24,2.4-2.94,1.9-.37-.27-.47-1.07-.25-2a6.54,6.54,0,0,1,5.42-4.75s2.35-.5,7.87,2.34a.9.9,0,0,0,.68.06l1.48-.45,2.81,9.94A2.1,2.1,0,0,1,41.66,42.21Zm3,.75L41.35,31.11l4.83-1.37,3.36,11.85Z"/></svg>