<svg id="Layer_1" data-name="Layer 1" xmlns="http://www.w3.org/2000/svg" viewBox="0 0 540 540"><title>Artboard 7</title><path d="M287.47,313.87a69.06,69.06,0,1,0-69.06-69.07A69.16,69.16,0,0,0,287.47,313.87Zm-22-18.23a25.54,25.54,0,0,1,44,0,55.16,55.16,0,0,1-44,0Zm8.06-50.85a13.92,13.92,0,1,1,13.91,13.95A13.92,13.92,0,0,1,273.56,244.79Zm13.91-55.38a55.33,55.33,0,0,1,33.79,99.21,39.18,39.18,0,0,0-24.15-18,27.58,27.58,0,1,0-19.27,0,39.07,39.07,0,0,0-24.14,18,55.33,55.33,0,0,1,33.77-99.21Z"/><rect x="176.28" y="62.14" width="61.7" height="13.67"/><rect x="203.54" y="84.38" width="112.85" height="13.67"/><rect x="96.23" y="204.01" width="37.49" height="13.67"/><rect x="96.23" y="181.79" width="77.78" height="13.67"/><path d="M535,265.93l-66.67-24.16,24.18,66.69L508.93,292l14.67,14.68,9.67-9.66-14.68-14.69Zm-43.86-1.36,19,6.9L498,283.59Z"/><rect x="359.14" y="206.55" width="13.67" height="13.67"/><rect x="463.75" y="206.55" width="12.99" height="13.67"/><rect x="385.8" y="206.55" width="12.99" height="13.67"/><rect x="489.73" y="206.55" width="13.67" height="13.67"/><rect x="489.73" y="180.57" width="13.67" height="12.99"/><rect x="489.73" y="154.59" width="13.67" height="12.99"/><rect x="489.73" y="102.62" width="13.67" height="12.99"/><rect x="489.73" y="128.6" width="13.67" height="12.99"/><rect x="489.73" y="75.96" width="13.67" height="13.67"/><rect x="385.8" y="75.96" width="12.99" height="13.67"/><rect x="411.78" y="75.96" width="12.99" height="13.67"/><rect x="463.75" y="75.96" width="12.99" height="13.67"/><rect x="437.77" y="75.96" width="12.99" height="13.67"/><rect x="359.14" y="75.96" width="13.67" height="13.67"/><rect x="359.14" y="102.62" width="13.67" height="12.99"/><rect x="359.14" y="180.57" width="13.67" height="12.99"/><path d="M450.55,328.45V146.2a17,17,0,0,0-5-12.15,17.27,17.27,0,0,0-12.22-5.14H141.66A17.21,17.21,0,0,0,129.52,134a17,17,0,0,0-5.11,12.22V154H66.06v91.45h58.35v23.6h13.67v-23.6h11.4v23.6h9.3a17.79,17.79,0,0,1,4.37.56V245.46h41V167.67H411.83V328.45H176.66v13.67h292v7.05a7.09,7.09,0,0,1-7.09,7.09H176.66v13.67H461.55a20.75,20.75,0,0,0,20.75-20.75V328.45Zm-260-96.66H79.73V167.67H190.52Zm246.36,96.66H425.5V154H138.07V146.2a3.49,3.49,0,0,1,1.1-2.55,3.52,3.52,0,0,1,2.48-1.06H433.3a3.6,3.6,0,0,1,2.56,1.14,3.41,3.41,0,0,1,1,2.48Z"/><path d="M111.78,353.25A14.75,14.75,0,1,0,126.52,368,14.76,14.76,0,0,0,111.78,353.25Zm0,22.51a7.76,7.76,0,1,1,7.76-7.77A7.78,7.78,0,0,1,111.78,375.77Z"/><path d="M111.78,337.39a36.09,36.09,0,1,0,36.09,36.09A36.13,36.13,0,0,0,111.78,337.39ZM99,399.61a15,15,0,0,1,25.48,0,28.75,28.75,0,0,1-25.48,0Zm31.36-3.78a22,22,0,0,0-37.23,0,29.11,29.11,0,1,1,37.23,0Z"/><rect x="107.74" y="288.32" width="8.07" height="6.99"/><rect x="94.56" y="451.63" width="34.44" height="6.99"/><path d="M158.77,269.06h-94A17.92,17.92,0,0,0,46.89,287V404H5v47.35H46.89V460a17.91,17.91,0,0,0,17.9,17.88h94A17.9,17.9,0,0,0,176.66,460V287A17.91,17.91,0,0,0,158.77,269.06ZM12,411H61.51v33.38H12Zm157.69,49a10.91,10.91,0,0,1-10.9,10.9h-94A10.91,10.91,0,0,1,53.87,460v-8.64H68.5v-7.93H162V303.54H61.51V404H53.87V287A10.92,10.92,0,0,1,64.78,276h94A10.92,10.92,0,0,1,169.67,287ZM68.5,404V310.52h86.56V436.43H68.5Z"/><rect x="23.2" y="430.9" width="13.56" height="6.99"/><rect x="23.2" y="417.45" width="27.11" height="6.99"/></svg>