<?xml version="1.0" encoding="iso-8859-1"?>
<!-- Generator: Adobe Illustrator 17.0.0, SVG Export Plug-In . SVG Version: 6.00 Build 0)  -->
<!DOCTYPE svg PUBLIC "-//W3C//DTD SVG 1.1//EN" "http://www.w3.org/Graphics/SVG/1.1/DTD/svg11.dtd">
<svg version="1.1" id="_x30_4_x5F_timetable_x5F_events"
	 xmlns="http://www.w3.org/2000/svg" xmlns:xlink="http://www.w3.org/1999/xlink" x="0px" y="0px" width="64px" height="56px"
	 viewBox="0 0 64 56" style="enable-background:new 0 0 64 56;" xml:space="preserve">
<g>
	<g>
		<g>
			
				<rect x="1" y="9" style="fill:none;stroke:#222829;stroke-width:2;stroke-linejoin:round;stroke-miterlimit:10;" width="62" height="46"/>
			
				<rect x="19" y="17" style="fill:none;stroke:#222829;stroke-width:2;stroke-linejoin:round;stroke-miterlimit:10;" width="6" height="6"/>
			
				<rect x="29" y="17" style="fill:none;stroke:#222829;stroke-width:2;stroke-linejoin:round;stroke-miterlimit:10;" width="6" height="6"/>
			
				<rect x="39" y="17" style="fill:none;stroke:#222829;stroke-width:2;stroke-linejoin:round;stroke-miterlimit:10;" width="6" height="6"/>
			
				<rect x="49" y="17" style="fill:none;stroke:#222829;stroke-width:2;stroke-linejoin:round;stroke-miterlimit:10;" width="6" height="6"/>
			
				<rect x="9" y="27" style="fill:none;stroke:#222829;stroke-width:2;stroke-linejoin:round;stroke-miterlimit:10;" width="6" height="6"/>
			
				<rect x="19" y="27" style="fill:none;stroke:#222829;stroke-width:2;stroke-linejoin:round;stroke-miterlimit:10;" width="6" height="6"/>
			
				<rect x="29" y="27" style="fill:none;stroke:#222829;stroke-width:2;stroke-linejoin:round;stroke-miterlimit:10;" width="6" height="6"/>
			
				<rect x="49" y="27" style="fill:none;stroke:#222829;stroke-width:2;stroke-linejoin:round;stroke-miterlimit:10;" width="6" height="6"/>
			
				<rect x="9" y="37" style="fill:none;stroke:#222829;stroke-width:2;stroke-linejoin:round;stroke-miterlimit:10;" width="6" height="6"/>
			
				<rect x="29" y="37" style="fill:none;stroke:#222829;stroke-width:2;stroke-linejoin:round;stroke-miterlimit:10;" width="6" height="6"/>
			
				<rect x="39" y="37" style="fill:none;stroke:#222829;stroke-width:2;stroke-linejoin:round;stroke-miterlimit:10;" width="6" height="6"/>
			
				<rect x="49" y="37" style="fill:none;stroke:#222829;stroke-width:2;stroke-linejoin:round;stroke-miterlimit:10;" width="6" height="6"/>
			<polyline style="fill:none;stroke:#222829;stroke-width:2;stroke-linejoin:round;stroke-miterlimit:10;" points="1,9 1,1 63,1 
				63,9 			"/>
			
				<line style="fill:none;stroke:#222829;stroke-width:2;stroke-linejoin:round;stroke-miterlimit:10;" x1="34" y1="5" x2="36" y2="5"/>
			
				<line style="fill:none;stroke:#222829;stroke-width:2;stroke-linejoin:round;stroke-miterlimit:10;" x1="38" y1="5" x2="40" y2="5"/>
			
				<line style="fill:none;stroke:#222829;stroke-width:2;stroke-linejoin:round;stroke-miterlimit:10;" x1="42" y1="5" x2="44" y2="5"/>
			
				<line style="fill:none;stroke:#222829;stroke-width:2;stroke-linejoin:round;stroke-miterlimit:10;" x1="20" y1="5" x2="22" y2="5"/>
			
				<line style="fill:none;stroke:#222829;stroke-width:2;stroke-linejoin:round;stroke-miterlimit:10;" x1="24" y1="5" x2="26" y2="5"/>
			
				<line style="fill:none;stroke:#222829;stroke-width:2;stroke-linejoin:round;stroke-miterlimit:10;" x1="28" y1="5" x2="30" y2="5"/>
			<g>
				
					<line style="fill:none;stroke:#222829;stroke-width:2;stroke-linejoin:round;stroke-miterlimit:10;" x1="15" y1="17" x2="9" y2="23"/>
				
					<line style="fill:none;stroke:#222829;stroke-width:2;stroke-linejoin:round;stroke-miterlimit:10;" x1="9" y1="17" x2="15" y2="23"/>
			</g>
			<g>
				
					<line style="fill:none;stroke:#222829;stroke-width:2;stroke-linejoin:round;stroke-miterlimit:10;" x1="25" y1="37" x2="19" y2="43"/>
				
					<line style="fill:none;stroke:#222829;stroke-width:2;stroke-linejoin:round;stroke-miterlimit:10;" x1="19" y1="37" x2="25" y2="43"/>
			</g>
			<g>
				
					<line style="fill:none;stroke:#222829;stroke-width:2;stroke-linejoin:round;stroke-miterlimit:10;" x1="45" y1="27" x2="39" y2="33"/>
				
					<line style="fill:none;stroke:#222829;stroke-width:2;stroke-linejoin:round;stroke-miterlimit:10;" x1="39" y1="27" x2="45" y2="33"/>
			</g>
			
				<line style="fill:none;stroke:#222829;stroke-width:2;stroke-linejoin:round;stroke-miterlimit:10;" x1="63" y1="51" x2="1" y2="51"/>
		</g>
	</g>
</g>
</svg>
