<?xml version="1.0" encoding="utf-8"?>
<!-- Generator: Adobe Illustrator 22.1.0, SVG Export Plug-In . SVG Version: 6.00 Build 0)  -->
<svg version="1.1" id="Layer_1" xmlns="http://www.w3.org/2000/svg" xmlns:xlink="http://www.w3.org/1999/xlink" x="0px" y="0px"
	 viewBox="0 0 500 500" style="enable-background:new 0 0 500 500;" xml:space="preserve">
<style type="text/css">
	.st0{fill:#003851;}
</style>
<title>exchange</title>
<g id="Layer_2_1_">
	<g id="Layer_1-2">
		<path class="st0" d="M91.9,98.8c19,0,34.4-15.4,34.4-34.4s-15.4-34.4-34.4-34.4S57.4,45.4,57.4,64.4l0,0
			C57.7,83.4,73,98.6,91.9,98.8z M91.9,43.8c11.3,0,20.6,9.2,20.6,20.6s-9.2,20.6-20.6,20.6s-20.6-9.2-20.6-20.6l0,0
			C71.2,53.1,80.6,43.8,91.9,43.8z"/>
		<path class="st0" d="M408.2,98.8c19,0,34.4-15.4,34.4-34.4s-15.4-34.4-34.4-34.4c-19,0-34.4,15.4-34.4,34.4l0,0
			C373.8,83.4,389.2,98.8,408.2,98.8z M408.2,43.8c11.3,0,20.6,9.2,20.6,20.6s-9.2,20.6-20.6,20.6c-11.3,0-20.6-9.2-20.6-20.6
			S396.8,43.8,408.2,43.8L408.2,43.8z"/>
		<path class="st0" d="M442.6,456.4v-96.3h13.8v-220c0-15.2-12.3-27.6-27.6-27.6h-27.6c-22.8,0-41.2,18.4-41.3,41.3v41.2h-62.8
			c-0.8-9.2-2.2-18.4-4.3-27.6h32.3c3.3,5.1,6.1,10.6,8.3,16.2l12.9-4.9c-20.3-53.2-80-79.9-133.2-59.6
			c-27.4,10.4-49,32.1-59.6,59.6l12.9,4.9c2.2-5.7,4.9-11.1,8.2-16.2h32.4c-2.1,9-3.6,18.2-4.3,27.6H140v-41.2
			c0-22.8-18.4-41.2-41.2-41.3H71.2c-15.2,0-27.6,12.3-27.6,27.6l0,0v213.2h13.7v103.2H30v13.6h116.9v-13.7h-27.6V307.9l20.6-20.6
			v-37.3h-13.7v31.4l-57.9,57.9H57.4V140.1c0-7.6,6.2-13.7,13.8-13.7h27.6c15.2,0,27.6,12.3,27.6,27.6l0,0v55h75.8
			c0,2.2,0,4.6,0,6.9c0,2.3,0,4.6,0,6.9h-91.8l-25.8-64.4l-12.8,5.1l29.2,73.1h101.9c0.8,9.2,2.2,18.4,4.3,27.6h-32.4
			c-3.3-5.1-6.1-10.4-8.3-16.1l-12.9,4.9c20.3,53.2,80,79.9,133.2,59.6c27.4-10.4,49-32.1,59.6-59.6l-12.9-4.9
			c-2.1,5.7-4.9,11.1-8.2,16.2h-32.3c2.1-9,3.6-18.2,4.3-27.6h101.9l29.2-73.1l-12.8-5.1l-25.8,64.6H298c0-2.3,0-4.6,0-6.9
			c0-2.3,0-4.7,0-6.9h75.8v-55c0-15.2,12.3-27.4,27.6-27.6h27.6c7.6,0,13.7,6.1,13.7,13.7v206.3h-4l-64.8-64.8v-31.8H360v37.2
			l20.7,20.7v148.4h-220v13.7H470v-13.7H442.6z M105.6,321.7v134.8H71.2V353.3h2.9L105.6,321.7z M314.3,153.7H289
			c-2.7-8.1-6.3-15.8-10.9-22.9C291.9,135.5,304.3,143.4,314.3,153.7L314.3,153.7z M250,126.3c8.6,0,17.3,10.2,24.2,27.6h-48.4
			C232.7,136.5,241.4,126.3,250,126.3z M185.7,153.8c10.1-10.4,22.6-18.3,36.3-22.9c-4.7,7.1-8.2,14.8-10.9,22.9H185.7z M279,167.5
			c3.4,13.6,5.4,27.3,5.8,41.3h-69c0.4-13.9,2.3-27.8,5.8-41.3H279z M186,277.6h25.4c2.6,8.1,6.2,16,10.9,23.1
			c-13.9-4.7-26.4-12.6-36.6-23.1H186z M250,305.2c-8.6,0-17.3-10.2-24.2-27.6h48.6C267.3,294.8,258.6,305.2,250,305.2z
			 M314.3,277.6c-10.1,10.4-22.4,18.4-36.2,23.1c4.6-7.2,8.2-15,10.9-23.1H314.3z M221.4,263.8c-3.4-13.4-5.4-27.3-5.8-41.2h68.7
			c-0.4,13.9-2.3,27.8-5.8,41.2H221.4z M394.8,321.7l34.4,34.4v100.3h-34.4V321.7z"/>
		<path class="st0" d="M250,71.3c40,0,78.2,16.7,105.6,45.9l10.2-9.3c-59.6-64-159.7-67.6-223.7-8c-2.8,2.6-5.4,5.2-8,8l10.1,9.3
			C171.7,87.9,209.9,71.4,250,71.3z"/>
		<path class="st0" d="M365.8,323.5l-10.1-9.3c-54.3,58.3-145.8,61.6-204.1,7.2c-2.4-2.3-4.9-4.7-7.2-7.2l-10.2,9.3
			c59.4,64,159.6,67.6,223.4,8.1C360.4,329.1,363.2,326.3,365.8,323.5z"/>
	</g>
</g>
</svg>
