<svg xmlns="http://www.w3.org/2000/svg" viewBox="0 0 76.01 76.01"><defs><style>.cls-1{fill:#003851;}</style></defs><title>exchange</title><g id="Layer_2" data-name="Layer 2"><g id="Layer_1-2" data-name="Layer 1"><path class="cls-1" d="M10.69,11.88A5.94,5.94,0,1,0,4.75,5.94,6,6,0,0,0,10.69,11.88Zm0-9.5A3.56,3.56,0,1,1,7.13,5.94,3.56,3.56,0,0,1,10.69,2.38Z"/><path class="cls-1" d="M65.32,11.88a5.94,5.94,0,1,0-5.94-5.94A5.95,5.95,0,0,0,65.32,11.88Zm0-9.5a3.56,3.56,0,1,1-3.56,3.56A3.56,3.56,0,0,1,65.32,2.38Z"/><path class="cls-1" d="M71.26,73.64V57h2.38V19a4.75,4.75,0,0,0-4.75-4.75H64.13A7.14,7.14,0,0,0,57,21.38V28.5H46.16a33.29,33.29,0,0,0-.74-4.75H51a14.85,14.85,0,0,1,1.43,2.81l2.22-.85a17.82,17.82,0,0,0-33.29,0l2.22.85A15.7,15.7,0,0,1,25,23.75H30.6a33.26,33.26,0,0,0-.75,4.75H19V21.38a7.13,7.13,0,0,0-7.12-7.13H7.13A4.75,4.75,0,0,0,2.38,19V55.82H4.75V73.64H0V76H20.19V73.64H15.44V48L19,44.44V38H16.63v5.44l-10,10H4.75V19a2.38,2.38,0,0,1,2.38-2.37h4.75a4.75,4.75,0,0,1,4.75,4.75v9.5H29.72c0,.39,0,.79,0,1.19s0,.79,0,1.19H13.87L9.42,22.12,7.21,23l5.05,12.62H29.85a32.81,32.81,0,0,0,.75,4.75H25a15.28,15.28,0,0,1-1.43-2.79l-2.22.84a17.82,17.82,0,0,0,33.29,0l-2.22-.85A14.77,14.77,0,0,1,51,40.38H45.42a32.85,32.85,0,0,0,.74-4.75H63.75L68.8,23l-2.21-.89L62.14,33.26H46.29c0-.4,0-.79,0-1.19s0-.8,0-1.19H59.38v-9.5a4.76,4.76,0,0,1,4.75-4.75h4.76A2.37,2.37,0,0,1,71.26,19V54.63h-.7L59.38,43.45V38H57v6.43L60.57,48V73.64h-38V76H76V73.64ZM13.06,50.37V73.64H7.13V55.82h.49Zm36.06-29H44.74a16.88,16.88,0,0,0-1.88-3.95A15.57,15.57,0,0,1,49.12,21.38ZM38,16.63c1.47,0,3,1.76,4.19,4.75H33.82C35,18.39,36.53,16.63,38,16.63ZM26.89,21.38a15.53,15.53,0,0,1,6.27-3.95,16.68,16.68,0,0,0-1.88,3.95ZM43,23.75a32.5,32.5,0,0,1,1,7.13H32.09a32.5,32.5,0,0,1,1-7.13Zm-16.06,19h4.39a16.87,16.87,0,0,0,1.88,4A15.75,15.75,0,0,1,26.89,42.76ZM38,47.51c-1.48,0-3-1.77-4.19-4.75H42.2C41,45.74,39.48,47.51,38,47.51Zm11.11-4.75a15.78,15.78,0,0,1-6.26,4,17.28,17.28,0,0,0,1.88-4ZM33.06,40.38a32.41,32.41,0,0,1-1-7.12H43.92a32.41,32.41,0,0,1-1,7.12ZM63,50.37l5.94,5.94V73.64H63Z"/><path class="cls-1" d="M38,7.13a25,25,0,0,1,18.24,7.93L58,13.44a27.33,27.33,0,0,0-40,0l1.74,1.62A25,25,0,0,1,38,7.13Z"/><path class="cls-1" d="M58,50.69l-1.74-1.62a24.94,24.94,0,0,1-36.49,0L18,50.69a27.31,27.31,0,0,0,40,0Z"/></g></g></svg>