<svg id="Layer_1" data-name="Layer 1" xmlns="http://www.w3.org/2000/svg" viewBox="0 0 500 500"><title>Artboard 5</title><path d="M446.38,181.83a6.23,6.23,0,0,0-6.67.9l-71,60V187.5a6.25,6.25,0,0,0-10.28-4.77l-71,60V187.5a6.25,6.25,0,0,0-10.28-4.77l-71,60V187.5a6.25,6.25,0,0,0-10.46-4.62l-60.49,55L112.39,117.58a6.25,6.25,0,0,0-6.14-5.08h-25a6.25,6.25,0,0,0-6.14,5.08l-25,131.25A6.28,6.28,0,0,0,50,250V431.25a6.25,6.25,0,0,0,6.25,6.25h387.5a6.25,6.25,0,0,0,6.25-6.25V187.5A6.25,6.25,0,0,0,446.38,181.83ZM101.08,125l4.76,25H81.66l4.76-25ZM62.5,412.5H125V425H62.5Zm375,12.5h-300V400h-75V250.59L79.28,162.5h28.95L125,250.59V387.5h12.5V252.76l56.25-51.14v54.62A6.25,6.25,0,0,0,204,261l71-60v55.27A6.25,6.25,0,0,0,285.28,261l71-60v55.27A6.25,6.25,0,0,0,366.53,261l71-60Z"/><path d="M100,87.5A12.51,12.51,0,0,1,112.5,75c5.66,0,11.85,7.22,13.56,9.74C127.11,86.3,136.7,100,150,100s22.89-13.7,23.94-15.27c1.38-2.06,7.73-9.74,13.56-9.74,5.66,0,11.85,7.22,13.56,9.74C202.11,86.3,211.7,100,225,100s22.89-13.7,23.94-15.27c1.38-2.06,7.73-9.74,13.56-9.74V62.5c-13.3,0-22.89,13.7-23.94,15.27-1.38,2.06-7.73,9.73-13.56,9.73-5.66,0-11.85-7.22-13.56-9.73C210.39,76.2,200.8,62.5,187.5,62.5s-22.89,13.7-23.94,15.27c-1.38,2.06-7.73,9.73-13.56,9.73-5.66,0-11.85-7.22-13.56-9.73C135.39,76.2,125.8,62.5,112.5,62.5a25,25,0,0,0-25,25V100H100Z"/><rect x="87.5" y="337.5" width="12.5" height="12.5"/><rect x="87.5" y="362.5" width="12.5" height="12.5"/><rect x="87.5" y="312.5" width="12.5" height="12.5"/><rect x="87.5" y="287.5" width="12.5" height="12.5"/><path d="M218.75,287.5h-50V325h50Zm-12.5,25h-25V300h25Z"/><path d="M218.75,337.5h-50V375h50Zm-12.5,25h-25V350h25Z"/><path d="M281.25,287.5h-50V325h50Zm-12.5,25h-25V300h25Z"/><path d="M281.25,337.5h-50V375h50Zm-12.5,25h-25V350h25Z"/><path d="M343.75,287.5h-50V325h50Zm-12.5,25h-25V300h25Z"/><path d="M343.75,337.5h-50V375h50Zm-12.5,25h-25V350h25Z"/><path d="M356.25,325h50V287.5h-50Zm12.5-25h25v12.5h-25Z"/><path d="M406.25,337.5h-50V375h50Zm-12.5,25h-25V350h25Z"/><rect x="150" y="400" width="275" height="12.5"/></svg>