<?xml version="1.0" encoding="iso-8859-1"?>
<!-- Generator: Adobe Illustrator 17.0.0, SVG Export Plug-In . SVG Version: 6.00 Build 0)  -->
<!DOCTYPE svg PUBLIC "-//W3C//DTD SVG 1.1//EN" "http://www.w3.org/Graphics/SVG/1.1/DTD/svg11.dtd">
<svg version="1.1" id="_x30_7_x5F_financial_x5F_report"
	 xmlns="http://www.w3.org/2000/svg" xmlns:xlink="http://www.w3.org/1999/xlink" x="0px" y="0px" width="64px" height="60px"
	 viewBox="0 0 64 60" style="enable-background:new 0 0 64 60;" xml:space="preserve">
<g>
	<g>
		<g>
			<line style="fill:none;stroke:#222829;stroke-width:2;stroke-miterlimit:10;" x1="32" y1="45" x2="32" y2="59"/>
			<polyline style="fill:none;stroke:#222829;stroke-width:2;stroke-miterlimit:10;" points="43,45 48,58 48,59 			"/>
			<polyline style="fill:none;stroke:#222829;stroke-width:2;stroke-miterlimit:10;" points="21,45 16,58 16,59 			"/>
			<polyline style="fill:none;stroke:#222829;stroke-width:2;stroke-miterlimit:10;" points="59,12 59,41 5,41 5,12 			"/>
			<polygon style="fill:none;stroke:#222829;stroke-width:2;stroke-miterlimit:10;" points="1,9 1,5 25,5 27,1 37,1 39,5 63,5 63,9 
							"/>
			<g>
				<path style="fill:none;stroke:#222829;stroke-width:2;stroke-miterlimit:10;" d="M19,20c-3.866,0-7,3.134-7,7s3.134,7,7,7
					c3.866,0,7-3.134,7-7h-7V20z"/>
				<path style="fill:none;stroke:#222829;stroke-width:2;stroke-miterlimit:10;" d="M23,16v7h7C30,19.134,26.866,16,23,16z"/>
			</g>
			<line style="fill:none;stroke:#222829;stroke-width:2;stroke-miterlimit:10;" x1="29" y1="5" x2="35" y2="5"/>
			<line style="fill:none;stroke:#222829;stroke-width:2;stroke-miterlimit:10;" x1="35" y1="23" x2="53" y2="23"/>
			<line style="fill:none;stroke:#222829;stroke-width:2;stroke-miterlimit:10;" x1="35" y1="27" x2="53" y2="27"/>
			<line style="fill:none;stroke:#222829;stroke-width:2;stroke-miterlimit:10;" x1="35" y1="31" x2="53" y2="31"/>
			<line style="fill:none;stroke:#222829;stroke-width:2;stroke-miterlimit:10;" x1="39" y1="18" x2="41" y2="18"/>
			<line style="fill:none;stroke:#222829;stroke-width:2;stroke-miterlimit:10;" x1="43" y1="18" x2="45" y2="18"/>
			<line style="fill:none;stroke:#222829;stroke-width:2;stroke-miterlimit:10;" x1="47" y1="18" x2="49" y2="18"/>
			<line style="fill:none;stroke:#222829;stroke-width:2;stroke-miterlimit:10;" x1="0" y1="59" x2="64" y2="59"/>
		</g>
		<polyline style="fill:none;stroke:#222829;stroke-width:2;stroke-miterlimit:10;" points="59,41 59,45 5,45 5,41 		"/>
	</g>
</g>
</svg>
