<svg xmlns="http://www.w3.org/2000/svg" viewBox="0 0 108.16 65.12"><defs><style>.cls-1{fill:#003851;}</style></defs><title>flow</title><g id="Layer_2" data-name="Layer 2"><g id="Layer_1-2" data-name="Layer 1"><path class="cls-1" d="M75.53,25.47V31.3H66.45V25.47H51.12V14H66.45V7.65H90.13a1.16,1.16,0,0,1,1.16,1.16v9.88l-2.62-2.62L87,17.72l5.49,5.49L98,17.72l-1.64-1.65L93.62,18.8v-10a3.49,3.49,0,0,0-3.49-3.49H66.45V0H33.81V14h15V25.47h-15v14H49.29V55.77a3.5,3.5,0,0,0,3.5,3.5h16L66.07,62l1.64,1.65,5.49-5.49-5.49-5.48-1.64,1.65,2.62,2.62H52.79a1.17,1.17,0,0,1-1.17-1.17V39.45H66.45V33.63h9.08v5.82h32.63v-14ZM36.15,2.33h28v9.33h-28Zm28,34.79h-28V27.8h28Zm41.71,0h-28V27.8h28Z"/><path class="cls-1" d="M75.53,65.12h32.63v-14H75.53Zm2.33-11.65h28v9.32h-28Z"/><polygon class="cls-1" points="22.44 28.62 25.12 31.3 17.44 31.3 17.44 33.63 25.12 33.63 22.44 36.3 24.09 37.95 29.58 32.46 24.09 26.98 22.44 28.62"/><path class="cls-1" d="M7,25.47a7,7,0,1,0,7,7A7,7,0,0,0,7,25.47ZM7,37.12a4.66,4.66,0,1,1,4.67-4.66A4.66,4.66,0,0,1,7,37.12Z"/></g></g></svg>