<?xml version="1.0" encoding="utf-8"?>
<!-- Generator: Adobe Illustrator 22.1.0, SVG Export Plug-In . SVG Version: 6.00 Build 0)  -->
<svg version="1.1" id="Layer_1" xmlns="http://www.w3.org/2000/svg" xmlns:xlink="http://www.w3.org/1999/xlink" x="0px" y="0px"
	 viewBox="0 0 500 500" style="enable-background:new 0 0 500 500;" xml:space="preserve">
<style type="text/css">
	.st0{fill:#003851;stroke:#000000;stroke-width:4;stroke-miterlimit:10;}
</style>
<title>flow</title>
<g id="Layer_2_1_">
	<g id="Layer_1-2">
		<path class="st0" d="M342.2,204.2v34.7h-39v-34.7h-66V136h66V98.2H405c2.7,0,5.1,3,5.1,7l0,0v58.6l-11.3-15.2l-7.2,9.8l23.6,32.6
			l23.8-32.6l-7.1-9.8l-11.7,16v-59.4c0-11.6-6.7-20.7-15-20.7H303.3V53H162.8v83h64.5v68.2h-64.5v83h66.6V384
			c0,11.6,6.8,20.9,15.1,20.9h68.8l-11.7,16.3l7,9.8l23.6-32.6L308.6,366l-7,9.8l11.3,15.6h-68.4c-2.7,0-5.1-3.2-5.1-7v-97.1h63.7
			v-34.5h39v34.5h140.3v-83H342.2z M173,66.9h120.4v55.5H173V66.9z M293.4,273.4H173V218h120.4V273.4z M472.7,273.4H352.3V218h120.4
			L472.7,273.4L472.7,273.4z"/>
		<path class="st0" d="M342.2,439h140.3v-82H342.2V439z M352.3,370.6h120.4v54.7H352.3V370.6z"/>
		<polygon class="st0" points="123,225.5 134.6,236.9 101.6,236.9 101.6,247 134.6,247 123,258.5 130.1,265.6 153.8,242 
			130.1,218.5 		"/>
		<path class="st0" d="M52.3,204.6c-20.7,0-37.6,16.7-37.6,37.6s16.8,37.4,37.6,37.4s37.5-16.7,37.5-37.4S73,204.6,52.3,204.6
			L52.3,204.6z M52.3,267.1c-13.7,0-25-11.2-25-25.1c0-13.7,11.2-25,25.1-25c13.7,0,25,11.2,25,25C77.3,255.8,66.2,267.1,52.3,267.1
			L52.3,267.1z"/>
	</g>
</g>
</svg>
