<?xml version="1.0" encoding="utf-8"?>
<!-- Generator: Adobe Illustrator 22.1.0, SVG Export Plug-In . SVG Version: 6.00 Build 0)  -->
<svg version="1.1" id="Layer_1" xmlns="http://www.w3.org/2000/svg" xmlns:xlink="http://www.w3.org/1999/xlink" x="0px" y="0px"
	 viewBox="0 0 500 500" style="enable-background:new 0 0 500 500;" xml:space="preserve">
<style type="text/css">
	.st0{fill:#003851;stroke:#000000;stroke-width:4;stroke-miterlimit:10;}
</style>
<title>flow</title>
<g id="Layer_2_1_">
	<g id="Layer_1-2">
		<path class="st0" d="M337.2,221.1v23.7h-36.9v-23.7h-62.4v-46.7h62.4v-25.9h96.3c2.6,0,4.8,2.1,4.8,4.8l0,0v40.1L390.7,183
			l-6.8,6.7l22.3,22.3l22.5-22.3L422,183L410.9,194v-40.7c0-7.9-6.3-14.2-14.2-14.2h-96.3v-21.6H167.5v56.9h61v46.7h-61V278h63v66.3
			c0,7.9,6.4,14.3,14.3,14.3h65.1l-11.1,11.1l6.6,6.7l22.3-22.3l-22.3-22.2l-6.6,6.7l10.7,10.7h-64.7c-2.6,0-4.8-2.2-4.8-4.8V278
			h60.3v-23.7h36.9V278h132.7v-56.9L337.2,221.1z M177.1,127.1H291v38H177.1V127.1z M291,268.5H177.1v-37.9H291V268.5z M460.6,268.5
			H346.7v-37.9h113.9V268.5z"/>
		<path class="st0" d="M337.2,382.4h132.7v-56.9H337.2V382.4z M346.7,335h113.9v37.9H346.7V335z"/>
		<polygon class="st0" points="121.3,234 132.3,244.8 101,244.8 101,254.3 132.3,254.3 121.3,265.2 128,271.9 150.4,249.6 
			128,227.3 		"/>
		<path class="st0" d="M58.5,221.1c-15.7,0-28.5,12.7-28.5,28.5S42.8,278,58.5,278S87,265.3,87,249.6S74.2,221.1,58.5,221.1
			L58.5,221.1z M58.5,268.5c-10.4,0-18.9-8.5-18.9-19c0-10.4,8.5-18.9,19-18.9c10.4,0,18.9,8.5,18.9,18.9
			C77.5,260,69.1,268.5,58.5,268.5L58.5,268.5z"/>
	</g>
</g>
</svg>
