<?xml version="1.0" encoding="utf-8"?>
<!-- Generator: Adobe Illustrator 22.1.0, SVG Export Plug-In . SVG Version: 6.00 Build 0)  -->
<svg version="1.1" id="Layer_1" xmlns="http://www.w3.org/2000/svg" xmlns:xlink="http://www.w3.org/1999/xlink" x="0px" y="0px"
	 viewBox="0 0 500 500" style="enable-background:new 0 0 500 500;" xml:space="preserve">
<style type="text/css">
	.st0{fill:#003851;stroke:#000000;stroke-width:4;stroke-miterlimit:10;}
</style>
<title>flow</title>
<g id="Layer_2_1_">
	<g id="Layer_1-2">
		<path class="st0" d="M342.2,211.9v25.1h-39v-25.1h-66v-49.4h66v-27.4H405c2.7,0,5.1,2.2,5.1,5.1l0,0v42.4l-11.3-11l-7.2,7.1
			l23.6,23.6l23.8-23.6l-7.1-7.1l-11.7,11.6v-43c0-8.4-6.7-15-15-15H303.3v-22.8H162.8v60.1h64.5v49.4h-64.5V272h66.6v70.1
			c0,8.4,6.8,15.1,15.1,15.1h68.8L301.6,369l7,7.1l23.6-23.6L308.6,329l-7,7.1l11.3,11.3h-68.4c-2.7,0-5.1-2.3-5.1-5.1V272h63.7V247
			h39V272h140.3v-60.1H342.2z M173,112.5h120.4v40.2H173V112.5z M293.4,262H173v-40.1h120.4V262z M472.7,262H352.3v-40.1h120.4V262z
			"/>
		<path class="st0" d="M342.2,382.4h140.3v-60.1H342.2V382.4z M352.3,332.3h120.4v40.1H352.3V332.3z"/>
		<polygon class="st0" points="114,225.5 125.6,236.9 92.6,236.9 92.6,247 125.6,247 114,258.5 121.1,265.6 144.8,242 121.1,218.5 
					"/>
		<path class="st0" d="M47.6,211.9c-16.6,0-30.1,13.4-30.1,30.1c0,16.7,13.5,30,30.1,30s30.1-13.4,30.1-30S64.2,211.9,47.6,211.9
			L47.6,211.9z M47.6,262c-11,0-20-9-20-20.1c0-11,9-20,20.1-20c11,0,20,9,20,20C67.7,253,58.8,262,47.6,262L47.6,262z"/>
	</g>
</g>
</svg>
