<svg xmlns="http://www.w3.org/2000/svg" viewBox="0 0 132.3 132.25"><title>full-handling</title><g id="Layer_2" data-name="Layer 2"><g id="Layer_1-2" data-name="Layer 1"><path d="M112.09,0h-59v4.5h55.79V23.42H127.8V127.5H53.12V132H132.3V20.24Zm1.32,7.68,11.2,11.21h-11.2Z"/><path d="M61.83,118.42h14.5v-14.5H61.83Zm4.5-10h5.5v5.5h-5.5Z"/><rect x="81.58" y="103.92" width="20" height="4.5"/><rect x="81.58" y="113.92" width="40" height="4.5"/><path d="M76.33,83.92H61.83v14.5h14.5Zm-4.5,10h-5.5v-5.5h5.5Z"/><rect x="81.58" y="83.92" width="20" height="4.5"/><rect x="81.58" y="93.92" width="40" height="4.5"/><rect x="81.58" y="63.92" width="20" height="4.5"/><rect x="81.58" y="73.92" width="40" height="4.5"/><polygon points="67.72 78.28 77.18 68.83 74 65.64 67.72 71.92 64.17 68.36 60.99 71.55 67.72 78.28"/><rect x="81.58" y="43.92" width="20" height="4.5"/><rect x="81.58" y="53.92" width="40" height="4.5"/><polygon points="67.72 58.28 77.18 48.83 74 45.65 67.72 51.92 64.17 48.37 60.99 51.55 67.72 58.28"/><rect x="81.58" y="23.92" width="20" height="4.5"/><rect x="81.58" y="33.92" width="40" height="4.5"/><polygon points="67.72 38.28 77.18 28.83 74 25.64 67.72 31.92 64.17 28.36 60.99 31.55 67.72 38.28"/><rect x="61.58" y="13.92" width="5" height="4.5"/><rect x="71.58" y="13.92" width="5" height="4.5"/><rect x="81.58" y="13.92" width="5" height="4.5"/><path d="M27.68,30.88A15.44,15.44,0,1,0,12.25,15.44,15.46,15.46,0,0,0,27.68,30.88Zm0-26.38A10.94,10.94,0,1,1,16.75,15.44,10.95,10.95,0,0,1,27.68,4.5Z"/><rect x="25.43" y="92.68" width="4.5" height="39.57"/><path d="M55.37,87.4V52.18A16.37,16.37,0,0,0,39,35.8H35.75l-8.07,8.07L19.62,35.8H16.38A16.37,16.37,0,0,0,0,52.18V87.4H11.3v44.85h4.5V77.61H11.3V82.9H4.5V52.18A11.88,11.88,0,0,1,16.38,40.3h1.37l9.93,9.93,9.94-9.93H39A11.88,11.88,0,0,1,50.87,52.18V82.9h-6.8V77.61h-4.5v54.64h4.5V87.4Z"/><rect x="25.43" y="54.06" width="4.5" height="5"/><rect x="25.43" y="64.06" width="4.5" height="5"/></g></g></svg>