<svg id="Layer_1" data-name="Layer 1" xmlns="http://www.w3.org/2000/svg" viewBox="0 0 1000 1000"><title>Artboard 10</title><path d="M500,179.54C323.3,179.54,179.55,323.3,179.55,500S323.3,820.45,500,820.45,820.46,676.7,820.46,500,676.7,179.54,500,179.54Zm16.26,184.34a779.21,779.21,0,0,0,100.48-8.53c10.8,38.35,17.54,82.09,18.82,128.39H516.27Zm0-32.53v-117c36.15,9.63,68.4,50.76,90.27,109.62A747.44,747.44,0,0,1,516.27,331.35Zm-32.53-117v117a746.37,746.37,0,0,1-90.29-7.43C415.33,265.07,447.59,223.94,483.74,214.32Zm0,149.56V483.74H364.4c1.29-46.3,8-90.06,18.83-128.4A778.69,778.69,0,0,0,483.74,363.88ZM331.84,483.74H212.56a286.32,286.32,0,0,1,56-154.85,774.83,774.83,0,0,0,82.09,20.83C339.72,389.86,333.06,435.21,331.84,483.74Zm0,32.53c1.22,48.54,7.89,93.89,18.85,134a774.73,774.73,0,0,0-82.07,20.84,286.28,286.28,0,0,1-56.06-154.87Zm32.57,0H483.74V636.13a778.36,778.36,0,0,0-100.5,8.55C372.43,606.33,365.69,562.57,364.4,516.27ZM483.74,668.66v117c-36.15-9.63-68.41-50.74-90.29-109.58A746,746,0,0,1,483.74,668.66Zm32.53,117v-117a746.71,746.71,0,0,1,90.27,7.42C584.66,734.93,552.41,776,516.27,785.68Zm0-149.55V516.27H635.58c-1.29,46.3-8,90.05-18.83,128.4A778.56,778.56,0,0,0,516.27,636.13ZM668.14,516.27h119.3a286.27,286.27,0,0,1-56.05,154.86,772.68,772.68,0,0,0-82.1-20.85C660.26,610.14,666.92,564.8,668.14,516.27Zm0-32.53c-1.22-48.52-7.88-93.86-18.84-134a773.24,773.24,0,0,0,82.12-20.83,286.31,286.31,0,0,1,56,154.83Zm40.49-181.86q-34.16,10-69.09,16.58c-13.29-37.38-30.65-68.88-51-92.39A288.41,288.41,0,0,1,708.63,301.88Zm-297.2-75.81c-20.32,23.5-37.68,55-51,92.37q-34.88-6.64-69.06-16.57A288.43,288.43,0,0,1,411.43,226.07Zm-120,472.09q34.14-10,69-16.58c13.29,37.36,30.65,68.84,51,92.34A288.43,288.43,0,0,1,291.42,698.17Zm297.14,75.76c20.32-23.5,37.68-55,51-92.36q34.89,6.64,69.07,16.59A288.43,288.43,0,0,1,588.56,773.93Z"/><path d="M173.13,240.39l-25.46-20.25c-7,8.74-13.67,17.85-19.95,27.09l26.89,18.31C160.44,257,166.67,248.51,173.13,240.39Z"/><path d="M215.49,194.58l-22.18-23.8c-8.16,7.61-16.14,15.63-23.73,23.83l23.88,22.09C200.5,209.09,207.91,201.64,215.49,194.58Z"/><path d="M83.62,469.57l-32.45-2.34C50.4,478.06,50,489.08,50,499.79v1L82.54,500C82.54,489.86,82.9,479.62,83.62,469.57Z"/><path d="M264.14,155.57l-18.4-26.83c-9.19,6.3-18.28,13-27,20.06l20.35,25.37C247.19,167.67,255.62,161.41,264.14,155.57Z"/><path d="M318,124.23,303.81,95c-10,4.87-20,10.19-29.67,15.81l16.36,28.12C299.46,133.68,308.71,128.74,318,124.23Z"/><path d="M916.22,467.35l32.43-2.53c-.88-11.2-2.17-22.44-3.84-33.39l-32.16,4.92C914.21,446.51,915.41,456.94,916.22,467.35Z"/><path d="M92.74,407.88,61,400.73c-2.46,10.89-4.53,22-6.16,33.07L87,438.55C88.54,428.29,90.46,418,92.74,407.88Z"/><path d="M111,348.24l-30.3-11.83c-4.08,10.43-7.8,21.14-11.07,31.8l31.1,9.52C103.77,367.84,107.22,357.93,111,348.24Z"/><path d="M906.78,405.71l31.7-7.31c-2.51-10.89-5.47-21.82-8.8-32.48l-31,9.69C901.71,385.49,904.45,395.62,906.78,405.71Z"/><path d="M138,292l-28.19-16.24c-5.58,9.69-10.87,19.71-15.7,29.78l29.32,14.08C127.94,310.27,132.84,301,138,292Z"/><path d="M825.66,238.78,851,218.4c-7-8.71-14.42-17.26-22-25.41l-23.79,22.19C812.28,222.74,819.15,230.69,825.66,238.78Z"/><path d="M861,290.16l28.1-16.38c-5.63-9.66-11.68-19.22-18-28.39l-26.81,18.43C850.14,272.33,855.76,281.2,861,290.16Z"/><path d="M888.22,346.19l30.24-12c-4.09-10.33-8.65-20.68-13.55-30.76l-29.25,14.22C880.2,327,884.43,336.61,888.22,346.19Z"/><path d="M694.18,93.93c-10.11-4.84-20.51-9.34-30.9-13.39l-11.8,30.31c9.64,3.76,19.28,7.93,28.65,12.42Z"/><path d="M436.72,87.3l-4.9-32.16c-11.06,1.68-22.18,3.81-33,6.3l7.3,31.7C416.15,90.83,426.46,88.86,436.72,87.3Z"/><path d="M631.46,69.51c-10.69-3.25-21.63-6.15-32.52-8.59L591.8,92.65c10.11,2.27,20.25,4.95,30.16,8Z"/><path d="M376,101.29,366.3,70.23c-10.68,3.32-21.35,7.09-31.73,11.2l12,30.25C356.17,107.86,366.07,104.37,376,101.29Z"/><path d="M498.92,82.54,498.83,50c-11.18,0-22.48.47-33.59,1.32l2.48,32.44C478,83,488.52,82.57,498.92,82.54Z"/><path d="M565.86,54.79c-11-1.62-22.27-2.84-33.43-3.64L530.11,83.6c10.36.74,20.8,1.88,31,3.37Z"/><path d="M83.74,532,51.3,534.42c.85,11.15,2.12,22.39,3.78,33.41L87.25,563C85.7,552.74,84.52,542.31,83.74,532Z"/><path d="M784.06,806l22.14,23.83c8.18-7.6,16.18-15.6,23.78-23.78l-23.85-22.13C799.08,791.5,791.65,798.93,784.06,806Z"/><path d="M826.49,760.25l25.43,20.28c7-8.74,13.7-17.85,20-27.05L845,735.13C839.2,743.68,833,752.13,826.49,760.25Z"/><path d="M735.34,844.91l18.35,26.85c9.19-6.28,18.28-13,27-20l-20.3-25.41C752.3,832.83,743.86,839.08,735.34,844.91Z"/><path d="M681.4,876.13l14.13,29.3c10-4.84,20-10.14,29.72-15.74l-16.31-28.15C700,866.73,690.7,871.65,681.4,876.13Z"/><path d="M623.4,898.94,633,930c10.65-3.28,21.33-7,31.76-11.13l-11.9-30.27C643.18,892.43,633.26,895.9,623.4,898.94Z"/><path d="M917.47,498.49V500c0,10.39-.39,20.88-1.15,31.2l32.45,2.4c.82-11.11,1.24-22.41,1.24-33.6v-1.52Z"/><path d="M93.07,593.6l-31.7,7.27c2.5,10.9,5.44,21.83,8.74,32.49l31.08-9.63C98.12,613.85,95.39,603.71,93.07,593.6Z"/><path d="M907.11,592.86l31.73,7.22c2.46-10.85,4.56-22,6.21-33.07l-32.18-4.79C911.34,572.5,909.4,582.81,907.11,592.86Z"/><path d="M888.77,652.49l30.28,11.88c4.07-10.38,7.81-21.08,11.11-31.8L899.07,623C896,632.95,892.54,642.87,888.77,652.49Z"/><path d="M861.67,708.7,889.83,725c5.58-9.64,10.88-19.65,15.75-29.76l-29.3-14.13C871.76,690.48,866.85,699.76,861.67,708.7Z"/><path d="M562.61,912.8,567.46,945c11.08-1.67,22.19-3.76,33-6.24L593.27,907C583.21,909.32,572.89,911.26,562.61,912.8Z"/><path d="M194.32,830.21c8.22,7.61,16.8,15,25.51,21.92l20.27-25.44c-8.08-6.44-16.05-13.29-23.69-20.35Z"/><path d="M305.17,905.72c10.06,4.84,20.44,9.37,30.87,13.45l11.86-30.29c-9.66-3.78-19.29-8-28.63-12.47Z"/><path d="M124.05,681.7c-4.53-9.34-8.74-18.93-12.52-28.53L81.27,665.1c4.09,10.36,8.63,20.71,13.51,30.78Z"/><path d="M246.91,872.1c9.23,6.29,18.82,12.31,28.5,17.9l16.26-28.17c-9-5.18-17.87-10.77-26.44-16.6Z"/><path d="M433.42,945.09c11,1.64,22.29,2.89,33.43,3.7l2.36-32.45c-10.34-.76-20.77-1.91-31-3.43Z"/><path d="M367.84,930.25c10.67,3.28,21.62,6.19,32.52,8.65l7.19-31.73c-10.11-2.29-20.25-5-30.14-8Z"/><path d="M500.41,917.46l0,32.53c11.17,0,22.47-.44,33.59-1.26l-2.41-32.44C521.28,917.06,510.78,917.46,500.41,917.46Z"/><path d="M756.27,209.7a59.64,59.64,0,1,0-59.63-59.64A59.71,59.71,0,0,0,756.27,209.7Zm0-86.75a27.11,27.11,0,1,1-27.1,27.11A27.14,27.14,0,0,1,756.27,123Z"/><path d="M150.53,697.24a59.64,59.64,0,1,0,59.65,59.64A59.7,59.7,0,0,0,150.53,697.24Zm0,86.75a27.11,27.11,0,1,1,27.12-27.11A27.13,27.13,0,0,1,150.53,784Z"/></svg>