<?xml version="1.0" encoding="utf-8"?>
<!-- Generator: Adobe Illustrator 22.1.0, SVG Export Plug-In . SVG Version: 6.00 Build 0)  -->
<svg version="1.1" id="_x31_6_x5F_global_x5F_network"
	 xmlns="http://www.w3.org/2000/svg" xmlns:xlink="http://www.w3.org/1999/xlink" x="0px" y="0px" viewBox="0 0 500 500"
	 style="enable-background:new 0 0 500 500;" xml:space="preserve">
<style type="text/css">
	.st0{fill:#222829;}
</style>
<g>
	<path class="st0" d="M250,41.5v7c1.8,0,3.6,0.4,5.1,1c2.4,1,4.4,2.7,5.8,4.8c1.4,2.1,2.2,4.6,2.3,7.4c0,1.8-0.4,3.6-1,5.1
		c-1,2.4-2.7,4.4-4.8,5.8c-2.1,1.4-4.6,2.2-7.4,2.3c-1.8,0-3.6-0.4-5.1-1c-2.4-1-4.4-2.7-5.8-4.8c-1.4-2.1-2.2-4.6-2.3-7.4
		c0-1.8,0.4-3.6,1-5.1c1-2.4,2.7-4.4,4.8-5.8c2.1-1.4,4.6-2.2,7.4-2.3V41.5v-7c-3.7,0-7.3,0.8-10.6,2.1c-4.9,2.1-9,5.5-12,9.8
		c-2.9,4.3-4.7,9.6-4.6,15.2c0,3.7,0.8,7.3,2.1,10.6c2.1,4.9,5.5,9,9.8,12c4.3,2.9,9.6,4.7,15.2,4.6c3.7,0,7.3-0.8,10.6-2.1
		c4.9-2.1,9-5.5,12-9.8c2.9-4.3,4.7-9.6,4.6-15.2c0-3.7-0.8-7.3-2.1-10.6c-2.1-4.9-5.5-9-9.8-12c-4.3-2.9-9.6-4.7-15.2-4.6V41.5z"/>
	<path class="st0" d="M250,418.1v7c1.8,0,3.6,0.4,5.1,1c2.4,1,4.4,2.7,5.8,4.8c1.4,2.1,2.2,4.6,2.3,7.4c0,1.8-0.4,3.6-1,5.1
		c-1,2.4-2.7,4.4-4.8,5.8c-2.1,1.4-4.6,2.2-7.4,2.3c-1.8,0-3.6-0.4-5.1-1c-2.4-1-4.4-2.7-5.8-4.8c-1.4-2.1-2.2-4.6-2.3-7.4
		c0-1.8,0.4-3.6,1-5.1c1-2.4,2.7-4.4,4.8-5.8c2.1-1.4,4.6-2.2,7.4-2.3V418.1v-7c-3.7,0-7.3,0.8-10.6,2.1c-4.9,2.1-9,5.5-12,9.8
		c-2.9,4.3-4.7,9.6-4.6,15.2c0,3.7,0.8,7.3,2.1,10.6c2.1,4.9,5.5,9,9.8,12c4.3,2.9,9.6,4.7,15.2,4.6c3.7,0,7.3-0.8,10.6-2.1
		c4.9-2.1,9-5.5,12-9.8c2.9-4.3,4.7-9.6,4.6-15.2c0-3.7-0.8-7.3-2.1-10.6c-2.1-4.9-5.5-9-9.8-12c-4.3-2.9-9.6-4.7-15.2-4.6V418.1z"
		/>
	<polyline class="st0" points="257,142.4 257,81.9 243,81.9 243,142.4 	"/>
	<polyline class="st0" points="243,357.6 243,418.1 257,418.1 257,357.6 	"/>
	<path class="st0" d="M438.3,229.8v7c1.8,0,3.6,0.4,5.1,1c2.4,1,4.4,2.7,5.8,4.8c1.4,2.1,2.2,4.6,2.3,7.4c0,1.8-0.4,3.6-1,5.1
		c-1,2.4-2.7,4.4-4.8,5.8c-2.1,1.4-4.6,2.2-7.4,2.3c-1.8,0-3.6-0.4-5.1-1c-2.4-1-4.4-2.7-5.8-4.8c-1.4-2.1-2.2-4.6-2.3-7.4
		c0-1.8,0.4-3.6,1-5.1c1-2.4,2.7-4.4,4.8-5.8c2.1-1.4,4.6-2.2,7.4-2.3V229.8v-7c-3.7,0-7.3,0.8-10.6,2.1c-4.9,2.1-9,5.5-12,9.8
		c-2.9,4.3-4.7,9.6-4.6,15.2c0,3.7,0.8,7.3,2.1,10.6c2.1,4.9,5.5,9,9.8,12c4.3,2.9,9.6,4.7,15.2,4.6c3.7,0,7.3-0.8,10.6-2.1
		c4.9-2.1,9-5.5,12-9.8c2.9-4.3,4.7-9.6,4.6-15.2c0-3.7-0.8-7.3-2.1-10.6c-2.1-4.9-5.5-9-9.8-12c-4.3-2.9-9.6-4.7-15.2-4.6V229.8z"
		/>
	<path class="st0" d="M61.7,229.8v7c1.8,0,3.6,0.4,5.1,1c2.4,1,4.4,2.7,5.8,4.8c1.4,2.1,2.2,4.6,2.3,7.4c0,1.8-0.4,3.6-1,5.1
		c-1,2.4-2.7,4.4-4.8,5.8c-2.1,1.4-4.6,2.2-7.4,2.3c-1.8,0-3.6-0.4-5.1-1c-2.4-1-4.4-2.7-5.8-4.8c-1.4-2.1-2.2-4.6-2.3-7.4
		c0-1.8,0.4-3.6,1-5.1c1-2.4,2.7-4.4,4.8-5.8c2.1-1.4,4.6-2.2,7.4-2.3V229.8v-7c-3.7,0-7.3,0.8-10.6,2.1c-4.9,2.1-9,5.5-12,9.8
		c-2.9,4.3-4.7,9.6-4.6,15.2c0,3.7,0.8,7.3,2.1,10.6c2.1,4.9,5.5,9,9.8,12c4.3,2.9,9.6,4.7,15.2,4.6c3.7,0,7.3-0.8,10.6-2.1
		c4.9-2.1,9-5.5,12-9.8c2.9-4.3,4.7-9.6,4.6-15.2c0-3.7-0.8-7.3-2.1-10.6c-2.1-4.9-5.5-9-9.8-12c-4.3-2.9-9.6-4.7-15.2-4.6V229.8z"
		/>
	<polyline class="st0" points="357.6,257 418.1,257 418.1,243 357.6,243 	"/>
	<polyline class="st0" points="142.4,243 81.9,243 81.9,257 142.4,257 	"/>
	<path class="st0" d="M250,108.8v7c37.1,0,70.6,15,94.9,39.3c24.3,24.3,39.3,57.8,39.3,94.9c0,37.1-15,70.6-39.3,94.9
		c-24.3,24.3-57.8,39.3-94.9,39.3c-37.1,0-70.6-15-94.9-39.3c-24.3-24.3-39.3-57.8-39.3-94.9c0-37.1,15-70.6,39.3-94.9
		c24.3-24.3,57.8-39.3,94.9-39.3V108.8v-7c-40.9,0-78,16.6-104.8,43.4c-26.8,26.8-43.4,63.9-43.4,104.8c0,40.9,16.6,78,43.4,104.8
		c26.8,26.8,63.9,43.4,104.8,43.4c40.9,0,78-16.6,104.8-43.4c26.8-26.8,43.4-63.9,43.4-104.8c0-40.9-16.6-78-43.4-104.8
		c-26.8-26.8-63.9-43.4-104.8-43.4V108.8z"/>
	<path class="st0" d="M425.6,295.4c-16.4,63.7-66.6,113.9-130.3,130.3l3.5,13.6c68.7-17.6,122.7-71.7,140.3-140.3L425.6,295.4
		L425.6,295.4z"/>
	<path class="st0" d="M295.4,74.4c63.7,16.4,113.9,66.5,130.3,130.3l13.6-3.5c-17.6-68.7-71.7-122.7-140.3-140.3L295.4,74.4
		L295.4,74.4z"/>
	<path class="st0" d="M74.4,204.6c15.9-61.5,63.2-110.5,123.8-128.4l-4-13.4C128.8,82.2,77.9,134.9,60.8,201.1L74.4,204.6
		L74.4,204.6z"/>
	<path class="st0" d="M204.6,425.6c-63.7-16.4-113.9-66.5-130.3-130.3l-13.6,3.5c17.6,68.7,71.7,122.7,140.3,140.3L204.6,425.6
		L204.6,425.6z"/>
	<path class="st0" d="M250,162.6v7c11.1,0,21.7,2.2,31.3,6.3c14.4,6.1,26.7,16.3,35.4,29.1c8.7,12.8,13.7,28.3,13.7,44.9
		c0,11.1-2.2,21.7-6.3,31.3c-6.1,14.4-16.3,26.7-29.1,35.4c-12.8,8.7-28.3,13.7-44.9,13.7c-11.1,0-21.7-2.2-31.3-6.3
		c-14.4-6.1-26.7-16.3-35.4-29.1c-8.7-12.8-13.7-28.3-13.7-44.9c0-11.1,2.2-21.7,6.3-31.3c6.1-14.4,16.3-26.7,29.1-35.4
		c12.8-8.7,28.3-13.7,44.9-13.7V162.6v-7c-13,0-25.4,2.6-36.7,7.4c-16.9,7.2-31.3,19.1-41.5,34.2c-10.2,15.1-16.1,33.3-16.1,52.8
		c0,13,2.6,25.4,7.4,36.7c7.2,16.9,19.1,31.3,34.2,41.5c15.1,10.2,33.3,16.1,52.8,16.1c13,0,25.4-2.6,36.7-7.4
		c16.9-7.2,31.3-19.1,41.5-34.2c10.2-15.1,16.1-33.3,16.1-52.8c0-13-2.6-25.4-7.4-36.7c-7.2-16.9-19.1-31.3-34.2-41.5
		c-15.1-10.2-33.3-16.1-52.8-16.1V162.6z"/>
	<polyline class="st0" points="325.8,335.6 399.8,409.6 409.6,399.8 335.6,325.8 	"/>
	<polyline class="st0" points="90.4,100.2 164.4,174.2 174.2,164.4 100.2,90.4 	"/>
	<polyline class="st0" points="335.6,174.2 409.6,100.2 399.8,90.4 325.8,164.4 	"/>
	<polyline class="st0" points="100.2,409.6 174.2,335.6 164.4,325.8 90.4,399.8 	"/>
	<path class="st0" d="M250,162.6v7c1.1,0,2.2,0.3,3.5,1c1.1,0.6,2.5,1.6,3.8,3c2.4,2.5,5,6.2,7.3,11.1c3.5,7.3,6.6,16.9,8.7,28.1
		c2.1,11.2,3.3,23.9,3.3,37.3c0,11.7-0.9,22.8-2.5,32.9c-1.2,7.5-2.9,14.5-4.8,20.6c-1.5,4.6-3.1,8.7-4.8,12.2
		c-2.6,5.3-5.4,9.3-8,11.6c-1.3,1.2-2.5,2-3.6,2.4c-1.1,0.5-2,0.7-2.9,0.7c-1.1,0-2.2-0.3-3.5-1c-1.1-0.6-2.5-1.6-3.8-3
		c-2.4-2.5-5-6.2-7.3-11.1c-3.5-7.3-6.6-16.9-8.7-28.1c-2.1-11.2-3.3-23.9-3.3-37.3c0-11.7,0.9-22.8,2.5-32.9
		c1.2-7.5,2.9-14.5,4.8-20.6c1.5-4.6,3.1-8.7,4.8-12.2c2.6-5.3,5.4-9.3,8-11.6c1.3-1.2,2.5-2,3.6-2.4c1.1-0.5,2-0.7,2.9-0.7V162.6
		v-7c-3.6,0-7,1-10.1,2.6c-2.7,1.4-5.1,3.3-7.3,5.6c-3.8,3.9-7,8.9-9.9,14.7c-4.2,8.7-7.5,19.5-9.8,31.6
		c-2.3,12.1-3.6,25.6-3.6,39.9c0,12.4,1,24.3,2.7,35.1c1.3,8.1,3.1,15.7,5.3,22.6c1.6,5.1,3.5,9.9,5.6,14.1
		c3.1,6.4,6.7,11.7,11.1,15.8c2.2,2,4.6,3.7,7.3,4.9c2.7,1.2,5.6,1.9,8.6,1.9c3.6,0,7-1,10.1-2.6c2.7-1.4,5.1-3.3,7.3-5.6
		c3.8-3.9,7-8.9,9.9-14.7c4.2-8.7,7.5-19.5,9.8-31.6c2.3-12.1,3.6-25.6,3.6-39.9c0-12.4-1-24.3-2.7-35.1c-1.3-8.1-3.1-15.7-5.3-22.6
		c-1.6-5.1-3.5-9.9-5.6-14.1c-3.1-6.4-6.7-11.7-11.1-15.8c-2.2-2-4.6-3.7-7.3-4.9c-2.7-1.2-5.6-1.9-8.6-1.9V162.6z"/>
	<path class="st0" d="M250,216.4v7c11.7,0,22.8,0.9,32.9,2.5c7.5,1.2,14.5,2.9,20.6,4.8c4.6,1.5,8.7,3.1,12.2,4.8
		c5.3,2.6,9.3,5.4,11.6,8c1.2,1.3,2,2.5,2.4,3.6c0.5,1.1,0.7,2,0.7,2.9c0,1.1-0.3,2.2-1,3.5c-0.6,1.1-1.6,2.5-3,3.8
		c-2.5,2.4-6.2,5-11.1,7.3c-7.3,3.5-16.9,6.6-28.1,8.7c-11.2,2.1-23.9,3.3-37.3,3.3c-11.7,0-22.8-0.9-32.9-2.5
		c-7.5-1.2-14.5-2.9-20.6-4.8c-4.6-1.5-8.7-3.1-12.2-4.8c-5.3-2.6-9.3-5.4-11.6-8c-1.2-1.3-2-2.5-2.4-3.6c-0.5-1.1-0.7-2-0.7-2.9
		c0-1.1,0.3-2.2,1-3.5c0.6-1.1,1.6-2.5,3-3.8c2.5-2.4,6.2-5,11.1-7.3c7.3-3.5,16.9-6.6,28.1-8.7c11.2-2.1,23.9-3.3,37.3-3.3V216.4
		v-7c-12.4,0-24.3,1-35.1,2.7c-8.1,1.3-15.7,3.1-22.6,5.3c-5.1,1.6-9.9,3.5-14.1,5.6c-6.4,3.1-11.7,6.7-15.8,11.1
		c-2,2.2-3.7,4.6-4.9,7.3c-1.2,2.7-1.9,5.6-1.9,8.6c0,3.6,1,7,2.6,10.1c1.4,2.7,3.3,5.1,5.6,7.3c3.9,3.8,8.9,7,14.7,9.9
		c8.7,4.2,19.5,7.5,31.6,9.8c12.1,2.3,25.6,3.6,39.9,3.6c12.4,0,24.3-1,35.1-2.7c8.1-1.3,15.7-3.1,22.6-5.3
		c5.1-1.6,9.9-3.5,14.1-5.6c6.4-3.1,11.7-6.7,15.8-11.1c2-2.2,3.7-4.6,4.9-7.3c1.2-2.7,1.9-5.6,1.9-8.6c0-3.6-1-7-2.6-10.1
		c-1.4-2.7-3.3-5.1-5.6-7.3c-3.9-3.8-8.9-7-14.7-9.9c-8.7-4.2-19.5-7.5-31.6-9.8c-12.1-2.3-25.6-3.6-39.9-3.6V216.4z"/>
</g>
</svg>
