<?xml version="1.0" encoding="utf-8"?>
<!-- Generator: Adobe Illustrator 22.1.0, SVG Export Plug-In . SVG Version: 6.00 Build 0)  -->
<svg version="1.1" id="Layer_1" xmlns="http://www.w3.org/2000/svg" xmlns:xlink="http://www.w3.org/1999/xlink" x="0px" y="0px"
	 viewBox="0 0 500 500" style="enable-background:new 0 0 500 500;" xml:space="preserve">
<style type="text/css">
	.st0{fill:#003851;}
</style>
<title>Healthcare and Life Sciences</title>
<g id="Layer_2_1_">
	<g id="Layer_1-2">
		<path class="st0" d="M256.8,390.6v-65H243v58.1c-14.5-7.2-34.6-19.2-34.6-37.4c0-13.2,11-20.7,24.3-28.6l-7-11.9
			c-11.7,6.9-31.2,18.4-31.2,40.5c0,29.6,31.4,44.6,48.2,52.8h0.3v57.3c-14.8-3.8-23.7-18.9-19.9-33.7c0.9-3.5,2.5-6.8,4.7-9.7
			l-11.1-8.3c-5.4,7.2-8.3,15.9-8.3,24.9c-0.8,23,17.1,42.3,40.1,43.1c23,0.8,42.3-17.1,43.1-40.1c0-1,0-2,0-3
			C291.5,407.6,270.9,397.4,256.8,390.6z M256.8,456.3v-50.2c12.1,6.4,20.8,12.9,20.8,23.4C277.6,442.2,269.1,453.2,256.8,456.3z"/>
		<path class="st0" d="M312.3,242.3c0-31.7-24.1-48.5-41.6-48.5v13.9c9.7,0,27.8,10.1,27.8,34.6c0,21.1-25.5,36.1-41.6,44.3V96
			c18.8-3.8,30.9-22.2,27.1-40.9S261.7,24.2,243,28.1S212.1,50.2,215.9,69c2.8,13.6,13.4,24.3,27.1,27.1v190.6
			c-16.2-8.2-41.6-23.3-41.6-44.3c0-24.5,18.1-34.6,27.8-34.6v-13.9c-17.5,0-41.6,16.9-41.6,48.5c0,32.8,39.2,51.9,56,60l6.4,3.2
			l0,0h0.3c14.4,7,41.2,20.1,41.2,40.7c0.8,12.1-5.9,23.4-17,28.5l6.2,12.4c15.7-7.4,25.5-23.5,24.7-40.9c0-24.3-23.1-39.6-40-48.5
			C284.2,288,312.3,270.3,312.3,242.3z M229.1,62c0-11.5,9.3-20.8,20.8-20.8c11.5,0,20.8,9.3,20.8,20.8s-9.3,20.8-20.8,20.8
			c0,0-0.1,0-0.1,0C238.4,82.8,229.1,73.5,229.1,62C229.1,62,229.1,62,229.1,62z"/>
		<path class="st0" d="M229.1,180v-13.9h-27.8c-4.8,0-9.3,0-13.8-0.3v-20.5h-13.9V165c-4.8-0.3-9.3-0.8-13.8-1.3v-25.4h-13.9v23.3
			c-4.8-0.8-9.4-1.7-13.9-2.8v-27.5h-13.8v23.9c-4.9-1.5-9.5-3.1-13.9-4.8v-26H90.4v19.9c-22.8-11.3-37.4-26-45.1-40.8
			c55-1.5,77.2-14.8,93.6-24.6c9.7-5.8,16.6-9.9,27.7-9.9c11.3,0.6,20.3,9.6,20.8,20.8v20.8c0.1,15.3,12.5,27.7,27.8,27.7h13.9
			v-13.8h-13.9c-7.7,0-13.9-6.2-13.9-13.8V89.8c-0.4-19-15.7-34.2-34.6-34.7c-14.9,0-24.1,5.3-34.8,11.9c-17,10.1-38.1,22.8-97,22.8
			c-3.8,0-6.9,3.1-6.9,6.9c0,0.8,0.1,1.5,0.4,2.2c19.9,59.7,102.4,81,173,81H229.1z"/>
		<path class="st0" d="M470.5,92.7c-1.3-1.8-3.4-2.9-5.6-2.9c-58.9,0-80-12.6-97-22.8c-10.6-6.4-19.9-11.9-34.8-11.9
			c-19,0.5-34.2,15.7-34.6,34.7v20.8c0,7.7-6.2,13.8-13.9,13.8h-13.6v13.8h13.9c15.3,0,27.7-12.4,27.7-27.7V89.8
			c0.6-11.3,9.6-20.3,20.8-20.8c11,0,18.1,4.2,27.7,9.9c16.5,9.8,38.7,23.1,93.7,24.6c-7.7,14.8-22.3,29.4-45.1,40.8v-19.9h-14.1v26
			c-4.4,1.7-9,3.3-13.9,4.8v-23.9h-13.8v27.5c-4.5,1.1-9.1,2-13.9,2.8v-23.3H340v25.4c-4.5,0.5-9.1,1-13.8,1.3v-19.7h-13.9v20.5
			c-4.5,0-9.1,0.3-13.8,0.3h-27.5V180h27.8c70.6,0,153.2-21.1,173-81C472.4,96.8,471.9,94.4,470.5,92.7z"/>
	</g>
</g>
</svg>
