<svg xmlns="http://www.w3.org/2000/svg" viewBox="0 0 84.03 84.03"><defs><style>.cls-1{fill:#003851;}</style></defs><title>Healthcare and Life Sciences</title><g id="Layer_2" data-name="Layer 2"><g id="Layer_1-2" data-name="Layer 1"><path class="cls-1" d="M43.33,68.77V56.46H40.7v11c-2.74-1.37-6.56-3.63-6.56-7.09,0-2.49,2.08-3.92,4.6-5.41l-1.33-2.26c-2.21,1.3-5.9,3.48-5.9,7.67,0,5.6,5.94,8.45,9.13,10l.06,0V81.22A5.24,5.24,0,0,1,37.81,73l-2.1-1.57a7.79,7.79,0,0,0-1.57,4.72,7.88,7.88,0,1,0,15.75,0C49.89,72,46,70.07,43.33,68.77Zm0,12.45v-9.5c2.3,1.21,3.94,2.44,3.94,4.43A5.25,5.25,0,0,1,43.33,81.22Z"/><path class="cls-1" d="M53.83,40.7c0-6-4.57-9.19-7.88-9.19v2.63c1.84,0,5.26,1.92,5.26,6.56,0,4-4.82,6.84-7.88,8.39V13a6.57,6.57,0,1,0-2.63,0V49.09c-3.06-1.55-7.88-4.42-7.88-8.39,0-4.64,3.43-6.56,5.26-6.56V31.51c-3.31,0-7.88,3.2-7.88,9.19,0,6.21,7.43,9.83,10.6,11.37l1.22.6h0l.06,0c2.73,1.33,7.81,3.81,7.81,7.7a5.53,5.53,0,0,1-3.21,5.39l1.17,2.35a8.14,8.14,0,0,0,4.67-7.74c0-4.61-4.37-7.5-7.57-9.19C48.51,49.35,53.83,46,53.83,40.7ZM38.08,6.56A3.94,3.94,0,1,1,42,10.5,3.93,3.93,0,0,1,38.08,6.56Z"/><path class="cls-1" d="M38.08,28.89V26.26H32.82c-.9,0-1.76,0-2.62-.06V22.32H27.57v3.73c-.9-.06-1.77-.15-2.62-.25V21H22.32v4.41c-.91-.16-1.78-.33-2.63-.53v-5.2H17.07v4.52c-.92-.28-1.8-.58-2.63-.9V18.38H11.82v3.76C7.51,20,4.73,17.22,3.28,14.42,13.7,14.13,17.9,11.62,21,9.76c1.83-1.09,3.15-1.88,5.24-1.88a4.15,4.15,0,0,1,3.94,3.94v3.94A5.26,5.26,0,0,0,35.45,21h2.63V18.38H35.45a2.63,2.63,0,0,1-2.63-2.62V11.82a6.73,6.73,0,0,0-6.56-6.57c-2.82,0-4.57,1-6.59,2.26-3.21,1.92-7.21,4.31-18.36,4.31A1.31,1.31,0,0,0,.07,13.55C3.84,24.86,19.46,28.89,32.82,28.89Z"/><path class="cls-1" d="M83.78,12.36a1.3,1.3,0,0,0-1.06-.54c-11.15,0-15.15-2.39-18.36-4.31-2-1.21-3.77-2.26-6.59-2.26a6.73,6.73,0,0,0-6.56,6.57v3.94a2.63,2.63,0,0,1-2.63,2.62H46V21h2.63a5.26,5.26,0,0,0,5.25-5.25V11.82a4.15,4.15,0,0,1,3.94-3.94c2.09,0,3.42.79,5.24,1.88,3.12,1.86,7.32,4.37,17.74,4.66-1.45,2.8-4.23,5.57-8.54,7.72V18.38H69.59v4.93c-.83.32-1.71.62-2.63.9V19.69H64.34v5.2c-.85.2-1.72.37-2.63.53V21H59.08V25.8c-.85.1-1.72.19-2.62.25V22.32H53.83V26.2c-.86,0-1.72.06-2.62.06H46v2.63h5.26c13.36,0,29-4,32.75-15.34A1.29,1.29,0,0,0,83.78,12.36Z"/></g></g></svg>