<?xml version="1.0" encoding="utf-8"?>
<!-- Generator: Adobe Illustrator 22.1.0, SVG Export Plug-In . SVG Version: 6.00 Build 0)  -->
<svg version="1.1" id="Layer_1" xmlns="http://www.w3.org/2000/svg" xmlns:xlink="http://www.w3.org/1999/xlink" x="0px" y="0px"
	 viewBox="0 0 500 500" style="enable-background:new 0 0 500 500;" xml:space="preserve">
<style type="text/css">
	.st0{fill:#003851;}
</style>
<title>Higher Education</title>
<g id="Layer_2_1_">
	<g id="Layer_1-2">
		<path class="st0" d="M458.9,137.7l-206-99.6c-1.8-0.9-3.9-0.9-5.7,0L41.1,137.7c-2.3,1.1-3.8,3.5-3.7,6.1c0.1,2.5,1.7,4.8,4.1,5.7
			L64,159v91.7c-14.2,3.7-22.8,18.2-19.1,32.4s18.2,22.8,32.4,19.1S100,284,96.4,269.7c-2.4-9.4-9.7-16.7-19.1-19.1v-85.9l40.1,16.6
			v62.3h13.3V177c1-6.8,40.1-33.3,119.6-33.3s118.6,26.5,119.6,33.2v66.8h13v-62.3l75.6-31.5c2.3-1,3.9-3.2,4.1-5.7
			C462.8,141.4,461.3,138.9,458.9,137.7z M83.9,276.6c0,7.3-6,13.3-13.3,13.3c-7.3,0-13.3-6-13.3-13.3c0-7.3,6-13.3,13.3-13.3
			C78,263.3,83.9,269.2,83.9,276.6L83.9,276.6z M379.8,168.2c-12.7-19-64.9-37.8-129.8-37.8s-117.1,18.8-129.8,37.8l-59.9-25
			l189.8-91.7l189.8,91.7L379.8,168.2z"/>
		<path class="st0" d="M250,196.8c-73.4,0-132.9,59.5-132.9,132.9S176.6,462.6,250,462.6c73.4,0,132.9-59.5,132.9-132.9
			c0,0,0-0.1,0-0.1C382.7,256.3,323.3,196.9,250,196.8z M337.2,248.4c-8.5,3.3-17.2,6-26,8.1c-4.9-14.5-12.5-27.9-22.4-39.6
			c18.4,6.3,35.1,17,48.4,31.2V248.4z M256.6,276.4c15.2-0.3,30.4-1.8,45.4-4.6c4.6,16.7,7.1,33.9,7.6,51.2h-53V276.4z M256.6,263.1
			v-52.2c16.7,3.9,31.5,22.2,41.2,48.2C284.2,261.5,270.4,262.8,256.6,263.1z M243.7,210.9v52.2c-13.8-0.3-27.6-1.6-41.2-4
			C211.9,233.1,226.5,215,243.7,210.9z M243.7,276.4v46.6h-53.3c0.3-17.3,2.9-34.5,7.4-51.2C213,274.6,228.3,276.2,243.7,276.4z
			 M177.1,323.1h-46.4c1.3-23.2,9.3-45.6,23.2-64.3c10,4.3,20.3,7.7,30.8,10.3C180,286.7,177.5,304.8,177.1,323.1z M177.1,336.4
			c0.4,18.3,3,36.4,7.7,54c-10.5,2.5-20.9,5.9-30.8,10.2c-13.9-18.7-21.9-41-23.2-64.2H177.1z M190.4,336.4h53.3V383
			c-15.2,0.3-30.4,1.8-45.4,4.6C193.5,370.9,190.9,353.7,190.4,336.4z M243.7,396.3v52.2c-16.7-3.9-31.5-22.2-41.2-48.2
			C216.1,397.9,229.8,396.6,243.7,396.3z M256.9,448.5v-52.2c13.8,0.3,27.6,1.6,41.2,4c-10,26-24.8,44.3-41.5,48.2H256.9z
			 M256.9,383v-46.6h53c-0.4,17.3-3,34.5-7.6,51.2c-15.1-2.8-30.4-4.3-45.7-4.6H256.9z M323.2,336.4h46.4
			c-1.3,23.2-9.3,45.6-23.2,64.2c-10-4.3-20.3-7.7-30.8-10.2c4.6-17.7,7.1-35.8,7.4-54H323.2z M323.2,323.1c-0.4-18.3-3-36.4-7.7-54
			c10.6-2.5,20.9-6,30.8-10.3c13.9,18.7,21.9,41,23.2,64.3H323.2z M211.2,216.7c-9.9,11.7-17.5,25.1-22.4,39.6
			c-8.9-2.1-17.5-4.8-26-8.1C176.1,233.9,192.7,223.1,211.2,216.7z M162.8,411.6c8.5-3.4,17.2-6.1,26-8.1
			c4.9,14.5,12.5,27.9,22.4,39.6c-18.5-6.5-35.1-17.4-48.4-31.7L162.8,411.6z M288.8,443c9.9-11.7,17.5-25.1,22.4-39.6
			c8.9,2.1,17.6,4.8,26,8.1c-13.4,14.2-30,24.9-48.4,31.2V443z"/>
		<rect x="243.4" y="163.6" class="st0" width="13.3" height="13.3"/>
		<rect x="216.8" y="163.6" class="st0" width="13.3" height="13.3"/>
		<rect x="269.9" y="163.6" class="st0" width="13.3" height="13.3"/>
	</g>
</g>
</svg>
