<svg xmlns="http://www.w3.org/2000/svg" viewBox="0 0 74.21 74.21"><defs><style>.cls-1{fill:#003851;}</style></defs><title>Higher Education</title><g id="Layer_2" data-name="Layer 2"><g id="Layer_1-2" data-name="Layer 1"><path class="cls-1" d="M73.56,17.51,37.61.12a1.12,1.12,0,0,0-1,0L.65,17.51A1.16,1.16,0,0,0,0,18.58a1.15,1.15,0,0,0,.71,1l3.93,1.64v16a4.64,4.64,0,1,0,2.32,0V22.22l7,2.9V36h2.32V24.36c.17-1.19,7-5.81,20.88-5.81s20.7,4.62,20.87,5.8V36H60.3V25.12l13.2-5.5a1.15,1.15,0,0,0,.71-1A1.16,1.16,0,0,0,73.56,17.51ZM8.12,41.74A2.32,2.32,0,1,1,5.8,39.42,2.32,2.32,0,0,1,8.12,41.74ZM59.76,22.83c-2.22-3.32-11.33-6.6-22.65-6.6s-20.44,3.28-22.66,6.6L4,18.47l33.12-16,33.12,16Z"/><path class="cls-1" d="M37.11,27.83A23.19,23.19,0,1,0,60.3,51,23.22,23.22,0,0,0,37.11,27.83Zm15.22,9a33.56,33.56,0,0,1-4.54,1.42,21,21,0,0,0-3.91-6.91A20.86,20.86,0,0,1,52.33,36.79ZM38.26,41.72a49.08,49.08,0,0,0,7.93-.8,36.94,36.94,0,0,1,1.32,8.94H38.26Zm0-2.32V30.29c2.91.68,5.49,3.87,7.19,8.41A48.41,48.41,0,0,1,38.26,39.4ZM36,30.29V39.4a48.41,48.41,0,0,1-7.19-.7C30.46,34.16,33,31,36,30.29Zm0,11.43v8.14H26.7A36.45,36.45,0,0,1,28,40.92,48.84,48.84,0,0,0,36,41.72ZM24.38,49.86H16.29a20.73,20.73,0,0,1,4.05-11.22,33,33,0,0,0,5.38,1.79A39.78,39.78,0,0,0,24.38,49.86Zm0,2.32a39.78,39.78,0,0,0,1.34,9.43,33.93,33.93,0,0,0-5.38,1.78,20.67,20.67,0,0,1-4.05-11.21Zm2.32,0H36v8.14a48.84,48.84,0,0,0-7.92.8A36.45,36.45,0,0,1,26.7,52.18ZM36,62.64v9.11c-2.91-.68-5.49-3.87-7.19-8.41A47.11,47.11,0,0,1,36,62.64Zm2.31,9.11V62.64a47.11,47.11,0,0,1,7.19.7C43.75,67.88,41.17,71.07,38.26,71.75Zm0-11.43V52.18h9.25a36.94,36.94,0,0,1-1.32,8.94A49.08,49.08,0,0,0,38.26,60.32Zm11.57-8.14h8.09a20.67,20.67,0,0,1-4.05,11.21,33.93,33.93,0,0,0-5.38-1.78A39.78,39.78,0,0,0,49.83,52.18Zm0-2.32a39.78,39.78,0,0,0-1.34-9.43,33,33,0,0,0,5.38-1.79,20.73,20.73,0,0,1,4.05,11.22ZM30.33,31.3a21,21,0,0,0-3.91,6.91,33.56,33.56,0,0,1-4.54-1.42A20.86,20.86,0,0,1,30.33,31.3Zm-8.45,34a32.19,32.19,0,0,1,4.54-1.42,21,21,0,0,0,3.91,6.91A20.86,20.86,0,0,1,21.88,65.25Zm22,5.49a21,21,0,0,0,3.91-6.91,32.19,32.19,0,0,1,4.54,1.42A20.86,20.86,0,0,1,43.88,70.74Z"/><rect class="cls-1" x="35.95" y="22.03" width="2.32" height="2.32"/><rect class="cls-1" x="31.31" y="22.03" width="2.32" height="2.32"/><rect class="cls-1" x="40.58" y="22.03" width="2.32" height="2.32"/></g></g></svg>