<svg id="Layer_1" data-name="Layer 1" xmlns="http://www.w3.org/2000/svg" viewBox="0 0 500 500"><title>Artboard 1</title><rect x="165.59" y="158.77" width="15.35" height="15.35"/><rect x="196.29" y="158.77" width="15.35" height="15.35"/><rect x="226.98" y="158.77" width="15.35" height="15.35"/><rect x="257.67" y="158.77" width="15.35" height="15.35"/><rect x="288.37" y="158.77" width="15.35" height="15.35"/><rect x="319.06" y="158.77" width="15.35" height="15.35"/><rect x="180.94" y="189.47" width="15.35" height="15.35"/><rect x="211.63" y="189.47" width="15.35" height="15.35"/><rect x="242.33" y="189.47" width="15.35" height="15.35"/><rect x="273.02" y="189.47" width="15.35" height="15.35"/><rect x="303.71" y="189.47" width="15.35" height="15.35"/><rect x="196.29" y="220.16" width="15.35" height="15.35"/><rect x="226.98" y="220.16" width="15.35" height="15.35"/><rect x="257.67" y="220.16" width="15.35" height="15.35"/><rect x="288.37" y="220.16" width="15.35" height="15.35"/><rect x="211.63" y="250.85" width="15.35" height="15.35"/><rect x="242.33" y="250.85" width="15.35" height="15.35"/><rect x="273.02" y="250.85" width="15.35" height="15.35"/><rect x="226.98" y="281.54" width="15.35" height="15.35"/><rect x="257.67" y="281.54" width="15.35" height="15.35"/><rect x="242.33" y="312.24" width="15.35" height="15.34"/><path d="M93.37,83.74v50.41L204.23,355.82v47.09h15.35V361.69h60.84v41.23h15.35V355.82L406.63,134.15V83.74ZM391.28,99.09v25.58H108.72V99.09ZM283.35,346.34h-66.7L113.46,140H386.54Z"/><rect x="140.02" y="43.96" width="15.35" height="19.02"/><rect x="344.64" y="24.64" width="15.35" height="43.48"/><rect x="266.02" y="5" width="15.35" height="28.54"/><rect x="179.32" y="15.44" width="15.35" height="37.35"/><rect x="298.59" y="40.54" width="15.35" height="17.26"/><path d="M244.9,426h10.2a7.67,7.67,0,0,1,5.35,2.15,7.9,7.9,0,0,1,2.27,5.51l15.35-.05a23.27,23.27,0,0,0-6.73-16.27,23,23,0,0,0-13.65-6.52v-7.9H242.33v7.9a22.9,22.9,0,0,0-20.41,22.82,23,23,0,0,0,23,23h10.19a7.57,7.57,0,0,1,7.61,7.67,7.5,7.5,0,0,1-7.58,7.61H244.85a7.58,7.58,0,0,1-5.32-2.18,7.73,7.73,0,0,1-2.26-5.46H221.92a22.91,22.91,0,0,0,20.42,22.84V495h15.35v-7.88a22.68,22.68,0,0,0,13.77-6.67,23,23,0,0,0-16.37-39.17H244.91a7.65,7.65,0,0,1-5.47-13A7.76,7.76,0,0,1,244.9,426Z"/></svg>