<?xml version="1.0" encoding="utf-8"?>
<!-- Generator: Adobe Illustrator 22.1.0, SVG Export Plug-In . SVG Version: 6.00 Build 0)  -->
<svg version="1.1" id="Layer_1" xmlns="http://www.w3.org/2000/svg" xmlns:xlink="http://www.w3.org/1999/xlink" x="0px" y="0px"
	 viewBox="0 0 500 500" style="enable-background:new 0 0 500 500;" xml:space="preserve">
<style type="text/css">
	.st0{fill:#003851;}
</style>
<title>hub</title>
<g id="Layer_2_1_">
	<g id="Layer_1-2">
		<path class="st0" d="M465.4,360.6l-40.9-21c0.6-3,1.1-6.1,1.1-9.2c0-15.7-8.4-30.2-21.9-38.1v-85.2c13.6-7.8,21.9-22.3,21.9-38.1
			c0-3.1-0.3-6.2-1-9.2l41-21c3.6-1.8,5.1-6.3,3.2-9.8c-1.8-3.6-6.3-5.1-9.8-3.2l-39.8,20.3c-12.4-20.6-39.2-27.2-59.9-14.9
			L294,98.5c-2.2-19.6-17-35.3-36.4-38.7c0,0,0-0.4,0-0.6V22.8c0-4-3.2-7.4-7.4-7.4c-4,0-7.4,3.2-7.4,7.4l0,0v36.6c0,0,0,0.4,0,0.6
			c-19.5,3.2-34.4,19-36.4,38.7l-65.9,32.9c-20.6-12.4-47.5-5.7-59.9,14.9l-39.7-20.3c-3.6-1.8-8-0.4-9.8,3.2
			c-1.8,3.7-0.4,8,3.2,9.8l0,0l41,21c-0.6,3-1,6.1-1,9.2c0,15.7,8.4,30.2,21.9,38.1v85.2C82.4,300.3,74,314.8,74,330.5
			c0,3.1,0.3,6.2,1,9.2l-41,21c-3.6,1.8-5,6.3-3.2,9.8c1.3,2.5,3.8,4,6.5,4c1.2,0,2.3-0.3,3.4-0.9l39.8-20.2
			c12.4,20.6,39.2,27.2,59.9,14.9l65.9,32.9c2.2,19.6,17,35.3,36.4,38.7v37.3c0,4,3.2,7.4,7.4,7.4c4,0,7.4-3.2,7.4-7.4l0,0v-37.3
			c19.5-3.4,34.3-19.1,36.4-38.7l65.9-32.9c20.6,12.4,47.5,5.7,59.9-14.9l39.8,20.2c3.6,1.8,7.9,0.5,9.8-3c0-0.1,0.1-0.1,0.1-0.2
			c1.7-3.7,0.1-8.1-3.7-9.7C465.5,360.6,465.5,360.6,465.4,360.6z M388.9,287.1c-4.9-0.9-9.8-0.9-14.7,0v-74.6
			c4.9,0.9,9.8,0.9,14.7,0V287.1z M339.3,342c1.5,5.7,4.3,11.1,8,15.8l-54.9,27.5c-1.2-4.9-3.2-9.5-5.9-13.6L339.3,342z M337.9,326
			l-62.1,34.6l0,0c-15.4-11.4-36.4-11.4-51.8,0l0,0L162,326c-1.4-14.1-9.5-26.5-21.7-33.5v-85.2c12.2-7,20.3-19.6,21.7-33.5
			l62.4-34.6l0,0c15.4,11.4,36.4,11.4,51.8,0l0,0l61.8,34.6c1.4,14.1,9.5,26.6,21.8,33.5v85.2C347.4,299.6,339.3,312,337.9,326z
			 M160.2,342l53.2,29.6c-2.8,4.2-4.8,8.8-5.9,13.6l-55.2-27.5C156,353.1,158.7,347.8,160.2,342z M160.2,157.7
			c-1.5-5.7-4.3-11-8-15.7l54.9-27.5c1.2,4.9,3.2,9.5,5.9,13.6L160.2,157.7z M339.3,157.7l-53.2-29.5c2.7-4.2,4.8-8.8,5.9-13.6
			l54.9,27.5C343.4,146.7,340.8,152,339.3,157.7z M410.8,169.3c0,16.2-13.1,29.3-29.3,29.3s-29.3-13.1-29.3-29.3
			s13.1-29.3,29.3-29.3c0,0,0,0,0.1,0C397.7,140,410.8,153.2,410.8,169.3z M249.8,74.2c16.2,0,29.3,13.1,29.3,29.3
			s-13.1,29.3-29.3,29.3s-29.3-13.1-29.3-29.3c0,0,0,0,0-0.1C220.5,87.3,233.5,74.2,249.8,74.2z M117.9,140.1
			c16.2,0,29.3,13.1,29.4,29.3c0,16.2-13.1,29.3-29.3,29.4s-29.3-13.1-29.4-29.3c0,0,0,0,0-0.1C88.7,153.2,101.8,140.1,117.9,140.1
			L117.9,140.1z M110.6,212.7c4.9,0.9,9.8,0.9,14.7,0v74.6c-2.5-0.4-4.9-0.6-7.4-0.6c-2.5,0-4.9,0.2-7.4,0.6
			C110.6,287.2,110.6,212.7,110.6,212.7z M88.7,330.5c0-16.2,13.1-29.3,29.3-29.4c16.2-0.1,29.3,13.1,29.4,29.3
			c0,16.2-13.1,29.3-29.3,29.4H118C101.8,359.7,88.7,346.7,88.7,330.5z M249.8,425.7c-16.2,0-29.3-13.1-29.3-29.3
			c0-16.2,13.1-29.3,29.3-29.3s29.3,13.1,29.3,29.3l0,0C279,412.5,266,425.7,249.8,425.7z M381.6,359.8c-16.2,0-29.3-13.1-29.4-29.3
			c0-16.2,13.1-29.3,29.3-29.4c16.2-0.1,29.3,13.1,29.4,29.3v0.1C410.8,346.7,397.7,359.7,381.6,359.8z"/>
	</g>
</g>
</svg>
