<?xml version="1.0" encoding="utf-8"?>
<!-- Generator: Adobe Illustrator 22.1.0, SVG Export Plug-In . SVG Version: 6.00 Build 0)  -->
<svg version="1.1" id="Layer_1" xmlns="http://www.w3.org/2000/svg" xmlns:xlink="http://www.w3.org/1999/xlink" x="0px" y="0px"
	 viewBox="0 0 500 500" style="enable-background:new 0 0 500 500;" xml:space="preserve">
<style type="text/css">
	.st0{fill:#003851;}
</style>
<title>hub</title>
<g id="Layer_2_1_">
	<g id="Layer_1-2">
		<path class="st0" d="M473.1,364.6l-42.4-21.8c0.6-3.1,1.1-6.3,1.1-9.5c0-16.3-8.7-31.3-22.7-39.5v-88.3
			c14.1-8.1,22.7-23.1,22.7-39.5c0-3.2-0.3-6.4-1-9.5l42.5-21.8c3.7-1.9,5.3-6.5,3.3-10.2c-1.9-3.7-6.5-5.3-10.2-3.3l-41.2,21
			c-12.8-21.3-40.6-28.2-62-15.4l-67.6-33.9c-2.3-20.3-17.6-36.6-37.7-40.1c0,0,0-0.4,0-0.6V14.7c0-4.1-3.3-7.7-7.7-7.7
			c-4.1,0-7.7,3.3-7.7,7.7l0,0v37.9c0,0,0,0.4,0,0.6c-20.2,3.3-35.6,19.7-37.7,40.1l-68.3,34.1c-21.3-12.8-49.2-5.9-62,15.4
			l-41.1-21c-3.7-1.9-8.3-0.4-10.2,3.3c-1.9,3.8-0.4,8.3,3.3,10.2l0,0L69,157c-0.6,3.1-1,6.3-1,9.5c0,16.3,8.7,31.3,22.7,39.5v88.3
			c-14.3,7.9-23,22.9-23,39.2c0,3.2,0.3,6.4,1,9.5l-42.5,21.8c-3.7,1.9-5.2,6.5-3.3,10.2c1.3,2.6,3.9,4.1,6.7,4.1
			c1.2,0,2.4-0.3,3.5-0.9l41.2-20.9c12.8,21.3,40.6,28.2,62,15.4l68.3,34.1c2.3,20.3,17.6,36.6,37.7,40.1v38.6
			c0,4.1,3.3,7.7,7.7,7.7c4.1,0,7.7-3.3,7.7-7.7l0,0v-38.6c20.2-3.5,35.5-19.8,37.7-40.1l68.3-34.1c21.3,12.8,49.2,5.9,62-15.4
			L467,378c3.7,1.9,8.2,0.5,10.2-3.1c0-0.1,0.1-0.1,0.1-0.2c1.8-3.8,0.1-8.4-3.8-10C473.2,364.6,473.2,364.6,473.1,364.6z
			 M393.8,288.4c-5.1-0.9-10.2-0.9-15.2,0v-77.3c5.1,0.9,10.2,0.9,15.2,0V288.4z M342.4,345.3c1.6,5.9,4.5,11.5,8.3,16.4l-56.9,28.5
			c-1.2-5.1-3.3-9.8-6.1-14.1L342.4,345.3z M341,328.7l-64.3,35.8l0,0c-16-11.8-37.7-11.8-53.7,0l0,0l-64.2-35.8
			c-1.5-14.6-9.8-27.4-22.5-34.7v-88.3c12.6-7.3,21-20.3,22.5-34.7l64.6-35.8l0,0c16,11.8,37.7,11.8,53.7,0l0,0l64,35.8
			c1.5,14.6,9.8,27.6,22.6,34.7V294C350.8,301.4,342.4,314.2,341,328.7z M156.9,345.3L212,376c-2.9,4.4-5,9.1-6.1,14.1l-57.2-28.5
			C152.6,356.8,155.4,351.3,156.9,345.3z M156.9,154.4c-1.6-5.9-4.5-11.4-8.3-16.3l56.9-28.5c1.2,5.1,3.3,9.8,6.1,14.1L156.9,154.4z
			 M342.4,154.4l-55.1-30.6c2.8-4.4,5-9.1,6.1-14.1l56.9,28.5C346.7,143,344,148.5,342.4,154.4z M416.5,166.4
			c0,16.8-13.6,30.3-30.3,30.3s-30.3-13.6-30.3-30.3s13.6-30.3,30.3-30.3c0,0,0,0,0.1,0C402.9,136.1,416.5,149.7,416.5,166.4z
			 M249.7,67.9c16.8,0,30.3,13.6,30.3,30.3s-13.6,30.3-30.3,30.3s-30.3-13.6-30.3-30.3c0,0,0,0,0-0.1
			C219.4,81.5,232.9,67.9,249.7,67.9z M113.1,136.2c16.8,0,30.3,13.6,30.5,30.3c0,16.8-13.6,30.3-30.3,30.5s-30.3-13.6-30.5-30.3
			c0,0,0,0,0-0.1C82.9,149.7,96.4,136.2,113.1,136.2L113.1,136.2z M105.6,211.4c5.1,0.9,10.2,0.9,15.2,0v77.3
			c-2.6-0.4-5.1-0.6-7.7-0.6c-2.6,0-5.1,0.2-7.7,0.6C105.6,288.5,105.6,211.4,105.6,211.4z M82.9,333.4c0-16.8,13.6-30.3,30.3-30.5
			s30.3,13.6,30.5,30.3c0,16.8-13.6,30.3-30.3,30.5h-0.1C96.4,363.6,82.9,350.2,82.9,333.4z M249.7,432c-16.8,0-30.3-13.6-30.3-30.3
			c0-16.8,13.6-30.3,30.3-30.3s30.3,13.6,30.3,30.3l0,0C280,418.3,266.5,432,249.7,432z M386.3,363.7c-16.8,0-30.3-13.6-30.5-30.3
			c0-16.8,13.6-30.3,30.3-30.5c16.8-0.1,30.3,13.6,30.5,30.3v0.1C416.5,350.2,402.9,363.6,386.3,363.7z"/>
	</g>
</g>
</svg>
