<svg xmlns="http://www.w3.org/2000/svg" viewBox="0 0 73.32 78.21"><defs><style>.cls-1{fill:#003851;}</style></defs><title>hub</title><g id="Layer_2" data-name="Layer 2"><g id="Layer_1-2" data-name="Layer 1"><path class="cls-1" d="M72.65,57.57l-6.83-3.49A7,7,0,0,0,66,52.55a7.33,7.33,0,0,0-3.67-6.34V32A7.33,7.33,0,0,0,66,25.66a7,7,0,0,0-.17-1.53l6.83-3.49a1.22,1.22,0,1,0-1.11-2.18l-6.63,3.39a7.3,7.3,0,0,0-10-2.48L44,13.89a7.34,7.34,0,0,0-6.08-6.45s0-.07,0-.11V1.22a1.22,1.22,0,1,0-2.44,0V7.33s0,.07,0,.11a7.34,7.34,0,0,0-6.08,6.45l-11,5.48a7.3,7.3,0,0,0-10,2.48L1.78,18.46A1.22,1.22,0,1,0,.67,20.64L7.5,24.13a7,7,0,0,0-.17,1.53A7.33,7.33,0,0,0,11,32V46.21a7.33,7.33,0,0,0-3.67,6.34,7,7,0,0,0,.17,1.53L.67,57.57a1.23,1.23,0,0,0-.54,1.64,1.24,1.24,0,0,0,1.09.67,1.25,1.25,0,0,0,.56-.14l6.63-3.38a7.3,7.3,0,0,0,10,2.48l11,5.48a7.37,7.37,0,0,0,6.07,6.45V77a1.22,1.22,0,1,0,2.44,0V70.77A7.37,7.37,0,0,0,44,64.32l11-5.48a7.3,7.3,0,0,0,10-2.48l6.63,3.38a1.21,1.21,0,0,0,1.65-.53A1.23,1.23,0,0,0,72.65,57.57ZM59.88,45.32a6.88,6.88,0,0,0-2.45,0V32.88a6.88,6.88,0,0,0,2.45,0Zm-8.29,9.15a7.35,7.35,0,0,0,1.33,2.63l-9.17,4.59a7.28,7.28,0,0,0-1-2.28Zm-.23-2.66L41,57.59l0,0a7.28,7.28,0,0,0-8.64,0l0,0L22,51.81a7.31,7.31,0,0,0-3.63-5.6V32A7.31,7.31,0,0,0,22,26.4l10.41-5.78,0,0a7.28,7.28,0,0,0,8.64,0l0,0L51.36,26.4A7.31,7.31,0,0,0,55,32V46.21A7.31,7.31,0,0,0,51.36,51.81ZM21.73,54.47l8.88,4.94a7.28,7.28,0,0,0-1,2.28L20.4,57.1A7.35,7.35,0,0,0,21.73,54.47Zm0-30.74a7.3,7.3,0,0,0-1.33-2.62l9.17-4.59a7.49,7.49,0,0,0,1,2.28Zm29.86,0L42.71,18.8a7.49,7.49,0,0,0,1-2.28l9.17,4.59A7.3,7.3,0,0,0,51.59,23.73Zm11.95,1.93a4.89,4.89,0,1,1-4.88-4.89A4.89,4.89,0,0,1,63.54,25.66ZM36.66,9.78a4.89,4.89,0,1,1-4.89,4.88A4.89,4.89,0,0,1,36.66,9.78Zm-22,11a4.89,4.89,0,1,1-4.88,4.89A4.9,4.9,0,0,1,14.66,20.77ZM13.44,32.88a6.88,6.88,0,0,0,2.45,0V45.32a8.27,8.27,0,0,0-1.23-.11,8.26,8.26,0,0,0-1.22.11ZM9.78,52.55a4.89,4.89,0,1,1,4.88,4.88A4.89,4.89,0,0,1,9.78,52.55ZM36.66,68.43a4.89,4.89,0,1,1,4.89-4.89A4.89,4.89,0,0,1,36.66,68.43Zm22-11a4.89,4.89,0,1,1,4.88-4.88A4.89,4.89,0,0,1,58.66,57.43Z"/></g></g></svg>