<svg id="Layer_1" data-name="Layer 1" xmlns="http://www.w3.org/2000/svg" viewBox="0 0 1000 1000"><title>Artboard 9</title><path d="M225.49,761H449.81V456.51H145.35V761h80.14Zm0-30.11v-8a35.84,35.84,0,0,1,35.8-35.78h72.56a35.81,35.81,0,0,1,35.82,35.78v8Zm-50,0V486.62H419.7V730.86H399.79v-8A65.92,65.92,0,0,0,333.86,657H261.3a65.94,65.94,0,0,0-65.91,65.9v8Z"/><path d="M297.58,645.3a65.9,65.9,0,1,0-65.9-65.92A66,66,0,0,0,297.58,645.3Zm0-101.7a35.79,35.79,0,1,1-35.78,35.78A35.82,35.82,0,0,1,297.58,543.61Z"/><path d="M568.59,257.43V212.27a68.59,68.59,0,0,0-137.17,0v45.17H50V856.32H950V257.43ZM461.52,212.27a38.48,38.48,0,0,1,77,0V311h-77ZM919.89,826.21H80.11V394.61H919.89ZM80.11,364.5v-77h351.3v53.53H568.59V287.55h351.3v77Z"/><rect x="530.11" y="593.68" width="326.21" height="30.11"/><rect x="530.11" y="662.27" width="326.21" height="30.11"/><rect x="530.11" y="730.86" width="163.1" height="30.11"/><path d="M856.32,456.51H530.11v98.7H856.32Zm-30.11,68.59h-266V486.62h266Z"/><circle cx="500" cy="212.27" r="15.06"/></svg>