<svg id="Layer_1" data-name="Layer 1" xmlns="http://www.w3.org/2000/svg" viewBox="0 0 500 500"><title>Artboard 16</title><path d="M368,274.41A25.63,25.63,0,0,0,349.73,282q-.73.73-1.4,1.51-.65-.76-1.37-1.49a25.81,25.81,0,0,0-36.56,0q-.73.72-1.39,1.49-.65-.76-1.37-1.49a25.87,25.87,0,0,0-31.76-3.81V249.07a48.33,48.33,0,1,0-51.76,0V359.36a104.09,104.09,0,0,0-53.53-14.64,25.88,25.88,0,0,0,0,51.76A53.59,53.59,0,0,1,224.12,450h12.43a66,66,0,0,0-66-66,13.45,13.45,0,0,1,0-26.9,91.87,91.87,0,0,1,56,18.84,6.21,6.21,0,0,0,10-5V208.29a13.45,13.45,0,0,1,26.9,0v92a6.22,6.22,0,0,0,12.43,0,13.44,13.44,0,1,1,26.88,0h0a6.22,6.22,0,0,0,12.43,0,13.45,13.45,0,1,1,26.89,0,6.22,6.22,0,0,0,12.43,0v0a13.47,13.47,0,0,1,26.93,0V450h12.43V300.32A25.92,25.92,0,0,0,368,274.41Zm-118-92a25.87,25.87,0,0,0-25.87,25.88v24.84a35.92,35.92,0,1,1,51.76,0V208.29A25.88,25.88,0,0,0,250,182.41Z"/><path d="M289.53,160l8.79,8.79L318.07,149V112.61a21.41,21.41,0,1,0-12.43,0v31.26Zm13.34-67.85a9,9,0,1,1,9,9A9,9,0,0,1,302.88,92.13Z"/><rect x="243.79" y="108.79" width="12.43" height="11.96"/><rect x="243.79" y="132.7" width="12.43" height="11.96"/><rect x="313.62" y="202.07" width="11.96" height="12.43"/><rect x="337.54" y="202.07" width="11.96" height="12.43"/><rect x="150.5" y="202.07" width="11.96" height="12.43"/><rect x="174.42" y="202.07" width="11.96" height="12.43"/><path d="M181.94,112.61V149l19.72,19.74,8.79-8.78-16.08-16.1V112.61a21.41,21.41,0,1,0-12.43,0Zm6.21-29.46a9,9,0,1,1-9,9A9,9,0,0,1,188.15,83.15Z"/><path d="M250,92.82A21.41,21.41,0,1,0,228.6,71.41,21.43,21.43,0,0,0,250,92.82Zm0-30.39a9,9,0,1,1-9,9A9,9,0,0,1,250,62.43Z"/><path d="M386.88,186.88a21.41,21.41,0,1,0,21.41,21.41A21.43,21.43,0,0,0,386.88,186.88Zm0,30.39a9,9,0,1,1,9-9A9,9,0,0,1,386.88,217.27Z"/><path d="M113.12,186.88a21.41,21.41,0,1,0,21.41,21.41A21.43,21.43,0,0,0,113.12,186.88Zm0,30.39a9,9,0,1,1,9-9A9,9,0,0,1,113.12,217.27Z"/></svg>