<svg xmlns="http://www.w3.org/2000/svg" viewBox="0 0 173.37 152.08"><title>integration-pack</title><g id="Layer_2" data-name="Layer 2"><g id="Layer_1-2" data-name="Layer 1"><rect x="77.41" y="84.39" width="18.55" height="5.22"/><rect x="48.44" y="84.39" width="18.55" height="5.22"/><rect x="106.38" y="84.39" width="18.55" height="5.22"/><rect x="66.99" y="28.91" width="39.39" height="5.22"/><rect x="80.89" y="133.49" width="11.6" height="5.22"/><path d="M141.4,106.73v13.38H124.64V100h22V0H26.75V100h22v20.15H32V106.73H0v32H32V125.33h22V100H84.07v20.15H70.7v32h32v-32H89.29V100h30.14v25.37h22V138.7h32v-32ZM26.75,133.49H5.22V112H26.75Zm70.7,13.37H75.92V125.33H97.45Zm44-72.81H32V44.47H141.4ZM32,5.22H141.4V18.56H32Zm0,18.56H141.4V39.26H32Zm0,55.48H141.4V94.74H32Zm136.18,54.23H146.62V112h21.53Z"/><rect x="151.59" y="120.11" width="11.6" height="5.22"/><rect x="10.19" y="120.11" width="11.6" height="5.22"/><rect x="39.51" y="9.28" width="5.22" height="5.22"/><rect x="49.94" y="9.28" width="5.22" height="5.22"/><rect x="60.38" y="9.28" width="5.22" height="5.22"/></g></g></svg>