<svg id="Layer_1" data-name="Layer 1" xmlns="http://www.w3.org/2000/svg" viewBox="0 0 1000 1000"><title>Artboard 4</title><rect x="457.81" y="612.5" width="28.13" height="337.5"/><rect x="514.06" y="612.5" width="28.13" height="337.5"/><polygon points="429.69 893.75 50 893.75 50 865.63 401.56 865.63 401.56 668.75 429.69 668.75 429.69 893.75"/><rect x="345.31" y="781.25" width="28.13" height="98.44"/><path d="M767.19,640.63H682.81V612.5h84.38c85.29,0,154.69-69.39,154.69-154.69,0-80.17-54.41-140.62-126.56-140.62H781.25V303.13c0-54.38-29.55-112.5-112.5-112.5H646.4l-4-7.25C605.88,117.47,536.88,78.13,457.81,78.13c-116.31,0-210.94,94.62-210.94,210.94v14.06H232.81c-85.29,0-154.69,69.39-154.69,154.69S147.52,612.5,232.81,612.5h84.38v28.13H232.81C132,640.63,50,558.61,50,457.81c0-96.2,74.69-175.29,169.13-182.3C226.18,150,330.54,50,457.81,50c86.52,0,162.52,41.89,205,112.5h5.95c80.85,0,134.62,49.44,140.15,127.14,81.34,7,141.1,77,141.1,168.17C950,558.61,868,640.63,767.19,640.63Z"/><polygon points="950 893.75 570.31 893.75 570.31 668.75 598.44 668.75 598.44 865.63 950 865.63 950 893.75"/><rect x="359.38" y="443.75" width="281.25" height="28.12"/><path d="M500,626.56c-93,0-168.75-75.7-168.75-168.75S407,289.06,500,289.06s168.75,75.7,168.75,168.75S593,626.56,500,626.56Zm0-309.37c-77.54,0-140.62,63.09-140.62,140.63S422.46,598.44,500,598.44s140.63-63.09,140.63-140.62S577.54,317.19,500,317.19Z"/><rect x="485.94" y="303.12" width="28.12" height="309.37"/><path d="M500,626.56c-55.2,0-98.44-74.13-98.44-168.75S444.8,289.06,500,289.06s98.44,74.13,98.44,168.75S555.2,626.56,500,626.56Zm0-309.37c-38.12,0-70.31,64.39-70.31,140.63S461.88,598.44,500,598.44,570.31,534,570.31,457.81,538.11,317.19,500,317.19Z"/><rect x="696.88" y="443.75" width="28.13" height="28.12"/><rect x="696.88" y="500" width="28.13" height="28.13"/><rect x="696.88" y="387.5" width="28.13" height="28.13"/><rect x="753.13" y="443.75" width="28.12" height="28.12"/><rect x="753.13" y="500" width="28.12" height="28.13"/><rect x="218.75" y="443.75" width="28.13" height="28.12"/><rect x="218.75" y="500" width="28.13" height="28.13"/><rect x="162.5" y="443.75" width="28.13" height="28.12"/><rect x="275" y="443.75" width="28.12" height="28.12"/><rect x="275" y="387.5" width="28.12" height="28.13"/><rect x="218.75" y="387.5" width="28.13" height="28.13"/><rect x="753.13" y="387.5" width="28.12" height="28.13"/><rect x="275" y="500" width="28.12" height="28.13"/><rect x="809.37" y="443.75" width="28.13" height="28.12"/><rect x="345.31" y="725" width="28.13" height="28.13"/><rect x="345.31" y="612.5" width="28.13" height="28.13"/><rect x="345.31" y="668.75" width="28.13" height="28.13"/><rect x="626.56" y="781.25" width="28.13" height="98.44"/><rect x="626.56" y="725" width="28.13" height="28.13"/><rect x="626.56" y="612.5" width="28.13" height="28.13"/><rect x="626.56" y="668.75" width="28.13" height="28.13"/></svg>