<svg id="Layer_1" data-name="Layer 1" xmlns="http://www.w3.org/2000/svg" viewBox="0 0 500 500"><title>Artboard 21</title><g id="IoT"><path d="M216.85,349.24a15.51,15.51,0,0,1-15.63,15.63,15.74,15.74,0,0,1-15.63-15.63,15.52,15.52,0,0,1,15.63-15.63,15.75,15.75,0,0,1,15.63,15.63"/><path d="M394.44,246a18,18,0,0,1-18.08,18.08A18.22,18.22,0,0,1,358.28,246a18,18,0,0,1,18.08-18.08c10.1.43,18.08,8.41,18.08,18.08"/><path d="M230.45,132.68a18,18,0,0,1-18.08,18.08,18.22,18.22,0,0,1-18.08-18.08,18.08,18.08,0,1,1,36.16,0"/><path d="M155.53,257.15a25.6,25.6,0,0,1-25.79,25.79,26,26,0,0,1-25.79-25.79,25.6,25.6,0,0,1,25.79-25.79c14.4.6,25.79,12,25.79,25.79"/><path d="M113.26,291.42l-4.89-2.52c-10.74,20.84-15.24,34.56-17.68,43.88q1.88,3.61,3.92,7.12C96.65,331,100.32,316.54,113.26,291.42Z"/><path d="M170.85,360.72a457,457,0,0,1-49.54,14.43q3.26,3.35,6.68,6.53a470.67,470.67,0,0,0,45.47-13.55Z"/><path d="M402.77,264.65l-5.9,5.19c12.19,13.87,20.45,26,24.08,35.15q1.8-5.59,3.24-11.33Q417.11,281,402.77,264.65Z"/><path d="M71.08,264.42c8.6-.94,17.09-1.69,25.22-2.15l-.43-7.85c-8.15.45-16.65,1.21-25.25,2.14C70.71,259.2,70.87,261.81,71.08,264.42Z"/><path d="M422.9,201.6c-8,7.88-15.69,15.27-22.5,21.54l5.32,5.78c5.92-5.45,12.53-11.76,19.4-18.49Q424.12,206,422.9,201.6Z"/><path d="M142.68,109.9c13,2.49,21.67,4.14,37.08,10.44l3-7.27c-14.81-6.06-24-8.07-35.47-10.29q-4.37,3.05-8.54,6.36Z"/><path d="M390.13,137.8c-44.74.25-84.56,5.93-119.8,17.17-7.22-4.67-14.56-9.15-22-13.31l-3.84,6.85c5.47,3.07,10.91,6.33,16.29,9.7A267.67,267.67,0,0,0,199,189.47c1.85-8.61,4-17,6.38-24.92l-7.52-2.29a324.28,324.28,0,0,0-8.22,33.87,258.3,258.3,0,0,0-32.48,29.07l4,3.78a253.36,253.36,0,0,1,27.09-24.84,339.46,339.46,0,0,0-4.84,54.7c0,.31,0,.62,0,.94-5.92-1.19-11.93-2.22-18.06-3l-1.05,7.79c6.55.89,13,2,19.26,3.31a311.93,311.93,0,0,0,6.65,54l7.69-1.6a305.57,305.57,0,0,1-6.41-50.68c29.58,7.08,56.2,18.89,79.38,35.31,2.61,1.85,5.18,3.79,7.72,5.77-15.19,8.72-31.9,17.36-51.15,26.54l3.38,7.09c20.55-9.8,38.23-19,54.3-28.34a233.67,233.67,0,0,1,32.37,33.38,288.57,288.57,0,0,1,31.71,50.3q3.31-2.2,6.51-4.55a295.64,295.64,0,0,0-32.07-50.64,242.17,242.17,0,0,0-31.38-32.71,469.44,469.44,0,0,0,58.62-41.67l-5-6.05a462.08,462.08,0,0,1-60,42.41c-3.43-2.74-6.9-5.41-10.46-7.93-24.53-17.38-52.75-29.77-84.12-37,0-.88,0-1.76,0-2.64a337.22,337.22,0,0,1,6.17-61.61A262.43,262.43,0,0,1,266.67,162c31.61,20.54,60.89,45.07,83.41,63.94l5-6c-21.43-18-48.94-41-78.89-61,34.78-10.54,74.09-15.65,118.17-15.56C393,141.44,391.58,139.61,390.13,137.8Z"/><path d="M250.73,70.47C242.25,81.06,233.51,93,226.94,103l6.58,4.3A440.22,440.22,0,0,1,260.6,70.79C257.33,70.6,254,70.48,250.73,70.47Z"/><path d="M217.41,378.31l-7.15,3.25A306.76,306.76,0,0,0,237.2,429q4.91.35,9.9.43A300.71,300.71,0,0,1,217.41,378.31Z"/><path d="M250,450a199.39,199.39,0,1,1,77.85-15.72A198.76,198.76,0,0,1,250,450Zm0-390.57a190,190,0,1,0,74.18,15A189.38,189.38,0,0,0,250,59.43Z"/></g></svg>