<?xml version="1.0" encoding="utf-8"?>
<!-- Generator: Adobe Illustrator 22.1.0, SVG Export Plug-In . SVG Version: 6.00 Build 0)  -->
<svg version="1.1" id="_x34_5_x5F_leadership_x5F_approach"
	 xmlns="http://www.w3.org/2000/svg" xmlns:xlink="http://www.w3.org/1999/xlink" x="0px" y="0px" viewBox="0 0 500 500"
	 style="enable-background:new 0 0 500 500;" xml:space="preserve">
<style type="text/css">
	.st0{fill:#222829;}
</style>
<g>
	<path class="st0" d="M302.3,142.5h78.5c1.8,0,3.6-0.7,4.9-2.1s2.1-3.1,2.1-4.9v-6.9l52,33.1l-52,33.1v-7c0-1.8-0.7-3.6-2.1-4.9
		c-1.3-1.3-3.1-2.1-4.9-2.1H250v14l123.8,0l0,12.7c0,2.5,1.4,4.9,3.6,6.1c2.2,1.2,5,1.1,7.1-0.2l72-45.8c2-1.3,3.2-3.5,3.2-5.9
		c0-2.4-1.2-4.6-3.2-5.9l-72-45.8c-2.1-1.4-4.9-1.5-7.1-0.2c-2.2,1.2-3.6,3.6-3.6,6.1v12.6l-71.5,0V142.5L302.3,142.5z"/>
	<polyline class="st0" points="105.6,299.1 105.6,443 119.6,443 119.6,299.1 	"/>
	<polyline class="st0" points="105.6,155.1 105.6,168.2 119.6,168.2 119.6,155.1 	"/>
	<polyline class="st0" points="73.4,286.4 132.2,286.4 132.2,272.4 73.4,272.4 	"/>
	<polyline class="st0" points="66.4,292.5 66.4,443 80.4,443 80.4,292.5 	"/>
	<path class="st0" d="M289.3,128.5H73.4c-4.6,0-9,0.9-12.9,2.6c-6,2.5-11,6.7-14.6,12c-3.6,5.3-5.7,11.7-5.7,18.6v137.8h40.2V181.3
		h-14l0,104.2H54.2V161.7c0-2.7,0.5-5.2,1.5-7.5c1.4-3.4,3.9-6.4,6.9-8.4c3.1-2.1,6.7-3.3,10.7-3.3h215.9V128.5L289.3,128.5z"/>
	<path class="st0" d="M158.9,443V187.8c0-2.7,0.5-5.2,1.5-7.5c1.4-3.4,3.9-6.4,6.9-8.4c3.1-2.1,6.7-3.3,10.7-3.3h183.2v-14l-183.2,0
		c-4.6,0-9,0.9-12.9,2.6c-6,2.5-11,6.7-14.6,12c-3.6,5.3-5.7,11.7-5.7,18.6V443H158.9L158.9,443z"/>
	<path class="st0" d="M112.6,57v7c2.7,0,5.2,0.5,7.5,1.5c3.4,1.5,6.4,3.9,8.5,7c2.1,3.1,3.3,6.7,3.3,10.7c0,2.7-0.5,5.2-1.5,7.5
		c-1.5,3.4-3.9,6.4-7,8.5c-3.1,2.1-6.7,3.3-10.7,3.3c-2.7,0-5.2-0.5-7.5-1.5c-3.4-1.5-6.4-3.9-8.5-7c-2.1-3.1-3.3-6.7-3.3-10.7
		c0-2.7,0.5-5.2,1.5-7.5c1.5-3.4,3.9-6.4,7-8.5c3.1-2.1,6.7-3.3,10.7-3.3V57v-7c-4.6,0-8.9,0.9-12.9,2.6c-6,2.5-11,6.7-14.6,12
		c-3.6,5.3-5.7,11.7-5.7,18.6c0,4.6,0.9,8.9,2.6,12.9c2.5,6,6.7,11,12,14.6c5.3,3.6,11.7,5.7,18.6,5.7c4.6,0,8.9-0.9,12.9-2.6
		c6-2.5,11-6.7,14.6-12c3.6-5.3,5.7-11.7,5.7-18.6c0-4.6-0.9-8.9-2.6-12.9c-2.5-6-6.7-11-12-14.6c-5.3-3.6-11.7-5.7-18.6-5.7V57z"/>
	<polyline class="st0" points="387.8,187.8 387.8,155.1 373.8,155.1 373.8,187.8 	"/>
	<path class="st0" d="M171.5,253.7h143.9c1.8,0,3.6-0.7,4.9-2.1c1.3-1.3,2.1-3.1,2.1-4.9v-6.9l52,33.1l-52,33.1v-6.9
		c0-1.8-0.7-3.6-2.1-4.9s-3.1-2.1-4.9-2.1H171.5v14h136.9l0,12.6c0,2.5,1.4,4.9,3.6,6.1c2.2,1.2,5,1.1,7.1-0.2l72-45.8
		c2-1.3,3.2-3.5,3.2-5.9c0-2.4-1.2-4.6-3.2-5.9l-72-45.8c-2.1-1.4-4.9-1.5-7.1-0.2c-2.2,1.2-3.6,3.6-3.6,6.1v12.6l-136.9,0V253.7
		L171.5,253.7z"/>
	<polyline class="st0" points="322.4,299.1 322.4,266.4 308.4,266.4 308.4,299.1 	"/>
	<path class="st0" d="M171.5,364.9H250c1.8,0,3.6-0.7,4.9-2.1c1.3-1.3,2.1-3.1,2.1-4.9V351l52,33.1l-52,33.1l0-6.9
		c0-1.8-0.7-3.6-2.1-4.9c-1.3-1.3-3.1-2.1-4.9-2.1h-78.5v14H243l0,12.6c0,2.5,1.4,4.9,3.6,6.1c2.2,1.2,5,1.1,7.1-0.2l72-45.8
		c2-1.3,3.2-3.5,3.2-5.9c0-2.4-1.2-4.6-3.2-5.9l-72-45.8c-2.1-1.4-4.9-1.5-7.1-0.2c-2.2,1.2-3.6,3.6-3.6,6.1v12.6h-71.5V364.9
		L171.5,364.9z"/>
	<polyline class="st0" points="257,410.3 257,377.6 243,377.6 243,410.3 	"/>
	<polyline class="st0" points="171.5,194.8 184.6,194.8 184.6,180.8 171.5,180.8 	"/>
	<polyline class="st0" points="197.7,194.8 210.7,194.8 210.7,180.8 197.7,180.8 	"/>
	<polyline class="st0" points="223.8,194.8 236.9,194.8 236.9,180.8 223.8,180.8 	"/>
</g>
</svg>
