<?xml version="1.0" encoding="iso-8859-1"?>
<!-- Generator: Adobe Illustrator 17.0.0, SVG Export Plug-In . SVG Version: 6.00 Build 0)  -->
<!DOCTYPE svg PUBLIC "-//W3C//DTD SVG 1.1//EN" "http://www.w3.org/Graphics/SVG/1.1/DTD/svg11.dtd">
<svg version="1.1" id="_x34_5_x5F_leadership_x5F_approach"
	 xmlns="http://www.w3.org/2000/svg" xmlns:xlink="http://www.w3.org/1999/xlink" x="0px" y="0px" width="64px" height="60px"
	 viewBox="0 0 64 60" style="enable-background:new 0 0 64 60;" xml:space="preserve">
<g>
	<polyline style="fill:none;stroke:#222829;stroke-width:2;stroke-linejoin:round;stroke-miterlimit:10;" points="40,12.999 
		52,12.999 52,10 63,17 52,24 52,20.999 32,20.999 	"/>
	<g>
		<g>
			<line style="fill:none;stroke:#222829;stroke-width:2;stroke-miterlimit:10;" x1="11" y1="37.999" x2="11" y2="59.999"/>
			<line style="fill:none;stroke:#222829;stroke-width:2;stroke-miterlimit:10;" x1="11" y1="15.999" x2="11" y2="17.999"/>
			<line style="fill:none;stroke:#222829;stroke-width:2;stroke-miterlimit:10;" x1="5" y1="34.999" x2="14" y2="34.999"/>
			<line style="fill:none;stroke:#222829;stroke-width:2;stroke-miterlimit:10;" x1="5" y1="36.999" x2="5" y2="59.999"/>
			<path style="fill:none;stroke:#222829;stroke-width:2;stroke-miterlimit:10;" d="M38,12.999H5c-2.209,0-4,1.792-4,4.001v19.999h4
				v-17"/>
			<path style="fill:none;stroke:#222829;stroke-width:2;stroke-miterlimit:10;" d="M17,59.999V21c0-2.209,1.791-4.001,4-4.001h28"
				/>
			<circle style="fill:none;stroke:#222829;stroke-width:2;stroke-miterlimit:10;" cx="11" cy="5" r="4"/>
		</g>
	</g>
	
		<line style="fill:none;stroke:#222829;stroke-width:2;stroke-linejoin:round;stroke-miterlimit:10;" x1="52" y1="20.999" x2="52" y2="15.999"/>
	<polyline style="fill:none;stroke:#222829;stroke-width:2;stroke-linejoin:round;stroke-miterlimit:10;" points="20,29.999 
		42,29.999 42,27 53,34 42,41 42,37.999 20,37.999 	"/>
	
		<line style="fill:none;stroke:#222829;stroke-width:2;stroke-linejoin:round;stroke-miterlimit:10;" x1="42" y1="37.999" x2="42" y2="32.999"/>
	<polyline style="fill:none;stroke:#222829;stroke-width:2;stroke-linejoin:round;stroke-miterlimit:10;" points="20,46.999 
		32,46.999 32,44 43,51 32,58 32,54.999 20,54.999 	"/>
	
		<line style="fill:none;stroke:#222829;stroke-width:2;stroke-linejoin:round;stroke-miterlimit:10;" x1="32" y1="54.999" x2="32" y2="49.999"/>
	
		<line style="fill:none;stroke:#222829;stroke-width:2;stroke-linejoin:round;stroke-miterlimit:10;" x1="20" y1="20.999" x2="22" y2="20.999"/>
	
		<line style="fill:none;stroke:#222829;stroke-width:2;stroke-linejoin:round;stroke-miterlimit:10;" x1="24" y1="20.999" x2="26" y2="20.999"/>
	
		<line style="fill:none;stroke:#222829;stroke-width:2;stroke-linejoin:round;stroke-miterlimit:10;" x1="28" y1="20.999" x2="30" y2="20.999"/>
</g>
</svg>
