<?xml version="1.0" encoding="utf-8"?>
<!-- Generator: Adobe Illustrator 22.1.0, SVG Export Plug-In . SVG Version: 6.00 Build 0)  -->
<svg version="1.1" id="_x30_1_x5F_legal_x5F_documents"
	 xmlns="http://www.w3.org/2000/svg" xmlns:xlink="http://www.w3.org/1999/xlink" x="0px" y="0px" viewBox="0 0 500 500"
	 style="enable-background:new 0 0 500 500;" xml:space="preserve">
<style type="text/css">
	.st0{fill:#222829;}
</style>
<g>
	<polygon class="st0" points="432.4,98.3 389.1,98.3 389.1,55 375.1,55 375.1,112.3 432.4,112.3 432.4,98.3 	"/>
	<path class="st0" d="M243.7,387.7h-68.5V62h204l46.2,46.2v279.5h-68.5v14h75.5c1.8,0,3.6-0.7,4.9-2.1s2.1-3.1,2.1-4.9V105.3
		c0-1.8-0.7-3.6-2.1-4.9L387,50.1c-1.3-1.3-3.1-2.1-4.9-2.1H168.2c-1.8,0-3.6,0.7-4.9,2.1s-2.1,3.1-2.1,4.9v339.7
		c0,1.8,0.7,3.6,2.1,4.9s3.1,2.1,4.9,2.1h75.5V387.7L243.7,387.7z"/>
	<path class="st0" d="M331.1,369.5v60.6l-26.3-21.9c-2.6-2.2-6.4-2.2-9,0L269.6,430v-60.5h-14l0,75.5c0,2.7,1.6,5.2,4,6.3
		c2.5,1.2,5.4,0.8,7.5-1l33.2-27.8l33.3,27.8c2.1,1.7,5,2.1,7.5,1c2.5-1.2,4-3.6,4-6.3v-75.5H331.1L331.1,369.5z"/>
	<path class="st0" d="M382.1,287.7h7c0-6.3-2.2-12.1-6-16.5c-3.7-4.5-8.9-7.7-14.9-8.8l-1.3,6.9l6.8-1.8c-1.7-6.2-4.1-12-7.2-17.4
		l-6.1,3.5l5.9,3.7c2.5-3.9,3.9-8.6,3.9-13.5c0-3.6-0.7-7-2-10.1c-2-4.7-5.3-8.6-9.4-11.4c-4.1-2.8-9.1-4.4-14.5-4.4
		c-2.5,0-4.9,0.4-7.2,1.1c-2.2,0.7-4.3,1.6-6.2,2.7l3.5,6l3.5-6.1c-5.4-3.1-11.3-5.5-17.3-7.2l-1.8,6.8l6.9-1.4
		c-1.2-5.9-4.4-11.1-8.8-14.8c-4.5-3.7-10.3-6-16.5-6c-6.3,0-12.1,2.2-16.5,6c-4.5,3.7-7.7,8.9-8.8,14.9l6.9,1.3l-1.8-6.8
		c-6.2,1.7-12,4.1-17.4,7.2l3.5,6.1l3.7-5.9c-3.9-2.5-8.6-3.9-13.5-3.9c-3.6,0-7,0.7-10.1,2c-4.7,2-8.6,5.3-11.4,9.4
		c-2.8,4.1-4.4,9.1-4.4,14.5c0,2.5,0.4,4.9,1.1,7.2c0.7,2.2,1.6,4.3,2.7,6.2l6-3.5l-6.1-3.5c-3.1,5.4-5.5,11.3-7.2,17.3l6.8,1.8
		l-1.4-6.9c-5.9,1.2-11.1,4.4-14.8,8.8c-3.7,4.5-6,10.3-6,16.5c0,6.3,2.2,12.1,6,16.5c3.7,4.5,8.9,7.7,14.9,8.8l1.3-6.9l-6.8,1.8
		c1.7,6.2,4.1,12,7.2,17.4l6.1-3.5l-5.9-3.7c-2.5,3.9-3.9,8.6-3.9,13.5c0,3.6,0.7,7,2,10.1c2,4.7,5.3,8.6,9.4,11.4
		c4.1,2.8,9.1,4.4,14.5,4.4c2.5,0,4.9-0.4,7.2-1.1c2.2-0.7,4.3-1.6,6.2-2.7l-3.5-6l-3.5,6.1c5.4,3.1,11.3,5.5,17.3,7.2l1.8-6.8
		l-6.9,1.4c1.2,5.9,4.4,11.1,8.8,14.8c4.5,3.7,10.3,6,16.5,6c6.3,0,12.1-2.2,16.5-6c4.5-3.7,7.7-8.9,8.8-14.9l-6.9-1.3l1.8,6.8
		c6.2-1.7,12-4.1,17.4-7.2l-3.5-6.1l-3.7,5.9c3.9,2.4,8.6,3.9,13.5,3.9c3.6,0,7-0.7,10.1-2c4.7-2,8.6-5.3,11.4-9.4
		c2.8-4.1,4.4-9.1,4.4-14.5c0-2.5-0.4-4.9-1.1-7.2c-0.7-2.2-1.6-4.3-2.7-6.2l-6,3.5l6.1,3.5c3.1-5.4,5.5-11.3,7.2-17.3l-6.8-1.8
		l1.3,6.9c6-1.2,11.2-4.4,14.9-8.8c3.7-4.5,6-10.3,6-16.5H382.1h-7c0,2.9-1,5.5-2.7,7.6c-1.7,2.1-4.1,3.5-6.8,4l-4.3,0.8l-1.1,4.2
		c-1.3,4.9-3.3,9.7-5.8,14.1l-2,3.5l2,3.5c0.6,1,1.1,2.1,1.4,3.1c0.3,1,0.5,2.1,0.5,3.2c0,1.6-0.3,3.2-0.9,4.6
		c-0.9,2.1-2.4,4-4.3,5.3c-1.9,1.3-4.2,2-6.6,2c-2.3,0-4.2-0.6-6.1-1.7l-3.5-2.2l-3.6,2.1c-4.4,2.5-9,4.5-14,5.8l-4.2,1.1l-0.8,4.3
		c-0.5,2.7-2,5.1-4,6.8c-2.1,1.7-4.6,2.7-7.6,2.7c-2.9,0-5.5-1-7.6-2.7c-2.1-1.7-3.5-4.1-4.1-6.8l-0.8-4.3l-4.2-1.1
		c-4.9-1.3-9.7-3.3-14.1-5.8l-3.5-2l-3.5,2c-1,0.6-2.1,1.1-3.1,1.4c-1,0.3-2.1,0.5-3.2,0.5c-1.6,0-3.2-0.3-4.6-0.9
		c-2.1-0.9-4-2.4-5.3-4.3c-1.3-1.9-2-4.2-2-6.6c0-2.3,0.6-4.2,1.7-6.1l2.2-3.5l-2.1-3.6c-2.5-4.4-4.5-9-5.8-14l-1.1-4.2l-4.3-0.8
		c-2.7-0.5-5.1-2-6.8-4c-1.7-2.1-2.7-4.6-2.7-7.6c0-2.9,1-5.5,2.7-7.6c1.7-2.1,4.1-3.5,6.8-4.1l4.3-0.8l1.1-4.2
		c1.3-4.9,3.3-9.7,5.8-14.1l2-3.5l-2-3.5c-0.6-1-1.1-2.1-1.4-3.1c-0.3-1-0.5-2.1-0.5-3.2c0-1.6,0.3-3.2,0.9-4.6
		c0.9-2.1,2.4-4,4.3-5.3c1.9-1.3,4.2-2,6.6-2c2.3,0,4.2,0.6,6.1,1.7l3.5,2.2l3.6-2.1c4.4-2.5,9-4.5,14-5.8l4.2-1.1l0.8-4.3
		c0.5-2.7,2-5.1,4-6.8c2.1-1.7,4.6-2.7,7.6-2.7c2.9,0,5.5,1,7.6,2.7c2.1,1.7,3.5,4.1,4.1,6.8l0.8,4.3l4.2,1.1
		c4.9,1.3,9.7,3.3,14.1,5.8l3.5,2l3.5-2c1-0.6,2.1-1.1,3.1-1.4c1-0.3,2.1-0.5,3.2-0.5c1.6,0,3.2,0.3,4.6,0.9c2.1,0.9,4,2.4,5.3,4.3
		c1.3,1.9,2,4.2,2,6.6c0,2.3-0.6,4.2-1.7,6.1l-2.2,3.5l2.1,3.6c2.5,4.4,4.5,9,5.8,14l1.1,4.2l4.3,0.8c2.7,0.5,5.1,2,6.8,4
		c1.7,2.1,2.7,4.6,2.7,7.6H382.1z"/>
	<path class="st0" d="M300.3,250v7c4.3,0,8.3,0.9,11.9,2.4c5.5,2.3,10.2,6.2,13.5,11.1c3.3,4.9,5.2,10.8,5.2,17.2
		c0,4.3-0.9,8.3-2.4,11.9c-2.3,5.5-6.2,10.2-11.1,13.5c-4.9,3.3-10.8,5.2-17.2,5.2c-4.3,0-8.3-0.9-11.9-2.4
		c-5.5-2.3-10.2-6.2-13.5-11.1c-3.3-4.9-5.2-10.8-5.2-17.2c0-4.3,0.9-8.3,2.4-11.9c2.3-5.5,6.2-10.2,11.1-13.5
		c4.9-3.3,10.8-5.2,17.2-5.2V250v-7c-6.2,0-12,1.3-17.4,3.5c-8,3.4-14.8,9.1-19.7,16.2c-4.8,7.1-7.6,15.8-7.6,25
		c0,6.2,1.3,12,3.5,17.4c3.4,8,9.1,14.8,16.2,19.7c7.1,4.8,15.8,7.6,25,7.6c6.2,0,12-1.3,17.4-3.5c8-3.4,14.8-9.1,19.7-16.2
		c4.8-7.1,7.6-15.8,7.6-25c0-6.2-1.3-12-3.5-17.4c-3.4-8-9.1-14.8-16.2-19.7c-7.1-4.8-15.8-7.6-25-7.6V250z"/>
	<polyline class="st0" points="92.7,401.7 130.5,401.7 130.5,387.7 92.7,387.7 	"/>
	<polyline class="st0" points="92.7,301 130.5,301 130.5,287 92.7,287 	"/>
	<polyline class="st0" points="92.7,93.5 130.5,93.5 130.5,79.5 92.7,79.5 	"/>
	<path class="st0" d="M130.5,73.9h7c0-3.6-0.7-7-2-10.1c-2-4.7-5.3-8.6-9.4-11.4c-4.1-2.8-9.1-4.4-14.5-4.4c-3.6,0-7,0.7-10.1,2
		c-4.7,2-8.6,5.3-11.4,9.4c-2.8,4.1-4.4,9.1-4.4,14.5v339.7c0,1.3,0.3,2.5,1,3.6l18.9,31.5c1.3,2.1,3.5,3.4,6,3.4
		c2.5,0,4.7-1.3,6-3.4l18.9-31.5c0.6-1.1,1-2.3,1-3.6V73.9H130.5h-7v337.8l-11.9,19.8l-11.9-19.8l0-337.8c0-1.6,0.3-3.2,0.9-4.6
		c0.9-2.1,2.4-4,4.3-5.3c1.9-1.3,4.2-2,6.6-2c1.6,0,3.2,0.3,4.6,0.9c2.1,0.9,4,2.4,5.3,4.3c1.3,1.9,2,4.2,2,6.6H130.5z"/>
	<polyline class="st0" points="199.7,93.5 275.2,93.5 275.2,79.5 199.7,79.5 	"/>
	<polyline class="st0" points="199.7,137.5 401,137.5 401,123.5 199.7,123.5 	"/>
	<polyline class="st0" points="199.7,162.6 401,162.6 401,148.6 199.7,148.6 	"/>
	<polyline class="st0" points="199.7,187.8 401,187.8 401,173.8 199.7,173.8 	"/>
	<path class="st0" d="M74.6,231.1V118.6l55.9,0v-14l-62.9,0c-1.8,0-3.6,0.7-4.9,2.1s-2.1,3.1-2.1,4.9v119.5H74.6L74.6,231.1z"/>
</g>
</svg>
