<svg id="Layer_1" data-name="Layer 1" xmlns="http://www.w3.org/2000/svg" viewBox="0 0 500 500"><title>locations</title><path d="M407,168.33a51.59,51.59,0,1,0,51.61,51.57A51.64,51.64,0,0,0,407,168.33Zm0,93.58a42,42,0,1,1,42-42A42.05,42.05,0,0,1,407,261.91Z"/><path d="M407,139.38a80.62,80.62,0,0,0-80.53,80.53c0,17.05,5.58,33.52,16.57,48.95l64,89.63,64-89.64c10.85-15.19,16.58-32.11,16.58-48.94A80.63,80.63,0,0,0,407,139.38Zm56.16,123.89L407,342l-56.14-78.68C341,249.52,336,234.92,336,219.91a70.94,70.94,0,0,1,141.88,0C477.9,234.94,472.93,249.53,463.11,263.27Z"/><path d="M248.44,254.33,282,207.24a44.12,44.12,0,0,0,8.65-25.61,42.25,42.25,0,0,0-84.5,0c0,9,2.91,17.57,8.64,25.62Zm0-105.36a32.69,32.69,0,0,1,32.66,32.65c0,6.92-2.31,13.66-6.86,20l-25.8,36.15-25.79-36.14c-4.55-6.39-6.86-13.13-6.86-20A32.69,32.69,0,0,1,248.44,149Z"/><path d="M248.44,203.3a21.67,21.67,0,1,0-21.67-21.67A21.7,21.7,0,0,0,248.44,203.3Zm0-33.74a12.07,12.07,0,1,1-12.07,12.07A12.09,12.09,0,0,1,248.44,169.56Z"/><path d="M232.86,358.15a32.35,32.35,0,0,0,11,2v-9.6a22.85,22.85,0,0,1-7.54-1.34Z"/><path d="M240.78,295.25l1.11,9.53c.71-.07,1.43-.1,2.16-.1h6.74v-9.6H244C243,295.09,241.86,295.14,240.78,295.25Z"/><rect x="243.51" y="260.97" width="9.46" height="9.6"/><path d="M318.38,265.9a21.64,21.64,0,0,0-11.28-4.79l-.88,9.56a12.18,12.18,0,0,1,5.9,2.51Z"/><rect x="255.44" y="350.53" width="9.46" height="9.6"/><path d="M219.4,306.38l7.37,6.15a22.85,22.85,0,0,1,5.88-4.83l-4.58-8.44A32.54,32.54,0,0,0,219.4,306.38Z"/><path d="M214.91,342.07a32.45,32.45,0,0,0,6.65,9l6.52-7a22.94,22.94,0,0,1-4.51-6.12Z"/><path d="M221.12,327.61a22.93,22.93,0,0,1,1-6.6L213,318a32.66,32.66,0,0,0-1.43,9.57c0,.52,0,1,0,1.56l9.58-.61C221.13,328.24,221.12,327.92,221.12,327.61Z"/><path d="M325.1,290.28a21.7,21.7,0,0,0,1.31-7.46,22,22,0,0,0-.52-4.77l-9.32,2.32a12.39,12.39,0,0,1,.25,2.46,12.16,12.16,0,0,1-.65,4Z"/><path d="M304.55,295.09h-.07v9.6h.07a21.74,21.74,0,0,0,11.56-3.31l-5.29-8A12.18,12.18,0,0,1,304.55,295.09Z"/><rect x="318.59" y="350.53" width="9.46" height="9.6"/><rect x="262.38" y="295.09" width="9.46" height="9.6"/><rect x="360.7" y="350.53" width="9.46" height="9.6"/><rect x="339.65" y="350.53" width="9.46" height="9.6"/><rect x="297.54" y="350.53" width="9.46" height="9.6"/><rect x="276.49" y="350.53" width="9.46" height="9.6"/><rect x="264.57" y="260.97" width="9.46" height="9.6"/><rect x="283.43" y="295.09" width="9.46" height="9.6"/><rect x="285.62" y="260.97" width="9.46" height="9.6"/><path d="M93,170.47A51.59,51.59,0,1,0,144.64,222,51.64,51.64,0,0,0,93,170.47ZM93,264a42,42,0,1,1,42-42A42.05,42.05,0,0,1,93,264Z"/><path d="M93,141.52A80.62,80.62,0,0,0,12.5,222c0,17.05,5.58,33.52,16.58,48.95l64,89.63L157,271c10.85-15.19,16.58-32.11,16.58-48.94A80.63,80.63,0,0,0,93,141.52Zm56.15,123.89L93,344.1,36.89,265.42C27.07,251.65,22.1,237.06,22.1,222A70.94,70.94,0,0,1,164,222C164,237.07,159,251.66,149.18,265.41Z"/></svg>