<?xml version="1.0" encoding="utf-8"?>
<!-- Generator: Adobe Illustrator 22.1.0, SVG Export Plug-In . SVG Version: 6.00 Build 0)  -->
<svg version="1.1" id="Layer_1" xmlns="http://www.w3.org/2000/svg" xmlns:xlink="http://www.w3.org/1999/xlink" x="0px" y="0px"
	 viewBox="0 0 100 80" style="enable-background:new 0 0 100 80;" xml:space="preserve">
<g>
	<path d="M86.4,62.4h-8.3V51.7c0.8,0,1.6,0.1,2.5,0.1c0.3,0,0.6-0.1,0.8-0.3c0.3-0.2,0.3-0.5,0.3-0.8c0-0.3-0.1-0.6-0.3-0.8
		c-0.2-0.3-0.5-0.3-0.8-0.3c-0.9,0-1.8,0-2.5-0.1V38.9c7.7-0.6,13.7-6.9,13.7-14.7C91.8,16,85.2,9.4,77,9.4c-7,0-12.9,4.8-14.4,11.5
		H20.7c-1.3,0-3.2,0.8-3.2,3.2v25.8c-2.6,0.2-4.3,0.1-4.4,0.1c-0.6,0-1.1,0.5-1.1,1.1c0,0.3,0.1,0.6,0.3,0.8
		c0.2,0.3,0.5,0.3,0.8,0.3s2,0.1,4.5-0.1v10.2H9.4c-0.3,0-0.6,0.1-0.8,0.3c-0.3,0.3-0.4,0.6-0.4,0.8c0,0.7,0,1.2,0,1.3
		c0,3.1,0.5,5.9,5.6,5.9c0.9,0,58,0,66.6,0c0.8,0,1.3,0,1.4,0c5.2-0.1,5.6-2.8,5.6-5.9c0-0.3,0-0.7,0-1.3c0-0.3-0.1-0.6-0.3-0.8
		C87,62.4,86.7,62.4,86.4,62.4z M77,36.7c-6.9,0-12.5-5.6-12.5-12.5S70.1,11.6,77,11.6c6.9,0,12.5,5.6,12.5,12.5
		C89.5,31,83.9,36.7,77,36.7z M75.9,38.9v10.6c-9.7-0.5-12.3-2-12.3-2c-0.3-0.3-0.8-0.3-1.2,0l-5.9,3.6l-2.4-8
		c-0.1-0.4-0.4-0.7-0.8-0.8c-0.4-0.1-0.8,0-1.1,0.3l-3.1,3.2L45,28.3c-0.2-0.5-0.6-0.9-1.1-0.8c-0.5,0-1,0.4-1.1,0.9L39,52.2
		c-0.8-3.3-1.6-7.1-1.9-10.4c-0.1-0.6-0.5-1-1.1-1s-1,0.4-1.1,1c-0.7,5.4-8.9,7.4-15.1,7.9V24c0-0.8,0.5-1,1-1h41.5
		c0,0.4-0.1,0.8-0.1,1.2C62.2,31.9,68.2,38.3,75.9,38.9z M39.3,58.3L39.3,58.3L39.3,58.3L39.3,58.3z M35.5,45.8
		c1,5.9,2.7,11.8,2.8,12.1c0.2,0.5,0.6,0.8,1.1,0.8h0.1c0.5,0,0.9-0.4,1-0.9l3.7-23.6l3.4,14c0.1,0.4,0.4,0.7,0.8,0.8
		c0.4,0.1,0.8,0,1.1-0.3l3.3-3.3l2.2,7.5c0.1,0.3,0.3,0.6,0.7,0.8c0.3,0.2,0.7,0.1,1-0.1l6.6-4.1c1.3,0.6,4.9,1.7,12.9,2.1v10.7
		H19.8V51.9C25.2,51.4,32.3,49.9,35.5,45.8z M85.3,64.5v0.3c0,2.8-0.2,3.8-3.4,3.8c-0.1,0-0.6,0-1.4,0c-8.6,0-65.7,0-66.5,0
		c-3.3,0-3.4-0.9-3.4-3.8v-0.3H85.3z"/>
	<path d="M83.3,17c-0.5-0.3-1,0-1.3,0.4l-6.4,13.1l-5-5.7c-0.3-0.4-0.9-0.4-1.3-0.1s-0.4,0.9-0.1,1.3l5.9,6.8
		c0.2,0.3,0.5,0.3,0.8,0.3c0.3,0,0.6-0.3,0.8-0.5l7-14.4C83.9,17.7,83.8,17.1,83.3,17z"/>
</g>
</svg>
