<?xml version="1.0" encoding="utf-8"?>
<!-- Generator: Adobe Illustrator 22.1.0, SVG Export Plug-In . SVG Version: 6.00 Build 0)  -->
<svg version="1.1" id="Layer_1" xmlns="http://www.w3.org/2000/svg" xmlns:xlink="http://www.w3.org/1999/xlink" x="0px" y="0px"
	 viewBox="0 0 500 500" style="enable-background:new 0 0 500 500;" xml:space="preserve">
<style type="text/css">
	.st0{stroke:#000000;stroke-width:3;stroke-miterlimit:10;}
</style>
<g>
	<path class="st0" d="M448.8,372.4h-45.3v-58.4c4.4,0,8.7,0.5,13.7,0.5c1.6,0,3.3-0.5,4.4-1.6c1.6-1.1,1.6-2.7,1.6-4.4
		c0-1.6-0.5-3.3-1.6-4.4c-1.1-1.6-2.7-1.6-4.4-1.6c-4.9,0-9.8,0-13.7-0.5V244c42.1-3.3,74.8-37.7,74.8-80.3
		c0-44.8-36.1-80.8-80.8-80.8c-38.2,0-70.5,26.2-78.7,62.8H90c-7.1,0-17.5,4.4-17.5,17.5v140.9c-14.2,1.1-23.5,0.5-24,0.5
		c-3.3,0-6,2.7-6,6c0,1.6,0.5,3.3,1.6,4.4c1.1,1.6,2.7,1.6,4.4,1.6c1.6,0,10.9,0.5,24.6-0.5v55.7H28.2c-1.6,0-3.3,0.5-4.4,1.6
		c-1.6,1.6-2.2,3.3-2.2,4.4c0,3.8,0,6.6,0,7.1c0,16.9,2.7,32.2,30.6,32.2c4.9,0,316.8,0,363.8,0c4.4,0,7.1,0,7.6,0
		c28.4-0.5,30.6-15.3,30.6-32.2c0-1.6,0-3.8,0-7.1c0-1.6-0.5-3.3-1.6-4.4C452.1,372.4,450.5,372.4,448.8,372.4z M397.5,232
		c-37.7,0-68.3-30.6-68.3-68.3s30.6-68.8,68.3-68.8s68.3,30.6,68.3,68.3S435.2,232,397.5,232z M391.5,244v57.9
		c-53-2.7-67.2-10.9-67.2-10.9c-1.6-1.6-4.4-1.6-6.6,0l-32.2,19.7l-13.1-43.7c-0.5-2.2-2.2-3.8-4.4-4.4c-2.2-0.5-4.4,0-6,1.6
		l-16.9,17.5l-22.4-95.6c-1.1-2.7-3.3-4.9-6-4.4c-2.7,0-5.5,2.2-6,4.9l-20.8,130c-4.4-18-8.7-38.8-10.4-56.8c-0.5-3.3-2.7-5.5-6-5.5
		c-3.3,0-5.5,2.2-6,5.5c-3.8,29.5-48.6,40.4-82.5,43.2V162.6c0-4.4,2.7-5.5,5.5-5.5h226.7c0,2.2-0.5,4.4-0.5,6.6
		C316.6,205.8,349.4,240.7,391.5,244z M191.6,350L191.6,350L191.6,350L191.6,350z M170.8,281.7c5.5,32.2,14.7,64.5,15.3,66.1
		c1.1,2.7,3.3,4.4,6,4.4h0.5c2.7,0,4.9-2.2,5.5-4.9l20.2-128.9l18.6,76.5c0.5,2.2,2.2,3.8,4.4,4.4c2.2,0.5,4.4,0,6-1.6l18-18l12,41
		c0.5,1.6,1.6,3.3,3.8,4.4c1.6,1.1,3.8,0.5,5.5-0.5l36.1-22.4c7.1,3.3,26.8,9.3,70.5,11.5v58.4H85V315
		C114.5,312.3,153.3,304.1,170.8,281.7z M442.8,383.8v1.6c0,15.3-1.1,20.8-18.6,20.8c-0.5,0-3.3,0-7.6,0c-47,0-358.9,0-363.3,0
		c-18,0-18.6-4.9-18.6-20.8v-1.6H442.8z"/>
	<path class="st0" d="M431.9,124.4c-2.7-1.6-5.5,0-7.1,2.2l-35,71.6L362.5,167c-1.6-2.2-4.9-2.2-7.1-0.5c-2.2,1.6-2.2,4.9-0.5,7.1
		l32.2,37.1c1.1,1.6,2.7,1.6,4.4,1.6s3.3-1.6,4.4-2.7l38.2-78.7C435.2,128.2,434.6,124.9,431.9,124.4z"/>
</g>
</svg>
