<?xml version="1.0" encoding="utf-8"?>
<!-- Generator: Adobe Illustrator 22.1.0, SVG Export Plug-In . SVG Version: 6.00 Build 0)  -->
<svg version="1.1" id="Layer_1" xmlns="http://www.w3.org/2000/svg" xmlns:xlink="http://www.w3.org/1999/xlink" x="0px" y="0px"
	 viewBox="0 0 100 80" style="enable-background:new 0 0 100 80;" xml:space="preserve">
<g>
	<path d="M93.5,66.7h-9.9V54c1,0,1.9,0.1,3,0.1c0.3,0,0.7-0.1,0.9-0.4c0.3-0.2,0.4-0.6,0.4-0.9c0-0.4-0.1-0.7-0.4-0.9
		c-0.2-0.3-0.6-0.4-0.9-0.4c-1.1,0-2.1,0-3-0.1V38.6C92.8,37.9,100,30.3,100,21c0-9.8-7.9-17.7-17.7-17.7c-8.4,0-15.4,5.8-17.2,13.7
		H15c-1.5,0-3.8,1-3.8,3.8v30.9c-3.1,0.2-5.2,0.1-5.3,0.1c-0.7,0-1.3,0.6-1.3,1.3c0,0.4,0.1,0.7,0.4,0.9c0.2,0.3,0.6,0.4,0.9,0.4
		s2.4,0.1,5.4-0.1v12.2H1.4c-0.3,0-0.7,0.1-0.9,0.4c-0.4,0.3-0.5,0.7-0.5,1c0,0.8,0,1.4,0,1.6c0,3.7,0.6,7.1,6.7,7.1
		c1.1,0,69.4,0,79.7,0c1,0,1.6,0,1.7,0c6.2-0.1,6.7-3.4,6.7-7.1c0-0.3,0-0.8,0-1.6c0-0.4-0.1-0.7-0.4-0.9
		C94.2,66.8,93.9,66.7,93.5,66.7z M82.3,36c-8.3,0-15-6.7-15-15S74,6,82.3,6s15,6.7,15,15C97.3,29.2,90.6,36,82.3,36z M81,38.6v12.7
		c-11.6-0.6-14.7-2.4-14.7-2.4c-0.4-0.3-1-0.3-1.4,0l-7,4.3L55,43.6c-0.1-0.5-0.5-0.8-1-0.9c-0.5-0.1-0.9,0-1.3,0.4L49,46.9L44,26
		c-0.2-0.6-0.7-1.1-1.3-1c-0.6,0-1.2,0.5-1.3,1.1l-4.5,28.4C36,50.6,35,46,34.6,42c-0.1-0.7-0.6-1.2-1.3-1.2S32.1,41.3,32,42
		c-0.8,6.5-10.7,8.8-18.1,9.5V20.8c0-1,0.6-1.2,1.2-1.2h49.7c0,0.5-0.1,0.9-0.1,1.4C64.6,30.3,71.8,37.9,81,38.6z M37.2,61.8
		L37.2,61.8L37.2,61.8L37.2,61.8z M32.6,46.9c1.2,7,3.2,14.1,3.3,14.5c0.2,0.6,0.7,1,1.3,1h0.1c0.6,0,1.1-0.5,1.2-1.1l4.4-28.2
		L47,49.9c0.1,0.5,0.5,0.8,0.9,1c0.5,0.1,1,0,1.3-0.4l3.9-4l2.6,9c0.1,0.4,0.4,0.7,0.8,0.9c0.4,0.2,0.8,0.1,1.2-0.1l7.9-4.9
		c1.6,0.7,5.9,2,15.4,2.5v12.8H13.9V54.2C20.3,53.6,28.8,51.8,32.6,46.9z M92.2,69.3v0.3c0,3.3-0.2,4.5-4.1,4.5c-0.1,0-0.7,0-1.7,0
		c-10.3,0-78.6,0-79.6,0c-3.9,0-4.1-1.1-4.1-4.5v-0.3H92.2z"/>
	<path d="M89.8,12.4c-0.6-0.3-1.2,0-1.5,0.5l-7.7,15.7l-6-6.8c-0.4-0.5-1.1-0.5-1.6-0.1s-0.5,1.1-0.1,1.6l7.1,8.1
		c0.2,0.3,0.6,0.4,1,0.4s0.7-0.3,0.9-0.6L90.3,14C90.6,13.3,90.4,12.6,89.8,12.4z"/>
</g>
</svg>
