<svg id="Layer_1" data-name="Layer 1" xmlns="http://www.w3.org/2000/svg" viewBox="0 0 500 500"><title>Artboard 4</title><path d="M460,332.5a29.9,29.9,0,0,0-22.33,10L359,300.16a119.59,119.59,0,0,0,0-100.32l78.7-42.38a30.1,30.1,0,1,0-6.9-13.32l-78.92,42.5a120.06,120.06,0,0,0-94.34-56.38V69a30,30,0,1,0-15,0v61.24a120.06,120.06,0,0,0-94.34,56.38l-78.92-42.5a30.11,30.11,0,1,0-6.9,13.32L141,199.84a119.59,119.59,0,0,0,0,100.32l-78.7,42.38a30.1,30.1,0,1,0,6.9,13.32l78.92-42.5a120.06,120.06,0,0,0,94.34,56.38V431a30,30,0,1,0,15,0V369.74a120.06,120.06,0,0,0,94.34-56.38l78.92,42.5A30,30,0,1,0,460,332.5Zm0-210a15,15,0,1,1-15,15A15,15,0,0,1,460,122.5Zm-420,30a15,15,0,1,1,15-15A15,15,0,0,1,40,152.5Zm0,225a15,15,0,1,1,15-15A15,15,0,0,1,40,377.5ZM235,40a15,15,0,1,1,15,15A15,15,0,0,1,235,40Zm30,420a15,15,0,1,1-15-15A15,15,0,0,1,265,460ZM250,355A105,105,0,1,1,355,250,105.12,105.12,0,0,1,250,355Zm210,22.5a15,15,0,1,1,15-15A15,15,0,0,1,460,377.5Z"/><path d="M305.67,226.62l12.21-7.07-7.58-13.1L298,213.55A60.77,60.77,0,0,0,286.46,202l7.09-12.29-13.11-7.57-7.05,12.21a59.91,59.91,0,0,0-15.82-4.19V176H242.43v14.14a59.93,59.93,0,0,0-15.83,4.2l-7-12.21-13.11,7.57L213.54,202A60.8,60.8,0,0,0,202,213.55l-12.26-7.1-7.58,13.1,12.21,7.07a60,60,0,0,0-4.19,15.81H176v15.14h14.16a60,60,0,0,0,4.19,15.82l-12.21,7.07,7.58,13.1,12.27-7.1A60.8,60.8,0,0,0,213.54,298l-7.1,12.29,13.11,7.57,7-12.21a59.9,59.9,0,0,0,15.83,4.2V324h15.14V309.86a59.91,59.91,0,0,0,15.82-4.19l7.05,12.21,13.11-7.57L286.46,298A60.77,60.77,0,0,0,298,286.45l12.27,7.1,7.57-13.11-12.21-7.06a59.94,59.94,0,0,0,4.19-15.82H324V242.43H309.85A59.93,59.93,0,0,0,305.67,226.62ZM295.25,250A45.24,45.24,0,1,1,250,204.75,45.3,45.3,0,0,1,295.25,250Z"/><path d="M250,222.85A27.15,27.15,0,1,0,277.12,250,27.16,27.16,0,0,0,250,222.85ZM250,262a12,12,0,1,1,12-12A12,12,0,0,1,250,262Z"/><rect x="270" y="86.75" width="15" height="23.61"/><rect x="215" y="87.14" width="15" height="23.61"/><rect x="270" y="384.75" width="15" height="23.61"/><rect x="215" y="385.14" width="15" height="23.61"/><rect x="402.8" y="292.88" width="15" height="23.61" transform="translate(-56.3 513.15) rotate(-60.67)"/><rect x="376.2" y="341.02" width="15" height="23.61" transform="translate(-111.84 514.53) rotate(-60.67)"/><rect x="107.8" y="135.88" width="15" height="23.61" transform="translate(-69.93 175.86) rotate(-60.67)"/><rect x="81.2" y="184.02" width="15" height="23.61" transform="translate(-125.47 177.24) rotate(-60.67)"/><rect x="379.2" y="133.88" width="15" height="23.61" transform="translate(449.11 554.17) rotate(-119.33)"/><rect x="405.8" y="182.02" width="15" height="23.61" transform="translate(446.76 649.08) rotate(-119.33)"/><rect x="82.2" y="292.88" width="15" height="23.61" transform="translate(-131.99 532.12) rotate(-119.33)"/><rect x="108.8" y="341.02" width="15" height="23.61" transform="translate(-134.34 627.03) rotate(-119.33)"/></svg>