<?xml version="1.0" encoding="utf-8"?>
<!-- Generator: Adobe Illustrator 22.1.0, SVG Export Plug-In . SVG Version: 6.00 Build 0)  -->
<svg version="1.1" id="Layer_1" xmlns="http://www.w3.org/2000/svg" xmlns:xlink="http://www.w3.org/1999/xlink" x="0px" y="0px"
	 viewBox="0 0 500 500" style="enable-background:new 0 0 500 500;" xml:space="preserve">
<style type="text/css">
	.st0{fill:#003851;}
</style>
<title>mediate</title>
<g id="Layer_2_1_">
	<g id="Layer_1-2">
		<path class="st0" d="M463.4,192.4c1.5-5.5,0.7-11.3-2.1-16.3l-38.5-66.6c-5.9-10.2-19.1-13.8-29.3-7.9l-20,11.5
			c-17.8-15.7-38.3-28-60.5-36.1V51.5c0-11.8-9.6-21.5-21.5-21.5h-77c-11.8,0-21.5,9.6-21.5,21.5l0,0v22.2
			c-23.3,7-44.9,18.5-63.8,33.8L109.5,96c-10.3-5.9-23.4-2.4-29.3,7.9l-38.5,66.9c-5.9,10.3-2.4,23.4,7.9,29.3l15.1,8.7
			c-4,15.1-6,30.6-6.1,46.3c0,10.4,0.9,20.8,2.7,31l-14.8,8.5c-10.2,5.9-13.7,19-7.9,29.2l38.5,66.7c5.9,10.2,19.1,13.8,29.3,7.9
			l11.2-6.4c19.8,18.8,43.5,33.2,69.3,42v14.7c0,11.8,9.6,21.4,21.4,21.4h77c11.8,0,21.4-9.6,21.4-21.4v-13.7
			c25.4-8.3,48.7-21.8,68.5-39.7l15.5,8.8c10.3,5.8,23.4,2.3,29.3-7.9l38.1-66.6c5.9-10.3,2.4-23.4-7.9-29.3l-16.1-9.4
			c4.9-24.4,4.7-49.6-0.5-74l19.8-11.4C458.2,202.7,461.9,198,463.4,192.4z M418.1,210.2l1.1,5c3.1,13.1,4.7,26.4,4.7,39.8
			c0,12.9-1.4,25.7-4.2,38.4l-1.1,4.8l24.5,14.3c3.8,2.1,5,6.9,2.9,10.7l-38.5,66.7c-1,1.7-2.8,3.1-4.8,3.6c-2,0.6-4.3,0.3-6.1-0.7
			l-24-13.9l-3.8,3.5c-20.2,19.4-44.8,33.6-71.5,41.5l-4.8,1.4v23.5c0,4.3-3.6,7.8-7.9,7.8h-76.6c-4.3,0-7.8-3.5-7.8-7.8v-24.5
			l-4.8-1.5c-27.2-8.6-52-23.6-72.1-43.8l-3.8-3.8l-20.2,11.7c-1.8,1.1-4.1,1.3-6.1,0.8c-2-0.5-3.8-1.8-4.8-3.7l-38.4-66.8
			c-2.1-3.8-0.9-8.6,2.9-10.7l0,0l23.4-13.3l-0.9-4.7c-2.1-11.1-3.3-22.3-3.3-33.6c0.1-16.1,2.3-32.2,6.7-47.7l1.4-5.1l-24.1-14
			c-3.8-2.1-5-6.9-2.9-10.7l0,0l38.5-66.7c1-1.7,2.8-3.1,4.7-3.6c2-0.6,4.3-0.3,6.1,0.8l28.2,16.2l3.6-3.2
			c19.6-16.6,42.5-28.8,67.3-35.5l5-1.3V51.5c0-4.3,3.5-7.9,7.9-7.9l0,0h76.8c4.3,0,7.9,3.5,7.9,7.9v35.3l4.7,1.6
			c23.8,8,45.6,21,63.9,38.2l3.8,3.5l28.6-16.5c3.8-2.1,8.6-0.9,10.7,2.9l0,0l38.5,66.7c2.1,3.8,0.8,8.5-2.9,10.6L418.1,210.2z"/>
		<path class="st0" d="M248.2,125.3c-71.6,0-129.7,58-129.7,129.7s58,129.7,129.7,129.7s129.6-58,129.6-129.7c0,0,0,0,0-0.1
			C377.6,183.3,319.7,125.4,248.2,125.3z M248.2,370.8c-64.1-0.2-115.9-52.2-115.7-116.3c0.2-64.1,52.2-115.9,116.3-115.7
			c64,0.2,115.7,52,115.7,116C364.3,319,312.2,370.8,248.2,370.8z"/>
		<path class="st0" d="M108.3,300.7L108.3,300.7c-0.9-2.9-3.6-4.7-6.5-4.7c-0.7,0-1.4,0.1-2,0.4c-3.6,1.2-5.5,5-4.4,8.6
			c5.2,16,13,31.1,23,44.8c1.3,1.7,3.4,2.9,5.5,2.9c1.4,0,2.9-0.4,4.1-1.3c3-2.2,3.7-6.5,1.4-9.6
			C120.1,329.1,113.1,315.2,108.3,300.7z"/>
		<path class="st0" d="M334.5,135.8c4.3,3,8.4,6.2,12.2,9.7c1.2,1.1,2.9,1.7,4.5,1.7c1.9,0,3.8-0.8,5.1-2.2c1.2-1.3,1.8-3.1,1.7-4.9
			c-0.1-1.8-0.9-3.5-2.2-4.7c-4.2-3.8-8.6-7.2-13.1-10.6c-1.4-1-3.3-1.5-5.1-1.2c-1.7,0.3-3.4,1.3-4.4,2.8c-2.2,3.1-1.5,7.3,1.4,9.6
			h-0.2V135.8z"/>
		<path class="st0" d="M378.3,160.2L378.3,160.2c-2.1-3.2-6.4-4-9.6-1.7c-0.1,0-0.1,0.1-0.2,0.1c-3.1,2.2-3.7,6.5-1.4,9.6
			c9.1,12.4,16.1,26.2,20.9,40.9c0.9,2.8,3.6,4.7,6.5,4.7c0.7,0.1,1.4,0.1,2.2-0.1c3.6-1.2,5.5-5,4.4-8.7
			C395.9,188.9,388.2,173.8,378.3,160.2z"/>
		<path class="st0" d="M165.9,376.9c-4.3-2.9-8.4-5.9-12.2-9.3c-2.9-2.3-7.1-1.9-9.6,0.8c-1.1,1.4-1.7,3.2-1.5,5
			c0.1,1.8,0.9,3.5,2.3,4.6c4.3,3.6,8.8,6.9,13.5,10.1c1.1,0.8,2.4,1.2,3.8,1.1c0.4,0.1,0.9,0.1,1.3,0c1.7-0.3,3.4-1.3,4.4-2.9
			c1.2-1.8,1.4-4.1,0.7-6.1C168.1,378.9,167.2,377.7,165.9,376.9z"/>
		<path class="st0" d="M193.5,215.9l-31,79.6h15.4l8.4-22.5h28.3l8.2,22.5H239l-31.1-79.6H193.5z M209.6,259.8h-18.4l9.3-25.5
			L209.6,259.8z"/>
		<path class="st0" d="M275.5,215.9h-35.3v79.6h14.9v-30.6h20.7c6.7,0.4,13.4-1.9,18.4-6.5c4.6-5,6.9-11.6,6.5-18.4
			c0.4-6.6-1.9-13.2-6.5-18C289.1,217.6,282.3,215.4,275.5,215.9z M255.2,229.1h17c3.9-0.3,7.7,0.7,10.8,2.9
			c4.1,4.9,4.1,11.9,0,16.8c-3.2,2.2-7,3.3-10.8,2.9h-17V229.1z"/>
		<rect x="308.7" y="215.9" class="st0" width="14.9" height="79.8"/>
	</g>
</g>
</svg>
