<svg xmlns="http://www.w3.org/2000/svg" viewBox="0 0 94.74 139.5"><title>mediation</title><g id="Layer_2" data-name="Layer 2"><g id="Layer_1-2" data-name="Layer 1"><path d="M94.74,5.82A5.62,5.62,0,0,0,93,1.73,5.69,5.69,0,0,0,88.92,0H65.81a5,5,0,0,0-5,5,4.8,4.8,0,0,0,1.76,3.8c2.45,1.95,3.69,4.13,3.69,6.48a7.54,7.54,0,1,1-15.08,0c0-2.36,1.24-4.54,3.68-6.48A4.71,4.71,0,0,0,56.65,5,5,5,0,0,0,51.7,0H28.59a5.8,5.8,0,0,0-4.11,1.7,5.73,5.73,0,0,0-1.73,4.12V28.93a.45.45,0,0,1-.43.47.73.73,0,0,1-.27-.06h0A12.29,12.29,0,0,0,12,24,12,12,0,0,0,12,48a12.22,12.22,0,0,0,10-5.35.47.47,0,0,1,.3-.09.44.44,0,0,1,.43.45V66.17A5.75,5.75,0,0,0,24,69.75a5.69,5.69,0,0,0-1.25,3.58V96.45a5,5,0,0,0,5,5,4.72,4.72,0,0,0,3.79-1.75c2-2.45,4.14-3.69,6.5-3.69A7.54,7.54,0,1,1,38,111c-2.36,0-4.55-1.24-6.47-3.64a4.73,4.73,0,0,0-3.82-1.8,5,5,0,0,0-5,5v23.11a5.72,5.72,0,0,0,1.72,4.11,5.79,5.79,0,0,0,4.12,1.71H88.92a5.84,5.84,0,0,0,5.82-5.82V110.57a5,5,0,0,0-4.95-5,4.71,4.71,0,0,0-3.8,1.77c-1.94,2.43-4.12,3.67-6.48,3.67a7.54,7.54,0,1,1,0-15.07c2.36,0,4.54,1.24,6.47,3.67a4.73,4.73,0,0,0,3.81,1.77,5,5,0,0,0,4.95-5V73.33a5.68,5.68,0,0,0-1.24-3.58,5.72,5.72,0,0,0,1.24-3.58ZM22.32,38.09A4.92,4.92,0,0,0,18.41,40,8,8,0,0,1,12,43.53a7.54,7.54,0,0,1,0-15.08A8,8,0,0,1,18.44,32a4.88,4.88,0,0,0,3.88,1.87,5,5,0,0,0,4.93-5V5.82a1.27,1.27,0,0,1,.39-.92,1.32,1.32,0,0,1,.95-.4H51.7a.45.45,0,0,1,.45.45s0,.23-.06.28c-3.52,2.79-5.38,6.25-5.38,10a12,12,0,1,0,24.08,0c0-3.74-1.86-7.2-5.36-10-.08-.06-.09-.2-.09-.3a.45.45,0,0,1,.47-.45H88.92a1.34,1.34,0,0,1,1,.42,1.22,1.22,0,0,1,.36.9V66.17a1.24,1.24,0,0,1-.41.94,1.27,1.27,0,0,1-.91.37H65.81a.43.43,0,0,1-.4-.67,12.3,12.3,0,0,0,5.39-10c0-.43,0-.86-.07-1.28a12,12,0,0,0-24,1.28,12.26,12.26,0,0,0,5.38,10,.72.72,0,0,1,.06.26.45.45,0,0,1-.45.42H28.59a1.36,1.36,0,0,1-1-.4,1.3,1.3,0,0,1-.38-.91V43A4.94,4.94,0,0,0,22.32,38.09ZM90.24,96.45a.45.45,0,0,1-.45.46.51.51,0,0,1-.28-.06c-2.79-3.52-6.25-5.38-10-5.38a12,12,0,1,0,0,24.07c3.75,0,7.21-1.86,10-5.38a.48.48,0,0,1,.72.41v23.11A1.35,1.35,0,0,1,88.92,135H28.59a1.33,1.33,0,0,1-1-.41,1.28,1.28,0,0,1-.38-.91V110.57a.47.47,0,0,1,.46-.47.39.39,0,0,1,.28.07c2.81,3.51,6.27,5.37,10,5.37a12,12,0,1,0,0-24.07c-3.74,0-7.2,1.86-10,5.4a.64.64,0,0,1-.26,0,.46.46,0,0,1-.46-.46V73.33a1.29,1.29,0,0,1,.39-.92,1.36,1.36,0,0,1,.95-.39H51.7a5,5,0,0,0,4.95-4.94v0a4.71,4.71,0,0,0-1.76-3.79,8.8,8.8,0,0,1-3.62-5.61v0a6,6,0,0,1-.06-.85,8,8,0,0,1,.15-1.47A7.54,7.54,0,0,1,66.25,56a6.45,6.45,0,0,1,0,.76,6.33,6.33,0,0,1-.05.76.66.66,0,0,1,0,.14,8.85,8.85,0,0,1-3.64,5.61A4.83,4.83,0,0,0,60.84,67v0a5,5,0,0,0,5,4.94H88.92a1.32,1.32,0,0,1,1,.42,1.19,1.19,0,0,1,.36.89Z"/></g></g></svg>