<?xml version="1.0" encoding="utf-8"?>
<!-- Generator: Adobe Illustrator 22.1.0, SVG Export Plug-In . SVG Version: 6.00 Build 0)  -->
<svg version="1.1" id="Layer_1" xmlns="http://www.w3.org/2000/svg" xmlns:xlink="http://www.w3.org/1999/xlink" x="0px" y="0px"
	 viewBox="0 0 500 500" style="enable-background:new 0 0 500 500;" xml:space="preserve">
<style type="text/css">
	.st0{fill:#003851;}
</style>
<title>mediate</title>
<g id="Layer_2_1_">
	<g id="Layer_1-2">
		<path class="st0" d="M473.1,189.7c1.6-5.7,0.7-11.8-2.2-17l-40.2-69.6c-6.2-10.7-20-14.4-30.6-8.3l-20.9,12
			c-18.6-16.4-40-29.3-63.2-37.7V42.4c0-12.3-10-22.5-22.5-22.5h-80.5c-12.3,0-22.5,10-22.5,22.5l0,0v23.2
			C166.1,73,143.5,85,123.7,101l-20.6-12c-10.8-6.2-24.5-2.5-30.6,8.3l-40.2,69.9c-6.2,10.8-2.5,24.5,8.3,30.6l15.8,9.1
			c-4.2,15.8-6.3,32-6.4,48.4c0,10.9,0.9,21.7,2.8,32.4l-15.5,8.9c-10.7,6.2-14.3,19.9-8.3,30.5l40.2,69.7
			c6.2,10.7,20,14.4,30.6,8.3l11.7-6.7c20.7,19.7,45.5,34.7,72.4,43.9v15.4c0,12.3,10,22.4,22.4,22.4h80.5c12.3,0,22.4-10,22.4-22.4
			v-14.3c26.6-8.7,50.9-22.8,71.6-41.5l16.2,9.2c10.8,6.1,24.5,2.4,30.6-8.3l39.8-69.6c6.2-10.8,2.5-24.5-8.3-30.6l-16.8-9.8
			c5.1-25.5,4.9-51.9-0.5-77.4l20.7-11.9C467.7,200.5,471.6,195.6,473.1,189.7z M425.8,208.3l1.1,5.2c3.2,13.7,4.9,27.6,4.9,41.6
			c0,13.5-1.5,26.9-4.4,40.1l-1.1,5l25.6,14.9c4,2.2,5.2,7.2,3,11.2l-40.2,69.7c-1,1.8-2.9,3.2-5,3.8c-2.1,0.6-4.5,0.3-6.4-0.7
			l-25.1-14.5l-4,3.7c-21.1,20.3-46.8,35.1-74.7,43.4l-5,1.5v24.6c0,4.5-3.8,8.2-8.3,8.2h-80.1c-4.5,0-8.2-3.7-8.2-8.2v-25.6l-5-1.6
			c-28.4-9-54.4-24.7-75.4-45.8l-4-4l-21.1,12.2c-1.9,1.1-4.3,1.4-6.4,0.8c-2.1-0.5-4-1.9-5-3.9l-40.1-69.8c-2.2-4-0.9-9,3-11.2l0,0
			l24.5-13.9l-0.9-4.9c-2.2-11.6-3.4-23.3-3.4-35.1c0.1-16.8,2.4-33.7,7-49.9l1.5-5.3l-25.2-14.6c-4-2.2-5.2-7.2-3-11.2l0,0
			l40.2-69.7c1-1.8,2.9-3.2,4.9-3.8c2.1-0.6,4.5-0.3,6.4,0.8l29.5,16.9l3.8-3.3c20.5-17.4,44.4-30.1,70.4-37.1l5.2-1.4V42.4
			c0-4.5,3.7-8.3,8.3-8.3l0,0h80.3c4.5,0,8.3,3.7,8.3,8.3v36.9l4.9,1.7c24.9,8.4,47.7,22,66.8,39.9l4,3.7l29.9-17.2
			c4-2.2,9-0.9,11.2,3l0,0l40.2,69.7c2.2,4,0.8,8.9-3,11.1L425.8,208.3z"/>
		<path class="st0" d="M248.1,119.6c-74.9,0-135.6,60.6-135.6,135.6s60.6,135.6,135.6,135.6s135.5-60.6,135.5-135.6c0,0,0,0,0-0.1
			C383.4,180.2,322.9,119.7,248.1,119.6z M248.1,376.2c-67-0.2-121.2-54.6-121-121.6c0.2-67,54.6-121.2,121.6-121
			c66.9,0.2,121,54.4,121,121.3C369.5,322.1,315.1,376.2,248.1,376.2z"/>
		<path class="st0" d="M101.9,303L101.9,303c-0.9-3-3.8-4.9-6.8-4.9c-0.7,0-1.5,0.1-2.1,0.4c-3.8,1.3-5.7,5.2-4.6,9
			c5.4,16.7,13.6,32.5,24,46.8c1.4,1.8,3.6,3,5.7,3c1.5,0,3-0.4,4.3-1.4c3.1-2.3,3.9-6.8,1.5-10C114.2,332.6,106.9,318.1,101.9,303z
			"/>
		<path class="st0" d="M338.4,130.6c4.5,3.1,8.8,6.5,12.8,10.1c1.3,1.1,3,1.8,4.7,1.8c2,0,4-0.8,5.3-2.3c1.3-1.4,1.9-3.2,1.8-5.1
			c-0.1-1.9-0.9-3.7-2.3-4.9c-4.4-4-9-7.5-13.7-11.1c-1.5-1-3.4-1.6-5.3-1.3c-1.8,0.3-3.6,1.4-4.6,2.9c-2.3,3.2-1.6,7.6,1.5,10h-0.2
			v-0.2H338.4z"/>
		<path class="st0" d="M384.2,156.1L384.2,156.1c-2.2-3.3-6.7-4.2-10-1.8c-0.1,0-0.1,0.1-0.2,0.1c-3.2,2.3-3.9,6.8-1.5,10
			c9.5,13,16.8,27.4,21.8,42.8c0.9,2.9,3.8,4.9,6.8,4.9c0.7,0.1,1.5,0.1,2.3-0.1c3.8-1.3,5.7-5.2,4.6-9.1
			C402.6,186.1,394.5,170.3,384.2,156.1z"/>
		<path class="st0" d="M162.1,382.6c-4.5-3-8.8-6.2-12.8-9.7c-3-2.4-7.4-2-10,0.8c-1.1,1.5-1.8,3.3-1.6,5.2c0.1,1.9,0.9,3.7,2.4,4.8
			c4.5,3.8,9.2,7.2,14.1,10.6c1.1,0.8,2.5,1.3,4,1.1c0.4,0.1,0.9,0.1,1.4,0c1.8-0.3,3.6-1.4,4.6-3c1.3-1.9,1.5-4.3,0.7-6.4
			C164.4,384.7,163.5,383.5,162.1,382.6z"/>
		<path class="st0" d="M191,214.3l-32.4,83.2h16.1l8.8-23.5H213l8.6,23.5h16.9L206,214.3H191z M207.8,260.2h-19.2l9.7-26.7
			L207.8,260.2z"/>
		<path class="st0" d="M276.7,214.3h-36.9v83.2h15.6v-32H277c7,0.4,14-2,19.2-6.8c4.8-5.2,7.2-12.1,6.8-19.2
			c0.4-6.9-2-13.8-6.8-18.8C290.9,216.1,283.8,213.8,276.7,214.3z M255.5,228.1h17.8c4.1-0.3,8,0.7,11.3,3c4.3,5.1,4.3,12.4,0,17.6
			c-3.3,2.3-7.3,3.4-11.3,3h-17.8L255.5,228.1L255.5,228.1z"/>
		<rect x="311.4" y="214.3" class="st0" width="15.6" height="83.4"/>
	</g>
</g>
</svg>
