<svg xmlns="http://www.w3.org/2000/svg" viewBox="0 0 70.03 71.9"><defs><style>.cls-1{fill:#003851;}</style></defs><title>mediate</title><g id="Layer_2" data-name="Layer 2"><g id="Layer_1-2" data-name="Layer 1"><path class="cls-1" d="M69.91,26.54a3.49,3.49,0,0,0-.35-2.66L63.27,13a3.51,3.51,0,0,0-4.79-1.28l-3.26,1.88a30.69,30.69,0,0,0-9.88-5.9V3.51A3.51,3.51,0,0,0,41.83,0H29.25a3.51,3.51,0,0,0-3.51,3.51V7.15a30.64,30.64,0,0,0-10.42,5.51l-3.24-1.87a3.51,3.51,0,0,0-4.79,1.28L1,23a3.51,3.51,0,0,0,1.28,4.79l2.46,1.42a30.73,30.73,0,0,0-1,7.56,31.46,31.46,0,0,0,.43,5.07L1.75,43.23A3.51,3.51,0,0,0,.47,48l6.29,10.9a3.51,3.51,0,0,0,4.79,1.28l1.83-1.05A31.21,31.21,0,0,0,24.69,66V68.4a3.5,3.5,0,0,0,3.5,3.5H40.78a3.5,3.5,0,0,0,3.5-3.5V66.17a31.08,31.08,0,0,0,11.19-6.48L58,61.12a3.53,3.53,0,0,0,4.79-1.29L69,48.94a3.51,3.51,0,0,0-1.28-4.79l-2.64-1.53A30,30,0,0,0,65,30.54l3.23-1.87A3.48,3.48,0,0,0,69.91,26.54ZM62.5,29.43l.19.81a28.75,28.75,0,0,1,.77,6.5A29.54,29.54,0,0,1,62.77,43l-.18.79,4,2.33a1.29,1.29,0,0,1,.47,1.75l-6.29,10.9a1.29,1.29,0,0,1-.78.59,1.31,1.31,0,0,1-1-.12l-3.91-2.26-.61.57a28.68,28.68,0,0,1-11.69,6.78l-.79.24V68.4a1.28,1.28,0,0,1-1.28,1.27H28.19a1.27,1.27,0,0,1-1.27-1.27v-4l-.78-.25A28.76,28.76,0,0,1,14.35,57l-.61-.61-3.3,1.91a1.31,1.31,0,0,1-1,.13,1.27,1.27,0,0,1-.78-.6L2.4,46.91a1.28,1.28,0,0,1,.47-1.75L6.69,43l-.15-.77A29.21,29.21,0,0,1,6,36.74a28.86,28.86,0,0,1,1.1-7.8l.24-.83L3.4,25.83a1.28,1.28,0,0,1-.47-1.75l6.29-10.9a1.27,1.27,0,0,1,.77-.59,1.26,1.26,0,0,1,1,.13l4.6,2.65.59-.51a28.44,28.44,0,0,1,11-5.8L28,8.84V3.51a1.28,1.28,0,0,1,1.28-1.28H41.83a1.28,1.28,0,0,1,1.28,1.28V9.27l.76.26a28.57,28.57,0,0,1,10.44,6.24l.61.56,4.67-2.7a1.28,1.28,0,0,1,1.75.47L67.63,25a1.28,1.28,0,0,1-.47,1.74Z"/><path class="cls-1" d="M34.73,15.57A21.18,21.18,0,1,0,55.91,36.74,21.2,21.2,0,0,0,34.73,15.57Zm0,40.12a18.95,18.95,0,1,1,19-18.95A19,19,0,0,1,34.73,55.69Z"/><path class="cls-1" d="M11.88,44.21h0a1.11,1.11,0,0,0-1.06-.77,1,1,0,0,0-.34.06,1.13,1.13,0,0,0-.72,1.4,26.23,26.23,0,0,0,3.75,7.31,1.12,1.12,0,0,0,.9.46,1.15,1.15,0,0,0,.66-.21,1.13,1.13,0,0,0,.24-1.56A24.09,24.09,0,0,1,11.88,44.21Z"/><path class="cls-1" d="M48.83,17.28a22.94,22.94,0,0,1,2,1.58,1.14,1.14,0,0,0,.74.28,1.09,1.09,0,0,0,.83-.37,1.12,1.12,0,0,0,.29-.8,1.13,1.13,0,0,0-.37-.77,27.41,27.41,0,0,0-2.14-1.73,1.15,1.15,0,0,0-.83-.2,1.11,1.11,0,0,0-.72.45,1.12,1.12,0,0,0,.24,1.56Z"/><path class="cls-1" d="M56,21.27h0A1.13,1.13,0,0,0,54.4,21a1.12,1.12,0,0,0-.24,1.56,23.87,23.87,0,0,1,3.42,6.68,1.12,1.12,0,0,0,1.06.77A1.34,1.34,0,0,0,59,30a1.12,1.12,0,0,0,.71-1.41A26.21,26.21,0,0,0,56,21.27Z"/><path class="cls-1" d="M21.3,56.67a22.43,22.43,0,0,1-2-1.51,1.13,1.13,0,0,0-1.57.14,1.1,1.1,0,0,0-.25.82,1,1,0,0,0,.39.75,25.23,25.23,0,0,0,2.2,1.65,1.08,1.08,0,0,0,.62.19.86.86,0,0,0,.22,0,1.08,1.08,0,0,0,.71-.47,1.14,1.14,0,0,0,.12-1A1.11,1.11,0,0,0,21.3,56.67Z"/><path class="cls-1" d="M25.8,30.37l-5.07,13h2.52l1.37-3.68h4.62l1.33,3.68h2.67l-5.09-13Zm2.63,7.18h-3l1.51-4.17Z"/><path class="cls-1" d="M39.21,30.37H33.45v13h2.43v-5h3.39a4.12,4.12,0,0,0,3-1.06,4,4,0,0,0,1.06-3,4,4,0,0,0-1.06-2.94A4.2,4.2,0,0,0,39.21,30.37Zm-3.33,2.17h2.78a2.68,2.68,0,0,1,1.77.47,2.14,2.14,0,0,1,0,2.75,2.55,2.55,0,0,1-1.77.47H35.88Z"/><rect class="cls-1" x="44.62" y="30.37" width="2.43" height="13.03"/></g></g></svg>