<?xml version="1.0" encoding="iso-8859-1"?>
<!-- Generator: Adobe Illustrator 17.0.0, SVG Export Plug-In . SVG Version: 6.00 Build 0)  -->
<!DOCTYPE svg PUBLIC "-//W3C//DTD SVG 1.1//EN" "http://www.w3.org/Graphics/SVG/1.1/DTD/svg11.dtd">
<svg version="1.1" id="_x33_5_x5F_modeling_x5F_api"
	 xmlns="http://www.w3.org/2000/svg" xmlns:xlink="http://www.w3.org/1999/xlink" x="0px" y="0px" width="64px" height="64px"
	 viewBox="0 0 64 64" style="enable-background:new 0 0 64 64;" xml:space="preserve">
<g>
	
		<line style="fill:none;stroke:#222829;stroke-width:2;stroke-linejoin:round;stroke-miterlimit:10;" x1="47" y1="59" x2="63" y2="59"/>
	
		<polyline style="fill:none;stroke:#222829;stroke-width:2;stroke-linecap:round;stroke-linejoin:round;stroke-miterlimit:10;" points="
		59,63 63,59 59,55 	"/>
	
		<polyline style="fill:none;stroke:#222829;stroke-width:2;stroke-linecap:round;stroke-linejoin:round;stroke-miterlimit:10;" points="
		36,9 32,5 36,1 	"/>
	<path style="fill:none;stroke:#222829;stroke-width:2;stroke-miterlimit:10;" d="M32,5c14.912,0,27,12.088,27,27S46.912,59,32,59H0
		"/>
	<g>
		<polygon style="fill:none;stroke:#222829;stroke-width:2;stroke-linecap:round;stroke-miterlimit:10;" points="19,38 16,32 19,26 
			26,26 29,32 26,38 		"/>
		<polygon style="fill:none;stroke:#222829;stroke-width:2;stroke-linecap:round;stroke-miterlimit:10;" points="33,46 30,40 33,34 
			40,34 43,40 40,46 		"/>
		<polygon style="fill:none;stroke:#222829;stroke-width:2;stroke-linecap:round;stroke-miterlimit:10;" points="33,30 30,24 33,18 
			40,18 43,24 40,30 		"/>
		<circle style="fill:none;stroke:#222829;stroke-width:2;stroke-linecap:round;stroke-miterlimit:10;" cx="45" cy="32" r="1"/>
		<circle style="fill:none;stroke:#222829;stroke-width:2;stroke-linecap:round;stroke-miterlimit:10;" cx="25" cy="43" r="1"/>
		<circle style="fill:none;stroke:#222829;stroke-width:2;stroke-linecap:round;stroke-miterlimit:10;" cx="25" cy="21" r="1"/>
	</g>
	<path style="fill:none;stroke:#222829;stroke-width:2;stroke-linejoin:round;stroke-miterlimit:10;" d="M18.004,55.095
		C10.208,50.359,5,41.787,5,32C5,18.771,14.515,7.764,27.074,5.448"/>
</g>
</svg>
