<?xml version="1.0" encoding="utf-8"?>
<!-- Generator: Adobe Illustrator 22.1.0, SVG Export Plug-In . SVG Version: 6.00 Build 0)  -->
<svg version="1.1" id="_x33_5_x5F_modeling_x5F_api"
	 xmlns="http://www.w3.org/2000/svg" xmlns:xlink="http://www.w3.org/1999/xlink" x="0px" y="0px" viewBox="0 0 500 500"
	 style="enable-background:new 0 0 500 500;" xml:space="preserve">
<style type="text/css">
	.st0{fill:#222829;}
</style>
<g>
	<polyline class="st0" points="346.1,424.3 445.2,424.3 445.2,410.3 346.1,410.3 	"/>
	<path class="st0" d="M425.4,447l24.8-24.8c1.3-1.3,2.1-3.1,2.1-5c0-1.9-0.7-3.6-2.1-5l-24.8-24.7c-2.7-2.7-7.2-2.7-9.9,0
		s-2.7,7.2,0,9.9l19.8,19.8l-19.8,19.8c-2.7,2.7-2.7,7.2,0,9.9S422.6,449.8,425.4,447L425.4,447z"/>
	<path class="st0" d="M282.8,102.4L263,82.7l19.8-19.8c2.7-2.7,2.7-7.2,0-9.9c-2.7-2.7-7.2-2.7-9.9,0l-24.8,24.8
		c-1.3,1.3-2.1,3.1-2.1,5c0,1.9,0.7,3.6,2.1,5l24.8,24.7c2.7,2.7,7.2,2.7,9.9,0C285.6,109.6,285.6,105.2,282.8,102.4L282.8,102.4z"
		/>
	<path class="st0" d="M253.1,89.7c44.3,0,84.3,17.9,113.4,46.9c29,29,46.9,69.1,46.9,113.4c0,44.3-17.9,84.3-46.9,113.4
		c-29,29-69.1,46.9-113.4,46.9H54.8v14h198.3c48.1,0,91.7-19.5,123.3-51c31.5-31.5,51.1-75.1,51.1-123.2
		c0-48.1-19.5-91.7-51.1-123.2c-31.5-31.5-75.1-51.1-123.3-51.1V89.7L253.1,89.7z"/>
	<polygon class="st0" points="172.5,287.2 178.8,284.1 161.7,250 176.8,219.8 211.6,219.8 226.7,250 211.6,280.2 172.5,280.2 
		172.5,287.2 178.8,284.1 172.5,287.2 172.5,294.2 220.2,294.2 242.3,250 220.2,205.8 168.2,205.8 146.1,250 168.2,294.2 
		172.5,294.2 	"/>
	<polygon class="st0" points="259.3,336.8 265.6,333.7 248.5,299.6 263.6,269.4 298.4,269.4 313.5,299.6 298.4,329.8 259.3,329.8 
		259.3,336.8 265.6,333.7 259.3,336.8 259.3,343.8 307,343.8 329.1,299.6 307,255.4 255,255.4 232.9,299.6 255,343.8 259.3,343.8 	
		"/>
	<polygon class="st0" points="259.3,237.6 265.6,234.5 248.5,200.4 263.6,170.2 298.4,170.2 313.5,200.4 298.4,230.6 259.3,230.6 
		259.3,237.6 265.6,234.5 259.3,237.6 259.3,244.6 307,244.6 329.1,200.4 307,156.2 255,156.2 232.9,200.4 255,244.6 259.3,244.6 	
		"/>
	<path class="st0" d="M333.7,243.8v7V250l-0.3,0.7c0.1,0,0.2,0.1,0.3,0.1V250l-0.3,0.7l0.3-0.7l-0.7,0.4c0.1,0.1,0.2,0.2,0.3,0.3
		l0.3-0.7l-0.7,0.4l0.7-0.5l-0.8,0c0,0.1,0.1,0.3,0.1,0.5l0.7-0.5l-0.8,0h0.8l-0.7-0.3c0,0.1-0.1,0.2-0.1,0.3h0.8l-0.7-0.3l0.7,0.3
		l-0.4-0.6c-0.1,0.1-0.2,0.2-0.3,0.3l0.7,0.3l-0.4-0.6l0.5,0.7v-0.8c-0.1,0-0.3,0.1-0.5,0.1l0.5,0.7v-0.8v0.8l0.3-0.7
		c-0.1,0-0.2-0.1-0.3-0.1v0.8l0.3-0.7l-0.3,0.7l0.7-0.4c-0.1-0.1-0.2-0.2-0.3-0.3l-0.3,0.7l0.7-0.4l-0.7,0.5l0.8,0
		c0-0.1-0.1-0.3-0.1-0.5l-0.7,0.5l0.8,0h-0.8l0.7,0.3c0-0.1,0.1-0.2,0.1-0.3h-0.8l0.7,0.3l-0.7-0.3l0.4,0.7c0.1-0.1,0.2-0.2,0.3-0.3
		l-0.7-0.3l0.4,0.7l-0.5-0.7v0.8c0.1,0,0.3-0.1,0.5-0.1l-0.5-0.7v0.8V243.8v-7c-1.8,0-3.6,0.4-5.1,1c-2.4,1-4.4,2.7-5.8,4.8
		c-1.4,2.1-2.3,4.7-2.3,7.4c0,1.8,0.4,3.6,1,5.1c1,2.4,2.7,4.4,4.8,5.8c2.1,1.4,4.7,2.3,7.4,2.3c1.8,0,3.6-0.4,5.1-1
		c2.4-1,4.4-2.7,5.8-4.8c1.4-2.1,2.3-4.7,2.3-7.4c0-1.8-0.4-3.6-1-5.1c-1-2.4-2.7-4.4-4.8-5.8c-2.1-1.4-4.7-2.3-7.4-2.3V243.8z"/>
	<path class="st0" d="M209.7,312v7v-0.8l-0.3,0.7c0.1,0,0.2,0.1,0.3,0.1v-0.8l-0.3,0.7l0.3-0.7l-0.7,0.4c0.1,0.1,0.2,0.2,0.3,0.3
		l0.3-0.7l-0.7,0.4l0.7-0.5h-0.8c0,0.1,0.1,0.3,0.1,0.5l0.7-0.5h-0.8h0.8l-0.7-0.3c0,0.1-0.1,0.2-0.1,0.3h0.8l-0.7-0.3l0.7,0.3
		l-0.4-0.7c-0.1,0.1-0.2,0.2-0.3,0.3l0.7,0.3l-0.4-0.7l0.5,0.7v-0.8c-0.1,0-0.3,0.1-0.5,0.1l0.5,0.7v-0.8v0.8l0.3-0.7
		c-0.1,0-0.2-0.1-0.3-0.1v0.8l0.3-0.7l-0.3,0.7l0.7-0.4c-0.1-0.1-0.2-0.2-0.3-0.3l-0.3,0.7l0.7-0.4l-0.7,0.5h0.8
		c0-0.1-0.1-0.3-0.1-0.5l-0.7,0.5h0.8h-0.8l0.7,0.3c0-0.1,0.1-0.2,0.1-0.3h-0.8l0.7,0.3l-0.7-0.3l0.4,0.7c0.1-0.1,0.2-0.2,0.3-0.3
		l-0.7-0.3l0.4,0.7l-0.5-0.7v0.8c0.1,0,0.3-0.1,0.5-0.1l-0.5-0.7v0.8V312v-7c-1.8,0-3.6,0.4-5.1,1c-2.4,1-4.4,2.7-5.8,4.8
		c-1.4,2.1-2.3,4.7-2.3,7.4c0,1.8,0.4,3.6,1,5.1c1,2.4,2.7,4.4,4.8,5.8c2.1,1.4,4.7,2.3,7.4,2.3c1.8,0,3.6-0.4,5.1-1
		c2.4-1,4.4-2.7,5.8-4.8c1.4-2.1,2.3-4.7,2.3-7.4c0-1.8-0.4-3.6-1-5.1c-1-2.4-2.7-4.4-4.8-5.8c-2.1-1.4-4.7-2.3-7.4-2.3V312z"/>
	<path class="st0" d="M209.7,175.6v7v-0.8l-0.3,0.7c0.1,0,0.2,0.1,0.3,0.1v-0.8l-0.3,0.7l0.3-0.7l-0.7,0.4c0.1,0.1,0.2,0.2,0.3,0.3
		l0.3-0.7l-0.7,0.4l0.7-0.5l-0.8,0c0,0.1,0.1,0.3,0.1,0.5l0.7-0.5l-0.8,0h0.8l-0.7-0.3c0,0.1-0.1,0.2-0.1,0.3h0.8l-0.7-0.3l0.7,0.3
		l-0.4-0.7c-0.1,0.1-0.2,0.2-0.3,0.3l0.7,0.3l-0.4-0.7l0.5,0.7V181c-0.1,0-0.3,0.1-0.5,0.1l0.5,0.7V181v0.8l0.3-0.7
		c-0.1,0-0.2-0.1-0.3-0.1v0.8l0.3-0.7l-0.3,0.7l0.7-0.4c-0.1-0.1-0.2-0.2-0.3-0.3l-0.3,0.7l0.7-0.4l-0.7,0.5l0.8,0
		c0-0.1-0.1-0.3-0.1-0.5l-0.7,0.5l0.8,0h-0.8l0.7,0.3c0-0.1,0.1-0.2,0.1-0.3h-0.8l0.7,0.3l-0.7-0.3l0.4,0.7c0.1-0.1,0.2-0.2,0.3-0.3
		l-0.7-0.3l0.4,0.7l-0.5-0.7l0,0.8c0.1,0,0.3-0.1,0.5-0.1l-0.5-0.7l0,0.8V175.6v-7c-1.8,0-3.6,0.4-5.1,1c-2.4,1-4.4,2.7-5.8,4.8
		c-1.4,2.1-2.3,4.7-2.3,7.4c0,1.8,0.4,3.6,1,5.1c1,2.4,2.7,4.4,4.8,5.8c2.1,1.4,4.7,2.3,7.4,2.3c1.8,0,3.6-0.4,5.1-1
		c2.4-1,4.4-2.7,5.8-4.8c1.4-2.1,2.3-4.7,2.3-7.4c0-1.8-0.4-3.6-1-5.1c-1-2.4-2.7-4.4-4.8-5.8c-2.1-1.4-4.7-2.3-7.4-2.3V175.6z"/>
	<path class="st0" d="M170,387.1c-23.2-14-42.5-33.8-56-57.3c-13.5-23.5-21.2-50.7-21.2-79.8c0-39.3,14.1-75.2,37.6-103.1
		c23.5-27.9,56.2-47.7,93.5-54.6l-2.5-13.8c-40.5,7.5-76.2,29-101.7,59.3C94.2,168.1,78.8,207.3,78.8,250c0,31.6,8.4,61.3,23.1,86.8
		c14.7,25.6,35.7,47,60.9,62.3L170,387.1L170,387.1z"/>
</g>
</svg>
