<svg id="Layer_1" data-name="Layer 1" xmlns="http://www.w3.org/2000/svg" viewBox="0 0 540 540"><title>Artboard 3</title><path d="M270,173.36a37.58,37.58,0,1,0-37.58-37.57A37.62,37.62,0,0,0,270,173.36Zm0-57.93a20.36,20.36,0,1,1-20.36,20.36A20.38,20.38,0,0,1,270,115.43Z"/><path d="M425,366.63a37.58,37.58,0,1,0,37.57,37.58A37.62,37.62,0,0,0,425,366.63Zm0,57.93a20.36,20.36,0,1,1,20.35-20.35A20.38,20.38,0,0,1,425,424.56Z"/><path d="M115,366.63a37.58,37.58,0,1,0,37.58,37.58A37.62,37.62,0,0,0,115,366.63Zm0,57.93a20.36,20.36,0,1,1,20.36-20.35A20.38,20.38,0,0,1,115,424.56Z"/><polygon points="320.23 333.77 278.61 309.74 278.61 261.69 261.39 261.69 261.39 309.74 219.77 333.77 228.38 348.68 270 324.65 311.62 348.68 320.23 333.77"/><path d="M456.78,298.89a188,188,0,0,0-79.68-138,110,110,0,1,0-214.2,0,188,188,0,0,0-79.68,138A110,110,0,1,0,190.28,484.36a186.69,186.69,0,0,0,159.43,0A110,110,0,1,0,456.78,298.89ZM270,43a92.76,92.76,0,0,1,56.12,166.65,43.07,43.07,0,0,0-38.9-24.51H252.74a43.07,43.07,0,0,0-38.87,24.51A92.76,92.76,0,0,1,270,43Zm41.3,175.87a92.51,92.51,0,0,1-82.61,0,25.62,25.62,0,0,1,24-16.52h34.48a25.62,25.62,0,0,1,24.08,16.52ZM73.73,487.28a25.63,25.63,0,0,1,24.05-16.52h34.48a25.6,25.6,0,0,1,24,16.52,92.51,92.51,0,0,1-82.58,0Zm97.4-9.22a43.05,43.05,0,0,0-38.87-24.51H97.79a43.1,43.1,0,0,0-38.88,24.51,92.8,92.8,0,1,1,112.23,0ZM202.37,471A109.88,109.88,0,0,0,100.84,295.13a170.86,170.86,0,0,1,67.6-117.07,110,110,0,0,0,203.13,0,170.86,170.86,0,0,1,67.6,117.07A109.93,109.93,0,0,0,337.62,471a170.17,170.17,0,0,1-135.25,0Zm181.31,16.29a25.6,25.6,0,0,1,24-16.52h34.48a25.63,25.63,0,0,1,24.06,16.52,92.51,92.51,0,0,1-82.58,0Zm97.41-9.23a43.1,43.1,0,0,0-38.88-24.52H407.73a43.05,43.05,0,0,0-38.87,24.52,92.8,92.8,0,1,1,112.23,0Z"/></svg>