<?xml version="1.0" encoding="utf-8"?>
<!-- Generator: Adobe Illustrator 22.1.0, SVG Export Plug-In . SVG Version: 6.00 Build 0)  -->
<svg version="1.1" id="_x33_6_x5F_network_x5F_secure_x5F_vault"
	 xmlns="http://www.w3.org/2000/svg" xmlns:xlink="http://www.w3.org/1999/xlink" x="0px" y="0px" viewBox="0 0 500 500"
	 style="enable-background:new 0 0 500 500;" xml:space="preserve">
<style type="text/css">
	.st0{fill:none;stroke:#222829;stroke-width:14;stroke-miterlimit:10;}
</style>
<g>
	<path class="st0" d="M73,357.4h-6.3c-7,0-12.6-5.7-12.6-12.6V66.7c0-7,5.7-12.6,12.6-12.6h366.6c7,0,12.6,5.7,12.6,12.6v278.1
		c0,7-5.7,12.6-12.6,12.6H427"/>
	<line class="st0" x1="344.8" y1="357.4" x2="155.2" y2="357.4"/>
	<line class="st0" x1="408" y1="155.2" x2="408" y2="256.3"/>
	<rect x="92" y="357.4" class="st0" width="63.2" height="25.3"/>
	<rect x="344.8" y="357.4" class="st0" width="63.2" height="25.3"/>
	<rect x="395.4" y="92" class="st0" width="25.3" height="63.2"/>
	<rect x="395.4" y="256.3" class="st0" width="25.3" height="63.2"/>
	<line class="st0" x1="250" y1="357.4" x2="250" y2="408"/>
	<circle class="st0" cx="250" cy="427" r="19"/>
	<line class="st0" x1="269" y1="427" x2="452.3" y2="427"/>
	<line class="st0" x1="231" y1="427" x2="47.7" y2="427"/>
	<polyline class="st0" points="376.4,92 92,92 92,319.5 376.4,319.5 	"/>
	<circle class="st0" cx="250" cy="205.8" r="75.8"/>
	<circle class="st0" cx="250" cy="205.8" r="50.6"/>
	<line class="st0" x1="199.4" y1="205.8" x2="174.2" y2="205.8"/>
	<line class="st0" x1="250" y1="155.2" x2="250" y2="129.9"/>
	<line class="st0" x1="300.6" y1="205.8" x2="325.8" y2="205.8"/>
	<line class="st0" x1="250" y1="256.3" x2="250" y2="281.6"/>
	<line class="st0" x1="212.1" y1="167.8" x2="199.4" y2="155.2"/>
	<line class="st0" x1="287.9" y1="167.8" x2="300.6" y2="155.2"/>
	<line class="st0" x1="287.9" y1="243.7" x2="300.6" y2="256.3"/>
	<line class="st0" x1="212.1" y1="243.7" x2="199.4" y2="256.3"/>
</g>
</svg>
