<?xml version="1.0" encoding="utf-8"?>
<!-- Generator: Adobe Illustrator 22.1.0, SVG Export Plug-In . SVG Version: 6.00 Build 0)  -->
<svg version="1.1" id="Layer_1" xmlns="http://www.w3.org/2000/svg" xmlns:xlink="http://www.w3.org/1999/xlink" x="0px" y="0px"
	 viewBox="0 0 500 500" style="enable-background:new 0 0 500 500;" xml:space="preserve">
<style type="text/css">
	.st0{fill:#003851;}
</style>
<title>nonprofit</title>
<g id="Layer_2_1_">
	<g id="Layer_1-2">
		<path class="st0" d="M375,175C375,106,319,50.1,250,50.1S125.1,106,125.1,175C125.1,244,181,300,250,300
			C319,299.9,374.9,244,375,175z M250,287.5c-62.1,0-112.5-50.4-112.5-112.5S187.9,62.6,250,62.6S362.5,112.9,362.5,175
			C362.4,237.1,312.1,287.4,250,287.5z"/>
		<path class="st0" d="M250,131.3c10.3,0,18.7,8.4,18.8,18.8h12.6c0-14.8-10.4-27.6-25-30.6v-13.2h-12.6v13.2
			c-14.5,3-25,15.7-25,30.6c0,16.6,13.6,23.3,25.7,29.1l6,2.9c11.8,5.8,18.5,9.5,18.5,17.9c-0.5,10.3-9.4,18.3-19.7,17.7
			c-9.6-0.5-17.2-8.2-17.7-17.7h-12.7c-0.1,14.9,10.4,27.8,25,30.8V244h12.5v-13.4c14.6-3,25.1-15.9,25-30.8
			c0-16.6-13.5-23.3-25.7-29.1l-6-2.9c-11.8-5.9-18.5-9.5-18.5-17.9C231.3,139.5,239.7,131.2,250,131.3z"/>
		<path class="st0" d="M424.9,175c-13.8,0-25,11.2-25,25V250h12.5v-49.9c0.4-6.9,6.4-12.2,13.3-11.7c6.3,0.4,11.3,5.4,11.7,11.7
			v99.9c-1,7.9-4.8,15.2-10.7,20.6l-43.7,43.7c-8.3,7.7-13.4,18.2-14.3,29.5v6.2h-56.2v-43.7c0.3-9.9,4.1-19.4,10.7-26.8l60.6-60.6
			h3.6c6.9,0,12.5,5.6,12.5,12.5c0,0,0,0.1,0,0.1v3.6l-41.9,41.9l8.8,8.8l45.5-45.6v-8.8c0-13.8-11.2-24.9-25-25h-8.8l-64.3,64.2
			c-8.9,9.8-14,22.4-14.3,35.7v43.7c-6.9,0-12.5,5.6-12.5,12.5l0,0v37.5H300v-37.5h81.2v37.5h12.5v-37.5c0-6.9-5.6-12.5-12.5-12.5
			v-6.2c1-7.9,4.7-15.2,10.7-20.6l43.6-43.8c8.3-7.7,13.4-18.1,14.3-29.4v-99.9C449.8,186.3,438.7,175.1,424.9,175z"/>
		<path class="st0" d="M200.1,399.9v-43.7c-0.3-13.2-5.4-25.9-14.3-35.7l-64.3-64.3h-8.8c-13.8,0-25,11.2-25,25c0,0,0,0,0,0.1v8.7
			l45.6,45.6l8.8-8.8l-41.9-41.9v-3.5c0-6.9,5.6-12.5,12.5-12.5l0,0h3.6l60.6,60.6c6.6,7.4,10.3,16.9,10.7,26.8V400h-56.3v-6.3
			c-0.9-11.3-6.1-21.8-14.4-29.4l-43.6-43.7c-5.9-5.3-9.7-12.6-10.7-20.6v-99.9c0-6.9,5.6-12.5,12.5-12.5c6.9,0,12.5,5.6,12.5,12.5
			V250h12.5v-49.9c0.6-13.8-10.1-25.5-23.9-26.1S50.8,184,50.2,197.8c0,0.8,0,1.5,0,2.3V300c0.9,11.3,6,21.7,14.3,29.4l43.7,43.7
			c5.9,5.3,9.7,12.6,10.6,20.6v6.2c-6.9,0-12.5,5.6-12.5,12.5l0,0v37.5h12.5v-37.5h81.2v37.5h12.5v-37.5
			C212.6,405.5,207,399.9,200.1,399.9z"/>
		<rect x="187.6" y="168.8" class="st0" width="12.5" height="12.5"/>
		<rect x="300" y="168.8" class="st0" width="12.5" height="12.5"/>
		<path class="st0" d="M250,75.1c-55.2,0-100,44.8-100,100s44.8,100,100,100s100-44.8,100-100c0,0,0,0,0-0.1
			C349.9,119.9,305.2,75.2,250,75.1z M250,262.5c-48.2,0-87.3-39.1-87.3-87.3s39.1-87.3,87.3-87.3s87.3,39.1,87.3,87.3
			S298.3,262.5,250,262.5z"/>
	</g>
</g>
</svg>
