<svg xmlns="http://www.w3.org/2000/svg" viewBox="0 0 77.81 77.81"><defs><style>.cls-1{fill:#003851;}</style></defs><title>nonprofit</title><g id="Layer_2" data-name="Layer 2"><g id="Layer_1-2" data-name="Layer 1"><path class="cls-1" d="M63.22,24.31A24.32,24.32,0,1,0,38.9,48.63,24.35,24.35,0,0,0,63.22,24.31ZM38.9,46.2A21.89,21.89,0,1,1,60.79,24.31,21.91,21.91,0,0,1,38.9,46.2Z"/><path class="cls-1" d="M38.9,15.8a3.66,3.66,0,0,1,3.65,3.65H45a6.08,6.08,0,0,0-4.86-5.95V10.94H37.69V13.5a6.09,6.09,0,0,0-4.87,5.95c0,3.23,2.64,4.53,5,5.67l1.17.57c2.3,1.13,3.6,1.85,3.6,3.49a3.65,3.65,0,0,1-7.29,0H32.82a6.09,6.09,0,0,0,4.87,6v2.56h2.43V35.13a6.08,6.08,0,0,0,4.86-6c0-3.23-2.63-4.53-5-5.67l-1.16-.57c-2.3-1.14-3.6-1.85-3.6-3.49A3.65,3.65,0,0,1,38.9,15.8Z"/><path class="cls-1" d="M72.94,24.31a4.87,4.87,0,0,0-4.86,4.87V38.9h2.43V29.18a2.44,2.44,0,0,1,4.87,0V48.62a6.42,6.42,0,0,1-2.08,4l-8.51,8.51A8.75,8.75,0,0,0,62,66.87v1.21H51.06V59.57a8.19,8.19,0,0,1,2.08-5.22l11.8-11.8h.71A2.43,2.43,0,0,1,68.08,45v.71l-8.15,8.16,1.72,1.72,8.86-8.87V45a4.87,4.87,0,0,0-4.86-4.86H63.93L51.42,52.63a10.69,10.69,0,0,0-2.79,6.94v8.51a2.43,2.43,0,0,0-2.43,2.43v7.3h2.43v-7.3h15.8v7.3h2.44v-7.3a2.44,2.44,0,0,0-2.44-2.43v-1.2a6.4,6.4,0,0,1,2.08-4L75,54.35a8.78,8.78,0,0,0,2.79-5.72V29.18A4.88,4.88,0,0,0,72.94,24.31Z"/><path class="cls-1" d="M29.18,68.08V59.57a10.69,10.69,0,0,0-2.79-6.94L13.88,40.12H12.16A4.87,4.87,0,0,0,7.29,45V46.7l8.87,8.87,1.72-1.72L9.73,45.69V45a2.43,2.43,0,0,1,2.43-2.43h.71l11.8,11.8a8.35,8.35,0,0,1,2.08,5.22v8.51H15.8V66.87A8.77,8.77,0,0,0,13,61.14L4.51,52.63a6.37,6.37,0,0,1-2.08-4V29.18a2.43,2.43,0,0,1,4.86,0V38.9H9.73V29.18a4.87,4.87,0,1,0-9.73,0V48.63a8.72,8.72,0,0,0,2.79,5.72l8.51,8.51a6.36,6.36,0,0,1,2.07,4v1.21a2.43,2.43,0,0,0-2.43,2.43v7.3h2.43v-7.3H29.18v7.3h2.43v-7.3A2.43,2.43,0,0,0,29.18,68.08Z"/><rect class="cls-1" x="26.75" y="23.1" width="2.43" height="2.43"/><rect class="cls-1" x="48.63" y="23.1" width="2.43" height="2.43"/><path class="cls-1" d="M38.9,4.86A19.46,19.46,0,1,0,58.36,24.31,19.48,19.48,0,0,0,38.9,4.86Zm0,36.47a17,17,0,1,1,17-17A17,17,0,0,1,38.9,41.33Z"/></g></g></svg>