<?xml version="1.0" encoding="utf-8"?>
<!-- Generator: Adobe Illustrator 22.1.0, SVG Export Plug-In . SVG Version: 6.00 Build 0)  -->
<svg version="1.1" id="_x30_3_x5F_office_x5F_building"
	 xmlns="http://www.w3.org/2000/svg" xmlns:xlink="http://www.w3.org/1999/xlink" x="0px" y="0px" viewBox="0 0 500 500"
	 style="enable-background:new 0 0 500 500;" xml:space="preserve">
<style type="text/css">
	.st0{fill:none;stroke:#222829;stroke-width:14;stroke-miterlimit:10;}
</style>
<g>
	<g>
		<g>
			<polyline class="st0" points="187,366.6 187,108.2 313,108.2 313,366.6 			"/>
			<line class="st0" x1="79.9" y1="360.3" x2="117.7" y2="360.3"/>
			<line class="st0" x1="130.3" y1="360.3" x2="168.1" y2="360.3"/>
			<line class="st0" x1="79.9" y1="335.1" x2="117.7" y2="335.1"/>
			<line class="st0" x1="130.3" y1="335.1" x2="168.1" y2="335.1"/>
			<line class="st0" x1="79.9" y1="309.9" x2="117.7" y2="309.9"/>
			<line class="st0" x1="130.3" y1="309.9" x2="168.1" y2="309.9"/>
			<line class="st0" x1="79.9" y1="284.7" x2="168.1" y2="284.7"/>
			<line class="st0" x1="79.9" y1="259.5" x2="117.7" y2="259.5"/>
			<line class="st0" x1="130.3" y1="259.5" x2="168.1" y2="259.5"/>
			<line class="st0" x1="331.9" y1="360.3" x2="369.7" y2="360.3"/>
			<line class="st0" x1="382.3" y1="360.3" x2="420.1" y2="360.3"/>
			<line class="st0" x1="331.9" y1="335.1" x2="369.7" y2="335.1"/>
			<line class="st0" x1="382.3" y1="335.1" x2="420.1" y2="335.1"/>
			<line class="st0" x1="331.9" y1="309.9" x2="420.1" y2="309.9"/>
			<line class="st0" x1="331.9" y1="284.7" x2="369.7" y2="284.7"/>
			<line class="st0" x1="382.3" y1="284.7" x2="420.1" y2="284.7"/>
			<line class="st0" x1="331.9" y1="259.5" x2="369.7" y2="259.5"/>
			<line class="st0" x1="382.3" y1="259.5" x2="420.1" y2="259.5"/>
			<line class="st0" x1="331.9" y1="234.2" x2="369.7" y2="234.2"/>
			<line class="st0" x1="382.3" y1="234.2" x2="420.1" y2="234.2"/>
			<line class="st0" x1="331.9" y1="209" x2="369.7" y2="209"/>
			<line class="st0" x1="382.3" y1="209" x2="420.1" y2="209"/>
			<line class="st0" x1="205.9" y1="360.3" x2="294.1" y2="360.3"/>
			<line class="st0" x1="205.9" y1="335.1" x2="243.7" y2="335.1"/>
			<line class="st0" x1="256.3" y1="335.1" x2="294.1" y2="335.1"/>
			<line class="st0" x1="205.9" y1="309.9" x2="243.7" y2="309.9"/>
			<line class="st0" x1="256.3" y1="309.9" x2="294.1" y2="309.9"/>
			<line class="st0" x1="205.9" y1="284.7" x2="243.7" y2="284.7"/>
			<line class="st0" x1="256.3" y1="284.7" x2="294.1" y2="284.7"/>
			<line class="st0" x1="205.9" y1="259.5" x2="243.7" y2="259.5"/>
			<line class="st0" x1="256.3" y1="259.5" x2="294.1" y2="259.5"/>
			<line class="st0" x1="205.9" y1="234.2" x2="294.1" y2="234.2"/>
			<line class="st0" x1="205.9" y1="209" x2="243.7" y2="209"/>
			<line class="st0" x1="256.3" y1="209" x2="294.1" y2="209"/>
			<line class="st0" x1="205.9" y1="183.8" x2="243.7" y2="183.8"/>
			<line class="st0" x1="256.3" y1="183.8" x2="294.1" y2="183.8"/>
			<line class="st0" x1="205.9" y1="158.6" x2="243.7" y2="158.6"/>
			<line class="st0" x1="256.3" y1="158.6" x2="294.1" y2="158.6"/>
			<line class="st0" x1="205.9" y1="133.4" x2="243.7" y2="133.4"/>
			<line class="st0" x1="256.3" y1="133.4" x2="294.1" y2="133.4"/>
			<rect x="86.2" y="209" class="st0" width="75.6" height="25.2"/>
			<rect x="338.2" y="158.6" class="st0" width="75.6" height="25.2"/>
			<rect x="212.2" y="83" class="st0" width="75.6" height="25.2"/>
			<line class="st0" x1="250" y1="83" x2="250" y2="51.5"/>
			<polyline class="st0" points="86.2,448.5 61,448.5 61,234.2 187,234.2 			"/>
			<polyline class="st0" points="313,183.8 439,183.8 439,448.5 413.8,448.5 			"/>
			<rect x="86.2" y="385.5" class="st0" width="327.7" height="63"/>
			<line class="st0" x1="187" y1="404.4" x2="187" y2="448.5"/>
			<line class="st0" x1="313" y1="404.4" x2="313" y2="448.5"/>
			<line class="st0" x1="86.2" y1="423.3" x2="413.8" y2="423.3"/>
		</g>
	</g>
</g>
</svg>
