<svg id="Layer_1" data-name="Layer 1" xmlns="http://www.w3.org/2000/svg" viewBox="0 0 500 500"><title>Artboard 1</title><path d="M275.27,347.6a27,27,0,0,1,24.52-26.85,148,148,0,0,0-6.29-23.63,27,27,0,0,1-26.89-46.48,150.09,150.09,0,0,0-17.27-17.27,27,27,0,0,1-46.48-26.89,147.63,147.63,0,0,0-23.62-6.28,27,27,0,0,1-53.69,0,147.65,147.65,0,0,0-23.62,6.28,27,27,0,0,1-46.48,26.89,150.69,150.69,0,0,0-17.27,17.27,27,27,0,0,1-26.9,46.48A149,149,0,0,0,5,320.75a27,27,0,0,1,0,53.69,148.5,148.5,0,0,0,6.28,23.61,27,27,0,0,1,26.9,46.5,151,151,0,0,0,17.27,17.27,27,27,0,0,1,46.48,26.89A148.23,148.23,0,0,0,125.55,495a27,27,0,0,1,53.69,0,148.29,148.29,0,0,0,23.62-6.29,27,27,0,0,1,46.48-26.89,150.59,150.59,0,0,0,17.27-17.27,27,27,0,0,1,26.89-46.5,147,147,0,0,0,6.29-23.61A27,27,0,0,1,275.27,347.6ZM152.4,447.5a99.9,99.9,0,1,1,99.9-99.9A99.91,99.91,0,0,1,152.4,447.5Z"/><path d="M192.36,347.6a40,40,0,1,1-40-40A40,40,0,0,1,192.36,347.6Z"/><path d="M152.47,424.52h-.08a77.43,77.43,0,0,1-14.91-1.44l2.69-13.72a63.62,63.62,0,0,0,12.21,1.18Zm15-1.48-2.73-13.72a62.75,62.75,0,0,0,11.79-3.58l5.36,12.92A76.93,76.93,0,0,1,167.47,423ZM123,418.72a76.9,76.9,0,0,1-13.3-7.1L117.51,400a63,63,0,0,0,10.88,5.8Zm72.14-7.18-7.79-11.62a63.51,63.51,0,0,0,9.53-7.84l9.89,9.89A77.51,77.51,0,0,1,195.19,411.54Zm-97.09-9.46a77.38,77.38,0,0,1-9.58-11.62l11.61-7.8a63.4,63.4,0,0,0,7.85,9.52Zm118.29-11.76-11.63-7.78a62.74,62.74,0,0,0,5.81-10.87L223.49,377A76.93,76.93,0,0,1,216.38,390.32Zm-135-13.15A76.56,76.56,0,0,1,77,362.75L90.69,360a62.64,62.64,0,0,0,3.59,11.79Zm146.48-14.58-13.72-2.71a63.54,63.54,0,0,0,1.19-12.28v-.3h14v.22A77.69,77.69,0,0,1,227.86,362.59ZM75.48,347.75v-.29a77,77,0,0,1,1.43-14.69l13.73,2.69a63.28,63.28,0,0,0-1.17,12.14Zm138.6-12.69a62.45,62.45,0,0,0-3.62-11.78l12.9-5.41a76.42,76.42,0,0,1,4.43,14.42ZM94.18,323.65l-12.93-5.33A76.78,76.78,0,0,1,88.33,305L100,312.77A62.82,62.82,0,0,0,94.18,323.65ZM204.6,312.44a63.35,63.35,0,0,0-7.87-9.51l9.85-9.92a77.36,77.36,0,0,1,9.61,11.61Zm-96.82-9.22-9.91-9.86a77.4,77.4,0,0,1,11.61-9.59l7.81,11.6A63.62,63.62,0,0,0,107.78,303.22Zm79.4-8.08a62.77,62.77,0,0,0-10.89-5.78l5.31-12.94a77,77,0,0,1,13.32,7.07Zm-59-5.62-5.39-12.9a76.6,76.6,0,0,1,14.42-4.41l2.75,13.71A62.31,62.31,0,0,0,128.14,289.51Zm36.34-3.69a63.61,63.61,0,0,0-12.09-1.16h-.22v-7l.06-7h0a77.87,77.87,0,0,1,14.88,1.41Z"/><path d="M427.25,151.85A17.35,17.35,0,0,1,443,134.56a92.74,92.74,0,0,0-4-15.21A17.36,17.36,0,0,1,421.7,89.42,99.8,99.8,0,0,0,410.58,78.3,17.36,17.36,0,0,1,380.64,61a94.12,94.12,0,0,0-15.21-4,17.35,17.35,0,0,1-34.56,0,94.18,94.18,0,0,0-15.21,4,17.35,17.35,0,0,1-29.92,17.3A98.35,98.35,0,0,0,274.6,89.42a17.36,17.36,0,0,1-17.31,29.93,96.5,96.5,0,0,0-4,15.21,17.35,17.35,0,0,1,0,34.57,96.24,96.24,0,0,0,4,15.21,17.35,17.35,0,0,1,17.31,29.91,97.8,97.8,0,0,0,11.14,11.14,17.35,17.35,0,0,1,29.92,17.31,96.47,96.47,0,0,0,15.21,4,17.35,17.35,0,0,1,34.56,0,96.49,96.49,0,0,0,15.21-4,17.36,17.36,0,0,1,29.94-17.31,98.91,98.91,0,0,0,11.12-11.14A17.35,17.35,0,0,1,439,184.35a92.72,92.72,0,0,0,4-15.21A17.36,17.36,0,0,1,427.25,151.85ZM348.15,195a43.19,43.19,0,1,1,43.19-43.19A43.18,43.18,0,0,1,348.15,195Z"/><path d="M348.47,298.71h-.32c-4.94,0-10-.26-14.84-.75l1.4-13.92a134.06,134.06,0,0,0,13.44.68h.32Zm14.86-.79L361.9,284a132.2,132.2,0,0,0,13.3-2L378,295.65A142.43,142.43,0,0,1,363.33,297.92Zm29.1-6-4.22-13.33a130.93,130.93,0,0,0,12.6-4.7l5.56,12.84C401.81,288.67,397.14,290.41,392.43,291.91Zm27.27-11.79-6.84-12.22a129.43,129.43,0,0,0,11.4-7.15l8,11.45A146.53,146.53,0,0,1,419.7,280.12Zm24.34-17-9.16-10.58a131,131,0,0,0,9.75-9.29l10.15,9.62C451.39,256.4,447.76,259.86,444,263.07Zm20.41-21.56L453.38,233a131.12,131.12,0,0,0,7.68-11.05l11.88,7.4C470.32,233.5,467.47,237.61,464.45,241.51Zm15.7-25.22-12.56-6.14c2-4,3.74-8.19,5.29-12.38L486,202.61A142.31,142.31,0,0,1,480.14,216.29ZM490.4,188.4l-13.54-3.47c1.1-4.33,2-8.76,2.68-13.19l13.83,2.09A146.73,146.73,0,0,1,490.4,188.4ZM203,174.16a145.49,145.49,0,0,1-1.5-14.79l14-.71A133,133,0,0,0,216.81,172ZM494.84,159l-14-.68c.12-2.14.17-4.33.17-6.5,0-2.33-.06-4.67-.19-7l14-.71c.13,2.53.19,5.12.19,7.68C495,154.25,494.94,156.66,494.84,159ZM215.46,145.19l-14-.68a147.9,147.9,0,0,1,1.48-14.8l13.83,2.08A130.39,130.39,0,0,0,215.46,145.19Zm264-13.7c-.69-4.41-1.6-8.84-2.72-13.16l13.53-3.53a142.45,142.45,0,0,1,3,14.58Zm-260-12.88-13.54-3.48a146.57,146.57,0,0,1,4.43-14.21l13.12,4.87A133.34,133.34,0,0,0,219.47,118.61ZM472.7,105.5a132.85,132.85,0,0,0-5.33-12.35L479.92,87a148.44,148.44,0,0,1,5.91,13.67ZM228.79,93.42l-12.55-6.16a148,148,0,0,1,7.22-13l11.87,7.39A134,134,0,0,0,228.79,93.42Zm232-12a132.44,132.44,0,0,0-7.73-11l11.05-8.59A145,145,0,0,1,472.67,74ZM243,70.6,232,62a143.88,143.88,0,0,1,9.68-11.27l10.14,9.63C248.69,63.64,245.74,67.08,243,70.6ZM444.32,60.17c-3.08-3.23-6.37-6.35-9.76-9.26l9.1-10.61c3.73,3.19,7.37,6.65,10.78,10.22ZM261.52,51.1,252.4,40.5a148,148,0,0,1,11.75-9.12l8,11.46C268.5,45.4,264.91,48.18,261.52,51.1Zm162.37-8.42a124.64,124.64,0,0,0-11.41-7.11l6.79-12.24a147,147,0,0,1,12.62,7.88Zm-140.34-7-6.8-12.21a145.09,145.09,0,0,1,13.34-6.58l5.52,12.85A134.25,134.25,0,0,0,283.56,35.71Zm116.83-6.05A130.25,130.25,0,0,0,387.78,25L392,11.64c4.7,1.47,9.4,3.21,14,5.15Zm-92.15-4.57L304,11.74A146.06,146.06,0,0,1,318.44,8l2.82,13.71A133,133,0,0,0,308.24,25.08Zm66.51-3.43a133.86,133.86,0,0,0-13.31-2l1.38-13.92a147.32,147.32,0,0,1,14.69,2.2Zm-40.19-2L333.15,5.76C338,5.27,343,5,348,5V19C343.51,19,339,19.23,334.56,19.68Z"/></svg>