<svg id="Layer_1" data-name="Layer 1" xmlns="http://www.w3.org/2000/svg" viewBox="0 0 1000 1000"><title>Artboard 2</title><polygon points="500 927.78 211.88 735.7 211.88 608.59 242.3 608.59 242.3 719.42 500 891.22 757.71 719.42 757.71 608.59 788.13 608.59 788.13 735.7 500 927.78"/><rect x="484.79" y="591" width="30.42" height="318.49"/><path d="M649.64,709.08,472.57,591,772.92,390.82,950,508.8ZM527.43,591l122.21,81.5,245.49-163.7L772.92,427.38Z"/><path d="M350.35,709.07,50,508.8l177.07-118L527.43,591ZM104.87,508.81,350.35,672.5,472.57,591,227.08,427.38Z"/><polygon points="781.36 421.75 764.48 396.44 895.15 309.31 804.93 249.21 821.8 223.89 950 309.31 781.36 421.75"/><polygon points="218.64 421.75 50 309.31 178.19 223.89 195.07 249.21 104.85 309.31 235.52 396.44 218.64 421.75"/><path d="M769.53,425.09l-29.37-8a250.56,250.56,0,0,0,8.74-65.59c0-135.54-110.21-247.15-245.68-248.81l-.74,0c-.79,0-1.62,0-2.46,0s-1.67,0-2.46,0l-.74,0C361.33,104.39,251.09,216,251.09,351.54a250.65,250.65,0,0,0,8.73,65.59l-29.37,8a281.21,281.21,0,0,1-9.79-73.55c0-152,123.55-277.19,275.46-279.22a76.39,76.39,0,0,1,7.79,0c151.88,2,275.4,127.22,275.4,279.22A281.14,281.14,0,0,1,769.53,425.09Z"/><path d="M386.24,530.53A334.87,334.87,0,0,1,374,497.67c-13.92-43.87-21.27-94.39-21.27-146.13S360.09,249.18,374,205.41c25.6-80.76,71.15-130.52,121.84-133.08,1.22-.08,2.68-.09,4.15-.09v30.42c-.83,0-1.67,0-2.46,0-37.07,1.88-73.24,44.76-94.53,111.93-13,40.84-19.91,88.17-19.91,136.91s6.86,96,19.84,136.9A303.49,303.49,0,0,0,414.1,518.3Z"/><path d="M613.75,530.6l-27.86-12.23a301.9,301.9,0,0,0,11.2-29.92c12.93-40.77,19.77-88.11,19.77-136.91S610,255.34,597,214.65c-21.37-67.19-57.53-110.07-94.38-111.94-1-.06-1.8-.05-2.61,0V72.25c1.47,0,2.92,0,4.3.1,50.45,2.55,96,52.3,121.68,133.08,13.91,43.62,21.27,94.15,21.27,146.12s-7.33,102.4-21.2,146.11A332.31,332.31,0,0,1,613.75,530.6Z"/><rect x="484.81" y="87.46" width="30.42" height="503.56"/><rect x="235.9" y="336.35" width="528.2" height="30.42"/><path d="M500,234.72a674.48,674.48,0,0,1-210.88-33.64l9.49-28.91A644.14,644.14,0,0,0,500,204.3a643.7,643.7,0,0,0,201.42-32.12l9.51,28.9A674.1,674.1,0,0,1,500,234.72Z"/><path d="M635.82,513.19c-8.88-1.92-17.88-3.65-26.75-5.14a649.71,649.71,0,0,0-218,0c-8.91,1.49-17.91,3.22-26.81,5.15l-6.43-29.74c9.35-2,18.82-3.84,28.15-5.41a680.77,680.77,0,0,1,228.2,0c9.28,1.56,18.76,3.38,28.09,5.4Z"/></svg>