<?xml version="1.0" encoding="utf-8"?>
<!-- Generator: Adobe Illustrator 22.1.0, SVG Export Plug-In . SVG Version: 6.00 Build 0)  -->
<svg version="1.1" id="_x30_5_x5F_partnership_x5F_cooperation"
	 xmlns="http://www.w3.org/2000/svg" xmlns:xlink="http://www.w3.org/1999/xlink" x="0px" y="0px" viewBox="0 0 500 500"
	 style="enable-background:new 0 0 500 500;" xml:space="preserve">
<style type="text/css">
	.st0{fill:#222829;}
</style>
<g>
	<polyline class="st0" points="372.5,455 372.5,307.8 358.7,307.8 358.7,455 	"/>
	<path class="st0" d="M365.6,51.2v6.9c6.9,0,13.1,2.8,17.9,7.6c4.8,4.8,7.6,11,7.6,17.9s-2.8,13.1-7.6,17.9
		c-4.8,4.8-11,7.6-17.9,7.6s-13.1-2.8-17.9-7.6c-4.8-4.8-7.6-11-7.6-17.9s2.8-13.1,7.6-17.9c4.8-4.8,11-7.6,17.9-7.6V51.2v-6.9
		c-21.3,0-39.2,17.9-39.2,39.2s17.9,39.2,39.2,39.2c21.3,0,39.2-17.9,39.2-39.2s-17.9-39.2-39.2-39.2V51.2z"/>
	<path class="st0" d="M256.9,240.4l50.2-76.4l-5.5-3.4l5.5,4.1l-2.1-1.4l2.1,1.4l0,0l-2.1-1.4l2.1,1.4c0,0,3.4-4.1,8.9-8.3
		c5.5-4.1,13.8-7.6,24.1-7.6H391c20.6,0,37.8,16.5,37.8,37.8v95.6h-25.5v173.4h13.8V296.1h25.5V186c0-14.4-5.5-27.5-15.1-36.5
		c-9.6-9.6-22-15.1-36.5-15.1h-50.9c-14.4,0-25.5,5.5-33,11c-7.6,5.5-11,11-11,11l0,0l-50.2,76.4L256.9,240.4L256.9,240.4z"/>
	<polyline class="st0" points="358.7,160.6 358.7,173.6 372.5,173.6 372.5,160.6 	"/>
	<polyline class="st0" points="358.7,186 358.7,199.1 372.5,199.1 372.5,186 	"/>
	<polyline class="st0" points="141.3,455 141.3,307.8 127.5,307.8 127.5,455 	"/>
	<path class="st0" d="M133.7,51.2v6.9c6.9,0,13.1,2.8,17.9,7.6c4.8,4.8,7.6,11,7.6,17.9s-2.8,13.1-7.6,17.9
		c-4.8,4.8-11,7.6-17.9,7.6c-6.9,0-13.1-2.8-17.9-7.6c-4.8-4.8-7.6-11-7.6-17.9s2.8-13.1,7.6-17.9c4.8-4.8,11-7.6,17.9-7.6V51.2
		v-6.9c-21.3,0-39.2,17.9-39.2,39.2s17.9,39.2,39.2,39.2c21.3,0,39.2-17.9,39.2-39.2s-17.9-39.2-39.2-39.2V51.2z"/>
	<path class="st0" d="M274.8,258.9l-70.2-102.5l0,0c0-0.7-4.1-5.5-11.7-11c-7.6-5.5-18.6-11-33.7-11h-50.9
		c-14.4,0-26.8,5.5-36.5,15.1c-8.9,9.6-14.4,22-14.4,36.5v109.4h25.5V455h13.8V281.6H71.1V186c0-10.3,4.1-20,11-26.8
		s15.8-11,26.1-11h50.9c11,0,20,4.1,25.5,8.3c2.8,2.1,4.8,4.1,6.2,5.5c0.7,0.7,1.4,1.4,1.4,2.1v0.7l0,0l2.1-1.4l-2.1,1.4l0,0
		l2.1-1.4l-2.1,1.4l0,0l71.5,102.5L274.8,258.9L274.8,258.9z"/>
	<path class="st0" d="M186.7,455V228l58.5,59.2c1.4,1.4,2.8,2.1,4.8,2.1c2.1,0,3.4-0.7,4.8-2.1l58.5-59.2v227h13.8V211.5
		c0-2.8-1.4-5.5-4.1-6.2c-2.8-1.4-5.5-0.7-7.6,1.4l-65.4,66l-65.4-66c-2.1-2.1-4.8-2.8-7.6-1.4c-2.8,1.4-4.1,3.4-4.1,6.2V455H186.7
		L186.7,455z"/>
</g>
</svg>
