<svg id="Layer_1" data-name="Layer 1" xmlns="http://www.w3.org/2000/svg" viewBox="0 0 500 500"><title>Artboard 1</title><path d="M417,298l78-78-10.83-10.83L417,276.35,283.45,142.76l67.17-67.18L339.8,64.75l-78,78,19.38,19.39L250,193.34l-31.17-31.18,19.39-19.39-78-78L149.38,75.58l67.18,67.19L83,276.34,15.83,209.16,5,220l78,78,19.41-19.41,32,32a26.29,26.29,0,0,0,23.2,38.74h.07s0,.07,0,.1A26.38,26.38,0,0,0,184,375.71h.11s0,.07,0,.11a26.32,26.32,0,0,0,26.31,26.32h.06s0,0,0,.06a26.38,26.38,0,0,0,26.31,26.36h0a26.12,26.12,0,0,0,12.41-3.14l2.17,2.17a26.41,26.41,0,0,0,18.61,7.68,26.38,26.38,0,0,0,26.31-26.35v-.06h.09a26.37,26.37,0,0,0,26.32-26.32v-.11h.06A26.27,26.27,0,0,0,349,356.11V356h.1a26.31,26.31,0,0,0,18.59-44.91l-1.3-1.3,31.17-31.2ZM157.58,334a10.93,10.93,0,0,1-11-11,10.82,10.82,0,0,1,3.19-7.73l.14-.15a11.21,11.21,0,0,1,15.49.12,10.83,10.83,0,0,1,3.2,7.75,11.09,11.09,0,0,1-3.25,7.84l0,0A11,11,0,0,1,157.6,334Zm18.61,23.16a10.92,10.92,0,0,1,0-15.52l.19-.19a11.22,11.22,0,0,1,15.38.16,10.9,10.9,0,0,1,0,15.54l-.31.31A11.21,11.21,0,0,1,176.19,357.15Zm26.39,26.42a10.88,10.88,0,0,1-3.2-7.75,11.13,11.13,0,0,1,3.24-7.86l.17-.17a11.47,11.47,0,0,1,15.36.14,11.2,11.2,0,0,1,3.26,7.87,10.86,10.86,0,0,1-3.21,7.75A11.26,11.26,0,0,1,202.59,383.57ZM229,410a11,11,0,0,1,7.8-18.82,11,11,0,0,1,7.83,3.28,11,11,0,0,1,0,15.49,11.22,11.22,0,0,1-7.85,3.31A11,11,0,0,1,229,410Zm127.9-72.46a10.87,10.87,0,0,1-7.76,3.2h0a10.89,10.89,0,0,1-7.77-3.2l-10.84,10.83a11,11,0,0,1-7.8,18.77h0a10.74,10.74,0,0,1-7.72-3.19l-10.91,10.75a11.14,11.14,0,0,1,3.27,7.86,10.88,10.88,0,0,1-3.22,7.75,11.25,11.25,0,0,1-15.59,0l-10.84,10.83a11,11,0,0,1,0,15.6,11.28,11.28,0,0,1-15.56,0l-2.1-2.1a26.37,26.37,0,0,0-23.25-38.77h-.06v0A26.48,26.48,0,0,0,229,357.13a26.2,26.2,0,0,0-18.62-7.65h-.06s0-.07,0-.1A26.38,26.38,0,0,0,184,323.06h-.05s0-.06,0-.1a26.3,26.3,0,0,0-38.71-23.22l-32-32L208,173l31.17,31.18-55.29,55.3a26.43,26.43,0,0,0-7.65,18.59,26.36,26.36,0,0,0,26.31,26.31h0a26.21,26.21,0,0,0,18.61-7.74l25.19-25.19a49.81,49.81,0,0,0,33.71,13h0a49.81,49.81,0,0,0,29.67-9.7L356.94,322a10.68,10.68,0,0,1,3.18,7.71A11,11,0,0,1,356.89,337.51ZM355.59,299l-45.44-45.47-5.42,5.42a34.87,34.87,0,0,1-49.32,0l-9.09-9.1-36,36a11,11,0,0,1-7.8,3.26h0a11,11,0,0,1-7.8-3.26,10.83,10.83,0,0,1-3.21-7.74,11.15,11.15,0,0,1,3.22-7.82L292,173l94.75,94.79Z"/><rect x="411.6" y="238.44" width="15.31" height="15.31" transform="translate(-51.26 368.39) rotate(-44.98)"/><rect x="73.09" y="238.44" width="15.32" height="15.32" transform="translate(-150.36 129.16) rotate(-45)"/></svg>