<?xml version="1.0" encoding="utf-8"?>
<!-- Generator: Adobe Illustrator 22.1.0, SVG Export Plug-In . SVG Version: 6.00 Build 0)  -->
<svg version="1.1" id="_x34_4_x5F_partners_x5F_collaboration"
	 xmlns="http://www.w3.org/2000/svg" xmlns:xlink="http://www.w3.org/1999/xlink" x="0px" y="0px" viewBox="0 0 500 500"
	 style="enable-background:new 0 0 500 500;" xml:space="preserve">
<style type="text/css">
	.st0{fill:#222829;}
</style>
<g>
	<polyline class="st0" points="122.4,298.3 122.4,437 136.4,437 136.4,298.3 	"/>
	<polyline class="st0" points="94.1,437 94.1,334.5 80.1,334.5 80.1,437 	"/>
	<path class="st0" d="M111.3,63v7c2.4,0,4.6,0.5,6.7,1.3c3.1,1.3,5.7,3.5,7.5,6.2c1.8,2.7,2.9,6,2.9,9.6c0,2.4-0.5,4.6-1.3,6.7
		c-1.3,3.1-3.5,5.7-6.2,7.5c-2.7,1.8-6,2.9-9.6,2.9c-2.4,0-4.6-0.5-6.7-1.3c-3.1-1.3-5.7-3.5-7.5-6.2c-1.8-2.7-2.9-6-2.9-9.6
		c0-2.4,0.5-4.6,1.3-6.7c1.3-3.1,3.5-5.7,6.2-7.5c2.7-1.8,6-2.9,9.6-2.9V63v-7c-4.3,0-8.4,0.9-12.1,2.4c-5.6,2.4-10.3,6.3-13.7,11.3
		c-3.4,5-5.3,11-5.3,17.4c0,4.3,0.9,8.4,2.4,12.1c2.4,5.6,6.3,10.3,11.3,13.7c5,3.4,11,5.3,17.4,5.3c4.3,0,8.4-0.9,12.1-2.4
		c5.6-2.4,10.3-6.3,13.7-11.3c3.4-5,5.3-11,5.3-17.4c0-4.3-0.9-8.4-2.4-12.1c-2.4-5.6-6.3-10.3-11.3-13.7c-5-3.4-11-5.3-17.4-5.3V63
		z"/>
	<path class="st0" d="M92.7,174.2l25.9,64.7h102.2v-38.1h-66.4v-35.2c0-5.1-1-10-2.9-14.5c-2.8-6.7-7.5-12.4-13.5-16.4
		c-5.9-4-13.1-6.4-20.8-6.4h-24c-3.4,0-6.8,0.7-9.8,2c-4.5,1.9-8.3,5.1-11,9.1c-2.7,4-4.3,8.9-4.3,14v188h28l58.4-58.4V250h-14
		l0,27.3l-50.2,50.2h-8.2v-174c0-1.6,0.3-3,0.9-4.3c0.8-2,2.3-3.7,4-4.9c1.8-1.2,3.9-1.9,6.2-1.9h24c3.2,0,6.3,0.6,9,1.8
		c4.2,1.8,7.7,4.7,10.2,8.4c2.5,3.7,4,8.1,4,13v49.2h66.4v10.1H128L105.7,169L92.7,174.2L92.7,174.2z"/>
	<polyline class="st0" points="363.6,298.3 363.6,437 377.6,437 377.6,298.3 	"/>
	<polyline class="st0" points="419.9,437 419.9,340.5 405.9,340.5 405.9,437 	"/>
	<path class="st0" d="M388.7,63v7c2.4,0,4.6,0.5,6.7,1.3c3.1,1.3,5.7,3.5,7.5,6.2c1.8,2.7,2.9,6,2.9,9.6c0,2.4-0.5,4.6-1.3,6.7
		c-1.3,3.1-3.5,5.7-6.2,7.5c-2.7,1.8-6,2.9-9.6,2.9c-2.4,0-4.6-0.5-6.7-1.3c-3.1-1.3-5.7-3.5-7.5-6.2c-1.8-2.7-2.9-6-2.9-9.6
		c0-2.4,0.5-4.6,1.3-6.7c1.3-3.1,3.5-5.7,6.2-7.5c2.7-1.8,6-2.9,9.6-2.9V63v-7c-4.3,0-8.4,0.9-12.1,2.4c-5.6,2.4-10.3,6.3-13.7,11.3
		c-3.4,5-5.3,11-5.3,17.4c0,4.3,0.9,8.4,2.4,12.1c2.4,5.6,6.3,10.3,11.3,13.7c5,3.4,11,5.3,17.4,5.3c4.3,0,8.4-0.9,12.1-2.4
		c5.6-2.4,10.3-6.3,13.7-11.3c3.4-5,5.3-11,5.3-17.4c0-4.3-0.9-8.4-2.4-12.1c-2.4-5.6-6.3-10.3-11.3-13.7c-5-3.4-11-5.3-17.4-5.3V63
		z"/>
	<path class="st0" d="M394.3,169L372,224.9h-78.8v-10.1l66.4,0v-49.2c0-3.2,0.6-6.3,1.8-9c1.8-4.2,4.7-7.7,8.4-10.2
		c3.7-2.5,8.1-4,13-4h24.1c1.6,0,3,0.3,4.3,0.9c2,0.8,3.7,2.3,4.9,4c1.2,1.8,1.9,3.9,1.9,6.2v180h-2.2l-56.2-56.2l0-27.3h-14l0,33.1
		l64.4,64.4h22v-194c0-3.4-0.7-6.8-2-9.8c-1.9-4.5-5.1-8.3-9.1-11c-4-2.7-8.9-4.3-14-4.3h-24.1c-5.1,0-10,1-14.5,2.9
		c-6.7,2.8-12.4,7.5-16.4,13.5c-4,5.9-6.4,13.1-6.4,20.8v35.2l-66.4,0v38.1h102.2l25.9-64.7L394.3,169L394.3,169z"/>
	<polyline class="st0" points="170.6,231.9 170.6,286.2 184.6,286.2 184.6,231.9 	"/>
	<polyline class="st0" points="329.4,437 329.4,322.4 315.4,322.4 315.4,437 	"/>
	<polyline class="st0" points="244,335.4 256,335.4 256,321.4 244,321.4 	"/>
	<polyline class="st0" points="219.8,335.4 231.9,335.4 231.9,321.4 219.8,321.4 	"/>
	<polyline class="st0" points="268.1,335.4 280.2,335.4 280.2,321.4 268.1,321.4 	"/>
	<path class="st0" d="M184.6,437V311.3h60.3v-13c0-1.9-0.5-3.7-1.1-5c-0.5-1.2-1.2-2.3-1.8-3.2c-1.1-1.6-2.3-3-3.4-4.4
		c-1.7-2-3.2-3.9-4.2-5.8c-0.5-0.9-0.9-1.8-1.2-2.8c-0.3-0.9-0.4-1.9-0.4-2.9c0-2.4,0.5-4.6,1.3-6.6c1.3-3.1,3.5-5.7,6.2-7.5
		c2.7-1.8,6-2.9,9.6-2.9c2.4,0,4.6,0.5,6.6,1.3c3.1,1.3,5.7,3.5,7.5,6.2c1.8,2.7,2.9,6,2.9,9.6c0,0.9-0.1,1.8-0.3,2.6
		c-0.4,1.4-1,2.8-1.9,4.2c-0.7,1.1-1.5,2.2-2.4,3.3c-1.4,1.7-2.9,3.4-4.3,5.4c-0.7,1-1.4,2.2-2,3.6c-0.6,1.4-1.1,3.1-1.1,5v13h74.3
		V250h-14l0,47.3h-53.3v7h7v-6h-2.1l2,0.5c0-0.1,0.1-0.3,0.1-0.5h-2.1l2,0.5l-0.9-0.2l0.9,0.3l0-0.1l-0.9-0.2l0.9,0.3l-0.1,0l0.1,0
		l0,0l-0.1,0l0.1,0c0,0,0.1-0.3,0.4-0.7c0.5-0.7,1.4-1.9,2.5-3.2c1.7-2.1,3.9-4.7,5.8-8.1c0.9-1.7,1.8-3.6,2.4-5.7
		c0.6-2.1,1-4.4,1-6.9c0-4.3-0.9-8.4-2.4-12.1c-2.4-5.6-6.3-10.3-11.3-13.7c-5-3.4-11-5.3-17.4-5.3c-4.3,0-8.4,0.9-12.1,2.4
		c-5.6,2.4-10.3,6.3-13.7,11.3c-3.4,5-5.3,11-5.3,17.4c0,2.1,0.3,4.1,0.7,5.9c0.8,3.2,2.2,6,3.7,8.3c1.1,1.8,2.3,3.3,3.4,4.6
		c1.6,2,3,3.6,3.8,4.7c0.4,0.5,0.6,0.9,0.6,1l0,0l0,0l0.9-0.3l-0.9,0.2c0,0.1,0,0.1,0,0.1l0.9-0.3l-0.9,0.2l2.1-0.4h-2.2
		c0,0.2,0,0.3,0,0.4l2.1-0.4h-2.2v6h7v-7h-67.3V437H184.6L184.6,437z"/>
	<path class="st0" d="M57,444h188v-13c0-1.9-0.5-3.7-1.1-5c-0.5-1.2-1.2-2.3-1.8-3.2c-1.1-1.6-2.3-3-3.4-4.4c-1.7-2-3.2-3.9-4.2-5.8
		c-0.5-0.9-0.9-1.8-1.2-2.8c-0.3-0.9-0.4-1.9-0.4-2.9c0-2.4,0.5-4.6,1.3-6.6c1.3-3.1,3.5-5.7,6.2-7.5c2.7-1.8,6-2.9,9.6-2.9
		c2.4,0,4.6,0.5,6.6,1.3c3.1,1.3,5.7,3.5,7.5,6.2c1.8,2.7,2.9,6,2.9,9.6c0,0.9-0.1,1.8-0.3,2.6c-0.4,1.4-1,2.8-1.9,4.2
		c-0.7,1.1-1.5,2.2-2.4,3.3c-1.4,1.7-2.9,3.4-4.3,5.4c-0.7,1-1.4,2.2-2,3.6c-0.6,1.4-1.1,3.1-1.1,5v13h188v-14H262v7h7v-6h-2.1
		l2,0.5c0-0.1,0.1-0.3,0.1-0.5h-2.1l2,0.5l-0.9-0.2l0.9,0.3l0-0.1l-0.9-0.2l0.9,0.3l-0.1,0l0.1,0l0,0l-0.1,0l0.1,0
		c0,0,0.1-0.3,0.4-0.7c0.5-0.7,1.4-1.9,2.5-3.2c1.7-2.1,3.9-4.7,5.8-8.1c0.9-1.7,1.8-3.6,2.4-5.7c0.6-2.1,1-4.4,1-6.9
		c0-4.3-0.9-8.4-2.4-12.1c-2.4-5.6-6.3-10.3-11.3-13.7c-5-3.4-11-5.3-17.4-5.3c-4.3,0-8.4,0.9-12.1,2.4c-5.6,2.4-10.3,6.3-13.7,11.3
		c-3.4,5-5.3,11-5.3,17.4c0,2.1,0.3,4.1,0.7,5.9c0.8,3.2,2.2,6,3.7,8.3c1.1,1.8,2.3,3.3,3.4,4.6c1.6,2,3,3.6,3.8,4.7
		c0.4,0.5,0.6,0.9,0.6,1l0,0l0,0l0.9-0.3l-0.9,0.2c0,0.1,0,0.1,0,0.1l0.9-0.3l-0.9,0.2l2.1-0.4H231c0,0.2,0,0.3,0,0.4l2.1-0.4H231v6
		h7v-7H57V444L57,444z"/>
	<path class="st0" d="M184.6,189.7v-29.2l60.3,0v-13c0-1.9-0.5-3.7-1.1-5c-0.5-1.2-1.2-2.3-1.8-3.2c-1.1-1.6-2.3-3-3.4-4.4
		c-1.7-2-3.2-3.9-4.2-5.8c-0.5-0.9-0.9-1.8-1.2-2.8c-0.3-0.9-0.4-1.9-0.4-2.9c0-2.4,0.5-4.6,1.3-6.6c1.3-3.1,3.5-5.7,6.2-7.5
		c2.7-1.8,6-2.9,9.6-2.9c2.4,0,4.6,0.5,6.6,1.3c3.1,1.3,5.7,3.5,7.5,6.2c1.8,2.7,2.9,6,2.9,9.6c0,0.9-0.1,1.8-0.3,2.6
		c-0.4,1.4-1,2.8-1.9,4.2c-0.7,1.1-1.5,2.2-2.4,3.3c-1.4,1.7-2.9,3.4-4.3,5.4c-0.7,1-1.4,2.2-2,3.6c-0.6,1.4-1.1,3.1-1.1,5v13h60.3
		v47.3h14l0-61.3h-67.3v7h7v-6h-2.1l2,0.5c0-0.1,0.1-0.3,0.1-0.5h-2.1l2,0.5l-0.9-0.2l0.9,0.3l0-0.1l-0.9-0.2l0.9,0.3l-0.1,0l0.1,0
		l0,0l-0.1,0l0.1,0c0,0,0.1-0.3,0.4-0.7c0.5-0.7,1.4-1.9,2.5-3.2c1.7-2.1,3.9-4.7,5.8-8.1c0.9-1.7,1.8-3.6,2.4-5.7
		c0.6-2.1,1-4.4,1-6.9c0-4.3-0.9-8.4-2.4-12.1c-2.4-5.6-6.3-10.3-11.3-13.7c-5-3.4-11-5.3-17.4-5.3c-4.3,0-8.4,0.9-12.1,2.4
		c-5.6,2.4-10.3,6.3-13.7,11.3c-3.4,5-5.3,11-5.3,17.4c0,2.1,0.3,4.1,0.7,5.9c0.8,3.2,2.2,6,3.7,8.3c1.1,1.8,2.3,3.3,3.4,4.6
		c1.6,2,3,3.6,3.8,4.7c0.4,0.5,0.6,0.9,0.6,1l0,0l0,0l0.9-0.3l-0.9,0.2c0,0.1,0,0.1,0,0.1l0.9-0.3l-0.9,0.2l2.1-0.4l-2.2,0
		c0,0.2,0,0.3,0,0.4l2.1-0.4l-2.2,0v6h7v-7h-67.3v43.2H184.6L184.6,189.7z"/>
</g>
</svg>
