<?xml version="1.0" encoding="utf-8"?>
<!-- Generator: Adobe Illustrator 22.1.0, SVG Export Plug-In . SVG Version: 6.00 Build 0)  -->
<svg version="1.1" id="_x30_5_x5F_partnership_x5F_cooperation"
	 xmlns="http://www.w3.org/2000/svg" xmlns:xlink="http://www.w3.org/1999/xlink" x="0px" y="0px" viewBox="0 0 100 80"
	 style="enable-background:new 0 0 100 80;" xml:space="preserve">
<style type="text/css">
	.st0{fill:#222829;}
</style>
<g>
	<polyline class="st0" points="67.8,69.3 67.8,47.9 65.8,47.9 65.8,69.3 	"/>
	<path class="st0" d="M66.8,10.6v1c1,0,1.9,0.4,2.6,1.1c0.7,0.7,1.1,1.6,1.1,2.6c0,1-0.4,1.9-1.1,2.6c-0.7,0.7-1.6,1.1-2.6,1.1
		c-1,0-1.9-0.4-2.6-1.1c-0.7-0.7-1.1-1.6-1.1-2.6c0-1,0.4-1.9,1.1-2.6c0.7-0.7,1.6-1.1,2.6-1.1V10.6v-1c-3.1,0-5.7,2.6-5.7,5.7
		c0,3.1,2.6,5.7,5.7,5.7c3.1,0,5.7-2.6,5.7-5.7c0-3.1-2.6-5.7-5.7-5.7V10.6z"/>
	<path class="st0" d="M51,38.1L58.3,27l-0.8-0.5l0.8,0.6l-0.3-0.2l0.3,0.2l0,0l-0.3-0.2l0.3,0.2c0,0,0.5-0.6,1.3-1.2
		c0.8-0.6,2-1.1,3.5-1.1h7.4c3,0,5.5,2.4,5.5,5.5v13.9l-3.7,0v25.2h2l0-23.2H78V30.2c0-2.1-0.8-4-2.2-5.3c-1.4-1.4-3.2-2.2-5.3-2.2
		h-7.4c-2.1,0-3.7,0.8-4.8,1.6c-1.1,0.8-1.6,1.6-1.6,1.6l0,0l-7.3,11.1L51,38.1L51,38.1z"/>
	<polyline class="st0" points="65.8,26.5 65.8,28.4 67.8,28.4 67.8,26.5 	"/>
	<polyline class="st0" points="65.8,30.2 65.8,32.1 67.8,32.1 67.8,30.2 	"/>
	<polyline class="st0" points="34.2,69.3 34.2,47.9 32.2,47.9 32.2,69.3 	"/>
	<path class="st0" d="M33.1,10.6v1c1,0,1.9,0.4,2.6,1.1c0.7,0.7,1.1,1.6,1.1,2.6c0,1-0.4,1.9-1.1,2.6C35,18.6,34.1,19,33.1,19
		c-1,0-1.9-0.4-2.6-1.1c-0.7-0.7-1.1-1.6-1.1-2.6c0-1,0.4-1.9,1.1-2.6c0.7-0.7,1.6-1.1,2.6-1.1V10.6v-1c-3.1,0-5.7,2.6-5.7,5.7
		c0,3.1,2.6,5.7,5.7,5.7c3.1,0,5.7-2.6,5.7-5.7c0-3.1-2.6-5.7-5.7-5.7V10.6z"/>
	<path class="st0" d="M53.6,40.8L43.4,25.9l0,0c0-0.1-0.6-0.8-1.7-1.6c-1.1-0.8-2.7-1.6-4.9-1.6h-7.4c-2.1,0-3.9,0.8-5.3,2.2
		c-1.3,1.4-2.1,3.2-2.1,5.3v15.9h3.7l0,23.2h2l0-25.2h-3.7V30.2c0-1.5,0.6-2.9,1.6-3.9c1-1,2.3-1.6,3.8-1.6h7.4
		c1.6,0,2.9,0.6,3.7,1.2c0.4,0.3,0.7,0.6,0.9,0.8c0.1,0.1,0.2,0.2,0.2,0.3l0,0.1l0,0l0.3-0.2l-0.3,0.2l0,0l0.3-0.2l-0.3,0.2l0,0
		L52,42L53.6,40.8L53.6,40.8z"/>
	<path class="st0" d="M40.8,69.3v-33l8.5,8.6c0.2,0.2,0.4,0.3,0.7,0.3c0.3,0,0.5-0.1,0.7-0.3l8.5-8.6l0,33h2l0-35.4
		c0-0.4-0.2-0.8-0.6-0.9c-0.4-0.2-0.8-0.1-1.1,0.2L50,42.8l-9.5-9.6c-0.3-0.3-0.7-0.4-1.1-0.2c-0.4,0.2-0.6,0.5-0.6,0.9v35.4H40.8
		L40.8,69.3z"/>
</g>
</svg>
