<?xml version="1.0" encoding="iso-8859-1"?>
<!-- Generator: Adobe Illustrator 17.0.0, SVG Export Plug-In . SVG Version: 6.00 Build 0)  -->
<!DOCTYPE svg PUBLIC "-//W3C//DTD SVG 1.1//EN" "http://www.w3.org/Graphics/SVG/1.1/DTD/svg11.dtd">
<svg version="1.1" id="_x30_5_x5F_partnership_x5F_cooperation"
	 xmlns="http://www.w3.org/2000/svg" xmlns:xlink="http://www.w3.org/1999/xlink" x="0px" y="0px" width="60px" height="64px"
	 viewBox="0 0 60 64" style="enable-background:new 0 0 60 64;" xml:space="preserve">
<g>
	<g>
		<g>
			
				<line style="fill:none;stroke:#222829;stroke-width:2;stroke-linejoin:round;stroke-miterlimit:10;" x1="48" y1="64" x2="48" y2="41"/>
			<circle style="fill:none;stroke:#222829;stroke-width:2;stroke-linejoin:round;stroke-miterlimit:10;" cx="48" cy="6" r="5"/>
			<path style="fill:none;stroke:#222829;stroke-width:2;stroke-miterlimit:10;" d="M30.175,29.891L38,18c0,0,2-3,6-3h8
				c3.866,0,7,3.134,7,7v16h-4v26"/>
			<line style="fill:none;stroke:#222829;stroke-width:2;stroke-miterlimit:10;" x1="48" y1="18" x2="48" y2="20"/>
			<line style="fill:none;stroke:#222829;stroke-width:2;stroke-miterlimit:10;" x1="48" y1="22" x2="48" y2="24"/>
			
				<line style="fill:none;stroke:#222829;stroke-width:2;stroke-linejoin:round;stroke-miterlimit:10;" x1="12" y1="64" x2="12" y2="41"/>
			
				<circle style="fill:none;stroke:#222829;stroke-width:2;stroke-linejoin:round;stroke-miterlimit:10;" cx="11.894" cy="6" r="5"/>
			<path style="fill:none;stroke:#222829;stroke-width:2;stroke-miterlimit:10;" d="M33,34L22,18c0,0-2-3-6.106-3h-8
				C4.028,15,1,18.134,1,22v16h4v26"/>
			<polyline style="fill:none;stroke:#222829;stroke-width:2;stroke-linejoin:round;stroke-miterlimit:10;" points="19,64 19,26 
				30,37 41,26 41,64 			"/>
		</g>
	</g>
</g>
</svg>
