<?xml version="1.0" encoding="iso-8859-1"?>
<!-- Generator: Adobe Illustrator 17.0.0, SVG Export Plug-In . SVG Version: 6.00 Build 0)  -->
<!DOCTYPE svg PUBLIC "-//W3C//DTD SVG 1.1//EN" "http://www.w3.org/Graphics/SVG/1.1/DTD/svg11.dtd">
<svg version="1.1" id="_x34_4_x5F_partners_x5F_collaboration"
	 xmlns="http://www.w3.org/2000/svg" xmlns:xlink="http://www.w3.org/1999/xlink" x="0px" y="0px" width="64px" height="64px"
	 viewBox="0 0 64 64" style="enable-background:new 0 0 64 64;" xml:space="preserve">
<g>
	<g>
		<line style="fill:none;stroke:#222829;stroke-width:2;stroke-miterlimit:10;" x1="12" y1="40" x2="12" y2="63"/>
		<line style="fill:none;stroke:#222829;stroke-width:2;stroke-miterlimit:10;" x1="5" y1="63" x2="5" y2="46"/>
		<circle style="fill:none;stroke:#222829;stroke-width:2;stroke-miterlimit:10;" cx="9" cy="5" r="4"/>
		<path style="fill:none;stroke:#222829;stroke-width:2;stroke-miterlimit:10;" d="M7,19l4,10h15v-4H15v-7c0-2.761-2.238-5-5-5H6
			c-1.656,0-3,1.344-3,3v30h3l9-9v-5"/>
	</g>
	<g>
		<line style="fill:none;stroke:#222829;stroke-width:2;stroke-miterlimit:10;" x1="52" y1="40" x2="52" y2="63"/>
		<line style="fill:none;stroke:#222829;stroke-width:2;stroke-miterlimit:10;" x1="59" y1="63" x2="59" y2="47"/>
		<circle style="fill:none;stroke:#222829;stroke-width:2;stroke-miterlimit:10;" cx="55" cy="5" r="4"/>
		<path style="fill:none;stroke:#222829;stroke-width:2;stroke-miterlimit:10;" d="M57,19l-4,10H38v-4h11v-7c0-2.761,2.238-5,5-5h4
			c1.656,0,3,1.344,3,3v31h-2L49,37v-5"/>
	</g>
	<line style="fill:none;stroke:#222829;stroke-width:2;stroke-miterlimit:10;" x1="20" y1="29" x2="20" y2="38"/>
	<line style="fill:none;stroke:#222829;stroke-width:2;stroke-miterlimit:10;" x1="44" y1="63" x2="44" y2="44"/>
	<line style="fill:none;stroke:#222829;stroke-width:2;stroke-miterlimit:10;" x1="31" y1="45" x2="33" y2="45"/>
	<line style="fill:none;stroke:#222829;stroke-width:2;stroke-miterlimit:10;" x1="27" y1="45" x2="29" y2="45"/>
	<line style="fill:none;stroke:#222829;stroke-width:2;stroke-miterlimit:10;" x1="35" y1="45" x2="37" y2="45"/>
	<path style="fill:none;stroke:#222829;stroke-width:2;stroke-miterlimit:10;" d="M20,63V41h10v-1c0-1-2-2-2-4c0-2.209,1.791-4,4-4
		s4,1.791,4,4c0,2-2,3-2,4v1h10v-9"/>
	<path style="fill:none;stroke:#222829;stroke-width:2;stroke-miterlimit:10;" d="M0,63h30v-1c0-1-2-2-2-4c0-2.209,1.791-4,4-4
		s4,1.791,4,4c0,2-2,3-2,4v1h30"/>
	<path style="fill:none;stroke:#222829;stroke-width:2;stroke-miterlimit:10;" d="M20,22v-6h10v-1c0-1-2-2-2-4c0-2.209,1.791-4,4-4
		s4,1.791,4,4c0,2-2,3-2,4v1h10v9"/>
</g>
</svg>
