<svg id="Layer_1" data-name="Layer 1" xmlns="http://www.w3.org/2000/svg" viewBox="0 0 500 500"><title>Artboard 8</title><path d="M318.53,80.77h82.09V399a37.19,37.19,0,0,1-37.14,37.16V450a51.06,51.06,0,0,0,51-51V66.92H318.53Z"/><path d="M326.31,399v-6.92H143.45V80.77h82.12V66.92h-96V392.07H85.53V399a51.06,51.06,0,0,0,51,51H363.46V436.15A37.2,37.2,0,0,1,326.31,399ZM136.54,436.15A37.22,37.22,0,0,1,100,405.92h212.9a50.94,50.94,0,0,0,15.64,30.25Z"/><path d="M272,97.7a23.85,23.85,0,1,0-23.84-23.85A23.88,23.88,0,0,0,272,97.7Zm0-33.85a10,10,0,1,1-10,10A10,10,0,0,1,272,63.85Z"/><path d="M330.1,241H279V209.8H265.12V241H214a25.59,25.59,0,0,0-25.58,25.58v19.5h13.85v-19.5A11.74,11.74,0,0,1,214,254.88h51.13v31.23H279V254.88H330.1a11.75,11.75,0,0,1,11.73,11.74v19.5h13.85v-19.5A25.6,25.6,0,0,0,330.1,241Z"/><path d="M240.24,361h63.59V297.44H240.24Zm13.85-49.75H290v35.9h-35.9Z"/><path d="M215.37,198.47H328.71V134.88H215.37Zm13.85-49.75h85.65v35.9H229.21Z"/><path d="M317,361h63.59V297.44H317Zm13.85-49.75h35.9v35.9H330.8Z"/><path d="M163.53,361h63.59V297.44H163.53Zm13.85-49.75h35.9v35.9h-35.9Z"/></svg>