<svg id="Layer_1" data-name="Layer 1" xmlns="http://www.w3.org/2000/svg" viewBox="0 0 500 500"><title>Artboard 4</title><path d="M141.57,69.28H50v91.57h91.57Zm-14.46,77.11H64.46V83.73h62.65Z"/><path d="M358.43,69.28v91.57H450V69.28Zm77.11,77.11H372.89V83.73h62.65Z"/><path d="M50,430.72h91.57V339.16H50Zm14.46-77.11h62.65v62.65H64.46Z"/><path d="M358.43,430.72H450V339.16H358.43Zm14.46-77.11h62.65v62.65H372.89Z"/><path d="M404.62,231.13a23.13,23.13,0,0,0,6.82-16.47V176.1H397v38.55a8.84,8.84,0,0,1-8.84,8.84h-8V238h8A23.13,23.13,0,0,0,404.62,231.13Z"/><path d="M380.12,276.51h8a8.84,8.84,0,0,1,8.84,8.84V323.9h14.46V285.34A23.3,23.3,0,0,0,388.15,262h-8Z"/><path d="M119.88,223.49h-8a8.84,8.84,0,0,1-8.84-8.84V176.1H88.55v38.55A23.3,23.3,0,0,0,111.85,238h8Z"/><path d="M95.38,268.87a23.13,23.13,0,0,0-6.82,16.47V323.9H103V285.34a8.84,8.84,0,0,1,8.84-8.84h8V262h-8A23.13,23.13,0,0,0,95.38,268.87Z"/><path d="M257.23,307.83H365.66V192.17H257.23V160.84h38.55V69.28H204.22v91.57h38.55v31.33H134.34V307.83H242.77v31.33H204.22v91.57h91.57V339.16H257.23ZM218.67,146.39V83.73h62.65v62.65h-24.1V115.06H242.77v31.33Zm-69.88,147V206.63H351.2v86.75Zm132.53,60.24v62.65H218.67V353.61h24.1v31.33h14.46V353.61Z"/><rect x="213.86" y="242.77" width="14.46" height="14.46"/><rect x="242.77" y="242.77" width="14.46" height="14.46"/><rect x="271.69" y="242.77" width="14.46" height="14.46"/></svg>