<svg id="Layer_1" data-name="Layer 1" xmlns="http://www.w3.org/2000/svg" viewBox="0 0 1000 1000"><title>Artboard 5</title><path d="M858.69,84.24H141.31v375H858.69ZM826.16,426.67H173.84V116.77H826.16Z"/><path d="M800.85,142.07H199.15v259.3H800.85ZM768.32,368.83H231.68V174.6H768.32Z"/><polygon points="173.84 596.16 483.74 596.16 483.74 666.26 516.26 666.26 516.26 596.16 826.15 596.16 826.15 666.26 858.69 666.26 858.69 563.63 516.26 563.63 516.26 493.53 483.74 493.53 483.74 563.63 141.31 563.63 141.31 666.26 173.84 666.26 173.84 596.16"/><path d="M157.58,700.6A107.58,107.58,0,1,0,265.16,808.18,107.7,107.7,0,0,0,157.58,700.6Zm0,182.63a75,75,0,1,1,75-75.06A75.14,75.14,0,0,1,157.58,883.23Z"/><path d="M500,700.6A107.58,107.58,0,1,0,607.58,808.18,107.7,107.7,0,0,0,500,700.6Zm0,182.63a75,75,0,1,1,75-75.06A75.14,75.14,0,0,1,500,883.23Z"/><path d="M842.42,700.6A107.58,107.58,0,1,0,950,808.18,107.7,107.7,0,0,0,842.42,700.6Zm0,182.63a75,75,0,1,1,75-75.06A75.14,75.14,0,0,1,842.42,883.23Z"/><rect x="483.73" y="255.46" width="32.53" height="32.53"/><rect x="418.67" y="255.46" width="32.53" height="32.53"/><rect x="548.8" y="255.46" width="32.53" height="32.53"/></svg>