<svg id="Layer_1" data-name="Layer 1" xmlns="http://www.w3.org/2000/svg" viewBox="0 0 500 500"><title>Artboard 6</title><path d="M400,250V175H275v75c0,12-13.41,56.85-18.58,73.1l11.91,3.79c1.75-5.53,15.72-49.83,18.63-70.65h100.9c2.77,26.38,21.17,71.17,34.91,104.59,6.81,16.58,14.53,35.36,14.72,39.16H375v12.5h62.5V425H375v12.5h75V400c0-5.56-5.08-18.18-15.66-43.92C419.85,320.83,400,272.54,400,250Zm-12.5-62.5V200h-100V187.5Zm0,25v31.25h-100V212.5Z"/><path d="M243.75,312.5H212.5v-50h-25v-25H175v25H162.5v-50H150v50H133.84L112.5,241.16V112.5H50V325H62.5V175H100v71.34l25,25V312.5H87.5v25H50v100H262.5V425H62.5V350H350v37.5h12.5v-50H243.75ZM100,125v12.5H62.5V125ZM62.5,162.5V150H100v12.5Zm75,112.5H200v37.5H137.5ZM100,337.5V325H231.25v12.5Z"/><rect x="150" y="287.5" width="12.5" height="12.5"/><rect x="175" y="287.5" width="12.5" height="12.5"/><rect x="75" y="200" width="12.5" height="12.5"/><rect x="75" y="225" width="12.5" height="12.5"/><rect x="75" y="250" width="12.5" height="12.5"/><rect x="75" y="400" width="37.5" height="12.5"/><rect x="125" y="400" width="37.5" height="12.5"/><rect x="175" y="400" width="37.5" height="12.5"/><rect x="225" y="400" width="37.5" height="12.5"/><path d="M87.5,87.5A12.51,12.51,0,0,1,100,75c5.66,0,11.85,7.22,13.56,9.74C114.61,86.3,124.2,100,137.5,100s22.89-13.7,23.94-15.27C162.82,82.68,169.17,75,175,75c5.66,0,11.85,7.22,13.56,9.74C189.61,86.3,199.2,100,212.5,100s22.89-13.7,23.94-15.27C237.82,82.68,244.17,75,250,75V62.5c-13.3,0-22.89,13.7-23.94,15.27-1.38,2.06-7.73,9.73-13.56,9.73-5.66,0-11.85-7.22-13.56-9.73C197.89,76.2,188.3,62.5,175,62.5s-22.89,13.7-23.94,15.27c-1.38,2.06-7.73,9.73-13.56,9.73-5.66,0-11.85-7.22-13.56-9.73C122.89,76.2,113.3,62.5,100,62.5a25,25,0,0,0-25,25V100H87.5Z"/><path d="M426.06,140.26c-1.38,2.06-7.73,9.74-13.56,9.74-5.66,0-11.85-7.22-13.56-9.74C397.89,138.7,388.3,125,375,125H337.5a25,25,0,0,0-25,25v12.5H325V150a12.51,12.51,0,0,1,12.5-12.5h15.88A24.81,24.81,0,0,0,350,150v12.5h12.5V150A12.51,12.51,0,0,1,375,137.5c5.66,0,11.85,7.22,13.56,9.73,1.05,1.56,10.64,15.27,23.94,15.27s22.89-13.7,23.94-15.27c1.38-2.06,7.73-9.73,13.56-9.73V125C436.7,125,427.11,138.7,426.06,140.26Z"/><path d="M275,437.5h87.5V400H275Zm12.5-25H350V425H287.5Z"/></svg>