<svg id="Layer_1" data-name="Layer 1" xmlns="http://www.w3.org/2000/svg" viewBox="0 0 500 500"><title>Artboard 1</title><path d="M100,152.56a51.73,51.73,0,1,0-51.73-51.73A51.79,51.79,0,0,0,100,152.56Zm0-85.9a34.16,34.16,0,1,1-34.16,34.16A34.2,34.2,0,0,1,100,66.66Z"/><rect x="91.19" y="372.26" width="17.57" height="119.68"/><path d="M311.86,171.25H60.93A55.93,55.93,0,0,0,5,227.18V344.77H44V491.93H61.61V299.71H44V327.2H22.57v-100a38.36,38.36,0,0,1,38.36-38.36H294.29v21.47h-156V491.93h17.57V227.86h156Z"/><path d="M495,98.12H373.47l-90.05-90-90,90h-5.85v17.57H477.43V135H187.52v17.57H459V374.65H187.52v17.57h87.11v38.2a30.91,30.91,0,1,0,17.57,0v-38.2H476.56V152.56H495ZM283.42,32.91l65.21,65.2H218.22ZM296.76,460a13.34,13.34,0,1,1-13.34-13.34A13.36,13.36,0,0,1,296.76,460Z"/><rect x="188.5" y="315.92" width="17.57" height="34.16"/><rect x="227.08" y="281.76" width="17.57" height="68.33"/><rect x="265.65" y="311.53" width="17.57" height="38.56"/><rect x="304.22" y="267.51" width="17.57" height="82.57"/><rect x="342.8" y="292.01" width="17.57" height="58.08"/><rect x="381.37" y="248.08" width="17.57" height="102"/><rect x="419.95" y="264.68" width="17.57" height="85.41"/><rect x="341.35" y="171.25" width="19.53" height="17.57"/><rect x="380.4" y="171.25" width="19.52" height="17.57"/><rect x="419.44" y="171.25" width="19.52" height="17.57"/><rect x="341.35" y="210.29" width="97.61" height="17.57"/></svg>