<svg id="Layer_1" data-name="Layer 1" xmlns="http://www.w3.org/2000/svg" viewBox="0 0 1000 1000"><title>Artboard 3</title><path d="M50,680.51H702.27l113-113V141.94H50ZM763.83,576.36l-52.74,52.74V576.36ZM730,546.25H681v49H135.24V227.18H730ZM80.11,172.05h705v374.2h-25V197.07h-655V625.37H681v25H80.11Z"/><path d="M315.67,461.36l-26.76,15.45L304,502.88l26.89-15.53A128.16,128.16,0,0,0,356.49,513L341,539.87,367,554.93l15.45-26.76a126.24,126.24,0,0,0,35.08,9.35v30.94h30.11V537.53a126.27,126.27,0,0,0,35.09-9.35l15.44,26.75,26.08-15.06L508.76,513a128.17,128.17,0,0,0,25.65-25.64l26.89,15.53,15.06-26.07-26.75-15.44A126.2,126.2,0,0,0,559,426.28h30.89V396.16H559a126.21,126.21,0,0,0-9.36-35.09l26.75-15.44-15.06-26.07-26.89,15.53a128.18,128.18,0,0,0-25.65-25.64l15.51-26.88L498.2,267.51l-15.44,26.75a126.33,126.33,0,0,0-35.09-9.35V254H417.56v30.94a126.18,126.18,0,0,0-35.08,9.35L367,267.51,341,282.57l15.53,26.89a128.13,128.13,0,0,0-25.63,25.63L304,319.56l-15.06,26.07,26.76,15.45a126.24,126.24,0,0,0-9.35,35.08H275.36v30.11h30.95A126.24,126.24,0,0,0,315.67,461.36Zm19.78-50.14a97.19,97.19,0,1,1,97.17,97.17A97.28,97.28,0,0,1,335.45,411.22Z"/><path d="M432.62,467.84A56.62,56.62,0,1,0,376,411.22,56.68,56.68,0,0,0,432.62,467.84Zm0-83.12a26.5,26.5,0,1,1-26.5,26.5A26.54,26.54,0,0,1,432.62,384.72Z"/><path d="M50,864.29H815.23V711.66H50ZM80.11,741.77h26.43V765.7h30.11V741.77h26.44V765.7H193.2V741.77h26.44V765.7h30.11V741.77h26.44V765.7H306.3V741.77h26.43V765.7h30.11V741.77h26.45V765.7H419.4V741.77h26.46V765.7H476V741.77h26.41V765.7h30.11V741.77h26.44V765.7H589V741.77h26.43V765.7h30.11V741.77H672V765.7h30.11V741.77h26.41V765.7h30.11V741.77h26.44v92.41h-705Z"/><path d="M898.19,135.71l-51.82,51.8v625a51.81,51.81,0,1,0,103.63,0v-625Zm21.7,676.77a21.54,21.54,0,0,1-6.36,15.35c-8.21,8.2-22.48,8.19-30.69,0a21.59,21.59,0,0,1-6.36-15.35v-21.7h43.4Zm-43.4-51.81V200l21.71-21.7,21.7,21.7V760.67Z"/></svg>