<svg id="Layer_1" data-name="Layer 1" xmlns="http://www.w3.org/2000/svg" viewBox="0 0 500 500"><title>Artboard 14</title><path d="M443.91,269.36l-64.59-43,64.58-43.07L314.57,97.07l-42.45,28.27L279.2,136l35.37-23.55,106.31,70.84L367.8,218.66l-88.6-59.09-7.09,10.63,84.16,56.13-48.76,32.5L250,297.16,143.73,226.34l84.14-56.1v0h0l-7.09-10.63L132.2,218.66h0L79.12,183.27l106.29-70.84L220.78,136l7.09-10.63-42.45-28.3L56.09,183.27l64.58,43.07-64.58,43,69.72,46.5V367.2L250,450l124.18-82.8V315.85ZM314.58,340.24l-53.06-35.39,47.93-32L367.8,234h0l53.06,35.35ZM132.18,234h0l106.28,70.84L185.4,340.24,79.13,269.36Zm6.41,90.36L185.4,355.6l58.21-38.81v113.6l-105-70Zm222.82,36-105,70V316.79l58.19,38.81,46.83-31.23Z"/><polygon points="243.61 74.46 243.61 204.73 256.39 204.73 256.39 74.46 273.92 91.98 282.95 82.95 250 50 217.05 82.95 226.09 91.98 243.61 74.46"/></svg>