<svg id="Layer_1" data-name="Layer 1" xmlns="http://www.w3.org/2000/svg" viewBox="0 0 500 500"><title>Artboard 2</title><path d="M388.9,50.16H210.6V63.77H379.28v57.11h57.12V435.56H210.6v13.61H450V111.27Zm4,23.23,33.88,33.89H392.88Z"/><path d="M236.95,408.11h43.84V364.27H236.95Zm13.61-30.23h16.63V394.5H250.56Z"/><rect x="296.66" y="364.27" width="60.47" height="13.61"/><rect x="296.66" y="394.5" width="120.94" height="13.61"/><path d="M280.79,303.8H236.95v43.84h43.84ZM267.18,334H250.56V317.4h16.63Z"/><rect x="296.66" y="303.8" width="60.47" height="13.61"/><rect x="296.66" y="334.03" width="120.94" height="13.61"/><rect x="296.66" y="243.33" width="60.47" height="13.61"/><rect x="296.66" y="273.56" width="120.94" height="13.61"/><polygon points="254.75 286.76 283.35 258.17 273.73 248.55 254.75 267.52 244.01 256.77 234.39 266.39 254.75 286.76"/><rect x="296.66" y="182.86" width="60.47" height="13.61"/><rect x="296.66" y="213.1" width="120.94" height="13.61"/><polygon points="254.75 226.29 283.35 197.7 273.73 188.08 254.75 207.05 244.01 196.3 234.39 205.92 254.75 226.29"/><rect x="296.66" y="122.39" width="60.47" height="13.61"/><rect x="296.66" y="152.63" width="120.94" height="13.61"/><polygon points="254.75 165.82 283.35 137.23 273.73 127.61 254.75 146.58 244.01 135.83 234.39 145.45 254.75 165.82"/><rect x="236.19" y="92.16" width="15.12" height="13.61"/><rect x="266.43" y="92.16" width="15.11" height="13.61"/><rect x="296.66" y="92.16" width="15.12" height="13.61"/><path d="M133.7,143.43A46.68,46.68,0,1,0,87,96.75,46.73,46.73,0,0,0,133.7,143.43Zm0-79.75a33.07,33.07,0,1,1-33.07,33.07A33.11,33.11,0,0,1,133.7,63.68Z"/><rect x="126.9" y="330.3" width="13.61" height="119.62"/><path d="M217.41,314.32V207.83a49.53,49.53,0,0,0-49.52-49.53H158.1L133.7,182.7,109.31,158.3H99.52A49.53,49.53,0,0,0,50,207.83V314.32H84.18V449.93H97.78V284.73H84.18v16H63.61V207.83a35.92,35.92,0,0,1,35.92-35.92h4.15l30,30,30-30h4.15a35.92,35.92,0,0,1,35.92,35.92v92.88H183.23v-16H169.62V449.93h13.61V314.32Z"/><rect x="126.9" y="213.53" width="13.61" height="15.12"/><rect x="126.9" y="243.76" width="13.61" height="15.12"/></svg>