<svg xmlns="http://www.w3.org/2000/svg" viewBox="0 0 75.17 65.77"><defs><style>.cls-1{fill:#003851;}</style></defs><title>professional services</title><g id="Layer_2" data-name="Layer 2"><g id="Layer_1-2" data-name="Layer 1"><rect class="cls-1" x="31.71" y="32.89" width="11.75" height="2.35"/><rect class="cls-1" x="55.2" y="23.49" width="2.35" height="2.35"/><rect class="cls-1" x="55.2" y="28.19" width="2.35" height="2.35"/><rect class="cls-1" x="55.2" y="46.98" width="2.35" height="2.35"/><rect class="cls-1" x="55.2" y="51.68" width="2.35" height="2.35"/><rect class="cls-1" x="17.62" y="23.49" width="2.35" height="2.35"/><rect class="cls-1" x="17.62" y="28.19" width="2.35" height="2.35"/><rect class="cls-1" x="17.62" y="46.98" width="2.35" height="2.35"/><rect class="cls-1" x="17.62" y="51.68" width="2.35" height="2.35"/><rect class="cls-1" x="36.41" y="28.19" width="2.35" height="2.35"/><path class="cls-1" d="M74,9.4H61.08V7.05h-9.4V9.4H49.33V3.52A3.53,3.53,0,0,0,45.81,0H29.36a3.53,3.53,0,0,0-3.52,3.52V9.4H23.49V7.05h-9.4V9.4H1.17A1.17,1.17,0,0,0,0,10.57V62.25a1.18,1.18,0,0,0,1.17,1.18H14.09v2.34h9.4V63.43H51.68v2.34h9.4V63.43H74a1.17,1.17,0,0,0,1.17-1.18V10.57A1.17,1.17,0,0,0,74,9.4ZM55.2,37.59v4.69H52.85v-7h7v7H57.55V37.59ZM58.73,9.4V32.89H54V9.4Zm-29.37-7H45.81A1.17,1.17,0,0,1,47,3.52V4.7H28.19V3.52A1.18,1.18,0,0,1,29.36,2.35Zm-1.17,4.7H47V9.4H28.19Zm23.49,4.7V32.89H50.51v4.7H24.67v-4.7H23.49V11.75ZM17.62,37.59v4.69H15.27v-7h7.05v7H20V37.59ZM21.14,9.4V32.89h-4.7V9.4ZM2.35,11.75H14.09V32.89H12.92v4.7H9.4a7.06,7.06,0,0,1-7-7.05Zm0,49.33V36.73a9.36,9.36,0,0,0,7.05,3.2h3.52v4.7h1.17V61.08Zm14.09,2.35V44.63h4.7v18.8Zm7-2.35V44.63h1.18v-4.7H50.51v4.7h1.17V61.08ZM54,63.43V44.63h4.7v18.8Zm18.79-2.35H61.08V44.63h1.17v-4.7h3.52a9.36,9.36,0,0,0,7-3.2Zm-7-23.49H62.25v-4.7H61.08V11.75H72.82V30.54A7.06,7.06,0,0,1,65.77,37.59Z"/></g></g></svg>