<?xml version="1.0" encoding="iso-8859-1"?>
<!-- Generator: Adobe Illustrator 17.0.0, SVG Export Plug-In . SVG Version: 6.00 Build 0)  -->
<!DOCTYPE svg PUBLIC "-//W3C//DTD SVG 1.1//EN" "http://www.w3.org/Graphics/SVG/1.1/DTD/svg11.dtd">
<svg version="1.1" id="_x31_7_x5F_project_x5F_flowchart"
	 xmlns="http://www.w3.org/2000/svg" xmlns:xlink="http://www.w3.org/1999/xlink" x="0px" y="0px" width="64px" height="64px"
	 viewBox="0 0 64 64" style="enable-background:new 0 0 64 64;" xml:space="preserve">
<g>
	<g>
		<rect x="19" y="1" style="fill:none;stroke:#222829;stroke-width:2;stroke-miterlimit:10;" width="26" height="8"/>
		<rect x="21" y="15" style="fill:none;stroke:#222829;stroke-width:2;stroke-miterlimit:10;" width="22" height="4"/>
		<rect x="21" y="23" style="fill:none;stroke:#222829;stroke-width:2;stroke-miterlimit:10;" width="22" height="4"/>
		<rect x="21" y="31" style="fill:none;stroke:#222829;stroke-width:2;stroke-miterlimit:10;" width="22" height="4"/>
		<rect x="21" y="39" style="fill:none;stroke:#222829;stroke-width:2;stroke-miterlimit:10;" width="22" height="4"/>
		<rect x="21" y="47" style="fill:none;stroke:#222829;stroke-width:2;stroke-miterlimit:10;" width="22" height="4"/>
		<rect x="21" y="57" style="fill:none;stroke:#222829;stroke-width:2;stroke-miterlimit:10;" width="22" height="6"/>
		<rect x="47" y="57" style="fill:none;stroke:#222829;stroke-width:2;stroke-miterlimit:10;" width="16" height="6"/>
		<rect x="1" y="57" style="fill:none;stroke:#222829;stroke-width:2;stroke-miterlimit:10;" width="16" height="6"/>
		<line style="fill:none;stroke:#222829;stroke-width:2;stroke-miterlimit:10;" x1="32" y1="9" x2="32" y2="15"/>
		<line style="fill:none;stroke:#222829;stroke-width:2;stroke-miterlimit:10;" x1="32" y1="51" x2="32" y2="57"/>
		<line style="fill:none;stroke:#222829;stroke-width:2;stroke-miterlimit:10;" x1="47" y1="60" x2="43" y2="60"/>
		<line style="fill:none;stroke:#222829;stroke-width:2;stroke-miterlimit:10;" x1="21" y1="60" x2="17" y2="60"/>
		<line style="fill:none;stroke:#222829;stroke-width:2;stroke-miterlimit:10;" x1="31" y1="5" x2="33" y2="5"/>
		<line style="fill:none;stroke:#222829;stroke-width:2;stroke-miterlimit:10;" x1="35" y1="5" x2="37" y2="5"/>
		<line style="fill:none;stroke:#222829;stroke-width:2;stroke-miterlimit:10;" x1="27" y1="5" x2="29" y2="5"/>
		<path style="fill:none;stroke:#222829;stroke-width:2;stroke-miterlimit:10;" d="M18,49h-4c-0.552,0-1-0.447-1-1V18
			c0-0.553,0.448-1,1-1h4"/>
		<path style="fill:none;stroke:#222829;stroke-width:2;stroke-miterlimit:10;" d="M18,33H8c-0.552,0-1-0.447-1-1V6
			c0-0.553,0.448-1,1-1h8"/>
		<path style="fill:none;stroke:#222829;stroke-width:2;stroke-miterlimit:10;" d="M9,54V42c0-0.553,0.448-1,1-1h8"/>
		<path style="fill:none;stroke:#222829;stroke-width:2;stroke-miterlimit:10;" d="M55,54V34c0-0.553-0.448-1-1-1h-8"/>
		<path style="fill:none;stroke:#222829;stroke-width:2;stroke-miterlimit:10;" d="M48,5h8c0.552,0,1,0.447,1,1v18
			c0,0.553-0.448,1-1,1H46"/>
		<path style="fill:none;stroke:#222829;stroke-width:2;stroke-miterlimit:10;" d="M46,17h4c0.552,0,1,0.447,1,1v30
			c0,0.553-0.448,1-1,1h-4"/>
	</g>
</g>
</svg>
