<?xml version="1.0" encoding="utf-8"?>
<!-- Generator: Adobe Illustrator 22.1.0, SVG Export Plug-In . SVG Version: 6.00 Build 0)  -->
<svg version="1.1" id="_x31_7_x5F_project_x5F_flowchart"
	 xmlns="http://www.w3.org/2000/svg" xmlns:xlink="http://www.w3.org/1999/xlink" x="0px" y="0px" viewBox="0 0 500 500"
	 style="enable-background:new 0 0 500 500;" xml:space="preserve">
<style type="text/css">
	.st0{fill:#222829;}
</style>
<g>
	<polygon class="st0" points="172.4,65 172.4,72 320.6,72 320.6,105.7 179.4,105.7 179.4,65 172.4,65 172.4,72 172.4,65 165.4,65 
		165.4,119.7 334.6,119.7 334.6,58 165.4,58 165.4,65 	"/>
	<polygon class="st0" points="184.4,148.5 184.4,155.5 308.7,155.5 308.7,165.4 191.4,165.4 191.4,148.5 184.4,148.5 184.4,155.5 
		184.4,148.5 177.4,148.5 177.4,179.4 322.7,179.4 322.7,141.5 177.4,141.5 177.4,148.5 	"/>
	<polygon class="st0" points="184.4,196.3 184.4,203.3 308.7,203.3 308.7,213.2 191.4,213.2 191.4,196.3 184.4,196.3 184.4,203.3 
		184.4,196.3 177.4,196.3 177.4,227.2 322.7,227.2 322.7,189.3 177.4,189.3 177.4,196.3 	"/>
	<polygon class="st0" points="184.4,244 184.4,251 308.7,251 308.7,260.9 191.4,260.9 191.4,244 184.4,244 184.4,251 184.4,244 
		177.4,244 177.4,274.9 322.7,274.9 322.7,237 177.4,237 177.4,244 	"/>
	<polygon class="st0" points="184.4,291.8 184.4,298.8 308.7,298.8 308.7,308.7 191.4,308.7 191.4,291.8 184.4,291.8 184.4,298.8 
		184.4,291.8 177.4,291.8 177.4,322.7 322.7,322.7 322.7,284.8 177.4,284.8 177.4,291.8 	"/>
	<polygon class="st0" points="184.4,339.5 184.4,346.5 308.7,346.5 308.7,356.4 191.4,356.4 191.4,339.5 184.4,339.5 184.4,346.5 
		184.4,339.5 177.4,339.5 177.4,370.4 322.7,370.4 322.7,332.5 177.4,332.5 177.4,339.5 	"/>
	<polygon class="st0" points="184.4,399.2 184.4,406.2 308.7,406.2 308.7,428 191.4,428 191.4,399.2 184.4,399.2 184.4,406.2 
		184.4,399.2 177.4,399.2 177.4,442 322.7,442 322.7,392.2 177.4,392.2 177.4,399.2 	"/>
	<polygon class="st0" points="339.5,399.2 339.5,406.2 428,406.2 428,428 346.5,428 346.5,399.2 339.5,399.2 339.5,406.2 
		339.5,399.2 332.5,399.2 332.5,442 442,442 442,392.2 332.5,392.2 332.5,399.2 	"/>
	<polygon class="st0" points="65,399.2 65,406.2 153.5,406.2 153.5,428 72,428 72,399.2 65,399.2 65,406.2 65,399.2 58,399.2 
		58,442 167.5,442 167.5,392.2 58,392.2 58,399.2 	"/>
	<polyline class="st0" points="243,112.7 243,148.5 257,148.5 257,112.7 	"/>
	<polyline class="st0" points="243,363.4 243,399.2 257,399.2 257,363.4 	"/>
	<polyline class="st0" points="339.5,410.1 315.6,410.1 315.6,424.1 339.5,424.1 	"/>
	<polyline class="st0" points="184.4,410.1 160.5,410.1 160.5,424.1 184.4,424.1 	"/>
	<polyline class="st0" points="244,95.9 256,95.9 256,81.9 244,81.9 	"/>
	<polyline class="st0" points="267.9,95.9 279.8,95.9 279.8,81.9 267.9,81.9 	"/>
	<polyline class="st0" points="220.2,95.9 232.1,95.9 232.1,81.9 220.2,81.9 	"/>
	<path class="st0" d="M166.5,344.5h-23.9v1l0.4-1c-0.1-0.1-0.3-0.1-0.4-0.1v1l0.4-1l-0.4,0.9l0.8-0.5c-0.1-0.1-0.2-0.3-0.4-0.3
		l-0.4,0.9l0.8-0.5l-0.9,0.6h1c0-0.2-0.1-0.4-0.2-0.6l-0.9,0.6h1v-179h-1l1,0.4c0.1-0.1,0.1-0.3,0.1-0.4h-1l1,0.4l-0.9-0.4l0.5,0.8
		c0.1-0.1,0.3-0.2,0.3-0.4l-0.9-0.4l0.5,0.8l-0.6-0.9l0,1c0.2,0,0.4-0.1,0.6-0.2l-0.6-0.9l0,1h23.9v-14l-23.9,0
		c-1.8,0-3.5,0.4-5.1,1c-2.3,1-4.3,2.6-5.7,4.7c-1.4,2.1-2.2,4.6-2.2,7.3v179c0,1.8,0.4,3.5,1,5.1c1,2.3,2.6,4.3,4.7,5.7
		c2.1,1.4,4.6,2.2,7.3,2.2h23.9V344.5L166.5,344.5z"/>
	<path class="st0" d="M166.5,249h-59.7v1l0.4-1c-0.1-0.1-0.3-0.1-0.4-0.1v1l0.4-1l-0.4,0.9l0.8-0.5c-0.1-0.1-0.2-0.3-0.4-0.3
		l-0.4,0.9l0.8-0.5l-0.9,0.6h1c0-0.2-0.1-0.4-0.2-0.6l-0.9,0.6h1V94.8h-1l1,0.4c0.1-0.1,0.1-0.3,0.1-0.4h-1l1,0.4l-0.9-0.4l0.5,0.8
		c0.1-0.1,0.3-0.2,0.3-0.4l-0.9-0.4l0.5,0.8l-0.6-0.9l0,1c0.2,0,0.4-0.1,0.6-0.2l-0.6-0.9l0,1h47.7v-14l-47.7,0
		c-1.8,0-3.5,0.4-5.1,1c-2.3,1-4.3,2.6-5.7,4.7c-1.4,2.1-2.2,4.6-2.2,7.3V250c0,1.8,0.4,3.5,1,5.1c1,2.3,2.6,4.3,4.7,5.7
		c2.1,1.4,4.6,2.2,7.3,2.2h59.7V249L166.5,249z"/>
	<path class="st0" d="M119.7,381.3v-71.6h-1l1,0.4c0.1-0.1,0.1-0.3,0.1-0.4h-1l1,0.4l-0.9-0.4l0.5,0.8c0.1-0.1,0.3-0.2,0.3-0.4
		l-0.9-0.4l0.5,0.8l-0.6-0.9v1c0.2,0,0.4-0.1,0.6-0.2l-0.6-0.9v1h47.7v-14h-47.7c-1.8,0-3.5,0.4-5.1,1c-2.3,1-4.3,2.6-5.7,4.7
		c-1.4,2.1-2.2,4.6-2.2,7.3v71.6H119.7L119.7,381.3z"/>
	<path class="st0" d="M394.3,381.3V261.9c0-1.8-0.4-3.5-1-5.1c-1-2.3-2.6-4.3-4.7-5.7c-2.1-1.4-4.6-2.2-7.3-2.2h-47.7v14h47.7v-1
		l-0.4,1c0.1,0.1,0.3,0.1,0.4,0.1v-1l-0.4,1l0.4-0.9l-0.8,0.5c0.1,0.1,0.2,0.3,0.4,0.3l0.4-0.9l-0.8,0.5l0.9-0.6h-1
		c0,0.2,0.1,0.4,0.2,0.6l0.9-0.6h-1v119.4H394.3L394.3,381.3z"/>
	<path class="st0" d="M345.5,95.9h47.7v-1l-0.4,1c0.1,0.1,0.3,0.1,0.4,0.1v-1l-0.4,1l0.4-0.9l-0.8,0.5c0.1,0.1,0.2,0.3,0.4,0.3
		l0.4-0.9l-0.8,0.5l0.9-0.6l-1,0c0,0.2,0.1,0.4,0.2,0.6l0.9-0.6l-1,0v107.4h1l-1-0.4c-0.1,0.1-0.1,0.3-0.1,0.4h1l-1-0.4l0.9,0.4
		l-0.5-0.8c-0.1,0.1-0.3,0.2-0.3,0.4l0.9,0.4l-0.5-0.8l0.6,0.9v-1c-0.2,0-0.4,0.1-0.6,0.2l0.6,0.9v-1h-59.7v14l59.7,0
		c1.8,0,3.5-0.4,5.1-1c2.3-1,4.3-2.6,5.7-4.7c1.4-2.1,2.2-4.6,2.2-7.3V94.9c0-1.8-0.4-3.5-1-5.1c-1-2.3-2.6-4.3-4.7-5.7
		c-2.1-1.4-4.6-2.2-7.3-2.2h-47.7V95.9L345.5,95.9z"/>
	<path class="st0" d="M333.5,167.5h23.9v-1l-0.4,1c0.1,0.1,0.3,0.1,0.4,0.1v-1l-0.4,1l0.4-0.9l-0.8,0.5c0.1,0.1,0.2,0.3,0.4,0.3
		l0.4-0.9l-0.8,0.5l0.9-0.6l-1,0c0,0.2,0.1,0.4,0.2,0.6l0.9-0.6l-1,0v179h1l-1-0.4c-0.1,0.1-0.1,0.3-0.1,0.4h1l-1-0.4l0.9,0.4
		l-0.5-0.8c-0.1,0.1-0.3,0.2-0.3,0.4l0.9,0.4l-0.5-0.8l0.6,0.9v-1c-0.2,0-0.4,0.1-0.6,0.2l0.6,0.9v-1h-23.9v14h23.9
		c1.8,0,3.5-0.4,5.1-1c2.3-1,4.3-2.6,5.7-4.7c1.4-2.1,2.2-4.6,2.2-7.3v-179c0-1.8-0.4-3.5-1-5.1c-1-2.3-2.6-4.3-4.7-5.7
		c-2.1-1.4-4.6-2.2-7.3-2.2h-23.9V167.5L333.5,167.5z"/>
</g>
</svg>
