<svg id="Layer_1" data-name="Layer 1" xmlns="http://www.w3.org/2000/svg" viewBox="0 0 540 540"><title>Artboard 6</title><path d="M426.37,302.35a34,34,0,0,0-24.23,10q-1,1-1.86,2-.87-1-1.82-2a34.2,34.2,0,0,0-48.44,0q-1,1-1.84,2-.87-1-1.82-2a34.28,34.28,0,0,0-42.08-5.05V268.77a64,64,0,1,0-68.58,0V414.9a137.92,137.92,0,0,0-70.92-19.4,34.29,34.29,0,0,0,0,68.58A71,71,0,0,1,235.71,535h16.47a87.49,87.49,0,0,0-87.39-87.39,17.82,17.82,0,0,1,0-35.64,121.73,121.73,0,0,1,74.18,25,8.23,8.23,0,0,0,13.21-6.56V214.73a17.82,17.82,0,0,1,35.64,0V336.67a8.24,8.24,0,1,0,16.47,0,17.81,17.81,0,1,1,35.62,0h0a8.24,8.24,0,0,0,16.47,0,17.82,17.82,0,1,1,35.64,0,8.24,8.24,0,1,0,16.47,0v0a17.84,17.84,0,0,1,35.69,0V535h16.47V336.67a34.35,34.35,0,0,0-34.27-34.32ZM270,180.45a34.28,34.28,0,0,0-34.28,34.28v32.91a47.59,47.59,0,1,1,68.58,0V214.73A34.29,34.29,0,0,0,270,180.45Z"/><path d="M322.38,150.71,334,162.36l26.16-26.16V88a28.37,28.37,0,1,0-16.47,0v41.43Zm17.68-89.9A11.9,11.9,0,1,1,352,72.71,11.91,11.91,0,0,1,340.06,60.82Z"/><rect x="261.77" y="82.9" width="16.47" height="15.84"/><rect x="261.77" y="114.58" width="16.47" height="15.84"/><rect x="354.3" y="206.5" width="15.84" height="16.47"/><rect x="385.99" y="206.5" width="15.84" height="16.47"/><rect x="138.16" y="206.5" width="15.84" height="16.47"/><rect x="169.85" y="206.5" width="15.84" height="16.47"/><path d="M179.83,88V136.2L206,162.36l11.65-11.64L196.3,129.38V88a28.37,28.37,0,1,0-16.47,0Zm8.23-39a11.9,11.9,0,1,1-11.9,11.9A11.91,11.91,0,0,1,188.05,48.92Z"/><path d="M270,61.73a28.37,28.37,0,1,0-28.37-28.37A28.4,28.4,0,0,0,270,61.73Zm0-40.26a11.9,11.9,0,1,1-11.9,11.9A11.91,11.91,0,0,1,270,21.47Z"/><path d="M451.36,186.37a28.37,28.37,0,1,0,28.37,28.37A28.4,28.4,0,0,0,451.36,186.37Zm0,40.26a11.9,11.9,0,1,1,11.9-11.9A11.91,11.91,0,0,1,451.36,226.63Z"/><path d="M88.64,186.37A28.37,28.37,0,1,0,117,214.73,28.4,28.4,0,0,0,88.64,186.37Zm0,40.26a11.9,11.9,0,1,1,11.9-11.9A11.91,11.91,0,0,1,88.64,226.63Z"/></svg>