<?xml version="1.0" encoding="utf-8"?>
<!-- Generator: Adobe Illustrator 22.1.0, SVG Export Plug-In . SVG Version: 6.00 Build 0)  -->
<svg version="1.1" id="Layer_1" xmlns="http://www.w3.org/2000/svg" xmlns:xlink="http://www.w3.org/1999/xlink" x="0px" y="0px"
	 viewBox="0 0 500 500" style="enable-background:new 0 0 500 500;" xml:space="preserve">
<style type="text/css">
	.st0{clip-path:url(#SVGID_2_);fill:#6EA204;}
	.st1{clip-path:url(#SVGID_4_);fill:#6EA204;}
	.st2{clip-path:url(#SVGID_6_);fill:#6EA204;}
	.st3{clip-path:url(#SVGID_8_);fill:#6EA204;}
	.st4{clip-path:url(#SVGID_10_);fill:#6EA204;}
	.st5{fill:#6EA204;}
</style>
<g>
	<g>
		<g>
			<defs>
				<path id="SVGID_1_" d="M218.2,444.2c7.5-8.9,58.5-169,58.5-169L-5.7,328.5L-68,107L427.9-59.2l66,229l-14,222.4l-81.5,177
					L213,440.4"/>
			</defs>
			<clipPath id="SVGID_2_">
				<use xlink:href="#SVGID_1_"  style="overflow:visible;"/>
			</clipPath>
			<path class="st0" d="M234.1,50.4v6.6c47.8,0,90.8,19.2,121.7,50.6c31.4,31.4,50.6,74.5,50.6,121.7c0,47.8-19.2,90.8-50.6,121.7
				c-31.4,31.4-74.5,50.6-121.7,50.6c-47.8,0-90.8-19.2-121.7-50.6C81,320.1,61.8,277,61.8,229.2s19.2-90.8,50.6-121.7
				c30.9-31.4,74-50.6,121.7-50.6V50.4v-6.6c-102.5,0-185.4,82.9-185.4,185.4s82.9,185.4,185.4,185.4s185.4-82.9,185.4-185.4
				S336.6,43.8,234.1,43.8C234.1,43.8,234.1,50.4,234.1,50.4z"/>
		</g>
		<g>
			<defs>
				<path id="SVGID_3_" d="M218.2,444.2c7.5-8.9,58.5-169,58.5-169L-5.7,328.5L-68,107L427.9-59.2l66,229l-14,222.4l-81.5,177
					L213,440.4"/>
			</defs>
			<clipPath id="SVGID_4_">
				<use xlink:href="#SVGID_3_"  style="overflow:visible;"/>
			</clipPath>
			<path class="st1" d="M410.1,174.5v6.6c13.6,0,25.3,5.6,34.2,14c8.9,8.9,14,20.6,14,34.2c0,13.6-5.6,25.3-14,34.2
				c-8.9,8.9-20.6,14-34.2,14s-25.3-5.6-34.2-14c-8.9-8.9-14-20.6-14-34.2c0-13.6,5.6-25.3,14-34.2c8.9-8.9,20.6-14,34.2-14V174.5
				v-6.6c-33.7,0-61.3,27.2-61.3,61.3c0,33.7,27.2,61.3,61.3,61.3c33.7,0,61.3-27.2,61.3-61.3c0-33.7-27.2-61.3-61.3-61.3V174.5z"/>
		</g>
		<g>
			<defs>
				<path id="SVGID_5_" d="M218.2,444.2c7.5-8.9,58.5-169,58.5-169L-5.7,328.5L-68,107L427.9-59.2l66,229l-14,222.4l-81.5,177
					L213,440.4"/>
			</defs>
			<clipPath id="SVGID_6_">
				<use xlink:href="#SVGID_5_"  style="overflow:visible;"/>
			</clipPath>
			<path class="st2" d="M327.7,222.7h-17.3c-3.7,0-6.6,2.8-6.6,6.6c0,3.7,2.8,6.6,6.6,6.6h17.3c3.7,0,6.6-2.8,6.6-6.6
				S331.5,222.7,327.7,222.7"/>
		</g>
		<g>
			<defs>
				<path id="SVGID_7_" d="M218.2,444.2c7.5-8.9,58.5-169,58.5-169L-5.7,328.5L-68,107L427.9-59.2l66,229l-14,222.4l-81.5,177
					L213,440.4"/>
			</defs>
			<clipPath id="SVGID_8_">
				<use xlink:href="#SVGID_7_"  style="overflow:visible;"/>
			</clipPath>
			<path class="st3" d="M221.9,222.7h-29.5c-3.7,0-6.6,2.8-6.6,6.6c0,3.7,2.8,6.6,6.6,6.6h29.5c3.7,0,6.6-2.8,6.6-6.6
				C228,225.5,225.2,222.7,221.9,222.7z M280.9,222.7h-29.5c-3.7,0-6.6,2.8-6.6,6.6c0,3.7,2.8,6.6,6.6,6.6h29.5
				c3.7,0,6.6-2.8,6.6-6.6S284.6,222.7,280.9,222.7z"/>
		</g>
		<g>
			<defs>
				<path id="SVGID_9_" d="M218.2,444.2c7.5-8.9,58.5-169,58.5-169L-5.7,328.5L-68,107L427.9-59.2l66,229l-14,222.4l-81.5,177
					L213,440.4"/>
			</defs>
			<clipPath id="SVGID_10_">
				<use xlink:href="#SVGID_9_"  style="overflow:visible;"/>
			</clipPath>
			<path class="st4" d="M162.9,222.7h-17.3c-3.7,0-6.6,2.8-6.6,6.6c0,3.7,2.8,6.6,6.6,6.6h17.3c3.7,0,6.6-2.8,6.6-6.6
				S166.6,222.7,162.9,222.7"/>
		</g>
	</g>
	<polygon class="st5" points="216.3,305.1 210.2,303.2 183,405.3 116.1,338.8 218.2,311.2 216.3,305.1 210.2,303.2 216.3,305.1 
		214.4,299 91.7,332.3 189.6,429.7 225.2,296.2 214.4,299 	"/>
	<polyline class="st5" points="140.4,371.6 79.5,432.5 88.9,441.8 149.8,381 	"/>
</g>
</svg>
