<?xml version="1.0" encoding="utf-8"?>
<!-- Generator: Adobe Illustrator 22.1.0, SVG Export Plug-In . SVG Version: 6.00 Build 0)  -->
<svg version="1.1" id="Layer_1" xmlns="http://www.w3.org/2000/svg" xmlns:xlink="http://www.w3.org/1999/xlink" x="0px" y="0px"
	 viewBox="0 0 95 87" style="enable-background:new 0 0 95 87;" xml:space="preserve">
<style type="text/css">
	.st0{clip-path:url(#SVGID_2_);fill:#6EA204;}
	.st1{fill:#6EA204;}
</style>
<g>
	<g>
		<defs>
			<path id="SVGID_1_" d="M39.3,86.7c1.6-1.9,12.5-36.1,12.5-36.1L-8.5,62l-13.3-47.3L84.1-20.8l14.1,48.9l-3,47.5l-17.4,37.8
				L38.2,85.9"/>
		</defs>
		<clipPath id="SVGID_2_">
			<use xlink:href="#SVGID_1_"  style="overflow:visible;"/>
		</clipPath>
		<path class="st0" d="M42.7,2.6V4c10.2,0,19.4,4.1,26,10.8c6.7,6.7,10.8,15.9,10.8,26c0,10.2-4.1,19.4-10.8,26
			c-6.7,6.7-15.9,10.8-26,10.8c-10.2,0-19.4-4.1-26-10.8C10,60.2,5.9,51,5.9,40.8c0-10.2,4.1-19.4,10.8-26C23.3,8.1,32.5,4,42.7,4
			V2.6V1.2C20.8,1.2,3.1,18.9,3.1,40.8c0,21.9,17.7,39.6,39.6,39.6c21.9,0,39.6-17.7,39.6-39.6c0-21.9-17.7-39.6-39.6-39.6V2.6z"/>
		<path class="st0" d="M80.3,29.1v1.4c2.9,0,5.4,1.2,7.3,3c1.9,1.9,3,4.4,3,7.3c0,2.9-1.2,5.4-3,7.3c-1.9,1.9-4.4,3-7.3,3
			c-2.9,0-5.4-1.2-7.3-3c-1.9-1.9-3-4.4-3-7.3c0-2.9,1.2-5.4,3-7.3c1.9-1.9,4.4-3,7.3-3V29.1v-1.4c-7.2,0-13.1,5.8-13.1,13.1
			c0,7.2,5.8,13.1,13.1,13.1c7.2,0,13.1-5.8,13.1-13.1c0-7.2-5.8-13.1-13.1-13.1V29.1z"/>
		<path class="st0" d="M62.7,39.4H59c-0.8,0-1.4,0.6-1.4,1.4c0,0.8,0.6,1.4,1.4,1.4h3.7c0.8,0,1.4-0.6,1.4-1.4
			C64.1,40,63.5,39.4,62.7,39.4"/>
		<path class="st0" d="M40.1,39.4h-6.3c-0.8,0-1.4,0.6-1.4,1.4c0,0.8,0.6,1.4,1.4,1.4h6.3c0.8,0,1.4-0.6,1.4-1.4
			C41.4,40,40.8,39.4,40.1,39.4z M52.7,39.4h-6.3c-0.8,0-1.4,0.6-1.4,1.4c0,0.8,0.6,1.4,1.4,1.4h6.3c0.8,0,1.4-0.6,1.4-1.4
			C54.1,40,53.5,39.4,52.7,39.4z"/>
		<path class="st0" d="M27.5,39.4h-3.7c-0.8,0-1.4,0.6-1.4,1.4c0,0.8,0.6,1.4,1.4,1.4h3.7c0.8,0,1.4-0.6,1.4-1.4
			C28.9,40,28.3,39.4,27.5,39.4"/>
	</g>
	<polygon class="st1" points="38.9,57 37.6,56.6 31.8,78.4 17.5,64.2 39.3,58.3 38.9,57 37.6,56.6 38.9,57 38.5,55.7 12.3,62.8 
		33.2,83.6 40.8,55.1 38.5,55.7 	"/>
	<polyline class="st1" points="22.7,71.2 9.7,84.2 11.7,86.2 24.7,73.2 	"/>
</g>
</svg>
