<?xml version="1.0" encoding="utf-8"?>
<!-- Generator: Adobe Illustrator 22.1.0, SVG Export Plug-In . SVG Version: 6.00 Build 0)  -->
<svg version="1.1" id="Layer_1" xmlns="http://www.w3.org/2000/svg" xmlns:xlink="http://www.w3.org/1999/xlink" x="0px" y="0px"
	 viewBox="0 0 540 540" style="enable-background:new 0 0 540 540;" xml:space="preserve">
<title>Artboard 6</title>
<path d="M414.8,305.2c-8.2,0-16.1,3.2-21.9,9c-0.6,0.6-1.2,1.2-1.7,1.8c-0.5-0.6-1.1-1.2-1.6-1.8c-12.1-12.1-31.6-12.1-43.7-0.1
	c0,0,0,0-0.1,0.1c-0.6,0.6-1.2,1.2-1.7,1.8c-0.5-0.6-1.1-1.2-1.6-1.8c-10.1-10.1-25.8-12-38-4.6v-34.8c27-17.1,35-52.9,17.9-79.8
	c-17.1-27-52.9-35-79.8-17.9s-35,52.9-17.9,79.8c4.6,7.2,10.7,13.3,17.9,17.9V407c-19.4-11.5-41.5-17.6-64.1-17.5
	c-17.1,0-31,13.9-31,31c0,17.1,13.9,31,31,31c35.4,0,64.1,28.7,64.1,64.1h14.9c0-43.6-35.4-79-79-79c-8.9,0-16.1-7.2-16.1-16.1
	s7.2-16.1,16.1-16.1c24.2-0.1,47.8,7.9,67.1,22.6c3.3,2.5,7.9,1.8,10.4-1.4c1-1.3,1.5-2.9,1.5-4.5V226c0-8.9,7.2-16.1,16.1-16.1
	c8.9,0,16.1,7.2,16.1,16.1v110.2c-0.1,4.1,3.1,7.6,7.2,7.7c4.1,0.1,7.6-3.1,7.7-7.2c0-0.2,0-0.3,0-0.5c0-8.9,7.2-16.1,16.1-16.1
	c8.9,0,16.1,7.2,16.1,16.1c0,0,0,0,0,0l0,0c0.1,4.1,3.6,7.3,7.7,7.2c3.9-0.1,7-3.3,7.2-7.2c0-8.9,7.2-16.1,16.1-16.1
	s16.1,7.2,16.1,16.1c-0.1,4.1,3.1,7.6,7.2,7.7c4.1,0.1,7.6-3.1,7.7-7.2c0-0.2,0-0.3,0-0.5l0,0c0-8.9,7.2-16.1,16.1-16.1
	c8.9,0,16.1,7.2,16.1,16.1l0,0v179.3h14.9V336.2C445.8,319.1,431.9,305.2,414.8,305.2L414.8,305.2z M273.5,195
	c-17.1,0-31,13.9-31,31l0,0v29.8c-16.5-17.1-16-44.4,1.2-60.8c17.1-16.5,44.4-16,60.8,1.2c16,16.7,16,43,0,59.7V226
	C304.5,208.9,290.6,195,273.5,195z"/>
<path d="M320.8,168.1l10.5,10.5L355,155v-43.6c13.6-4.1,21.2-18.4,17.1-32c-4.1-13.6-18.4-21.2-32-17.1s-21.2,18.4-17.1,32
	c2.5,8.2,8.9,14.6,17.1,17.1v37.5L320.8,168.1z M336.8,86.9c0-5.9,4.8-10.8,10.8-10.8c5.9,0,10.8,4.8,10.8,10.8
	c0,5.9-4.8,10.7-10.7,10.8C341.6,97.6,336.8,92.8,336.8,86.9C336.8,86.9,336.8,86.9,336.8,86.9L336.8,86.9z"/>
<rect x="266" y="106.8" width="14.9" height="14.3"/>
<rect x="266" y="135.5" width="14.9" height="14.3"/>
<rect x="349.7" y="218.6" width="14.3" height="14.9"/>
<rect x="378.3" y="218.6" width="14.3" height="14.9"/>
<rect x="154.3" y="218.6" width="14.3" height="14.9"/>
<rect x="182.9" y="218.6" width="14.3" height="14.9"/>
<path d="M191.9,111.4V155l23.7,23.6l10.5-10.5l-19.3-19.3v-37.4c13.6-4.1,21.2-18.4,17.1-32c-4.1-13.6-18.4-21.2-32-17.1
	c-13.6,4.1-21.2,18.4-17.1,32C177.3,102.5,183.7,108.9,191.9,111.4z M199.4,76.2c5.9,0,10.8,4.8,10.8,10.8s-4.8,10.8-10.8,10.8
	c-5.9,0-10.8-4.8-10.8-10.8v0C188.6,81,193.4,76.1,199.4,76.2C199.3,76.1,199.4,76.1,199.4,76.2L199.4,76.2z"/>
<path d="M273.5,87.7c14.2,0,25.6-11.5,25.6-25.6s-11.5-25.6-25.6-25.6c-14.2,0-25.6,11.5-25.6,25.6c0,0,0,0,0,0
	C247.8,76.2,259.3,87.7,273.5,87.7z M273.5,51.3c5.9,0,10.8,4.8,10.8,10.8s-4.8,10.8-10.8,10.8c-5.9,0-10.8-4.8-10.8-10.8v0
	C262.7,56.1,267.5,51.3,273.5,51.3z"/>
<path d="M437.4,200.4c-14.2,0-25.6,11.5-25.6,25.6s11.5,25.6,25.6,25.6c14.2,0,25.6-11.5,25.6-25.6l0,0
	C463,211.9,451.6,200.4,437.4,200.4z M437.4,236.8c-5.9,0-10.8-4.8-10.8-10.8s4.8-10.8,10.8-10.8c5.9,0,10.8,4.8,10.8,10.8
	c0,0,0,0,0,0C448.2,231.9,443.3,236.8,437.4,236.8L437.4,236.8z"/>
<path d="M109.5,200.4c-14.2,0-25.7,11.5-25.7,25.6c0,14.2,11.5,25.7,25.6,25.7c14.2,0,25.7-11.5,25.7-25.6c0,0,0,0,0,0
	C135.1,211.8,123.7,200.4,109.5,200.4z M109.5,236.8c-5.9,0-10.8-4.8-10.8-10.8c0-5.9,4.8-10.8,10.8-10.8c5.9,0,10.8,4.8,10.8,10.8
	l0,0C120.3,231.9,115.4,236.8,109.5,236.8L109.5,236.8z"/>
</svg>
