<?xml version="1.0" encoding="utf-8"?>
<!-- Generator: Adobe Illustrator 22.1.0, SVG Export Plug-In . SVG Version: 6.00 Build 0)  -->
<svg version="1.1" id="_x31_9_x5F_responsive_x5F_design"
	 xmlns="http://www.w3.org/2000/svg" xmlns:xlink="http://www.w3.org/1999/xlink" x="0px" y="0px" viewBox="0 0 500 500"
	 style="enable-background:new 0 0 500 500;" xml:space="preserve">
<style type="text/css">
	.st0{fill:#222829;}
</style>
<g>
	<polyline class="st0" points="287.2,370 287.2,420.5 301.2,420.5 301.2,370 	"/>
	<polyline class="st0" points="225.4,420.5 225.4,370 211.4,370 211.4,420.5 	"/>
	<polyline class="st0" points="199.5,427.5 313.1,427.5 313.1,413.5 199.5,413.5 	"/>
	<polyline class="st0" points="199.5,326.5 338.4,326.5 338.4,312.5 199.5,312.5 	"/>
	<polyline class="st0" points="250,351.7 262.6,351.7 262.6,337.7 250,337.7 	"/>
	<polygon class="st0" points="86.5,199.5 86.5,111.8 413.5,111.8 413.5,250 427.5,250 427.5,97.8 72.5,97.8 72.5,199.5 86.5,199.5 	
		"/>
	<polyline class="st0" points="173.5,104.8 173.5,199.5 187.5,199.5 187.5,104.8 	"/>
	<polyline class="st0" points="79.5,174.9 420.5,174.9 420.5,160.9 79.5,160.9 	"/>
	<polyline class="st0" points="249.3,104.8 249.3,294.2 263.3,294.2 263.3,104.8 	"/>
	<polygon class="st0" points="325.1,104.8 325.1,287.2 199.5,287.2 199.5,301.2 339.1,301.2 339.1,104.8 325.1,104.8 	"/>
	<polyline class="st0" points="338.4,363 199.5,363 199.5,377 338.4,377 	"/>
	<path class="st0" d="M61.2,199.5V85.8h-0.7l0.6,0.3l0.1-0.3h-0.7l0.6,0.3l-0.7-0.3l0.4,0.6c0.1-0.1,0.2-0.2,0.3-0.3l-0.7-0.3
		l0.4,0.6l-0.4-0.6l0,0.7c0.1,0,0.3,0,0.4-0.1l-0.4-0.6l0,0.7h378.9v-0.7l-0.3,0.6l0.3,0.1v-0.7l-0.3,0.6l0.3-0.7l-0.6,0.4
		c0.1,0.1,0.2,0.2,0.3,0.3l0.3-0.7l-0.6,0.4l0.6-0.4l-0.7,0c0,0.1,0,0.3,0.1,0.4l0.6-0.4l-0.7,0V250h14l0-164.2c0-1.8-0.4-3.6-1-5.2
		c-1-2.4-2.7-4.4-4.8-5.9c-2.1-1.4-4.7-2.3-7.4-2.3H60.5c-1.8,0-3.6,0.4-5.2,1c-2.4,1-4.4,2.7-5.9,4.8c-1.4,2.1-2.3,4.7-2.3,7.4
		v113.7H61.2L61.2,199.5z"/>
	<polyline class="st0" points="180.5,363 54.2,363 54.2,377 180.5,377 	"/>
	<path class="st0" d="M180.5,414.2h-7h0.7l-0.6-0.3l-0.1,0.3h0.7l-0.6-0.3l0.7,0.3l-0.4-0.6c-0.1,0.1-0.2,0.2-0.3,0.3l0.7,0.3
		l-0.4-0.6l0.4,0.6v-0.7c-0.1,0-0.3,0-0.4,0.1l0.4,0.6v-0.7H60.6v0.7l0.3-0.6l-0.3-0.1v0.7l0.3-0.6l-0.3,0.7l0.6-0.4
		c-0.1-0.1-0.2-0.2-0.3-0.3l-0.3,0.7l0.6-0.4l-0.6,0.4h0.7c0-0.1,0-0.3-0.1-0.4l-0.6,0.4h0.7V224.7h-0.7l0.6,0.3l0.1-0.3h-0.7
		l0.6,0.3l-0.7-0.3l0.4,0.6c0.1-0.1,0.2-0.2,0.3-0.3l-0.7-0.3l0.4,0.6l-0.4-0.6v0.7c0.1,0,0.3,0,0.4-0.1l-0.4-0.6v0.7h113.7v-0.7
		l-0.3,0.6l0.3,0.1v-0.7l-0.3,0.6l0.3-0.7l-0.6,0.4c0.1,0.1,0.2,0.2,0.3,0.3l0.3-0.7l-0.6,0.4l0.6-0.4l-0.7,0c0,0.1,0,0.3,0.1,0.4
		l0.6-0.4l-0.7,0v189.5h7v-7h-0.1h-7v7H180.5v7h0.1h7V224.7c0-1.8-0.4-3.6-1-5.2c-1-2.4-2.7-4.4-4.8-5.9c-2.1-1.4-4.7-2.3-7.4-2.3
		H60.6c-1.8,0-3.6,0.4-5.2,1c-2.4,1-4.4,2.7-5.9,4.8c-1.4,2.1-2.3,4.7-2.3,7.4v189.5c0,1.8,0.4,3.6,1,5.2c1,2.4,2.7,4.4,4.8,5.9
		c2.1,1.4,4.7,2.3,7.4,2.3h113.6c1.8,0,3.6-0.4,5.2-1c2.4-1,4.4-2.7,5.9-4.8c1.4-2.1,2.3-4.7,2.3-7.4H180.5v7V414.2z"/>
	<polyline class="st0" points="97.8,243.7 97.8,370 111.8,370 111.8,243.7 	"/>
	<polyline class="st0" points="54.2,288.6 180.5,288.6 180.5,274.6 54.2,274.6 	"/>
	<polyline class="st0" points="54.2,250.7 180.5,250.7 180.5,236.7 54.2,236.7 	"/>
	<path class="st0" d="M445.8,414.2h-7h0.7l-0.6-0.3l-0.1,0.3h0.7l-0.6-0.3l0.7,0.3l-0.4-0.6c-0.1,0.1-0.2,0.2-0.3,0.3l0.7,0.3
		l-0.4-0.6l0.4,0.6v-0.7c-0.1,0-0.3,0-0.4,0.1l0.4,0.6v-0.7h-75.8v0.7l0.3-0.6l-0.3-0.1v0.7l0.3-0.6l-0.3,0.7l0.6-0.4
		c-0.1-0.1-0.2-0.2-0.3-0.3l-0.3,0.7l0.6-0.4l-0.6,0.4h0.7c0-0.1,0-0.3-0.1-0.4l-0.6,0.4h0.7V275.3h-0.7l0.6,0.3l0.1-0.3h-0.7
		l0.6,0.3l-0.7-0.3l0.4,0.6c0.1-0.1,0.2-0.2,0.3-0.3l-0.7-0.3l0.4,0.6l-0.4-0.6v0.7c0.1,0,0.3,0,0.4-0.1l-0.4-0.6v0.7h75.8v-0.7
		l-0.3,0.6l0.3,0.1v-0.7l-0.3,0.6l0.3-0.7l-0.6,0.4c0.1,0.1,0.2,0.2,0.3,0.3l0.3-0.7l-0.6,0.4l0.6-0.4l-0.7,0c0,0.1,0,0.3,0.1,0.4
		l0.6-0.4l-0.7,0v138.9H445.8h7V275.3c0-1.8-0.4-3.6-1-5.2c-1-2.4-2.7-4.4-4.8-5.9c-2.1-1.4-4.7-2.3-7.4-2.3h-75.8
		c-1.8,0-3.6,0.4-5.2,1c-2.4,1-4.4,2.7-5.9,4.8c-1.4,2.1-2.3,4.7-2.3,7.4v138.9c0,1.8,0.4,3.6,1,5.2c1,2.4,2.7,4.4,4.8,5.9
		c2.1,1.4,4.7,2.3,7.4,2.3h75.8c1.8,0,3.6-0.4,5.2-1c2.4-1,4.4-2.7,5.9-4.8c1.4-2.1,2.3-4.7,2.3-7.4H445.8z"/>
	<polyline class="st0" points="376.3,377 426.8,377 426.8,363 376.3,363 	"/>
	<polyline class="st0" points="357.4,402.2 445.8,402.2 445.8,388.2 357.4,388.2 	"/>
	<polyline class="st0" points="98.4,402.2 136.3,402.2 136.3,388.2 98.4,388.2 	"/>
	<polyline class="st0" points="376.3,326.5 426.8,326.5 426.8,312.5 376.3,312.5 	"/>
	<polyline class="st0" points="376.3,351.7 426.8,351.7 426.8,337.7 376.3,337.7 	"/>
	<polyline class="st0" points="357.4,301.2 445.8,301.2 445.8,287.2 357.4,287.2 	"/>
</g>
</svg>
