<?xml version="1.0" encoding="iso-8859-1"?>
<!-- Generator: Adobe Illustrator 17.0.0, SVG Export Plug-In . SVG Version: 6.00 Build 0)  -->
<!DOCTYPE svg PUBLIC "-//W3C//DTD SVG 1.1//EN" "http://www.w3.org/Graphics/SVG/1.1/DTD/svg11.dtd">
<svg version="1.1" id="_x31_9_x5F_responsive_x5F_design"
	 xmlns="http://www.w3.org/2000/svg" xmlns:xlink="http://www.w3.org/1999/xlink" x="0px" y="0px" width="64px" height="56px"
	 viewBox="0 0 64 56" style="enable-background:new 0 0 64 56;" xml:space="preserve">
<g>
	<g>
		<g>
			<line style="fill:none;stroke:#222829;stroke-width:2;stroke-miterlimit:10;" x1="39" y1="47" x2="39" y2="55"/>
			<line style="fill:none;stroke:#222829;stroke-width:2;stroke-miterlimit:10;" x1="27" y1="55" x2="27" y2="47"/>
			<line style="fill:none;stroke:#222829;stroke-width:2;stroke-miterlimit:10;" x1="24" y1="55" x2="42" y2="55"/>
			<line style="fill:none;stroke:#222829;stroke-width:2;stroke-miterlimit:10;" x1="24" y1="39" x2="46" y2="39"/>
			<line style="fill:none;stroke:#222829;stroke-width:2;stroke-miterlimit:10;" x1="32" y1="43" x2="34" y2="43"/>
			<polyline style="fill:none;stroke:#222829;stroke-width:2;stroke-miterlimit:10;" points="5,20 5,5 59,5 59,28 			"/>
			<line style="fill:none;stroke:#222829;stroke-width:2;stroke-miterlimit:10;" x1="21" y1="5" x2="21" y2="20"/>
			<line style="fill:none;stroke:#222829;stroke-width:2;stroke-miterlimit:10;" x1="5" y1="15" x2="59" y2="15"/>
			<line style="fill:none;stroke:#222829;stroke-width:2;stroke-miterlimit:10;" x1="33" y1="5" x2="33" y2="35"/>
			<polyline style="fill:none;stroke:#222829;stroke-width:2;stroke-miterlimit:10;" points="45,5 45,35 24,35 			"/>
			<line style="fill:none;stroke:#222829;stroke-width:2;stroke-miterlimit:10;" x1="46" y1="47" x2="24" y2="47"/>
			<path style="fill:none;stroke:#222829;stroke-width:2;stroke-miterlimit:10;" d="M1,20V2c0-0.553,0.448-1,1-1h60
				c0.552,0,1,0.447,1,1v26"/>
		</g>
		<g>
			<line style="fill:none;stroke:#222829;stroke-width:2;stroke-miterlimit:10;" x1="21" y1="47" x2="1" y2="47"/>
			<path style="fill:none;stroke:#222829;stroke-width:2;stroke-miterlimit:10;" d="M21,54c0,0.553-0.448,1-1,1H2
				c-0.552,0-1-0.447-1-1V24c0-0.553,0.448-1,1-1h18c0.552,0,1,0.447,1,1V54z"/>
			<line style="fill:none;stroke:#222829;stroke-width:2;stroke-miterlimit:10;" x1="9" y1="27" x2="9" y2="47"/>
			<line style="fill:none;stroke:#222829;stroke-width:2;stroke-miterlimit:10;" x1="1" y1="33" x2="21" y2="33"/>
		</g>
		<line style="fill:none;stroke:#222829;stroke-width:2;stroke-miterlimit:10;" x1="1" y1="27" x2="21" y2="27"/>
		<path style="fill:none;stroke:#222829;stroke-width:2;stroke-miterlimit:10;" d="M63,54c0,0.553-0.447,1-1,1H50
			c-0.552,0-1-0.447-1-1V32c0-0.553,0.448-1,1-1h12c0.553,0,1,0.447,1,1V54z"/>
		<line style="fill:none;stroke:#222829;stroke-width:2;stroke-miterlimit:10;" x1="52" y1="47" x2="60" y2="47"/>
		<line style="fill:none;stroke:#222829;stroke-width:2;stroke-miterlimit:10;" x1="49" y1="51" x2="63" y2="51"/>
		<line style="fill:none;stroke:#222829;stroke-width:2;stroke-miterlimit:10;" x1="8" y1="51" x2="14" y2="51"/>
		<line style="fill:none;stroke:#222829;stroke-width:2;stroke-miterlimit:10;" x1="52" y1="39" x2="60" y2="39"/>
		<line style="fill:none;stroke:#222829;stroke-width:2;stroke-miterlimit:10;" x1="52" y1="43" x2="60" y2="43"/>
		<line style="fill:none;stroke:#222829;stroke-width:2;stroke-miterlimit:10;" x1="49" y1="35" x2="63" y2="35"/>
	</g>
</g>
</svg>
