<?xml version="1.0" encoding="utf-8"?>
<!-- Generator: Adobe Illustrator 22.1.0, SVG Export Plug-In . SVG Version: 6.00 Build 0)  -->
<svg version="1.1" id="Layer_1" xmlns="http://www.w3.org/2000/svg" xmlns:xlink="http://www.w3.org/1999/xlink" x="0px" y="0px"
	 viewBox="0 0 500 500" style="enable-background:new 0 0 500 500;" xml:space="preserve">
<style type="text/css">
	.st0{fill:#003851;}
</style>
<title>retail</title>
<g id="Layer_2_1_">
	<g id="Layer_1-2">
		<path class="st0" d="M388.4,439.7c17.7-16.8,18.5-44.8,1.7-62.5c-16.8-17.7-44.8-18.5-62.5-1.7c-0.4,0.3-0.7,0.7-1.1,1H192.4
			c-17.2-16.9-44.7-16.9-61.9,0h-7c-14,0.7-25.8-10.1-26.5-24.1c-0.7-14,10.1-25.8,24.1-26.5c0.8,0,1.6,0,2.4,0h246.5
			c16.8,0,30.6-13.3,31.4-30l50.4-138.5c0.7-1.9,0.4-4.1-0.8-5.8c-1.2-1.7-3.1-2.7-5.2-2.7H142.5v12.7H437l-46,126.4H129.8V98.2
			c0-14-11.3-25.3-25.3-25.3c0,0,0,0,0,0H47.7v12.7h31.6c7,0,12.6,5.6,12.7,12.6v198.3c-30.2,17.4-40.6,56.1-23.2,86.3
			c10.2,17.8,28.5,29.4,48.9,31.3c1.3,9.7,5.8,18.7,12.8,25.6H47.7v12.7h404.6v-12.7H388.4z M357.5,376.4
			c17.5,0,31.6,14.2,31.6,31.7c0,17.5-14.2,31.6-31.7,31.6c-17.5,0-31.6-14.2-31.6-31.7c0,0,0,0,0-0.1
			C325.9,390.5,340.1,376.4,357.5,376.4z M313.7,401.7H205.2c-0.6-4.4-1.9-8.6-3.8-12.6h116.2C315.7,393.1,314.4,397.3,313.7,401.7z
			 M101.1,85.6h3.5c7-0.1,12.7,5.5,12.8,12.5c0,0,0,0.1,0,0.1v190c-4.3,0.5-8.5,1.3-12.7,2.6V98.2C104.7,93.8,103.4,89.4,101.1,85.6
			z M73,351.2c0-27.9,22.7-50.6,50.6-50.6H388c-2.7,7.6-9.9,12.7-17.9,12.7H123.6c-20.9,1-37,18.7-36,39.6
			c0.9,18.7,15.4,34,34.1,35.9c-1.9,3.9-3.2,8.1-3.8,12.4C92.3,398.2,73.1,376.7,73,351.2z M129.8,407.9c0-17.5,14.1-31.7,31.6-31.7
			s31.7,14.1,31.7,31.6c0,17.5-14.1,31.7-31.6,31.7c0,0,0,0-0.1,0C144,439.5,129.9,425.4,129.8,407.9z M192.4,439.5
			c6.9-6.8,11.4-15.7,12.8-25.3h108.5c1.4,9.6,5.9,18.6,12.8,25.4L192.4,439.5z"/>
		<path class="st0" d="M174.1,212.1c6.8,0.1,13.2-3,17.4-8.3c2.7-2.9,4.1-4.4,8-4.4s5.3,1.5,8.1,4.4c7.6,9.5,21.4,11.1,30.9,3.5
			c1.3-1,2.5-2.2,3.5-3.5c2.7-2.9,4.1-4.4,8.1-4.4s5.3,1.5,8,4.4c7.6,9.5,21.5,11.1,31,3.5c1.3-1,2.5-2.2,3.5-3.5
			c2.7-2.9,4.1-4.4,8-4.4s5.3,1.5,8.1,4.4c7.6,9.5,21.4,11.1,30.9,3.5c1.3-1,2.5-2.2,3.5-3.5c2.7-2.9,4.1-4.4,8.1-4.4s5.3,1.5,8,4.4
			c7.6,9.5,21.5,11.1,31,3.5c1.3-1,2.5-2.2,3.5-3.5c2.7-2.9,4.1-4.4,8-4.4v-12.6c-6.8-0.1-13.3,2.9-17.4,8.3c-2.7,2.8-4.1,4.3-8,4.3
			s-5.3-1.5-8.1-4.3c-4.2-5.4-10.6-8.5-17.4-8.3c-6.8-0.1-13.3,2.9-17.4,8.3c-2.7,2.8-4.1,4.3-8.1,4.3c-4,0-5.3-1.5-8-4.3
			c-7.6-9.5-21.4-11.1-30.9-3.5c-1.3,1-2.5,2.2-3.5,3.5c-2.7,2.8-4.1,4.3-8.1,4.3s-5.3-1.5-8.1-4.3c-7.6-9.5-21.4-11.1-30.9-3.5
			c-1.3,1-2.5,2.2-3.5,3.5c-2.7,2.8-4.1,4.3-8,4.3s-5.3-1.5-8.1-4.3c-7.6-9.5-21.4-11.1-30.9-3.5c-1.3,1-2.5,2.2-3.5,3.5
			c-2.7,2.8-4.1,4.3-8.1,4.3s-5.3-1.5-8-4.3c-4.2-5.4-10.6-8.4-17.4-8.3v12.6c4,0,5.3,1.5,8,4.4
			C160.6,209.2,167.2,212.3,174.1,212.1z"/>
		<path class="st0" d="M148.8,250c4,0,5.3,1.5,8,4.4c7.7,9.5,21.7,11,31.2,3.3c1.2-1,2.3-2.1,3.3-3.3c2.7-2.9,4.1-4.4,8-4.4
			s5.3,1.5,8.1,4.4c7.7,9.5,21.6,11,31.1,3.3c1.2-1,2.3-2.1,3.3-3.3c2.7-2.9,4.1-4.4,8.1-4.4s5.3,1.5,8,4.4
			c7.7,9.5,21.7,11,31.2,3.3c1.2-1,2.3-2.1,3.3-3.3c2.7-2.9,4.1-4.4,8-4.4s5.3,1.5,8.1,4.3c7.6,9.5,21.4,11.1,30.9,3.5
			c1.3-1,2.5-2.2,3.5-3.5c2.7-2.8,4.1-4.3,8.1-4.3s5.3,1.5,8,4.3c4.2,5.4,10.6,8.4,17.4,8.3V250c-4,0-5.3-1.5-8.1-4.4
			c-4.2-5.4-10.6-8.5-17.4-8.3c-6.8-0.1-13.2,3-17.4,8.3c-2.7,2.9-4.1,4.4-8.1,4.4s-5.3-1.5-8-4.4c-7.6-9.5-21.4-11.1-30.9-3.5
			c-1.3,1-2.5,2.2-3.5,3.5c-2.7,2.9-4.1,4.4-8.1,4.4s-5.3-1.5-8.1-4.4c-7.6-9.5-21.4-11.1-30.9-3.5c-1.3,1-2.5,2.2-3.5,3.5
			c-2.7,2.9-4.1,4.4-8,4.4s-5.3-1.5-8.1-4.4c-7.6-9.5-21.4-11.1-30.9-3.5c-1.3,1-2.5,2.2-3.5,3.5c-2.7,2.9-4.1,4.4-8.1,4.4
			s-5.3-1.5-8-4.4c-4.2-5.3-10.6-8.4-17.4-8.3L148.8,250z"/>
		<circle class="st0" cx="161.5" cy="408" r="12.7"/>
		<circle class="st0" cx="357.5" cy="408" r="12.7"/>
		<path class="st0" d="M180.4,110.9h151.9v25.3h12.7v-31.6c0-3.5-2.8-6.3-6.3-6.3c-0.1,0-0.2,0-0.2,0H174.1c-3.5,0-6.3,2.8-6.3,6.3
			l0,0v31.6h12.7V110.9z"/>
		<path class="st0" d="M275.3,60.3h31.6v18.9c0,3.5,2.8,6.3,6.3,6.3h0h25.3c3.5,0,6.3-2.8,6.3-6.3l0,0V60.3h31.6v75.8h12.7V54
			c0-3.5-2.8-6.3-6.3-6.3c0,0,0,0,0,0H268.9c-3.5,0-6.3,2.9-6.3,6.3v31.6h12.7L275.3,60.3z M332.2,60.3V73h-12.6V60.3H332.2z"/>
	</g>
</g>
</svg>
