<svg xmlns="http://www.w3.org/2000/svg" viewBox="0 0 69.64 69.64"><defs><style>.cls-1{fill:#003851;}</style></defs><title>retail</title><g id="Layer_2" data-name="Layer 2"><g id="Layer_1-2" data-name="Layer 1"><path class="cls-1" d="M58.64,67.46A7.61,7.61,0,1,0,48,56.58H24.91a7.59,7.59,0,0,0-10.65,0h-1.2a4.36,4.36,0,1,1,0-8.71H55.49A5.43,5.43,0,0,0,60.9,42.7l8.67-23.83a1.11,1.11,0,0,0-.13-1,1.09,1.09,0,0,0-.89-.46H16.32v2.18H67L59.08,41.35H14.14V8.7A4.35,4.35,0,0,0,9.79,4.35H0V6.53H5.44A2.18,2.18,0,0,1,7.62,8.7V42.82a10.87,10.87,0,0,0,4.43,20.24,7.55,7.55,0,0,0,2.21,4.4H0v2.18H69.64V67.46ZM53.32,56.58A5.44,5.44,0,1,1,47.87,62,5.45,5.45,0,0,1,53.32,56.58Zm-7.53,4.35H27.11a7.48,7.48,0,0,0-.65-2.17h20A7.48,7.48,0,0,0,45.79,60.93ZM9.19,6.53h.6A2.18,2.18,0,0,1,12,8.7V41.4a11.25,11.25,0,0,0-2.18.45V8.7A4.33,4.33,0,0,0,9.19,6.53ZM4.35,52.23a8.72,8.72,0,0,1,8.71-8.71H58.57a3.27,3.27,0,0,1-3.08,2.18H13.06a6.52,6.52,0,0,0-.34,13,7.65,7.65,0,0,0-.66,2.13A8.71,8.71,0,0,1,4.35,52.23ZM14.14,62a5.45,5.45,0,1,1,5.45,5.44A5.45,5.45,0,0,1,14.14,62Zm10.77,5.44a7.61,7.61,0,0,0,2.2-4.35H45.79A7.61,7.61,0,0,0,48,67.46Z"/><path class="cls-1" d="M21.76,28.29a3.74,3.74,0,0,0,3-1.43c.47-.5.7-.75,1.38-.75s.92.25,1.39.75a3.79,3.79,0,0,0,5.93,0c.47-.5.71-.75,1.39-.75s.91.25,1.38.75a3.8,3.8,0,0,0,5.94,0c.47-.5.7-.75,1.38-.75s.92.25,1.39.75a3.79,3.79,0,0,0,5.93,0c.47-.5.71-.75,1.39-.75s.91.25,1.38.75a3.8,3.8,0,0,0,5.94,0c.47-.5.7-.75,1.38-.75V23.94a3.71,3.71,0,0,0-3,1.43c-.47.49-.7.74-1.38.74s-.92-.25-1.39-.74a3.68,3.68,0,0,0-3-1.43,3.71,3.71,0,0,0-3,1.43c-.47.49-.7.74-1.39.74s-.91-.25-1.38-.74a3.79,3.79,0,0,0-5.93,0c-.47.49-.71.74-1.39.74s-.91-.25-1.39-.74a3.79,3.79,0,0,0-5.93,0c-.47.49-.71.74-1.38.74s-.92-.25-1.39-.74a3.79,3.79,0,0,0-5.93,0c-.47.49-.71.74-1.39.74s-.91-.25-1.38-.74a3.71,3.71,0,0,0-3-1.43v2.17c.68,0,.91.25,1.38.75A3.76,3.76,0,0,0,21.76,28.29Z"/><path class="cls-1" d="M17.41,34.82c.68,0,.91.25,1.38.75a3.82,3.82,0,0,0,5.94,0c.47-.5.7-.75,1.38-.75s.92.25,1.39.75a3.81,3.81,0,0,0,5.93,0c.47-.5.71-.75,1.39-.75s.91.25,1.38.75a3.82,3.82,0,0,0,5.94,0c.47-.5.7-.75,1.38-.75s.92.25,1.39.74a3.79,3.79,0,0,0,5.93,0c.47-.49.71-.74,1.39-.74s.91.25,1.38.74a3.71,3.71,0,0,0,3,1.43V34.82c-.68,0-.92-.25-1.39-.75a3.7,3.7,0,0,0-3-1.43,3.74,3.74,0,0,0-3,1.43c-.47.5-.7.75-1.39.75s-.91-.25-1.38-.75a3.79,3.79,0,0,0-5.93,0c-.47.5-.71.75-1.39.75s-.91-.25-1.39-.75a3.79,3.79,0,0,0-5.93,0c-.47.5-.71.75-1.38.75s-.92-.25-1.39-.75a3.79,3.79,0,0,0-5.93,0c-.47.5-.71.75-1.39.75s-.91-.25-1.38-.75a3.74,3.74,0,0,0-3-1.43Z"/><circle class="cls-1" cx="19.59" cy="62.02" r="2.18"/><circle class="cls-1" cx="53.32" cy="62.02" r="2.18"/><path class="cls-1" d="M22.85,10.88H49v4.35h2.18V9.79A1.09,1.09,0,0,0,50.05,8.7H21.76a1.09,1.09,0,0,0-1.09,1.09v5.44h2.18Z"/><path class="cls-1" d="M39.17,2.18h5.44V5.44A1.09,1.09,0,0,0,45.7,6.53h4.35a1.09,1.09,0,0,0,1.09-1.09V2.18h5.44V15.23h2.18V1.09A1.09,1.09,0,0,0,57.67,0H38.08A1.09,1.09,0,0,0,37,1.09V6.53h2.18Zm9.79,0V4.35H46.79V2.18Z"/></g></g></svg>