<?xml version="1.0" encoding="utf-8"?>
<!-- Generator: Adobe Illustrator 22.1.0, SVG Export Plug-In . SVG Version: 6.00 Build 0)  -->
<svg version="1.1" id="_x33_5_x5F_secured_x5F_backup"
	 xmlns="http://www.w3.org/2000/svg" xmlns:xlink="http://www.w3.org/1999/xlink" x="0px" y="0px" viewBox="0 0 500 500"
	 style="enable-background:new 0 0 500 500;" xml:space="preserve">
<style type="text/css">
	.st0{fill:#222829;}
</style>
<g>
	<path class="st0" d="M207.7,31.5v7c22.1,0,43.1,1.4,62.2,3.8c14.3,1.8,27.5,4.3,39.2,7.2c8.8,2.2,16.7,4.7,23.6,7.3
		c5.2,2,9.8,4.1,13.7,6.3c5.9,3.2,10.2,6.6,12.9,9.7c1.3,1.5,2.2,3,2.8,4.3c0.5,1.3,0.8,2.5,0.8,3.6c0,0.9-0.1,1.8-0.5,2.8
		c-0.6,1.8-1.9,4-4.2,6.4c-2,2.1-4.7,4.2-8.1,6.3c-5.9,3.7-13.9,7.4-23.4,10.6c-14.3,4.9-32.1,9-52.3,11.8
		c-20.2,2.8-42.8,4.4-66.6,4.4c-22.1,0-43.1-1.4-62.2-3.8c-14.3-1.8-27.5-4.3-39.2-7.2c-8.8-2.2-16.7-4.7-23.6-7.3
		c-5.2-2-9.8-4.1-13.7-6.3c-5.9-3.2-10.2-6.6-12.9-9.7c-1.3-1.5-2.2-3-2.8-4.3c-0.5-1.3-0.8-2.5-0.8-3.6c0-0.9,0.1-1.8,0.5-2.8
		c0.6-1.8,1.9-4,4.2-6.4c2-2.1,4.7-4.2,8.1-6.3c5.9-3.7,13.9-7.4,23.4-10.6c14.3-4.9,32.1-9,52.3-11.8c20.2-2.8,42.8-4.4,66.6-4.4
		V31.5v-7c-22.7,0-44.3,1.4-64,3.9c-14.8,1.9-28.5,4.4-40.8,7.5c-9.2,2.3-17.7,4.9-25.2,7.9C72,46,66.8,48.4,62.3,50.9
		c-6.9,3.8-12.5,8-16.7,12.9c-2.1,2.4-3.8,5.1-5,7.9c-1.2,2.9-1.9,5.9-1.9,9.1c0,2.5,0.4,4.9,1.2,7.3c1.5,4.4,4.1,8.2,7.5,11.7
		c3,3,6.6,5.8,10.7,8.4c7.2,4.5,16,8.5,26.3,12c15.4,5.3,34,9.5,54.9,12.4c20.9,2.9,44.1,4.5,68.5,4.5c22.7,0,44.3-1.4,64-3.9
		c14.8-1.9,28.5-4.4,40.8-7.5c9.2-2.3,17.7-4.9,25.2-7.9c5.7-2.2,10.8-4.5,15.4-7.1c6.9-3.8,12.5-8,16.7-12.9c2.1-2.4,3.8-5.1,5-7.9
		c1.2-2.9,1.9-5.9,1.9-9.1c0-2.5-0.4-4.9-1.2-7.3c-1.5-4.4-4.1-8.2-7.5-11.7c-3-3-6.6-5.8-10.7-8.4c-7.2-4.5-16-8.5-26.3-12
		c-15.4-5.3-34-9.5-54.9-12.4c-20.9-2.9-44.1-4.5-68.5-4.5V31.5z"/>
	<path class="st0" d="M207.7,207.8c-22.1,0-43.1-1.4-62.2-3.8c-14.3-1.8-27.5-4.3-39.2-7.2c-8.8-2.2-16.7-4.7-23.6-7.3
		c-5.2-2-9.8-4.1-13.7-6.3c-5.9-3.2-10.2-6.6-12.9-9.7c-1.3-1.5-2.2-3-2.8-4.3c-0.5-1.3-0.8-2.5-0.8-3.6l0-84.7h-14l0,84.7
		c0,2.5,0.4,4.9,1.2,7.3c1.5,4.4,4.1,8.2,7.5,11.7c3,3,6.6,5.8,10.7,8.4c7.2,4.5,16,8.5,26.3,12c15.4,5.3,34,9.5,54.9,12.4
		c20.9,2.9,44.1,4.5,68.5,4.5V207.8L207.7,207.8z"/>
	<polyline class="st0" points="362.8,80.8 362.8,151.3 376.8,151.3 376.8,80.8 	"/>
	<path class="st0" d="M207.7,292.3c-22.1,0-43.1-1.4-62.2-3.8c-14.3-1.8-27.5-4.3-39.2-7.2c-8.8-2.2-16.7-4.7-23.6-7.3
		c-5.2-2-9.8-4.1-13.7-6.3c-5.9-3.2-10.2-6.6-12.9-9.7c-1.3-1.5-2.2-3-2.8-4.3c-0.5-1.3-0.8-2.5-0.8-3.6l0-49.3h-14l0,49.3
		c0,2.5,0.4,4.9,1.2,7.3c1.5,4.4,4.1,8.2,7.5,11.7c3,3,6.6,5.8,10.7,8.4c7.2,4.5,16,8.5,26.3,12c15.4,5.3,34,9.5,54.9,12.4
		c20.9,2.9,44.1,4.5,68.5,4.5V292.3L207.7,292.3z"/>
	<path class="st0" d="M207.7,376.9c-22.1,0-43.1-1.4-62.2-3.8c-14.3-1.8-27.5-4.3-39.2-7.2c-8.8-2.2-16.7-4.7-23.6-7.3
		c-5.2-2-9.8-4.1-13.7-6.3c-5.9-3.2-10.2-6.6-12.9-9.7c-1.3-1.5-2.2-3-2.8-4.3c-0.5-1.3-0.8-2.5-0.8-3.6l0-49.3h-14l0,49.3
		c0,2.5,0.4,4.9,1.2,7.3c1.5,4.4,4.1,8.2,7.5,11.7c3,3,6.6,5.8,10.7,8.4c7.2,4.5,16,8.5,26.3,12c15.4,5.3,34,9.5,54.9,12.4
		c20.9,2.9,44.1,4.5,68.5,4.5V376.9L207.7,376.9z"/>
	<path class="st0" d="M291,454.4c-24.1,4.5-52.7,7.1-83.3,7.1c-22.1,0-43.1-1.4-62.2-3.8c-14.3-1.8-27.5-4.3-39.2-7.2
		c-8.8-2.2-16.7-4.7-23.6-7.3c-5.2-2-9.8-4.1-13.7-6.3c-5.9-3.2-10.2-6.6-12.9-9.7c-1.3-1.5-2.2-3-2.8-4.3c-0.5-1.3-0.8-2.5-0.8-3.6
		l0-49.3h-14l0,49.3c0,2.5,0.4,4.9,1.2,7.3c1.5,4.4,4.1,8.2,7.5,11.7c3,3,6.6,5.8,10.7,8.4c7.2,4.5,16,8.5,26.3,12
		c15.4,5.3,34,9.5,54.9,12.4c20.9,2.9,44.1,4.5,68.5,4.5c31.4,0,60.8-2.6,85.9-7.3L291,454.4L291,454.4z"/>
	<polyline class="st0" points="207.7,221.8 221.8,221.8 221.8,207.8 207.7,207.8 	"/>
	<polyline class="st0" points="207.7,306.3 221.8,306.3 221.8,292.3 207.7,292.3 	"/>
	<polyline class="st0" points="207.7,390.9 221.8,390.9 221.8,376.9 207.7,376.9 	"/>
	<path class="st0" d="M454.4,383.9l-4.4-5.5l-101.3,81.1l-98.7-79V182.6l46.8,17.6c2.6,1,5.4,0.3,7.4-1.6l19.2-19.1H374l19,19
		c1.9,1.9,4.8,2.6,7.4,1.6l46.9-17.6v201.3H454.4l-4.4-5.5L454.4,383.9h7V172.5c0-2.3-1.1-4.4-3-5.8c-1.9-1.3-4.3-1.6-6.4-0.8
		l-52.2,19.5l-17.9-17.9c-1.3-1.3-3.1-2.1-4.9-2.1h-56.4c-1.8,0-3.6,0.7-4.9,2l-18,17.9l-52.1-19.5c-2.1-0.8-4.6-0.5-6.4,0.8
		c-1.9,1.3-3,3.5-3,5.8v211.4c0,2.1,1,4.1,2.6,5.5L344.3,474c2.6,2,6.2,2,8.7,0l105.7-84.6c1.7-1.3,2.6-3.3,2.6-5.5H454.4z"/>
	<polyline class="st0" points="391,250 391,264.1 405,264.1 405,250 	"/>
	<polyline class="st0" points="391,334.6 391,348.7 405,348.7 405,334.6 	"/>
	<polyline class="st0" points="362.8,250 362.8,264.1 376.8,264.1 376.8,250 	"/>
	<polyline class="st0" points="362.8,278.2 362.8,292.3 376.8,292.3 376.8,278.2 	"/>
	<polyline class="st0" points="362.8,334.6 362.8,348.7 376.8,348.7 376.8,334.6 	"/>
	<polyline class="st0" points="362.8,362.8 362.8,376.9 376.8,376.9 376.8,362.8 	"/>
	<polyline class="st0" points="391,278.2 391,292.3 405,292.3 405,278.2 	"/>
	<polyline class="st0" points="292.3,250 292.3,264.1 306.3,264.1 306.3,250 	"/>
	<polyline class="st0" points="292.3,334.6 292.3,348.7 306.3,348.7 306.3,334.6 	"/>
	<polyline class="st0" points="320.5,250 320.5,264.1 334.5,264.1 334.5,250 	"/>
	<polyline class="st0" points="320.5,278.2 320.5,292.3 334.5,292.3 334.5,278.2 	"/>
	<polyline class="st0" points="320.5,334.6 320.5,348.7 334.5,348.7 334.5,334.6 	"/>
	<polyline class="st0" points="320.5,362.8 320.5,376.9 334.5,376.9 334.5,362.8 	"/>
	<polyline class="st0" points="292.3,278.2 292.3,292.3 306.3,292.3 306.3,278.2 	"/>
	<polyline class="st0" points="362.8,306.4 362.8,320.5 376.8,320.5 376.8,306.4 	"/>
	<polyline class="st0" points="391,306.4 391,320.5 405,320.5 405,306.4 	"/>
	<polyline class="st0" points="320.5,306.4 320.5,320.5 334.5,320.5 334.5,306.4 	"/>
	<polyline class="st0" points="292.3,306.4 292.3,320.5 306.3,320.5 306.3,306.4 	"/>
	<polyline class="st0" points="292.3,193.6 292.3,221.8 306.3,221.8 306.3,193.6 	"/>
	<polyline class="st0" points="391,193.6 391,221.8 405,221.8 405,193.6 	"/>
	<polyline class="st0" points="214.8,165.5 200.7,165.5 200.7,179.5 214.8,179.5 	"/>
	<polyline class="st0" points="214.8,250 200.7,250 200.7,264 214.8,264 	"/>
	<polyline class="st0" points="214.8,334.6 200.7,334.6 200.7,348.6 214.8,348.6 	"/>
	<polyline class="st0" points="214.8,419.2 200.7,419.2 200.7,433.2 214.8,433.2 	"/>
</g>
</svg>
