<?xml version="1.0" encoding="utf-8"?>
<!-- Generator: Adobe Illustrator 22.1.0, SVG Export Plug-In . SVG Version: 6.00 Build 0)  -->
<svg version="1.1" id="_x33_6_x5F_secure_x5F_payment"
	 xmlns="http://www.w3.org/2000/svg" xmlns:xlink="http://www.w3.org/1999/xlink" x="0px" y="0px" viewBox="0 0 500 500"
	 style="enable-background:new 0 0 500 500;" xml:space="preserve">
<style type="text/css">
	.st0{fill:#222829;}
</style>
<g>
	<path class="st0" d="M395.3,229.2h-7c0,0.9-0.2,1.8-0.5,2.6c-0.5,1.2-1.4,2.3-2.5,3c-1.1,0.7-2.4,1.2-3.8,1.2h-96.9
		c-0.9,0-1.8-0.2-2.6-0.5c-1.2-0.5-2.3-1.4-3-2.5c-0.7-1.1-1.2-2.4-1.2-3.8v-83c0-0.9,0.2-1.8,0.5-2.6c0.5-1.2,1.4-2.3,2.5-3
		c1.1-0.7,2.4-1.2,3.8-1.2h96.9c0.9,0,1.8,0.2,2.6,0.5c1.2,0.5,2.3,1.4,3,2.5c0.7,1.1,1.2,2.4,1.2,3.8v83H395.3h7v-83
		c0-2.9-0.6-5.6-1.6-8.1c-1.6-3.7-4.2-6.9-7.5-9.1c-3.3-2.2-7.3-3.6-11.6-3.6h-96.9c-2.9,0-5.6,0.6-8.1,1.6
		c-3.7,1.6-6.9,4.2-9.1,7.5c-2.2,3.3-3.6,7.3-3.6,11.6v83c0,2.9,0.6,5.6,1.6,8.1c1.6,3.7,4.2,6.9,7.5,9.1c3.3,2.2,7.3,3.6,11.6,3.6
		h96.9c2.9,0,5.6-0.6,8.1-1.6c3.7-1.6,6.9-4.2,9.1-7.5c2.2-3.3,3.6-7.3,3.6-11.6H395.3z"/>
	<path class="st0" d="M291.6,132.4v-27.7c0-4.7,1-9.2,2.7-13.4c2.6-6.2,7-11.5,12.6-15.2c5.5-3.7,12.1-5.9,19.2-5.9H340
		c4.7,0,9.2,1,13.4,2.7c6.2,2.6,11.5,7,15.2,12.6c3.7,5.5,5.9,12.1,5.9,19.2v27.7h14l0-27.7c0-6.7-1.4-13-3.8-18.8
		c-3.7-8.7-9.9-16.1-17.6-21.3c-7.7-5.2-17.1-8.3-27.1-8.3h-13.9c-6.7,0-13,1.4-18.8,3.8c-8.7,3.7-16.1,9.9-21.3,17.6
		c-5.2,7.7-8.3,17.1-8.3,27.1v27.7H291.6L291.6,132.4z"/>
	<path class="st0" d="M333,167v7v-0.1l0,0.1l0,0v-0.1l0,0.1l0-0.1l-0.1,0l0,0l0-0.1l-0.1,0l0.1-0.1l-0.1,0l0,0.1l0.1-0.1l-0.1,0h0.1
		l-0.1,0l0,0h0.1l-0.1,0l0.1,0l0-0.1l0,0l0.1,0l0-0.1l0.1,0.1l0-0.1l0,0l0.1,0.1l0-0.1l0,0.1v-0.1l0,0l0,0.1v-0.1v0.1l0-0.1l0,0v0.1
		l0-0.1l0,0.1l0.1,0l0,0l0,0.1l0.1,0l-0.1,0.1l0.1,0l0,0l-0.1,0.1l0.1,0l-0.1,0h0.1l0,0l-0.1,0h0.1H333l0.1,0l0,0H333l0.1,0l-0.1,0
		l0,0.1l0,0l-0.1,0l0,0.1l-0.1-0.1l0,0.1l0.1,0l-0.1-0.1l0,0.1V167v-7c-1.9,0-3.7,0.4-5.4,1.1c-2.5,1.1-4.6,2.8-6.1,5
		c-1.5,2.2-2.4,4.9-2.4,7.8c0,1.9,0.4,3.7,1.1,5.4c1.1,2.5,2.8,4.6,5,6.1c2.2,1.5,4.9,2.4,7.8,2.4c1.9,0,3.7-0.4,5.4-1.1
		c2.5-1.1,4.6-2.8,6.1-5c1.5-2.2,2.4-4.9,2.4-7.8c0-1.9-0.4-3.7-1.1-5.4c-1.1-2.5-2.8-4.6-5-6.1c-2.2-1.5-4.9-2.4-7.8-2.4V167z"/>
	<polyline class="st0" points="326,180.8 326,215.4 340,215.4 340,180.8 	"/>
	<path class="st0" d="M83.9,346.8H56.3c-1.9,0-3.7-0.4-5.4-1.1c-2.5-1-4.6-2.8-6.1-5c-1.5-2.2-2.3-4.8-2.4-7.7V153.1
		c0-1.9,0.4-3.7,1.1-5.4c1-2.5,2.8-4.6,5-6.1c2.2-1.5,4.8-2.3,7.7-2.4H250v-14l-193.7,0c-3.8,0-7.5,0.8-10.8,2.2
		c-5,2.1-9.2,5.6-12.2,10.1c-3,4.4-4.8,9.8-4.7,15.6V333c0,3.8,0.8,7.5,2.2,10.8c2.1,5,5.6,9.2,10.1,12.2c4.4,3,9.8,4.8,15.6,4.7
		h27.6V346.8L83.9,346.8z"/>
	<path class="st0" d="M416.1,222.4h27.7c1.9,0,3.7,0.4,5.4,1.1c2.5,1,4.6,2.8,6.1,5c1.5,2.2,2.3,4.8,2.4,7.7v179.9
		c0,1.9-0.4,3.7-1.1,5.4c-1,2.5-2.8,4.6-5,6.1c-2.2,1.5-4.8,2.3-7.7,2.4H125.5c-1.9,0-3.7-0.4-5.4-1.1c-2.5-1-4.6-2.8-6.1-5
		c-1.5-2.2-2.3-4.8-2.4-7.7V236.2c0-1.9,0.4-3.7,1.1-5.4c1-2.5,2.8-4.6,5-6.1c2.2-1.5,4.8-2.3,7.7-2.4H250v-14l-124.5,0
		c-3.8,0-7.5,0.8-10.8,2.2c-5,2.1-9.2,5.6-12.2,10.1c-3,4.4-4.8,9.8-4.7,15.6v179.9c0,3.8,0.8,7.5,2.2,10.8c2.1,5,5.6,9.2,10.1,12.2
		c4.4,3,9.8,4.8,15.6,4.7h318.3c3.8,0,7.5-0.8,10.8-2.2c5-2.1,9.2-5.6,12.2-10.1c3-4.4,4.8-9.8,4.7-15.6V236.2
		c0-3.8-0.8-7.5-2.2-10.8c-2.1-5-5.6-9.2-10.1-12.2c-4.4-3-9.8-4.8-15.6-4.7h-27.7V222.4L416.1,222.4z"/>
	<polyline class="st0" points="250,153 35.5,153 35.5,167 250,167 	"/>
	<polyline class="st0" points="35.5,222.4 83.9,222.4 83.9,208.4 35.5,208.4 	"/>
	<polyline class="st0" points="250,236.1 104.7,236.1 104.7,250.1 250,250.1 	"/>
	<polyline class="st0" points="464.5,236.1 416.1,236.1 416.1,250.1 464.5,250.1 	"/>
	<polyline class="st0" points="104.7,305.4 464.5,305.4 464.5,291.4 104.7,291.4 	"/>
	<polyline class="st0" points="139.3,347 346.9,347 346.9,333 139.3,333 	"/>
	<polyline class="st0" points="139.3,374.6 250,374.6 250,360.6 139.3,360.6 	"/>
	<polyline class="st0" points="360.7,347 374.5,347 374.5,333 360.7,333 	"/>
	<polyline class="st0" points="388.4,347 402.2,347 402.2,333 388.4,333 	"/>
	<polyline class="st0" points="416.1,347 429.9,347 429.9,333 416.1,333 	"/>
</g>
</svg>
