<?xml version="1.0" encoding="iso-8859-1"?>
<!-- Generator: Adobe Illustrator 17.0.0, SVG Export Plug-In . SVG Version: 6.00 Build 0)  -->
<!DOCTYPE svg PUBLIC "-//W3C//DTD SVG 1.1//EN" "http://www.w3.org/Graphics/SVG/1.1/DTD/svg11.dtd">
<svg version="1.1" id="_x33_5_x5F_secured_x5F_backup"
	 xmlns="http://www.w3.org/2000/svg" xmlns:xlink="http://www.w3.org/1999/xlink" x="0px" y="0px" width="60px" height="64px"
	 viewBox="0 0 60 64" style="enable-background:new 0 0 60 64;" xml:space="preserve">
<g>
	
		<ellipse style="fill:none;stroke:#222829;stroke-width:2;stroke-linejoin:round;stroke-miterlimit:10;" cx="24" cy="8" rx="23" ry="7"/>
	<path style="fill:none;stroke:#222829;stroke-width:2;stroke-linejoin:round;stroke-miterlimit:10;" d="M24,27
		c-12.703,0-23-3.134-23-7V8"/>
	
		<line style="fill:none;stroke:#222829;stroke-width:2;stroke-linejoin:round;stroke-miterlimit:10;" x1="47" y1="8" x2="47" y2="18"/>
	<path style="fill:none;stroke:#222829;stroke-width:2;stroke-linejoin:round;stroke-miterlimit:10;" d="M24,39
		c-12.703,0-23-3.134-23-7v-7"/>
	<path style="fill:none;stroke:#222829;stroke-width:2;stroke-linejoin:round;stroke-miterlimit:10;" d="M24,51
		c-12.703,0-23-3.134-23-7v-7"/>
	<path style="fill:none;stroke:#222829;stroke-width:2;stroke-linejoin:round;stroke-miterlimit:10;" d="M36,61.973
		C32.507,62.625,28.397,63,24,63c-12.703,0-23-3.134-23-7v-7"/>
	
		<line style="fill:none;stroke:#222829;stroke-width:2;stroke-linejoin:round;stroke-miterlimit:10;" x1="24" y1="27" x2="26" y2="27"/>
	
		<line style="fill:none;stroke:#222829;stroke-width:2;stroke-linejoin:round;stroke-miterlimit:10;" x1="24" y1="39" x2="26" y2="39"/>
	
		<line style="fill:none;stroke:#222829;stroke-width:2;stroke-linejoin:round;stroke-miterlimit:10;" x1="24" y1="51" x2="26" y2="51"/>
	<g>
		<polygon style="fill:none;stroke:#222829;stroke-width:2;stroke-linejoin:round;stroke-miterlimit:10;" points="59,51 44,63 
			29,51 29,21 37,24 40,21 48,21 51,24 59,21 		"/>
		
			<line style="fill:none;stroke:#222829;stroke-width:2;stroke-linejoin:round;stroke-miterlimit:10;" x1="51" y1="32" x2="51" y2="34"/>
		
			<line style="fill:none;stroke:#222829;stroke-width:2;stroke-linejoin:round;stroke-miterlimit:10;" x1="51" y1="44" x2="51" y2="46"/>
		
			<line style="fill:none;stroke:#222829;stroke-width:2;stroke-linejoin:round;stroke-miterlimit:10;" x1="47" y1="32" x2="47" y2="34"/>
		
			<line style="fill:none;stroke:#222829;stroke-width:2;stroke-linejoin:round;stroke-miterlimit:10;" x1="47" y1="36" x2="47" y2="38"/>
		
			<line style="fill:none;stroke:#222829;stroke-width:2;stroke-linejoin:round;stroke-miterlimit:10;" x1="47" y1="44" x2="47" y2="46"/>
		
			<line style="fill:none;stroke:#222829;stroke-width:2;stroke-linejoin:round;stroke-miterlimit:10;" x1="47" y1="48" x2="47" y2="50"/>
		
			<line style="fill:none;stroke:#222829;stroke-width:2;stroke-linejoin:round;stroke-miterlimit:10;" x1="51" y1="36" x2="51" y2="38"/>
		
			<line style="fill:none;stroke:#222829;stroke-width:2;stroke-linejoin:round;stroke-miterlimit:10;" x1="37" y1="32" x2="37" y2="34"/>
		
			<line style="fill:none;stroke:#222829;stroke-width:2;stroke-linejoin:round;stroke-miterlimit:10;" x1="37" y1="44" x2="37" y2="46"/>
		
			<line style="fill:none;stroke:#222829;stroke-width:2;stroke-linejoin:round;stroke-miterlimit:10;" x1="41" y1="32" x2="41" y2="34"/>
		
			<line style="fill:none;stroke:#222829;stroke-width:2;stroke-linejoin:round;stroke-miterlimit:10;" x1="41" y1="36" x2="41" y2="38"/>
		
			<line style="fill:none;stroke:#222829;stroke-width:2;stroke-linejoin:round;stroke-miterlimit:10;" x1="41" y1="44" x2="41" y2="46"/>
		
			<line style="fill:none;stroke:#222829;stroke-width:2;stroke-linejoin:round;stroke-miterlimit:10;" x1="41" y1="48" x2="41" y2="50"/>
		
			<line style="fill:none;stroke:#222829;stroke-width:2;stroke-linejoin:round;stroke-miterlimit:10;" x1="37" y1="36" x2="37" y2="38"/>
		
			<line style="fill:none;stroke:#222829;stroke-width:2;stroke-linejoin:round;stroke-miterlimit:10;" x1="47" y1="40" x2="47" y2="42"/>
		
			<line style="fill:none;stroke:#222829;stroke-width:2;stroke-linejoin:round;stroke-miterlimit:10;" x1="51" y1="40" x2="51" y2="42"/>
		
			<line style="fill:none;stroke:#222829;stroke-width:2;stroke-linejoin:round;stroke-miterlimit:10;" x1="41" y1="40" x2="41" y2="42"/>
		
			<line style="fill:none;stroke:#222829;stroke-width:2;stroke-linejoin:round;stroke-miterlimit:10;" x1="37" y1="40" x2="37" y2="42"/>
		<path style="fill:none;stroke:#222829;stroke-width:2;stroke-linejoin:round;stroke-miterlimit:10;" d="M47,49"/>
		
			<line style="fill:none;stroke:#222829;stroke-width:2;stroke-linejoin:round;stroke-miterlimit:10;" x1="37" y1="24" x2="37" y2="28"/>
		
			<line style="fill:none;stroke:#222829;stroke-width:2;stroke-linejoin:round;stroke-miterlimit:10;" x1="51" y1="24" x2="51" y2="28"/>
	</g>
	
		<line style="fill:none;stroke:#222829;stroke-width:2;stroke-linejoin:round;stroke-miterlimit:10;" x1="25" y1="21" x2="23" y2="21"/>
	
		<line style="fill:none;stroke:#222829;stroke-width:2;stroke-linejoin:round;stroke-miterlimit:10;" x1="25" y1="33" x2="23" y2="33"/>
	
		<line style="fill:none;stroke:#222829;stroke-width:2;stroke-linejoin:round;stroke-miterlimit:10;" x1="25" y1="45" x2="23" y2="45"/>
	
		<line style="fill:none;stroke:#222829;stroke-width:2;stroke-linejoin:round;stroke-miterlimit:10;" x1="25" y1="57" x2="23" y2="57"/>
</g>
</svg>
