<?xml version="1.0" encoding="utf-8"?>
<!-- Generator: Adobe Illustrator 22.1.0, SVG Export Plug-In . SVG Version: 6.00 Build 0)  -->
<svg version="1.1" id="_x31_9_x5F_secure_x5F_login"
	 xmlns="http://www.w3.org/2000/svg" xmlns:xlink="http://www.w3.org/1999/xlink" x="0px" y="0px" viewBox="0 0 500 500"
	 style="enable-background:new 0 0 500 500;" xml:space="preserve">
<style type="text/css">
	.st0{fill:#222829;}
</style>
<g>
	<polygon class="st0" points="51.8,51.8 51.8,58.8 441.3,58.8 441.3,441.3 58.8,441.3 58.8,51.8 51.8,51.8 51.8,58.8 51.8,51.8 
		44.8,51.8 44.8,455.3 455.3,455.3 455.3,44.8 44.8,44.8 44.8,51.8 	"/>
	<polyline class="st0" points="51.8,109.9 448.2,109.9 448.2,95.9 51.8,95.9 	"/>
	<polyline class="st0" points="70.9,84.3 83.7,84.3 83.7,70.3 70.9,70.3 	"/>
	<polyline class="st0" points="96.5,84.3 109.3,84.3 109.3,70.3 96.5,70.3 	"/>
	<polyline class="st0" points="122.1,84.3 134.9,84.3 134.9,70.3 122.1,70.3 	"/>
	<polyline class="st0" points="147.1,51.8 147.1,102.9 161.1,102.9 161.1,51.8 	"/>
	<polyline class="st0" points="173.3,84.3 429.1,84.3 429.1,70.3 173.3,70.3 	"/>
	<polygon class="st0" points="77.3,128.5 77.3,135.5 415.6,135.5 415.6,415.7 84.3,415.7 84.3,128.5 77.3,128.5 77.3,135.5 
		77.3,128.5 70.3,128.5 70.3,429.7 429.6,429.7 429.6,121.5 70.3,121.5 70.3,128.5 	"/>
	<polygon class="st0" points="115.7,262.8 115.7,269.8 198.2,269.8 198.2,332.5 122.7,332.5 122.7,262.8 115.7,262.8 115.7,269.8 
		115.7,262.8 108.7,262.8 108.7,346.5 212.2,346.5 212.2,255.8 108.7,255.8 108.7,262.8 	"/>
	<path class="st0" d="M135.5,262.8v-38.4c0-0.8,0.2-1.6,0.5-2.3c0.4-1,1.2-1.9,2.1-2.5c0.9-0.6,2-1,3.3-1h38.4
		c0.8,0,1.6,0.2,2.3,0.5c1,0.4,1.9,1.2,2.5,2.1c0.6,0.9,1,2,1,3.3v38.4h14l0-38.4c0-2.7-0.5-5.3-1.6-7.7c-1.5-3.6-4-6.6-7.2-8.7
		c-3.2-2.1-7-3.4-11.1-3.4h-38.4c-2.7,0-5.3,0.5-7.7,1.5c-3.6,1.5-6.6,4-8.7,7.2c-2.1,3.2-3.4,7-3.4,11.1v38.4H135.5L135.5,262.8z"
		/>
	<polygon class="st0" points="211.6,218.6 377.3,218.6 377.3,255.8 224.4,255.8 224.4,269.8 391.3,269.8 391.3,204.6 211.6,204.6 
		211.6,218.6 	"/>
	<polygon class="st0" points="224.4,295.4 377.3,295.4 377.3,332.5 224.4,332.5 224.4,346.5 391.3,346.5 391.3,281.4 224.4,281.4 
		224.4,295.4 	"/>
	<polyline class="st0" points="237.2,244.2 250,244.2 250,230.2 237.2,230.2 	"/>
	<polyline class="st0" points="262.8,244.2 275.6,244.2 275.6,230.2 262.8,230.2 	"/>
	<polyline class="st0" points="288.4,244.2 301.2,244.2 301.2,230.2 288.4,230.2 	"/>
	<polyline class="st0" points="314,244.2 326.7,244.2 326.7,230.2 314,230.2 	"/>
	<polyline class="st0" points="339.5,244.2 352.3,244.2 352.3,230.2 339.5,230.2 	"/>
	<polyline class="st0" points="237.2,321 250,321 250,307 237.2,307 	"/>
	<polyline class="st0" points="262.8,321 275.6,321 275.6,307 262.8,307 	"/>
	<polyline class="st0" points="288.4,321 301.2,321 301.2,307 288.4,307 	"/>
	<polyline class="st0" points="314,321 326.7,321 326.7,307 314,307 	"/>
	<polyline class="st0" points="339.5,321 352.3,321 352.3,307 339.5,307 	"/>
	<polyline class="st0" points="153.5,282 153.5,294.8 167.5,294.8 167.5,282 	"/>
</g>
</svg>
