<?xml version="1.0" encoding="utf-8"?>
<!-- Generator: Adobe Illustrator 22.1.0, SVG Export Plug-In . SVG Version: 6.00 Build 0)  -->
<svg version="1.1" id="_x34_2_x5F_sensory_x5F_perception"
	 xmlns="http://www.w3.org/2000/svg" xmlns:xlink="http://www.w3.org/1999/xlink" x="0px" y="0px" viewBox="0 0 500 500"
	 style="enable-background:new 0 0 500 500;" xml:space="preserve">
<style type="text/css">
	.st0{fill:#222829;}
</style>
<g>
	<polyline class="st0" points="130.9,191.2 143.4,191.2 143.4,177.2 130.9,177.2 	"/>
	<polyline class="st0" points="99.5,172.4 112.1,172.4 112.1,158.4 99.5,158.4 	"/>
	<polyline class="st0" points="68.2,153.5 80.7,153.5 80.7,139.5 68.2,139.5 	"/>
	<polyline class="st0" points="181,141 193.6,141 193.6,127 181,127 	"/>
	<polyline class="st0" points="162.2,109.7 174.8,109.7 174.8,95.7 162.2,95.7 	"/>
	<polyline class="st0" points="143.4,78.3 156,78.3 156,64.3 143.4,64.3 	"/>
	<polyline class="st0" points="243.7,90.8 256.3,90.8 256.3,76.8 243.7,76.8 	"/>
	<polyline class="st0" points="243.7,122.2 256.3,122.2 256.3,108.2 243.7,108.2 	"/>
	<polyline class="st0" points="243.7,59.5 256.3,59.5 256.3,45.5 243.7,45.5 	"/>
	<polyline class="st0" points="369.1,177.2 356.6,177.2 356.6,191.2 369.1,191.2 	"/>
	<polyline class="st0" points="400.5,158.4 387.9,158.4 387.9,172.4 400.5,172.4 	"/>
	<polyline class="st0" points="431.8,139.5 419.3,139.5 419.3,153.5 431.8,153.5 	"/>
	<polyline class="st0" points="319,127 306.4,127 306.4,141 319,141 	"/>
	<polyline class="st0" points="337.8,95.7 325.2,95.7 325.2,109.7 337.8,109.7 	"/>
	<polyline class="st0" points="356.6,64.3 344,64.3 344,78.3 356.6,78.3 	"/>
	<polyline class="st0" points="80.7,253.9 93.3,253.9 93.3,239.9 80.7,239.9 	"/>
	<polyline class="st0" points="112.1,253.9 124.6,253.9 124.6,239.9 112.1,239.9 	"/>
	<polyline class="st0" points="49.4,253.9 61.9,253.9 61.9,239.9 49.4,239.9 	"/>
	<polyline class="st0" points="130.9,316.6 143.4,316.6 143.4,302.6 130.9,302.6 	"/>
	<polyline class="st0" points="99.5,335.4 112.1,335.4 112.1,321.4 99.5,321.4 	"/>
	<polyline class="st0" points="68.2,354.2 80.7,354.2 80.7,340.2 68.2,340.2 	"/>
	<polyline class="st0" points="419.3,239.9 406.7,239.9 406.7,253.9 419.3,253.9 	"/>
	<polyline class="st0" points="387.9,239.9 375.4,239.9 375.4,253.9 387.9,253.9 	"/>
	<polyline class="st0" points="450.6,239.9 438.1,239.9 438.1,253.9 450.6,253.9 	"/>
	<polyline class="st0" points="369.1,302.6 356.6,302.6 356.6,316.6 369.1,316.6 	"/>
	<polyline class="st0" points="400.5,321.4 387.9,321.4 387.9,335.4 400.5,335.4 	"/>
	<polyline class="st0" points="431.8,340.2 419.3,340.2 419.3,354.2 431.8,354.2 	"/>
	<path class="st0" d="M307.2,391.1v-24.2l12.5-50.2v-57.3c0-2.7-0.5-5.3-1.5-7.6c-1.5-3.5-3.9-6.5-7.1-8.6
		c-3.1-2.1-6.9-3.3-10.9-3.3c-2.7,0-5.3,0.5-7.6,1.5c-3.5,1.5-6.5,3.9-8.6,7.1c-2.1,3.1-3.3,6.9-3.3,10.9h14v-12.5
		c0-2.7-0.5-5.3-1.5-7.6c-1.5-3.5-3.9-6.5-7.1-8.6c-3.1-2.1-6.9-3.3-10.9-3.3c-2.7,0-5.3,0.5-7.6,1.5c-3.5,1.5-6.5,3.9-8.6,7.1
		c-2.1,3.1-3.3,6.9-3.3,10.9h14v-12.5c0-2.7-0.5-5.3-1.5-7.6c-1.5-3.5-3.9-6.5-7.1-8.6c-3.1-2.1-6.9-3.3-10.9-3.3
		c-2.7,0-5.3,0.5-7.6,1.5c-3.5,1.5-6.5,3.9-8.6,7.1c-2.1,3.1-3.3,6.9-3.3,10.9h14c0-0.8,0.2-1.5,0.4-2.1c0.4-1,1.1-1.8,2-2.4
		c0.9-0.6,1.9-0.9,3.1-0.9c0.8,0,1.5,0.2,2.1,0.4c1,0.4,1.8,1.1,2.4,2c0.6,0.9,0.9,1.9,0.9,3.1v12.5h14c0-0.8,0.2-1.5,0.4-2.1
		c0.4-1,1.1-1.8,2-2.4c0.9-0.6,1.9-0.9,3.1-0.9c0.8,0,1.5,0.2,2.1,0.4c1,0.4,1.8,1.1,2.4,2c0.6,0.9,0.9,1.9,0.9,3.1v12.5h14
		c0-0.8,0.2-1.5,0.4-2.1c0.4-1,1.1-1.8,2-2.4c0.9-0.6,1.9-0.9,3.1-0.9c0.8,0,1.5,0.2,2.1,0.4c1,0.4,1.8,1.1,2.4,2
		c0.6,0.9,0.9,1.9,0.9,3.1v55.5l-12.5,50.2v26H307.2L307.2,391.1z"/>
	<polyline class="st0" points="255.5,246.9 255.5,278.2 269.5,278.2 269.5,246.9 	"/>
	<polyline class="st0" points="280.6,259.4 280.6,284.5 294.6,284.5 294.6,259.4 	"/>
	<path class="st0" d="M244.5,271.9v-94c0-2.7-0.5-5.3-1.5-7.6c-1.5-3.5-3.9-6.5-7.1-8.6c-3.1-2.1-6.9-3.3-10.9-3.3
		c-2.7,0-5.3,0.5-7.6,1.5c-3.5,1.5-6.5,3.9-8.6,7.1c-2.1,3.1-3.3,6.9-3.3,10.9v106.6h14l0-106.6c0-0.8,0.2-1.5,0.4-2.1
		c0.4-1,1.1-1.8,2-2.4c0.9-0.6,1.9-0.9,3.1-0.9c0.8,0,1.5,0.2,2.1,0.4c1,0.4,1.8,1.1,2.4,2c0.6,0.9,0.9,1.9,0.9,3.1v94H244.5
		L244.5,271.9z"/>
	<path class="st0" d="M199.8,246.1c-2,0-3.9,0.3-5.7,0.8c-3.1,0.9-5.7,2.3-8,3.8c-3.4,2.3-6,5-7.9,7.1c-1.8,2.1-2.9,3.7-3,3.9
		l-1.2,1.8v48.4l37.6,50.2l0,10.2h14l0-14.8L188,307.2l0-41.6h-7l5.8,3.9l-3.8-2.6l3.8,2.6l0,0l-3.8-2.6l3.8,2.6l-0.1,0l0.1,0l0,0
		l-0.1,0l0.1,0c0-0.1,2-2.8,4.7-5.3c1.4-1.2,2.9-2.3,4.4-3.1c0.7-0.4,1.4-0.6,2.1-0.8c0.7-0.2,1.3-0.3,1.8-0.3V246.1L199.8,246.1z"
		/>
	<polygon class="st0" points="213.1,447.5 213.1,398.1 293.2,398.1 293.2,447.5 307.2,447.5 307.2,384.1 199.1,384.1 199.1,447.5 
		213.1,447.5 	"/>
	<polyline class="st0" points="224.9,423.2 237.5,423.2 237.5,409.2 224.9,409.2 	"/>
</g>
</svg>
