<?xml version="1.0" encoding="utf-8"?>
<!-- Generator: Adobe Illustrator 22.1.0, SVG Export Plug-In . SVG Version: 6.00 Build 0)  -->
<svg version="1.1" id="_x34_2_x5F_sensory_x5F_perception"
	 xmlns="http://www.w3.org/2000/svg" xmlns:xlink="http://www.w3.org/1999/xlink" x="0px" y="0px" viewBox="0 0 500 500"
	 style="enable-background:new 0 0 500 500;" xml:space="preserve">
<style type="text/css">
	.st0{fill:none;stroke:#222829;stroke-width:14;stroke-linejoin:round;stroke-miterlimit:10;}
	.st1{fill:none;stroke:#222829;stroke-width:14;stroke-miterlimit:10;}
</style>
<g>
	<line class="st0" x1="130.9" y1="184.2" x2="143.4" y2="184.2"/>
	<line class="st0" x1="99.5" y1="165.4" x2="112.1" y2="165.4"/>
	<line class="st0" x1="68.2" y1="146.5" x2="80.7" y2="146.5"/>
	<line class="st0" x1="181" y1="134" x2="193.6" y2="134"/>
	<line class="st0" x1="162.2" y1="102.7" x2="174.8" y2="102.7"/>
	<line class="st0" x1="143.4" y1="71.3" x2="156" y2="71.3"/>
	<line class="st0" x1="243.7" y1="83.8" x2="256.3" y2="83.8"/>
	<line class="st0" x1="243.7" y1="115.2" x2="256.3" y2="115.2"/>
	<line class="st0" x1="243.7" y1="52.5" x2="256.3" y2="52.5"/>
	<line class="st0" x1="369.1" y1="184.2" x2="356.6" y2="184.2"/>
	<line class="st0" x1="400.5" y1="165.4" x2="387.9" y2="165.4"/>
	<line class="st0" x1="431.8" y1="146.5" x2="419.3" y2="146.5"/>
	<line class="st0" x1="319" y1="134" x2="306.4" y2="134"/>
	<line class="st0" x1="337.8" y1="102.7" x2="325.2" y2="102.7"/>
	<line class="st0" x1="356.6" y1="71.3" x2="344" y2="71.3"/>
	<line class="st0" x1="80.7" y1="246.9" x2="93.3" y2="246.9"/>
	<line class="st0" x1="112.1" y1="246.9" x2="124.6" y2="246.9"/>
	<line class="st0" x1="49.4" y1="246.9" x2="61.9" y2="246.9"/>
	<line class="st0" x1="130.9" y1="309.6" x2="143.4" y2="309.6"/>
	<line class="st0" x1="99.5" y1="328.4" x2="112.1" y2="328.4"/>
	<line class="st0" x1="68.2" y1="347.2" x2="80.7" y2="347.2"/>
	<line class="st0" x1="419.3" y1="246.9" x2="406.7" y2="246.9"/>
	<line class="st0" x1="387.9" y1="246.9" x2="375.4" y2="246.9"/>
	<line class="st0" x1="450.6" y1="246.9" x2="438.1" y2="246.9"/>
	<line class="st0" x1="369.1" y1="309.6" x2="356.6" y2="309.6"/>
	<line class="st0" x1="400.5" y1="328.4" x2="387.9" y2="328.4"/>
	<line class="st0" x1="431.8" y1="347.2" x2="419.3" y2="347.2"/>
	<g>
		<path class="st1" d="M300.2,391.1V366l12.5-50.2v-56.4c0-6.9-5.6-12.5-12.5-12.5s-12.5,5.6-12.5,12.5v-12.5
			c0-6.9-5.6-12.5-12.5-12.5s-12.5,5.6-12.5,12.5v-12.5c0-6.9-5.6-12.5-12.5-12.5s-12.5,5.6-12.5,12.5"/>
		<line class="st1" x1="262.5" y1="246.9" x2="262.5" y2="278.2"/>
		<line class="st1" x1="287.6" y1="259.4" x2="287.6" y2="284.5"/>
		<path class="st1" d="M237.5,271.9v-94c0-6.9-5.6-12.5-12.5-12.5s-12.5,5.6-12.5,12.5v106.6"/>
		<path class="st1" d="M199.8,253.1c-10.4,0-18.8,12.5-18.8,12.5v43.9l37.6,50.2v12.5"/>
		<polyline class="st1" points="206.1,447.5 206.1,391.1 300.2,391.1 300.2,447.5 		"/>
		<line class="st1" x1="224.9" y1="416.2" x2="237.5" y2="416.2"/>
	</g>
</g>
</svg>
