<svg id="Layer_1" data-name="Layer 1" xmlns="http://www.w3.org/2000/svg" viewBox="0 0 540 540"><title>Artboard 4</title><path d="M120.94,361.09c-28.33,0-49.69-26.7-49.69-62.11,0-25.06,5.64-53.83,49.69-53.83s49.69,28.77,49.69,53.83C170.63,334.39,149.27,361.09,120.94,361.09Zm0-99.37c-25.08,0-33.12,9.06-33.12,37.27,0,22.08,11.61,45.55,33.13,45.55s33.13-23.47,33.13-45.55C154.06,270.78,146,261.72,120.94,261.72Z"/><path d="M178.91,427.34H63c-13.47,0-24.84-15.17-24.84-33.12v-21L91.5,337.64l9.19,13.78-46,30.67v12.13c0,10.13,5.82,16.56,8.28,16.56H178.91c2.46,0,8.28-6.43,8.28-16.56V382.09l-46-30.67,9.19-13.78,53.38,35.58v21C203.75,412.17,192.37,427.34,178.91,427.34Z"/><path d="M203.75,526.72a8.25,8.25,0,0,1-3.7-.87L69.29,460.47H29.84A24.87,24.87,0,0,1,5,435.63V236.88A24.87,24.87,0,0,1,29.84,212H212a24.87,24.87,0,0,1,24.84,24.84V435.63A24.87,24.87,0,0,1,212,460.47H184l27.13,54.26a8.28,8.28,0,0,1-7.41,12ZM29.84,228.59a8.29,8.29,0,0,0-8.28,8.28V435.63a8.29,8.29,0,0,0,8.28,8.28H71.25a8.28,8.28,0,0,1,3.7.87l110.28,55.14-22-44a8.28,8.28,0,0,1,7.41-12H212a8.29,8.29,0,0,0,8.28-8.28V236.88a8.29,8.29,0,0,0-8.28-8.28Z"/><path d="M419.06,278.28c-28.33,0-49.69-26.7-49.69-62.11,0-25.06,5.64-53.83,49.69-53.83s49.69,28.77,49.69,53.83C468.75,251.58,447.39,278.28,419.06,278.28Zm0-99.37c-25.08,0-33.12,9.06-33.12,37.27,0,22.08,11.61,45.55,33.13,45.55s33.13-23.47,33.13-45.55C452.19,188,444.14,178.91,419.06,178.91Z"/><path d="M477,344.53H361.09c-13.47,0-24.84-15.17-24.84-33.12v-21l53.38-35.58,9.19,13.78-46,30.67v12.13c0,10.13,5.82,16.56,8.28,16.56H477c2.46,0,8.28-6.43,8.28-16.56V299.28l-46-30.67,9.19-13.78,53.38,35.58v21C501.88,329.36,490.5,344.53,477,344.53Z"/><path d="M336.25,443.91a8.28,8.28,0,0,1-7.41-12L356,377.66H328a24.87,24.87,0,0,1-24.84-24.84V278.28h16.56v74.53a8.29,8.29,0,0,0,8.28,8.28h41.41a8.28,8.28,0,0,1,7.41,12l-22,44L465,362a8.28,8.28,0,0,1,3.7-.87h41.41a8.29,8.29,0,0,0,8.28-8.28V154.06a8.29,8.29,0,0,0-8.28-8.28H369.38V129.22H510.16A24.87,24.87,0,0,1,535,154.06V352.81a24.87,24.87,0,0,1-24.84,24.84H470.71L340,443A8.25,8.25,0,0,1,336.25,443.91Z"/><path d="M236.88,162.34c-28.33,0-49.69-26.7-49.69-62.11,0-25.06,5.64-53.83,49.69-53.83s49.69,28.77,49.69,53.83C286.56,135.64,265.2,162.34,236.88,162.34Zm0-99.37c-25.08,0-33.12,9.06-33.12,37.27,0,22.08,11.61,45.55,33.13,45.55S270,122.31,270,100.23C270,72,262,63,236.88,63Z"/><polygon points="170.63 195.47 154.06 195.47 154.06 174.47 207.44 138.89 216.63 152.67 170.63 183.34 170.63 195.47"/><path d="M294.84,228.59H253.44V212h41.41c2.46,0,8.28-6.43,8.28-16.56V183.34l-46-30.67,9.19-13.78,53.38,35.58v21C319.69,213.42,308.31,228.59,294.84,228.59Z"/><path d="M260.34,307.73l-13.78-9.19,33.12-49.7a8.28,8.28,0,0,1,6.89-3.69H328a8.29,8.29,0,0,0,8.28-8.28V38.13A8.29,8.29,0,0,0,328,29.84H145.78a8.29,8.29,0,0,0-8.28,8.28V195.47H120.94V38.13a24.87,24.87,0,0,1,24.84-24.84H328a24.87,24.87,0,0,1,24.84,24.84V236.88A24.87,24.87,0,0,1,328,261.72H291Z"/><rect x="327.97" y="477.03" width="16.56" height="16.56"/><rect x="294.84" y="477.03" width="16.56" height="16.56"/><rect x="261.72" y="477.03" width="16.56" height="16.56"/><rect x="361.09" y="477.03" width="16.56" height="16.56"/></svg>