<svg id="Layer_1" data-name="Layer 1" xmlns="http://www.w3.org/2000/svg" viewBox="0 0 500 500"><title>Artboard 20</title><path d="M343.36,50H136.68V409.52h267V110.29Zm3.72,21.7,34.84,34.85H347.08ZM149.39,396.8V62.71h185v56.55h56.56V396.8Z"/><path d="M180.46,189.32V341.57H359.85V154.44H180.46ZM193.18,202H299.11v22.17H193.18Zm0,34.88H299.11v22.17H193.18Zm0,34.88H299.11V294H193.18Zm0,57.05V306.68H299.11v22.17Zm154,0H311.83V306.68h35.31Zm0-34.88H311.83V271.8h35.31Zm0-34.88H311.83V236.92h35.31Zm0-34.88H311.83V202h35.31Zm-154-57.05h154v22.17h-154Z"/><rect x="180.46" y="106.55" width="60.55" height="12.71"/><rect x="180.46" y="130.28" width="130.89" height="12.71"/><rect x="299.3" y="353.02" width="60.55" height="12.71"/><polygon points="349 436.61 109.75 436.61 109.75 105.4 124.11 105.4 124.11 92.01 96.36 92.01 96.36 450 362.39 450 362.39 422.26 349 422.26 349 436.61"/></svg>