<svg id="Layer_1" data-name="Layer 1" xmlns="http://www.w3.org/2000/svg" viewBox="0 0 500 500"><title>Artboard 17</title><rect x="359.88" y="332.85" width="38.83" height="11.65"/><path d="M429.26,152.68h-12v-9.31a16.62,16.62,0,0,0-16.61-16.58H99.39a16.62,16.62,0,0,0-16.58,16.58V332.85H50V353a20.16,20.16,0,0,0,20.19,20.18H429.26A20.75,20.75,0,0,0,450,352.5V173.42A20.76,20.76,0,0,0,429.26,152.68ZM64.14,359.07a8.48,8.48,0,0,1-2.49-6V344.5H308.59v8a20.55,20.55,0,0,0,2.12,9.06H70.19A8.54,8.54,0,0,1,64.14,359.07Zm374.21-6.57a9.08,9.08,0,0,1-9.09,9.06h-100a9.07,9.07,0,0,1-9.06-9.06V311.1H308.59v21.75H120.35V164.32h165.9V152.67H108.7V332.85H94.46V143.37a4.89,4.89,0,0,1,1.48-3.5,4.8,4.8,0,0,1,3.45-1.43H400.6a5,5,0,0,1,5,4.93v9.31H329.3a20.75,20.75,0,0,0-20.71,20.74v39.3h11.65v-39.3a9.08,9.08,0,0,1,9.06-9.09h100a9.1,9.1,0,0,1,9.09,9.09Z"/><path d="M263.23,279.76a25.08,25.08,0,0,1-7.4-17.85V247.84L264,256l8.24-8.24L250,225.54l-22.24,22.24L236,256l8.18-8.18v14.07a36.89,36.89,0,0,0,36.89,36.89h62V287.15h-62A25.06,25.06,0,0,1,263.23,279.76Z"/><path d="M385.12,276V261.91A36.89,36.89,0,0,0,348.23,225h-62v11.65h62a25.24,25.24,0,0,1,25.24,25.24V276l-8.18-8.18L357.06,276l22.24,22.24L401.54,276l-8.24-8.24Z"/></svg>