<?xml version="1.0" encoding="iso-8859-1"?>
<!-- Generator: Adobe Illustrator 17.0.0, SVG Export Plug-In . SVG Version: 6.00 Build 0)  -->
<!DOCTYPE svg PUBLIC "-//W3C//DTD SVG 1.1//EN" "http://www.w3.org/Graphics/SVG/1.1/DTD/svg11.dtd">
<svg version="1.1" id="_x31_6_x5F_system_x5F_update"
	 xmlns="http://www.w3.org/2000/svg" xmlns:xlink="http://www.w3.org/1999/xlink" x="0px" y="0px" width="64px" height="58px"
	 viewBox="0 0 64 58" style="enable-background:new 0 0 64 58;" xml:space="preserve">
<g>
	<g>
		<g>
			<path style="fill:none;stroke:#222829;stroke-width:2;stroke-linejoin:round;stroke-miterlimit:10;" d="M14.135,20
				C17.429,13.475,24.191,9,32,9c11.046,0,20,8.954,20,20h-3l7,10l7-10h-3C60,13.536,47.464,1,32,1
				C22.485,1,14.079,5.745,9.019,12.999"/>
			<path style="fill:none;stroke:#222829;stroke-width:2;stroke-linejoin:round;stroke-miterlimit:10;" d="M49.865,38
				C46.571,44.525,39.809,49,32,49c-11.046,0-20-8.954-20-20h3L8,19L1,29h3c0,15.464,12.536,28,28,28
				c9.515,0,17.922-4.746,22.981-12"/>
			<circle style="fill:none;stroke:#222829;stroke-width:2;stroke-linejoin:round;stroke-miterlimit:10;" cx="32" cy="29" r="10"/>
			
				<line style="fill:none;stroke:#222829;stroke-width:2;stroke-linejoin:round;stroke-miterlimit:10;" x1="31" y1="29" x2="33" y2="29"/>
			
				<line style="fill:none;stroke:#222829;stroke-width:2;stroke-linejoin:round;stroke-miterlimit:10;" x1="27" y1="29" x2="29" y2="29"/>
			
				<line style="fill:none;stroke:#222829;stroke-width:2;stroke-linejoin:round;stroke-miterlimit:10;" x1="35" y1="29" x2="37" y2="29"/>
		</g>
	</g>
</g>
</svg>
