<?xml version="1.0" encoding="utf-8"?>
<!-- Generator: Adobe Illustrator 22.1.0, SVG Export Plug-In . SVG Version: 6.00 Build 0)  -->
<svg version="1.1" id="_x31_6_x5F_system_x5F_update"
	 xmlns="http://www.w3.org/2000/svg" xmlns:xlink="http://www.w3.org/1999/xlink" x="0px" y="0px" viewBox="0 0 500 500"
	 style="enable-background:new 0 0 500 500;" xml:space="preserve">
<style type="text/css">
	.st0{fill:#222829;}
</style>
<g>
	<path class="st0" d="M127.5,188.3c11.3-22.4,28.5-41.2,49.6-54.5c21.1-13.3,46.1-20.9,72.9-21c37.9,0,72.1,15.4,97,40.2
		c24.8,24.9,40.2,59.1,40.2,97h7v-7h-21.6c-2.6,0-5,1.5-6.2,3.8s-1,5.1,0.5,7.2l50.5,72.1c1.3,1.9,3.4,3,5.7,3c2.3,0,4.4-1.1,5.7-3
		l50.5-72.1c1.5-2.1,1.7-4.9,0.5-7.2c-1.2-2.3-3.6-3.8-6.2-3.8H452v7h7c0-57.7-23.4-109.9-61.2-147.7
		C360,64.5,307.8,41.1,250.1,41.1c-35.5,0-68.9,8.8-98.2,24.5c-29.3,15.6-54.4,38-73.3,65l11.5,8c17.6-25.2,41.1-46.1,68.4-60.7
		c27.3-14.6,58.5-22.8,91.6-22.8c53.8,0,102.5,21.8,137.8,57.1c35.3,35.3,57.1,84,57.1,137.8c0,1.8,0.7,3.6,2.1,4.9
		c1.3,1.3,3.1,2.1,4.9,2.1h8.2l-37.1,52.9L386,257h8.2c1.8,0,3.6-0.7,4.9-2.1c1.3-1.3,2.1-3.1,2.1-4.9c0-41.7-16.9-79.6-44.3-106.9
		c-27.3-27.4-65.2-44.3-106.9-44.3c-29.5,0-57.1,8.5-80.3,23.1c-23.3,14.6-42.3,35.4-54.7,60.1L127.5,188.3L127.5,188.3z"/>
	<path class="st0" d="M372.5,311.7c-11.3,22.4-28.5,41.2-49.6,54.5c-21.1,13.3-46.1,20.9-72.9,21c-37.9,0-72.1-15.4-97-40.2
		c-24.8-24.9-40.2-59.1-40.2-97h-7v7h21.6c2.6,0,5-1.4,6.2-3.8c1.2-2.3,1-5.1-0.5-7.2l-50.4-72.1c-1.3-1.9-3.4-3-5.7-3
		c-2.3,0-4.4,1.1-5.7,3L20.8,246c-1.5,2.1-1.7,4.9-0.5,7.2c1.2,2.3,3.6,3.8,6.2,3.8h21.6v-7h-7c0,57.7,23.4,109.9,61.2,147.7
		c37.8,37.8,90.1,61.2,147.7,61.2c35.5,0,68.9-8.8,98.2-24.5c29.3-15.6,54.4-38,73.3-65l-11.5-8c-17.6,25.2-41.1,46.1-68.4,60.7
		c-27.3,14.6-58.5,22.8-91.6,22.8c-53.8,0-102.5-21.8-137.8-57.1c-35.3-35.3-57.1-84-57.1-137.8c0-1.8-0.7-3.6-2.1-4.9
		c-1.3-1.3-3.1-2.1-4.9-2.1h-8.2l37-52.9l37,52.9l-8.2,0c-1.8,0-3.6,0.7-4.9,2.1c-1.3,1.3-2.1,3.1-2.1,4.9
		c0,41.7,16.9,79.6,44.3,106.9c27.3,27.4,65.2,44.3,106.9,44.3c29.5,0,57.1-8.5,80.3-23.1c23.3-14.6,42.3-35.4,54.7-60.1
		L372.5,311.7L372.5,311.7z"/>
	<path class="st0" d="M250,177.9v7c9,0,17.6,1.8,25.3,5.1c11.7,4.9,21.6,13.2,28.6,23.6c7,10.4,11.1,22.9,11.1,36.4
		c0,9-1.8,17.6-5.1,25.3c-4.9,11.7-13.2,21.6-23.6,28.6c-10.4,7-22.9,11.1-36.4,11.1c-9,0-17.6-1.8-25.3-5.1
		c-11.7-4.9-21.6-13.2-28.6-23.6c-7-10.4-11.1-22.9-11.1-36.4c0-9,1.8-17.6,5.1-25.3c4.9-11.7,13.2-21.6,23.6-28.6
		c10.4-7,22.9-11.1,36.4-11.1V177.9v-7c-10.9,0-21.3,2.2-30.8,6.2c-14.2,6-26.3,16-34.8,28.7c-8.5,12.6-13.5,27.9-13.5,44.2
		c0,10.9,2.2,21.3,6.2,30.8c6,14.2,16,26.3,28.7,34.8c12.6,8.5,27.9,13.5,44.2,13.5c10.9,0,21.3-2.2,30.8-6.2
		c14.2-6,26.3-16,34.8-28.7c8.5-12.6,13.5-27.9,13.5-44.2c0-10.9-2.2-21.3-6.2-30.8c-6-14.2-16-26.3-28.7-34.8
		c-12.6-8.5-27.9-13.5-44.2-13.5V177.9z"/>
	<polyline class="st0" points="242.8,257 257.2,257 257.2,243 242.8,243 	"/>
	<polyline class="st0" points="214,257 228.4,257 228.4,243 214,243 	"/>
	<polyline class="st0" points="271.6,257 286,257 286,243 271.6,243 	"/>
</g>
</svg>
