<svg id="Layer_1" data-name="Layer 1" xmlns="http://www.w3.org/2000/svg" viewBox="0 0 500 500"><title>Artboard 1</title><rect x="240.91" y="152.71" width="17.81" height="13.19" transform="translate(89.85 408.69) rotate(-89.85)"/><rect x="215.21" y="155.89" width="13.19" height="17.8" transform="translate(-45.97 96.6) rotate(-22.32)"/><rect x="191.44" y="171.68" width="13.19" height="17.8" transform="translate(-69.72 192.27) rotate(-44.86)"/><rect x="175.51" y="195.37" width="13.19" height="17.8" transform="translate(-76.51 293.77) rotate(-67.37)"/><rect x="169.88" y="223.35" width="13.19" height="17.81" transform="translate(-56.2 408.18) rotate(-89.87)"/><rect x="173.06" y="253.68" width="17.81" height="13.19" transform="translate(-85.27 88.7) rotate(-22.34)"/><rect x="188.85" y="277.45" width="17.81" height="13.19" transform="translate(-142.76 222.12) rotate(-44.85)"/><rect x="212.54" y="293.37" width="17.8" height="13.19" transform="translate(-140.63 388.95) rotate(-67.37)"/><rect x="240.52" y="299.01" width="17.81" height="13.19" transform="matrix(0, -1, 1, 0, -56.8, 554.27)"/><rect x="270.84" y="291.21" width="13.19" height="17.81" transform="translate(-93.28 128.03) rotate(-22.35)"/><rect x="294.62" y="275.42" width="13.19" height="17.81" transform="translate(-112.85 295.4) rotate(-44.88)"/><rect x="310.54" y="251.73" width="13.19" height="17.81" transform="translate(-45.49 452.99) rotate(-67.36)"/><rect x="316.18" y="223.74" width="13.19" height="17.82" transform="translate(89.27 554.8) rotate(-89.85)"/><rect x="308.38" y="198.04" width="17.81" height="13.19" transform="translate(-53.95 135.88) rotate(-22.33)"/><rect x="268.89" y="158.35" width="17.81" height="13.19" transform="translate(18.66 357.87) rotate(-67.37)"/><path d="M432.78,100.69l0-13.19-28-.07L428,64.33,418.69,55,395.47,78.08l.07-28-13.19,0-.11,41.23-8.1,8.06A181.72,181.72,0,0,0,250.11,50C149.51,49.75,67.46,131.37,67.19,232a182.43,182.43,0,0,0,85.2,154.74l-32.56,56,11.4,6.62,32.54-56a181.94,181.94,0,0,0,170.84.46L366.85,450l11.44-6.56L346,387.22a182.13,182.13,0,0,0,37.41-278.59l8.1-8.06ZM418.87,232.9c-.25,93.32-76.37,169-169.7,168.8S80.13,325.32,80.38,232,156.75,63,250.07,63.2A168.58,168.58,0,0,1,364.8,108.58l-27,26.87A130.63,130.63,0,0,0,250,101.3c-72.31-.19-131.3,58.48-131.5,130.8S177,363.4,249.27,363.6s131.3-58.48,131.5-130.8a130.63,130.63,0,0,0-33.68-88l27-26.87A168.59,168.59,0,0,1,418.87,232.9ZM296.64,176.38l-6.12,6.08h0L270,202.9a36,36,0,1,0,9.3,9.35l27-26.83,6.19-6.16h0l25.28-25.14a118.13,118.13,0,1,1-9.3-9.35Zm-24.31,56.13a22.74,22.74,0,1,1-12-20.06L245,227.77l9.3,9.35,15.4-15.32A22.56,22.56,0,0,1,272.34,232.51Z"/></svg>