<svg id="Layer_1" data-name="Layer 1" xmlns="http://www.w3.org/2000/svg" viewBox="0 0 500 500"><title>Artboard 3</title><path d="M250,177.07a28.36,28.36,0,1,0-28.36-28.36A28.39,28.39,0,0,0,250,177.07Zm0-43.72a15.36,15.36,0,1,1-15.37,15.37A15.38,15.38,0,0,1,250,133.34Z"/><path d="M367,322.93a28.36,28.36,0,1,0,28.36,28.36A28.4,28.4,0,0,0,367,322.93Zm0,43.72a15.36,15.36,0,1,1,15.36-15.36A15.38,15.38,0,0,1,367,366.65Z"/><path d="M133,322.93a28.36,28.36,0,1,0,28.36,28.36A28.39,28.39,0,0,0,133,322.93Zm0,43.72a15.36,15.36,0,1,1,15.37-15.36A15.38,15.38,0,0,1,133,366.65Z"/><polygon points="287.91 298.13 256.5 279.99 256.5 243.73 243.5 243.73 243.5 279.99 212.09 298.13 218.59 309.38 250 291.24 281.41 309.38 287.91 298.13"/><path d="M391,271.81a141.88,141.88,0,0,0-60.14-104.14,83,83,0,1,0-161.66,0A141.87,141.87,0,0,0,109,271.81a83,83,0,1,0,80.8,140,140.9,140.9,0,0,0,120.33,0,83,83,0,1,0,80.81-140ZM250,78.67a70,70,0,0,1,42.36,125.77A32.51,32.51,0,0,0,263,185.94H237a32.51,32.51,0,0,0-29.33,18.5A70,70,0,0,1,250,78.67ZM281.17,211.4a69.82,69.82,0,0,1-62.34,0A19.34,19.34,0,0,1,237,198.94h26a19.34,19.34,0,0,1,18.17,12.47ZM101.87,414A19.34,19.34,0,0,1,120,401.52h26A19.32,19.32,0,0,1,164.2,414a69.82,69.82,0,0,1-62.32,0Zm73.51-7a32.49,32.49,0,0,0-29.34-18.5H120A32.53,32.53,0,0,0,90.69,407a70,70,0,1,1,84.7,0ZM199,401.7A82.93,82.93,0,0,0,122.33,269a129,129,0,0,1,51-88.35,83,83,0,0,0,153.31,0,129,129,0,0,1,51,88.35A83,83,0,0,0,301,401.69a128.43,128.43,0,0,1-102.07,0ZM335.8,414a19.32,19.32,0,0,1,18.15-12.47h26A19.34,19.34,0,0,1,398.13,414a69.82,69.82,0,0,1-62.33,0Zm73.52-7A32.53,32.53,0,0,0,380,388.52h-26A32.49,32.49,0,0,0,324.61,407a70,70,0,1,1,84.7,0Z"/></svg>