<svg id="Layer_1" data-name="Layer 1" xmlns="http://www.w3.org/2000/svg" viewBox="0 0 1000 1000"><title>Artboard 7</title><path d="M204.67,381.87a87.57,87.57,0,1,0-87.57-87.56A87.67,87.67,0,0,0,204.67,381.87Zm0-144.53a57,57,0,1,1-57,57A57,57,0,0,1,204.67,237.34Z"/><rect x="189.37" y="732.87" width="30.6" height="216.8"/><path d="M98.8,467a61.73,61.73,0,0,1,43.93-18.2H276v-30.6H142.73A92.75,92.75,0,0,0,50,510.9v196h61.94V949.67h30.6V676.28H80.6V510.9A61.72,61.72,0,0,1,98.8,467Z"/><rect x="189.37" y="481.07" width="30.6" height="34.01"/><polygon points="266.8 949.67 297.4 949.67 297.4 706.88 344.04 706.88 344.04 676.28 266.8 676.28 266.8 949.67"/><path d="M795.33,381.87a87.57,87.57,0,1,0-87.57-87.56A87.67,87.67,0,0,0,795.33,381.87Zm0-144.53a57,57,0,1,1-57,57A57,57,0,0,1,795.33,237.34Z"/><rect x="780.03" y="732.87" width="30.6" height="216.8"/><path d="M922.85,445.34a92.12,92.12,0,0,0-65.57-27.17H724v30.6H857.27A62.14,62.14,0,0,1,919.4,510.9V676.28H857.46V949.67h30.6V706.88H950v-196A92.12,92.12,0,0,0,922.85,445.34Z"/><rect x="780.03" y="481.07" width="30.6" height="34.01"/><polygon points="655.96 706.88 702.6 706.88 702.6 949.67 733.2 949.67 733.2 676.28 655.96 676.28 655.96 706.88"/><path d="M500,260.3a105,105,0,1,0-105-105A105.11,105.11,0,0,0,500,260.3Zm0-179.37a74.38,74.38,0,1,1-74.38,74.38A74.47,74.47,0,0,1,500,80.93Z"/><rect x="484.7" y="680.61" width="30.6" height="269.06"/><path d="M688.26,644.67V405.15A111.39,111.39,0,0,0,576.87,293.76h-22L500,348.63l-54.86-54.87h-22A111.39,111.39,0,0,0,311.74,405.15V644.67h76.87v305h30.6V578.12h-30.6v35.95H342.34V405.15a80.79,80.79,0,0,1,80.79-80.79h9.33L500,391.91l67.54-67.54h9.34a80.79,80.79,0,0,1,80.79,80.79V614.06H611.39V578.12h-30.6V949.67h30.6v-305Z"/><rect x="484.7" y="417.97" width="30.6" height="34.01"/><rect x="484.7" y="485.97" width="30.6" height="34"/></svg>