<?xml version="1.0" encoding="utf-8"?>
<!-- Generator: Adobe Illustrator 22.1.0, SVG Export Plug-In . SVG Version: 6.00 Build 0)  -->
<svg version="1.1" id="_x31_6_x5F_technical_x5F_tools"
	 xmlns="http://www.w3.org/2000/svg" xmlns:xlink="http://www.w3.org/1999/xlink" x="0px" y="0px" viewBox="0 0 500 500"
	 style="enable-background:new 0 0 500 500;" xml:space="preserve">
<style type="text/css">
	.st0{fill:#222829;}
</style>
<g>
	<path class="st0" d="M264.9,313.4l44.1,44l0,3.7c0,15.3,1.7,28.8,5.3,40.4c2.7,8.7,6.4,16.5,11.2,23.1c3.6,5,7.9,9.4,12.7,13
		c7.2,5.5,15.7,9.6,25.2,12.2c9.5,2.6,20.1,3.8,31.7,3.8c1.1,0,2.1-0.2,3.1-0.7l13.2-6.6c2-1,3.4-2.9,3.8-5.1c0.4-2.2-0.4-4.5-2-6.1
		l-34.6-34.6l29.6-29.6l34.6,34.6c1.6,1.6,3.9,2.3,6.1,2c2.2-0.4,4.1-1.8,5.1-3.8l6.6-13.2c0.5-1,0.7-2,0.7-3.1
		c0-13.8-1.7-26.1-5.4-36.9c-2.8-8.1-6.7-15.4-11.9-21.6c-3.8-4.7-8.4-8.8-13.5-12.3c-7.7-5.2-16.7-9.1-27-11.6
		c-10.3-2.5-21.9-3.7-34.8-3.7h-3.8L301,237.5l-9.9,9.9l65.9,65.9c1.3,1.3,3.1,2.1,4.9,2.1h6.7c14.3,0,26.4,1.6,36.3,4.6
		c7.5,2.3,13.7,5.4,19,9.2c3.9,2.9,7.3,6.1,10.2,9.9c4.3,5.6,7.6,12.4,9.8,20.4c2.2,8,3.3,17.4,3.3,28h7l-6.3-3.1l-2.3,4.5
		l-32.6-32.6c-1.3-1.3-3.1-2.1-4.9-2.1c-1.8,0-3.6,0.7-4.9,2.1l-39.5,39.5c-2.7,2.7-2.7,7.2,0,9.9l32.6,32.6l-4.5,2.3l3.1,6.3v-7
		c-12.6,0-23.4-1.6-32.3-4.7c-6.7-2.3-12.4-5.4-17.3-9.4c-3.7-3-6.8-6.5-9.6-10.5c-4.1-6.1-7.4-13.5-9.5-22.5
		c-2.2-9-3.3-19.5-3.3-31.5v-6.6c0-1.8-0.7-3.6-2.1-4.9l-46.1-46.1L264.9,313.4L264.9,313.4z"/>
	<path class="st0" d="M254.9,191.5l-63.8-63.8V124c0-15.3-1.7-28.8-5.3-40.4c-2.7-8.7-6.4-16.5-11.2-23.1c-3.6-5-7.9-9.4-12.7-13
		c-7.2-5.5-15.7-9.6-25.2-12.2c-9.5-2.6-20.1-3.8-31.7-3.8c-1.1,0-2.1,0.2-3.1,0.7l-13.2,6.6c-2,1-3.4,2.9-3.8,5.1
		c-0.4,2.2,0.4,4.5,2,6.1l34.6,34.6l-29.5,29.6L57.2,79.5c-1.6-1.6-3.9-2.3-6.1-2C49,77.9,47,79.3,46,81.3l-6.6,13.2
		c-0.5,1-0.7,2-0.7,3.1c0,13.8,1.7,26.1,5.4,36.9c2.8,8.1,6.7,15.4,11.9,21.6c3.8,4.7,8.4,8.8,13.5,12.3c7.7,5.2,16.7,9.1,27,11.6
		c10.3,2.5,21.9,3.7,34.8,3.7h3.7l44,44l9.9-9.9l-46.1-46.1c-1.3-1.3-3.1-2.1-4.9-2.1h-6.6c-14.3,0-26.4-1.6-36.3-4.6
		c-7.5-2.3-13.7-5.4-19-9.2c-3.9-2.9-7.3-6.1-10.2-9.9c-4.3-5.6-7.6-12.4-9.8-20.4c-2.2-8-3.3-17.4-3.3-28h-7l6.3,3.1l2.3-4.5
		L87,128.9c1.3,1.3,3.1,2.1,5,2.1c1.9,0,3.6-0.7,5-2.1l39.4-39.5c2.7-2.7,2.7-7.2,0-9.9l-32.6-32.6l4.5-2.3l-3.1-6.3v7
		c12.6,0,23.4,1.6,32.3,4.7c6.7,2.3,12.4,5.4,17.3,9.4c3.7,3,6.8,6.5,9.6,10.5c4.1,6.1,7.4,13.5,9.5,22.5c2.2,9,3.3,19.5,3.3,31.5
		v6.5c0,1.8,0.7,3.6,2.1,4.9l65.9,65.9L254.9,191.5L254.9,191.5z"/>
	<path class="st0" d="M197.3,236l-4.9-4.9L40.9,382.6c-1.3,1.3-2.1,3.1-2.1,4.9v13.2c0,1.8,0.7,3.6,2.1,4.9L87,451.7
		c1.3,1.3,3.1,2.1,4.9,2.1h13.2c1.8,0,3.6-0.7,4.9-2.1l151.5-151.5c1.3-1.3,2.1-3.1,2.1-4.9c0-1.8-0.7-3.6-2.1-4.9l-59.3-59.3
		c-2.7-2.7-7.2-2.7-9.9,0L197.3,236l-4.9,4.9l54.4,54.4L102.2,439.8h-7.4l-42-42v-7.4l149.4-149.4L197.3,236l-4.9,4.9L197.3,236z"/>
	<path class="st0" d="M215.5,247.5l14.8-14.8l29.7,29.6l-14.8,14.8c-2.7,2.7-2.7,7.2,0,9.9c2.7,2.7,7.2,2.7,9.9,0l19.8-19.8
		c1.3-1.3,2.1-3.1,2.1-5c0-1.9-0.7-3.6-2.1-5l-39.6-39.5c-1.3-1.3-3.1-2-5-2s-3.6,0.7-4.9,2.1l-19.7,19.8c-2.7,2.7-2.7,7.2,0,9.9
		C208.3,250.3,212.7,250.3,215.5,247.5L215.5,247.5z"/>
	<path class="st0" d="M248.3,234.3l145-145c1.3-1.3,2.1-3.1,2.1-4.9V69l44.3-22.2l6,6l-22.1,44.3h-15.5c-1.8,0-3.6,0.7-4.9,2.1
		L258.3,244.2c-2.7,2.7-2.7,7.2,0,9.9c2.7,2.7,7.2,2.7,9.9,0L411,111.2h16.9c2.7,0,5.1-1.5,6.3-3.9l26.3-52.7
		c1.3-2.7,0.8-5.9-1.3-8.1l-13.1-13.2c-2.1-2.1-5.4-2.7-8.1-1.3l-52.7,26.4c-2.4,1.2-3.9,3.6-3.9,6.3v16.8l-143,142.9
		c-2.7,2.7-2.7,7.2,0,9.9C241.2,237.1,245.6,237.1,248.3,234.3L248.3,234.3z"/>
	<path class="st0" d="M192.4,270.6L73.8,389.1c-2.7,2.7-2.7,7.2,0,9.9c2.7,2.7,7.2,2.7,9.9,0l118.6-118.6c2.7-2.7,2.7-7.2,0-9.9
		C199.5,267.8,195.1,267.8,192.4,270.6"/>
	<path class="st0" d="M212.2,290.4L93.6,409c-2.7,2.7-2.7,7.2,0,9.9c2.7,2.7,7.2,2.7,9.9,0L222,300.2c2.7-2.7,2.7-7.2,0-9.9
		C219.3,287.6,214.9,287.6,212.2,290.4"/>
</g>
</svg>
