<?xml version="1.0" encoding="utf-8"?>
<!-- Generator: Adobe Illustrator 22.1.0, SVG Export Plug-In . SVG Version: 6.00 Build 0)  -->
<svg version="1.1" id="_x31_8_x5F_tech_x5F_resources"
	 xmlns="http://www.w3.org/2000/svg" xmlns:xlink="http://www.w3.org/1999/xlink" x="0px" y="0px" viewBox="0 0 500 500"
	 style="enable-background:new 0 0 500 500;" xml:space="preserve">
<style type="text/css">
	.st0{fill:#222829;}
</style>
<g>
	<g>
		<g>
			<g>
				<rect x="126.9" y="151.5" class="st0" width="12.3" height="12.3"/>
			</g>
			<g>
				<rect x="151.5" y="151.5" class="st0" width="12.3" height="12.3"/>
			</g>
			<g>
				<rect x="176.1" y="151.5" class="st0" width="12.3" height="12.3"/>
			</g>
			<g>
				<path class="st0" d="M447,373.1H77.6c-13.6,0-24.6-11-24.6-24.6V53h119.5l24.6,24.6h225.2v24.6h-12.3V89.9H192l-24.6-24.6H65.3
					v283.2c0,6.8,5.5,12.3,12.3,12.3s12.3-5.5,12.3-12.3V114.6H447V373.1z M98.9,360.8h335.7V126.9H102.2v221.6
					C102.2,353,101,357.2,98.9,360.8z"/>
			</g>
			<g>
				<g>
					<path class="st0" d="M281.4,329.3l-0.8-6.8c-0.7-6.2-6-10.9-12.1-10.9s-11.4,4.7-12.1,10.9l-0.8,6.8l-6.7-1.6
						c-9-2.1-17.6-5.7-25.6-10.6l-6.4-4l5.2-5.5c2.2-2.3,3.4-5.3,3.4-8.4c0-6.8-5.5-12.3-12.3-12.3c-3.1,0-6.1,1.2-8.4,3.4l-5.5,5.2
						l-4-6.4c-4.9-7.9-8.5-16.6-10.6-25.6l-1.6-6.7l6.8-0.8c6.2-0.7,10.9-5.9,10.9-12.1s-4.7-11.4-10.9-12.1l-6.8-0.8l1.6-6.7
						c2.1-9,5.7-17.6,10.6-25.6l4-6.4l5.5,5.2c2.3,2.2,5.3,3.4,8.4,3.4c6.8,0,12.3-5.5,12.3-12.3c0-3.1-1.2-6.1-3.4-8.4l-5.2-5.5
						l6.4-4c7.9-4.9,16.6-8.5,25.6-10.6l6.7-1.6l0.8,6.8c0.7,6.2,5.9,10.9,12.1,10.9s11.4-4.7,12.1-10.9l0.8-6.8l6.7,1.6
						c9,2.1,17.6,5.7,25.6,10.6l6.4,4l-5.2,5.5c-2.2,2.3-3.4,5.3-3.4,8.4c0,6.8,5.5,12.3,12.3,12.3c3.1,0,6.1-1.2,8.4-3.4l5.5-5.2
						l4,6.4c4.9,7.9,8.5,16.6,10.6,25.6l1.6,6.7l-6.8,0.8c-6.2,0.7-10.9,5.9-10.9,12.1c0,6.2,4.7,11.4,10.9,12.1l6.8,0.8l-1.6,6.7
						c-2.1,9-5.7,17.6-10.6,25.6l-4,6.4l-5.5-5.2c-2.3-2.2-5.3-3.4-8.4-3.4c-6.8,0-12.3,5.5-12.3,12.3c0,3.1,1.2,6.1,3.4,8.4
						l5.2,5.5l-6.4,4c-7.9,4.9-16.6,8.5-25.6,10.6L281.4,329.3z M268.5,299.2c10,0,18.7,6.1,22.5,14.9c3.6-1.2,7.2-2.6,10.6-4.4
						c-1.6-3.3-2.4-6.8-2.4-10.5c0-13.6,11-24.6,24.6-24.6c3.7,0,7.3,0.8,10.5,2.4c1.7-3.4,3.2-7,4.4-10.6
						c-8.8-3.8-14.9-12.5-14.9-22.5s6.1-18.7,14.9-22.5c-1.2-3.6-2.6-7.2-4.4-10.6c-3.3,1.6-6.8,2.4-10.5,2.4
						c-13.6,0-24.6-11-24.6-24.6c0-3.7,0.8-7.3,2.4-10.5c-3.4-1.7-7-3.2-10.6-4.4c-3.8,8.8-12.5,14.9-22.5,14.9s-18.7-6.1-22.5-14.9
						c-3.6,1.2-7.2,2.6-10.6,4.4c1.6,3.3,2.4,6.8,2.4,10.5c0,13.6-11,24.6-24.6,24.6c-3.7,0-7.3-0.8-10.5-2.4
						c-1.7,3.4-3.2,7-4.4,10.6c8.8,3.8,14.9,12.5,14.9,22.5s-6.1,18.7-14.9,22.5c1.2,3.6,2.6,7.2,4.4,10.6c3.3-1.6,6.8-2.4,10.5-2.4
						c13.6,0,24.6,11,24.6,24.6c0,3.7-0.8,7.3-2.4,10.5c3.4,1.7,7,3.2,10.6,4.4C249.7,305.3,258.5,299.2,268.5,299.2z"/>
				</g>
				<g>
					<path class="st0" d="M268.5,274.6c-17,0-30.8-13.8-30.8-30.8s13.8-30.8,30.8-30.8s30.8,13.8,30.8,30.8S285.4,274.6,268.5,274.6
						z M268.5,225.4c-10.2,0-18.5,8.3-18.5,18.5s8.3,18.5,18.5,18.5s18.5-8.3,18.5-18.5S278.7,225.4,268.5,225.4z"/>
				</g>
			</g>
		</g>
		<g>
			<g>
				<g>
					<path class="st0" d="M440.8,447h-117c-1.2,0-2.4-0.4-3.4-1l-14.3-9.5l-8.7,8.7c-1.2,1.2-2.7,1.8-4.4,1.8h-18.5
						c-3.4,0-6.2-2.8-6.2-6.2v-49.2c0-3.4,2.8-6.2,6.2-6.2h18.5c1.6,0,3.2,0.6,4.4,1.8l8.7,8.7l14.3-9.5c1-0.7,2.2-1,3.4-1h117
						c3.4,0,6.2,2.8,6.2,6.2v49.2C447,444.2,444.2,447,440.8,447z M325.7,434.7h108.9v-36.9H325.7L308.8,409
						c-2.4,1.6-5.7,1.3-7.8-0.8l-10.5-10.5h-9.8v36.9h9.8l10.5-10.5c2.1-2.1,5.3-2.4,7.8-0.8L325.7,434.7z"/>
				</g>
				<g>
					<rect x="108.4" y="410.1" class="st0" width="166.2" height="12.3"/>
				</g>
				<g>
					<rect x="410.1" y="391.6" class="st0" width="12.3" height="49.2"/>
				</g>
				<g>
					<path class="st0" d="M108.4,434.7H59.2c-3.4,0-6.2-2.8-6.2-6.2v-24.6c0-3.4,2.8-6.2,6.2-6.2h49.2c3.4,0,6.2,2.8,6.2,6.2v24.6
						C114.6,431.9,111.8,434.7,108.4,434.7z M65.3,422.4h36.9v-12.3H65.3V422.4z"/>
				</g>
			</g>
			<g>
				<rect x="336.2" y="410.1" class="st0" width="12.3" height="12.3"/>
			</g>
			<g>
				<rect x="360.8" y="410.1" class="st0" width="12.3" height="12.3"/>
			</g>
			<g>
				<rect x="385.4" y="410.1" class="st0" width="12.3" height="12.3"/>
			</g>
		</g>
	</g>
</g>
</svg>
