<svg id="Layer_1" data-name="Layer 1" xmlns="http://www.w3.org/2000/svg" viewBox="0 0 500 500"><title>Artboard 18</title><polygon points="435.54 434.81 64.46 434.81 64.46 177.25 178.21 177.25 178.21 162.79 64.46 162.79 64.46 129.06 178.21 129.06 178.21 114.6 50 114.6 50 170.02 50 177.25 50 449.27 450 449.27 450 227.85 435.54 227.85 435.54 434.81"/><rect x="86.95" y="138.7" width="14.46" height="14.46"/><rect x="115.86" y="138.7" width="14.46" height="14.46"/><rect x="144.78" y="138.7" width="14.46" height="14.46"/><rect x="287.19" y="292.73" width="14.47" height="14.46"/><rect x="316.12" y="292.73" width="14.45" height="14.46"/><rect x="345.03" y="292.73" width="14.47" height="14.46"/><path d="M221.13,352.55a37.14,37.14,0,0,0-26.31-10.89H152a37.27,37.27,0,0,0-37.23,37.22v22.2H98.19V211h80V196.53H83.73v219H416.27V227.86H401.81V401.08H232.05v-22.2A37,37,0,0,0,221.13,352.55Zm-3.53,48.53H129.24v-22.2A22.81,22.81,0,0,1,152,356.11h42.81a22.79,22.79,0,0,1,22.78,22.76Z"/><path d="M173.42,255.77a37.76,37.76,0,1,0,37.74,37.76A37.8,37.8,0,0,0,173.42,255.77Zm0,61.07a23.3,23.3,0,1,1,23.29-23.31A23.33,23.33,0,0,1,173.42,316.84Z"/><path d="M196.69,50.73V211H220v50.33L270.28,211H450V50.73Zm238.86,145.8H264.29l-29.88,29.88V196.53H211.14V65.19h224.4Z"/><rect x="246.23" y="123.63" width="154.22" height="14.46"/><rect x="246.23" y="91.5" width="154.22" height="14.46"/><rect x="246.23" y="155.76" width="86.75" height="14.46"/></svg>