<svg id="Layer_1" data-name="Layer 1" xmlns="http://www.w3.org/2000/svg" viewBox="0 0 540 540"><title>Artboard 1</title><path d="M278.55,86.2V76.09H297a35.54,35.54,0,0,0,25.13-60.68A35.33,35.33,0,0,0,297,5H243a35.54,35.54,0,0,0-25.13,60.68A35.29,35.29,0,0,0,243,76.09h18.45V86.2c-119.84,4.51-216,103.36-216,224.29C45.49,434.29,146.21,535,270,535S494.51,434.29,494.51,310.49C494.51,189.57,398.39,90.72,278.55,86.2ZM243,59a18.45,18.45,0,0,1,0-36.89h54A18.45,18.45,0,1,1,297,59H278.55V40.54h-17.1V59ZM270,517.9c-114.36,0-207.41-93-207.41-207.41s93-207.41,207.41-207.41,207.41,93,207.41,207.41S384.36,517.9,270,517.9Z"/><path d="M270,119.58c-105.27,0-190.91,85.64-190.91,190.91S164.73,501.41,270,501.41s190.91-85.64,190.91-190.91S375.27,119.58,270,119.58Zm0,364.73c-95.84,0-173.82-78-173.82-173.82s78-173.82,173.82-173.82,173.82,78,173.82,173.82S365.84,484.31,270,484.31Z"/><rect x="261.45" y="157.52" width="17.1" height="20.99"/><rect x="190.22" y="176.61" width="17.1" height="20.99" transform="translate(-66.95 124.54) rotate(-30.02)"/><rect x="138.06" y="228.76" width="17.09" height="20.99" transform="translate(-133.9 246.56) rotate(-59.99)"/><rect x="117.03" y="301.94" width="21" height="17.1"/><rect x="136.12" y="373.18" width="20.99" height="17.1" transform="translate(-171.36 124.63) rotate(-30.03)"/><rect x="188.27" y="425.33" width="20.99" height="17.1" transform="translate(-276.35 388.95) rotate(-59.99)"/><rect x="261.45" y="442.47" width="17.1" height="20.99"/><rect x="332.69" y="423.38" width="17.1" height="21" transform="translate(-171.36 229.11) rotate(-30.04)"/><rect x="384.84" y="371.22" width="17.1" height="21.01" transform="matrix(0.5, -0.87, 0.87, 0.5, -133.83, 531.75)"/><rect x="401.97" y="301.94" width="21" height="17.1"/><rect x="382.88" y="230.71" width="21.02" height="17.1" transform="translate(-66.92 228.73) rotate(-30)"/><rect x="330.74" y="178.56" width="20.99" height="17.1" transform="translate(8.53 388.99) rotate(-59.99)"/><path d="M261.63,268.82h16.82a17.05,17.05,0,0,1,11.71,4.78,16.43,16.43,0,0,1,4.72,11.75H312a33.66,33.66,0,0,0-9.77-23.87,34.37,34.37,0,0,0-23.66-9.75V234.51h-17.1v17.22a33.66,33.66,0,0,0,.17,67.32h16.82a17.06,17.06,0,0,1,11.76,4.86,17,17,0,0,1,.07,23.37,17.14,17.14,0,0,1-11.83,4.91H261.63a16.43,16.43,0,0,1-16.53-16.54H228a33.51,33.51,0,0,0,33.46,33.63v17.2h17.1v-17.2a34.46,34.46,0,0,0,23.75-9.85,34.12,34.12,0,0,0-.09-47.69A34.34,34.34,0,0,0,278.46,302H261.63a16.57,16.57,0,1,1,0-33.13Z"/><path d="M442.76,119.29a6,6,0,0,1,8.27,0l10.17,10.18a5.85,5.85,0,0,1,0,8.28l-12.72,12.73,12.09,12.09,12.72-12.72a22.94,22.94,0,0,0,0-32.46L463.11,107.2a22.94,22.94,0,0,0-32.44,0l-12.73,12.72L430,132Z"/><path d="M79.43,162.56l12.09-12.09L78.8,137.74a5.84,5.84,0,0,1,0-8.27L89,119.3a6,6,0,0,1,8.28,0L110,132l12.09-12.09L109.34,107.2a22.95,22.95,0,0,0-32.45,0L66.71,117.38a22.93,22.93,0,0,0,0,32.45Z"/></svg>