<svg id="Layer_1" data-name="Layer 1" xmlns="http://www.w3.org/2000/svg" viewBox="0 0 1080 1080"><title>training-steps</title><polygon points="509 758.75 509 821.25 509 946.25 196 946.25 196 1040 227.25 1040 227.25 977.5 508.5 977.5 508.5 1040 509 1040 539.75 1040 540.25 1040 540.25 821.25 540.25 790 852.75 790 852.75 821.25 852.75 1040 884 1040 884 821.25 884 758.75 509 758.75"/><path d="M579.06,196.25a78.13,78.13,0,1,0-78.12-78.12A78.22,78.22,0,0,0,579.06,196.25Zm0-125a46.88,46.88,0,1,1-46.87,46.88A46.93,46.93,0,0,1,579.06,71.25Z"/><path d="M271.14,410.42a15.62,15.62,0,0,0,22.09,0l90.69-90.69L437,306.46,423,458.65,377.91,594.06,255.52,716.45a15.62,15.62,0,0,0,0,22.09l46.88,46.88a15.62,15.62,0,0,0,20.94,1L495.21,645.84a15.62,15.62,0,0,0,5.07-7.61L533.06,529l98.43,24.61,90.42,150.7a15.63,15.63,0,0,0,20.39,5.94L804.8,679A15.63,15.63,0,0,0,812,658.54L733.91,486.66a15.62,15.62,0,0,0-7.23-7.51L582,406.82,606.83,320,737,305.53a15.6,15.6,0,0,0,9.32-4.48L855.73,191.67a15.62,15.62,0,0,0,0-22.09L808.86,122.7a15.62,15.62,0,0,0-22.09,0l-89.17,89.17H594.69v31.25H704.06a15.63,15.63,0,0,0,11-4.58l82.7-82.7,24.78,24.78-94.45,94.45L593,290.1a15.61,15.61,0,0,0-13.3,11.23L548.42,410.7a15.63,15.63,0,0,0,8,18.27l151.31,75.65,69.6,153.13-36.09,18L655,532a15.63,15.63,0,0,0-9.6-7.12L542,499l5.11-17-29.94-9-45.5,151.67L314.49,753.33,288.66,727.5l114-114a15.66,15.66,0,0,0,3.78-6.1l46.88-140.62a15.4,15.4,0,0,0,.73-3.52l15.15-164.87,35.59-8.9-7.58-30.32-125,31.25a15.56,15.56,0,0,0-7.25,4.11l-82.7,82.7L257.41,352.5l95.4-95.39,167.87-45.78-8.22-30.15L340.57,228a15.61,15.61,0,0,0-6.93,4L224.27,341.45a15.62,15.62,0,0,0,0,22.09Z"/></svg>