<svg xmlns="http://www.w3.org/2000/svg" viewBox="0 0 108.64 94.07"><title>usage-dashboard</title><g id="Layer_2" data-name="Layer 2"><g id="Layer_1-2" data-name="Layer 1"><rect x="0.2" y="90.17" width="108.24" height="3.9"/><path d="M29.15,85.74h21.4V37.24H29.15Zm3.9-44.6h13.6V81.85H33.05Z"/><path d="M58.1,85.74H79.5V54.84H58.1Zm3.9-27H75.6V81.85H62Z"/><path d="M87.05,85.74h21.39V27.17H87.05Zm3.89-54.67h13.61V81.85H90.94Z"/><path d="M.2,85.74H21.6V68.34H.2Zm3.9-13.5H17.7v9.61H4.1Z"/><path d="M8.93,48.12a8.93,8.93,0,0,0,7.54-13.71l18-17.94a8.87,8.87,0,0,0,9.55,0l18,17.95a8.94,8.94,0,1,0,15.07,0l18-17.95a8.78,8.78,0,0,0,4.78,1.4,9,9,0,1,0-7.54-4.15l-18,18a8.84,8.84,0,0,0-9.55,0l-18-17.95a8.94,8.94,0,1,0-15.07,0l-17.95,18A8.93,8.93,0,1,0,8.93,48.12ZM99.72,3.9a5,5,0,1,1-5,5A5,5,0,0,1,99.72,3.9ZM69.45,34.16a5,5,0,1,1-5,5A5,5,0,0,1,69.45,34.16ZM39.19,3.9a5,5,0,1,1-5,5A5,5,0,0,1,39.19,3.9ZM8.93,34.16a5,5,0,1,1-5,5A5,5,0,0,1,8.93,34.16Z"/></g></g></svg>