<?xml version="1.0" encoding="utf-8"?>
<!-- Generator: Adobe Illustrator 22.1.0, SVG Export Plug-In . SVG Version: 6.00 Build 0)  -->
<svg version="1.1" id="_x33_9_x5F_user_x5F_engagement"
	 xmlns="http://www.w3.org/2000/svg" xmlns:xlink="http://www.w3.org/1999/xlink" x="0px" y="0px" viewBox="0 0 500 500"
	 style="enable-background:new 0 0 500 500;" xml:space="preserve">
<style type="text/css">
	.st0{fill:#222829;}
</style>
<g>
	<path class="st0" d="M178.7,210.3H56.5c-3.8,0-7.5,1.5-9.7,4.5c-2.2,2.2-4.5,6-4.5,9.8v206.2c0,3.8,1.5,7.5,4.5,9.8
		c2.2,2.3,6,4.5,9.7,4.5h387c3.8,0,7.5-1.5,9.8-4.5c2.2-2.2,4.5-6,4.5-9.8V224.5c0-3.8-1.5-7.5-4.5-9.8c-2.3-2.2-6-4.5-9.8-4.5
		H321.2v15h122.3v-0.8l-0.8,0.8h0.8v-0.8l-0.8,0.8l0.8-0.8h-0.8v0.8l0.8-0.8h-0.8v206.3h0.8l-0.8-0.8v0.8h0.8l-0.8-0.8l0.8,0.8V430
		h-0.8l0.8,0.8V430h-387v0.8l0.8-0.8h-0.8v0.8l0.8-0.8l-0.8,0.8h0.8V430l-0.8,0.8h0.8V224.5h-0.8l0.8,0.7v-0.7h-0.8l0.8,0.7
		l-0.8-0.7v0.7h0.8l-0.8-0.7v0.7h122.2V210.3L178.7,210.3z"/>
	<polyline class="st0" points="391,237.2 391,436.8 406,436.8 406,237.2 	"/>
	<polyline class="st0" points="416.5,321.2 416.5,334 431.5,334 431.5,321.2 	"/>
	<polyline class="st0" points="416.5,295 416.5,307.8 431.5,307.8 431.5,295 	"/>
	<polyline class="st0" points="416.5,346.8 416.5,359.5 431.5,359.5 431.5,346.8 	"/>
	<polyline class="st0" points="94,224.5 94,417.2 109,417.2 109,224.5 	"/>
	<polyline class="st0" points="68.5,307.8 68.5,346.8 83.5,346.8 83.5,307.8 	"/>
	<polyline class="st0" points="242.5,307.8 242.5,417.2 257.5,417.2 257.5,307.8 	"/>
	<path class="st0" d="M209.5,158.5c-2.2-6-3.8-11.2-3.8-18c0-12,5.2-23.2,12.8-31.5c8.2-8.3,18.8-12.8,31.5-12.8
		c12,0,23.2,5.3,31.5,12.8c8.2,8.2,12.8,18.8,12.8,31.5c0,6.8-1.5,12-3.8,18l13.5,6c3.8-7.5,5.3-15.8,5.3-24
		c0-33-26.2-59.2-59.3-59.2s-59.3,26.2-59.3,59.2c0,8.2,1.5,16.5,5.2,24L209.5,158.5L209.5,158.5z"/>
	<path class="st0" d="M190,175c-6-9.7-9.8-22.5-9.8-35.2c0-38.2,31.5-69.8,69.8-69.8s69.7,31.5,69.7,69.8c0,12.8-3,24-9.8,35.2
		l12.8,7.5c7.5-12.8,11.2-27,11.2-42.8c0-23.2-9.7-45-24.7-60S272.5,55,249.2,55s-45,9.8-60,24.8s-24.7,36.8-24.7,60
		c0,15.8,3.8,30.8,11.2,42.8L190,175L190,175z"/>
	<polyline class="st0" points="133.7,133 43.7,133 43.7,148 133.7,148 	"/>
	<polygon class="st0" points="113.5,171.2 144.2,140.5 113.5,109.8 103,120.3 123.2,140.5 103,160.8 	"/>
	<polyline class="st0" points="366.2,148 456.2,148 456.2,133 366.2,133 	"/>
	<polygon class="st0" points="397,160.8 376.8,140.5 397,120.3 386.5,109.8 355.7,140.5 386.5,171.2 	"/>
	<path class="st0" d="M250,121v7.5c6.8,0,12,5.2,12,12s-5.2,12-12,12c-6.8,0-12-5.2-12-12s5.3-12,12-12V121v-7.5c-15,0-27,12-27,27
		s12,27,27,27c15,0,27-12,27-27s-12-27-27-27V121z"/>
	<path class="st0" d="M225.2,417.2v-123h-19.5v-96c0-3,1.5-6,3.8-8.2c2.2-2.2,5.2-3.8,8.2-3.8h9.8l22.5,22.5l22.5-22.5h9.8
		c3,0,6,1.5,8.2,3.8c2.2,2.2,3.8,5.3,3.8,8.2v96h-19.5V418h15V309.2h19.5v-111c0-7.5-3-14.2-8.2-18.8c-4.5-4.5-11.2-8.3-18.8-8.3
		h-15.8L250,187.8l-16.5-16.5h-15.7c-7.5,0-14.3,3-18.8,8.3c-4.5,4.5-8.2,11.2-8.2,18.7v111h19.5v108L225.2,417.2L225.2,417.2z"/>
</g>
</svg>
