<?xml version="1.0" encoding="utf-8"?>
<!-- Generator: Adobe Illustrator 22.1.0, SVG Export Plug-In . SVG Version: 6.00 Build 0)  -->
<svg version="1.1" id="_x33_5_x5F_user_x5F_predictions"
	 xmlns="http://www.w3.org/2000/svg" xmlns:xlink="http://www.w3.org/1999/xlink" x="0px" y="0px" viewBox="0 0 500 500"
	 style="enable-background:new 0 0 500 500;" xml:space="preserve">
<style type="text/css">
	.st0{fill:#222829;}
</style>
<g>
	<polyline class="st0" points="421.2,263.4 421.2,428.2 435.3,428.2 435.3,263.4 	"/>
	<path class="st0" d="M396.5,407.1l26.8,26.1c2.8,2.8,7,2.8,9.9,0l26.1-26.1c2.8-2.8,2.8-7,0-9.9c-2.8-2.8-7-2.8-9.9,0l-21.1,21.1
		l-21.8-21.1c-2.8-2.8-7-2.8-9.9,0C393.7,400.1,393.7,404.3,396.5,407.1L396.5,407.1z"/>
	<polyline class="st0" points="78.8,237.3 78.8,72.5 64.7,72.5 64.7,237.3 	"/>
	<path class="st0" d="M50.6,103.5l21.1-21.1l21.8,21.1c2.8,2.8,7,2.8,9.9,0c2.8-2.8,2.8-7,0-9.9L76.7,67.5c-2.8-2.8-7-2.8-9.9,0
		L40.8,93.6c-2.8,2.8-2.8,7,0,9.9C43.6,106.3,47.8,106.3,50.6,103.5L50.6,103.5z"/>
	<polyline class="st0" points="263.4,79.5 428.2,79.5 428.2,65.4 263.4,65.4 	"/>
	<path class="st0" d="M433.2,67.5l-26.8-26.8c-2.8-2.8-7-2.8-9.9,0c-2.8,2.8-2.8,7,0,9.9l26.8,26.8c2.8,2.8,7,2.8,9.9,0
		C436,74.6,436,70.4,433.2,67.5"/>
	<path class="st0" d="M423.3,67.5l-26.8,26.1c-2.8,2.8-2.8,7,0,9.9c2.8,2.8,7,2.8,9.9,0l26.8-26.1c2.8-2.8,2.8-7,0-9.9
		C430.4,64.7,426.1,64.7,423.3,67.5"/>
	<polyline class="st0" points="236.6,421.2 71.8,421.2 71.8,435.3 236.6,435.3 	"/>
	<path class="st0" d="M76.7,433.2l26.8-26.1c2.8-2.8,2.8-7,0-9.9c-2.8-2.8-7-2.8-9.9,0l-26.8,26.1c-2.8,2.8-2.8,7,0,9.9
		C69.6,436,73.9,436,76.7,433.2"/>
	<path class="st0" d="M66.8,433.2l26.8,26.1c2.8,2.8,7,2.8,9.9,0c2.8-2.8,2.8-7,0-9.9l-26.8-26.1c-2.8-2.8-7-2.8-9.9,0
		C64,426.1,64,430.4,66.8,433.2"/>
	<path class="st0" d="M216.9,220.4h-7c0,12.7,3.5,25.4,10.6,34.5c3.5,4.9,7.7,8.5,12.7,11.3s11.3,4.2,16.9,4.2
		c6.3,0,12-1.4,16.9-4.2c7.7-4.2,13.4-10.6,16.9-19c3.5-7.7,5.6-16.9,5.6-26.8c0-6.3-0.7-12-1.4-16.9c-0.7-4.2-2.1-7.7-4.2-11.3
		c-2.8-4.9-7.7-9.2-13.4-11.3c-5.6-2.1-12.7-3.5-21.1-3.5c-7,0-13.4,0.7-19,2.8c-4.2,1.4-7.7,3.5-10.6,6.3c-4.2,4.2-7,9.2-8.5,14.8
		c-1.4,5.6-2.1,12-2.1,18.3h7.7h7c0-5.6,0.7-9.9,1.4-13.4c0.7-2.8,1.4-4.9,2.8-7c1.4-2.8,3.5-4.2,7-6.3c3.5-1.4,8.5-2.8,15.5-2.8
		c6.3,0,10.6,0.7,14.1,2.1c2.8,0.7,4.2,2.1,5.6,3.5c2.1,2.1,3.5,4.2,4.9,8.5c1.4,4.2,1.4,9.2,1.4,15.5c0,10.6-2.8,19.7-7.7,26.1
		c-2.1,3.5-4.9,5.6-8.5,7c-2.8,1.4-6.3,2.8-10.6,2.8s-7-0.7-10.6-2.8c-4.2-2.8-8.5-7-11.3-12.7c-2.8-5.6-4.2-12.7-4.2-20.4h-7V220.4
		z"/>
	<path class="st0" d="M226.8,250.7l-49.3,28.2v4.2c0,0,0,0.7,0,2.1c0,2.1,0,4.9,0,10.6c0,7,2.1,13.4,5.6,18.3
		c1.4,2.1,3.5,4.2,6.3,6.3c2.8,1.4,5.6,2.8,8.5,2.8h105.7c3.5,0,6.3-1.4,8.5-2.8c3.5-2.1,6.3-5.6,8.5-9.9c2.1-4.2,3.5-9.2,3.5-14.1
		c0-10.6,0-13.4,0-13.4v-4.2l-49.3-28.2l-7,12l45.8,26.1l3.5-6.3h-7c0,0,0,0.7,0,2.8c0,2.1,0,5.6,0,10.6c0,3.5-1.4,7-2.8,9.9
		c-0.7,2.1-2.1,2.8-2.8,2.8l-0.7,0.7l0,0l0,0l0,0l0,0l0,0l0,0H197.9c0,0-0.7,0-1.4-0.7c-0.7-0.7-2.1-2.1-3.5-4.2
		c-0.7-2.1-1.4-4.9-1.4-8.5c0-11.3,0-13.4,0-13.4h-7l3.5,6.3l45.8-26.1L226.8,250.7L226.8,250.7z"/>
	<path class="st0" d="M250,98.5v7c40.2,0,76.1,16.2,102.2,42.3c26.1,26.1,42.3,62,42.3,102.2s-16.2,76.1-42.3,102.2
		c-26.1,26.1-62,42.3-102.2,42.3s-76.1-16.2-102.2-42.3s-42.3-62-42.3-102.2s16.2-76.1,42.3-102.2s62-42.3,102.2-42.3V98.5v-7
		c-87.4,0-158.5,71.2-158.5,158.5S162.6,408.5,250,408.5S408.5,337.4,408.5,250S337.4,91.5,250,91.5V98.5z"/>
	<path class="st0" d="M237.3,421.2c-84.5-6.3-151.5-74-157.8-157.8l-14.1,0.7c6.3,91.6,78.9,164.9,170.5,171.2L237.3,421.2
		L237.3,421.2z"/>
	<path class="st0" d="M420.5,262.7c-6.3,84.5-73.3,151.5-157.1,157.8l0.7,14.1c91.6-6.3,164.1-78.9,170.5-170.5L420.5,262.7
		L420.5,262.7z"/>
	<path class="st0" d="M262.7,80.2c84.5,6.3,151.5,74,157.8,157.8l14.1-0.7c-6.3-91.6-78.9-164.9-170.5-171.2L262.7,80.2L262.7,80.2z
		"/>
	<path class="st0" d="M79.5,237.3c7-83.8,74-150.8,157.8-157.1l-0.7-14.1C145.7,72.5,73.2,145,66.1,235.9L79.5,237.3L79.5,237.3z"/>
</g>
</svg>
