<?xml version="1.0" encoding="utf-8"?>
<!-- Generator: Adobe Illustrator 22.1.0, SVG Export Plug-In . SVG Version: 6.00 Build 0)  -->
<svg version="1.1" id="_x33_5_x5F_user_x5F_predictions"
	 xmlns="http://www.w3.org/2000/svg" xmlns:xlink="http://www.w3.org/1999/xlink" x="0px" y="0px" viewBox="0 0 100 80"
	 style="enable-background:new 0 0 100 80;" xml:space="preserve">
<style type="text/css">
	.st0{fill:#222829;}
</style>
<g>
	<polyline class="st0" points="74.3,42.6 74.3,66 76.3,66 76.3,42.6 	"/>
	<path class="st0" d="M70.8,63l3.8,3.7c0.4,0.4,1,0.4,1.4,0l3.7-3.7c0.4-0.4,0.4-1,0-1.4c-0.4-0.4-1-0.4-1.4,0l-3,3l-3.1-3
		c-0.4-0.4-1-0.4-1.4,0S70.4,62.6,70.8,63L70.8,63z"/>
	<polyline class="st0" points="25.7,38.9 25.7,15.5 23.7,15.5 23.7,38.9 	"/>
	<path class="st0" d="M21.7,19.9l3-3l3.1,3c0.4,0.4,1,0.4,1.4,0c0.4-0.4,0.4-1,0-1.4l-3.8-3.7c-0.4-0.4-1-0.4-1.4,0l-3.7,3.7
		c-0.4,0.4-0.4,1,0,1.4C20.7,20.3,21.3,20.3,21.7,19.9L21.7,19.9z"/>
	<polyline class="st0" points="51.9,16.5 75.3,16.5 75.3,14.5 51.9,14.5 	"/>
	<path class="st0" d="M76,14.8L72.2,11c-0.4-0.4-1-0.4-1.4,0c-0.4,0.4-0.4,1,0,1.4l3.8,3.8c0.4,0.4,1,0.4,1.4,0
		C76.4,15.8,76.4,15.2,76,14.8"/>
	<path class="st0" d="M74.6,14.8l-3.8,3.7c-0.4,0.4-0.4,1,0,1.4c0.4,0.4,1,0.4,1.4,0l3.8-3.7c0.4-0.4,0.4-1,0-1.4
		C75.6,14.4,75,14.4,74.6,14.8"/>
	<polyline class="st0" points="48.1,65 24.7,65 24.7,67 48.1,67 	"/>
	<path class="st0" d="M25.4,66.7l3.8-3.7c0.4-0.4,0.4-1,0-1.4s-1-0.4-1.4,0L24,65.3c-0.4,0.4-0.4,1,0,1.4S25,67.1,25.4,66.7"/>
	<path class="st0" d="M24,66.7l3.8,3.7c0.4,0.4,1,0.4,1.4,0s0.4-1,0-1.4l-3.8-3.7c-0.4-0.4-1-0.4-1.4,0S23.6,66.3,24,66.7"/>
	<path class="st0" d="M45.3,36.5h-1c0,1.8,0.5,3.6,1.5,4.9c0.5,0.7,1.1,1.2,1.8,1.6c0.7,0.4,1.6,0.6,2.4,0.6c0.9,0,1.7-0.2,2.4-0.6
		c1.1-0.6,1.9-1.5,2.4-2.7c0.5-1.1,0.8-2.4,0.8-3.8c0-0.9-0.1-1.7-0.2-2.4c-0.1-0.6-0.3-1.1-0.6-1.6c-0.4-0.7-1.1-1.3-1.9-1.6
		c-0.8-0.3-1.8-0.5-3-0.5c-1,0-1.9,0.1-2.7,0.4c-0.6,0.2-1.1,0.5-1.5,0.9c-0.6,0.6-1,1.3-1.2,2.1c-0.2,0.8-0.3,1.7-0.3,2.6H45.3h1
		c0-0.8,0.1-1.4,0.2-1.9c0.1-0.4,0.2-0.7,0.4-1c0.2-0.4,0.5-0.6,1-0.9c0.5-0.2,1.2-0.4,2.2-0.4c0.9,0,1.5,0.1,2,0.3
		c0.4,0.1,0.6,0.3,0.8,0.5c0.3,0.3,0.5,0.6,0.7,1.2c0.2,0.6,0.2,1.3,0.2,2.2c0,1.5-0.4,2.8-1.1,3.7c-0.3,0.5-0.7,0.8-1.2,1
		c-0.4,0.2-0.9,0.4-1.5,0.4c-0.6,0-1-0.1-1.5-0.4c-0.6-0.4-1.2-1-1.6-1.8c-0.4-0.8-0.6-1.8-0.6-2.9H45.3z"/>
	<path class="st0" d="M46.7,40.8l-7,4v0.6c0,0,0,0.1,0,0.3c0,0.3,0,0.7,0,1.5c0,1,0.3,1.9,0.8,2.6c0.2,0.3,0.5,0.6,0.9,0.9
		c0.4,0.2,0.8,0.4,1.2,0.4h15c0.5,0,0.9-0.2,1.2-0.4c0.5-0.3,0.9-0.8,1.2-1.4c0.3-0.6,0.5-1.3,0.5-2c0-1.5,0-1.9,0-1.9v-0.6l-7-4
		l-1,1.7l6.5,3.7l0.5-0.9h-1c0,0,0,0.1,0,0.4c0,0.3,0,0.8,0,1.5c0,0.5-0.2,1-0.4,1.4C58,48.9,57.8,49,57.7,49l-0.1,0.1l0,0l0,0v0
		l0,0l0,0v0h-15c0,0-0.1,0-0.2-0.1c-0.1-0.1-0.3-0.3-0.5-0.6c-0.1-0.3-0.2-0.7-0.2-1.2c0-1.6,0-1.9,0-1.9h-1l0.5,0.9l6.5-3.7
		L46.7,40.8L46.7,40.8z"/>
	<path class="st0" d="M50,19.2v1c5.7,0,10.8,2.3,14.5,6c3.7,3.7,6,8.8,6,14.5c0,5.7-2.3,10.8-6,14.5c-3.7,3.7-8.8,6-14.5,6
		c-5.7,0-10.8-2.3-14.5-6c-3.7-3.7-6-8.8-6-14.5c0-5.7,2.3-10.8,6-14.5c3.7-3.7,8.8-6,14.5-6V19.2v-1c-12.4,0-22.5,10.1-22.5,22.5
		c0,12.4,10.1,22.5,22.5,22.5c12.4,0,22.5-10.1,22.5-22.5c0-12.4-10.1-22.5-22.5-22.5V19.2z"/>
	<path class="st0" d="M48.2,65c-12-0.9-21.5-10.5-22.4-22.4l-2,0.1C24.7,55.7,35,66.1,48,67L48.2,65L48.2,65z"/>
	<path class="st0" d="M74.2,42.5c-0.9,12-10.4,21.5-22.3,22.4l0.1,2C65,66,75.3,55.7,76.2,42.7L74.2,42.5L74.2,42.5z"/>
	<path class="st0" d="M51.8,16.6c12,0.9,21.5,10.5,22.4,22.4l2-0.1C75.3,25.9,65,15.5,52,14.6L51.8,16.6L51.8,16.6z"/>
	<path class="st0" d="M25.8,38.9c1-11.9,10.5-21.4,22.4-22.3l-0.1-2c-12.9,0.9-23.2,11.2-24.2,24.1L25.8,38.9L25.8,38.9z"/>
</g>
</svg>
