<?xml version="1.0" encoding="iso-8859-1"?>
<!-- Generator: Adobe Illustrator 17.0.0, SVG Export Plug-In . SVG Version: 6.00 Build 0)  -->
<!DOCTYPE svg PUBLIC "-//W3C//DTD SVG 1.1//EN" "http://www.w3.org/Graphics/SVG/1.1/DTD/svg11.dtd">
<svg version="1.1" id="_x33_9_x5F_user_x5F_engagement"
	 xmlns="http://www.w3.org/2000/svg" xmlns:xlink="http://www.w3.org/1999/xlink" x="0px" y="0px" width="64px" height="60px"
	 viewBox="0 0 64 60" style="enable-background:new 0 0 64 60;" xml:space="preserve">
<g>
	<g>
		<path style="fill:none;stroke:#222829;stroke-width:2;stroke-miterlimit:10;" d="M21,25H2c-0.553,0-1,0.447-1,1v32
			c0,0.553,0.447,1,1,1h60c0.553,0,1-0.447,1-1V26c0-0.553-0.447-1-1-1H43"/>
		<line style="fill:none;stroke:#222829;stroke-width:2;stroke-miterlimit:10;" x1="55" y1="28" x2="55" y2="59"/>
		<line style="fill:none;stroke:#222829;stroke-width:2;stroke-miterlimit:10;" x1="59" y1="41" x2="59" y2="43"/>
		<line style="fill:none;stroke:#222829;stroke-width:2;stroke-miterlimit:10;" x1="59" y1="37" x2="59" y2="39"/>
		<line style="fill:none;stroke:#222829;stroke-width:2;stroke-miterlimit:10;" x1="59" y1="45" x2="59" y2="47"/>
		<line style="fill:none;stroke:#222829;stroke-width:2;stroke-miterlimit:10;" x1="9" y1="26" x2="9" y2="56"/>
		<line style="fill:none;stroke:#222829;stroke-width:2;stroke-miterlimit:10;" x1="5" y1="39" x2="5" y2="45"/>
	</g>
	<g>
		<line style="fill:none;stroke:#222829;stroke-width:2;stroke-miterlimit:10;" x1="32" y1="39" x2="32" y2="56"/>
		<g>
			<path style="fill:none;stroke:#222829;stroke-width:2;stroke-miterlimit:10;" d="M24.71,16.3C24.254,15.294,24,14.176,24,13
				c0-4.418,3.582-8,8-8s8,3.582,8,8c0,1.159-0.246,2.261-0.69,3.254"/>
			<path style="fill:none;stroke:#222829;stroke-width:2;stroke-miterlimit:10;" d="M21.605,19C20.584,17.235,20,15.186,20,13
				c0-6.627,5.373-12,12-12s12,5.373,12,12c0,2.186-0.584,4.235-1.606,6"/>
		</g>
		<g>
			<line style="fill:none;stroke:#222829;stroke-width:2;stroke-miterlimit:10;" x1="14" y1="13" x2="0" y2="13"/>
			<polyline style="fill:none;stroke:#222829;stroke-width:2;stroke-miterlimit:10;" points="10,17 14,13 10,9 			"/>
		</g>
		<g>
			<line style="fill:none;stroke:#222829;stroke-width:2;stroke-miterlimit:10;" x1="50" y1="13" x2="64" y2="13"/>
			<polyline style="fill:none;stroke:#222829;stroke-width:2;stroke-miterlimit:10;" points="54,17 50,13 54,9 			"/>
		</g>
		<circle style="fill:none;stroke:#222829;stroke-width:2;stroke-miterlimit:10;" cx="32" cy="13" r="3"/>
		<path style="fill:none;stroke:#222829;stroke-width:2;stroke-miterlimit:10;" d="M27,56V38h-3V22c0-1.656,1.344-3,3-3h2l3,3l3-3h2
			c1.656,0,3,1.344,3,3v16h-3v18"/>
	</g>
</g>
</svg>
