<?xml version="1.0" encoding="iso-8859-1"?>
<!-- Generator: Adobe Illustrator 17.0.0, SVG Export Plug-In . SVG Version: 6.00 Build 0)  -->
<!DOCTYPE svg PUBLIC "-//W3C//DTD SVG 1.1//EN" "http://www.w3.org/Graphics/SVG/1.1/DTD/svg11.dtd">
<svg version="1.1" id="_x33_5_x5F_user_x5F_predictions"
	 xmlns="http://www.w3.org/2000/svg" xmlns:xlink="http://www.w3.org/1999/xlink" x="0px" y="0px" width="64px" height="64px"
	 viewBox="0 0 64 64" style="enable-background:new 0 0 64 64;" xml:space="preserve">
<g>
	<path style="fill:none;stroke:#222829;stroke-width:2;stroke-miterlimit:10;" d="M32,5"/>
	<path style="fill:none;stroke:#222829;stroke-width:2;stroke-miterlimit:10;" d="M59,32"/>
	<path style="fill:none;stroke:#222829;stroke-width:2;stroke-miterlimit:10;" d="M5,32"/>
	
		<line style="fill:none;stroke:#222829;stroke-width:2;stroke-linejoin:round;stroke-miterlimit:10;" x1="59" y1="34" x2="59" y2="59"/>
	
		<polyline style="fill:none;stroke:#222829;stroke-width:2;stroke-linecap:round;stroke-linejoin:round;stroke-miterlimit:10;" points="
		55,55 59,59 63,55 	"/>
	
		<line style="fill:none;stroke:#222829;stroke-width:2;stroke-linejoin:round;stroke-miterlimit:10;" x1="5" y1="30" x2="5" y2="5"/>
	
		<polyline style="fill:none;stroke:#222829;stroke-width:2;stroke-linecap:round;stroke-linejoin:round;stroke-miterlimit:10;" points="
		1,9 5,5 9,9 	"/>
	
		<line style="fill:none;stroke:#222829;stroke-width:2;stroke-linejoin:round;stroke-miterlimit:10;" x1="34" y1="5" x2="59" y2="5"/>
	
		<line style="fill:none;stroke:#222829;stroke-width:2;stroke-linecap:round;stroke-linejoin:round;stroke-miterlimit:10;" x1="59" y1="5" x2="55" y2="1"/>
	
		<line style="fill:none;stroke:#222829;stroke-width:2;stroke-linecap:round;stroke-linejoin:round;stroke-miterlimit:10;" x1="59" y1="5" x2="55" y2="9"/>
	
		<line style="fill:none;stroke:#222829;stroke-width:2;stroke-linejoin:round;stroke-miterlimit:10;" x1="30" y1="59" x2="5" y2="59"/>
	
		<line style="fill:none;stroke:#222829;stroke-width:2;stroke-linecap:round;stroke-linejoin:round;stroke-miterlimit:10;" x1="5" y1="59" x2="9" y2="55"/>
	
		<line style="fill:none;stroke:#222829;stroke-width:2;stroke-linecap:round;stroke-linejoin:round;stroke-miterlimit:10;" x1="5" y1="59" x2="9" y2="63"/>
	<g>
		<path style="fill:none;stroke:#222829;stroke-width:2;stroke-miterlimit:10;" d="M27,27.5c0,3.5,1.963,6.5,5,6.5
			c3.037,0,5-3,5-6.5S36,22,32,22S27,24,27,27.5z"/>
		<path style="fill:none;stroke:#222829;stroke-width:2;stroke-miterlimit:10;" d="M29,33l-7,4c0,0,0,0.344,0,2c0,1.656,1,3,2,3h16
			c1,0,2-1.344,2-3c0-1.656,0-2,0-2l-7-4"/>
	</g>
	<circle style="fill:none;stroke:#222829;stroke-width:2;stroke-miterlimit:10;" cx="32" cy="32" r="23"/>
	<path style="fill:none;stroke:#222829;stroke-width:2;stroke-miterlimit:10;" d="M30,59C16.69,58.039,6.084,47.361,5.078,34.065"/>
	<path style="fill:none;stroke:#222829;stroke-width:2;stroke-miterlimit:10;" d="M58.925,34.031
		C57.938,47.303,47.357,57.902,34.094,58.92"/>
	<path style="fill:none;stroke:#222829;stroke-width:2;stroke-miterlimit:10;" d="M34.007,5.074
		C47.332,6.053,57.97,16.701,58.93,30.032"/>
	<path style="fill:none;stroke:#222829;stroke-width:2;stroke-miterlimit:10;" d="M5.079,29.904
		C6.099,16.635,16.71,6.05,29.992,5.074"/>
</g>
</svg>
