<?xml version="1.0" encoding="utf-8"?>
<!-- Generator: Adobe Illustrator 22.1.0, SVG Export Plug-In . SVG Version: 6.00 Build 0)  -->
<svg version="1.1" id="_x33_5_x5F_user_x5F_predictions"
	 xmlns="http://www.w3.org/2000/svg" xmlns:xlink="http://www.w3.org/1999/xlink" x="0px" y="0px" viewBox="0 0 100 80"
	 style="enable-background:new 0 0 100 80;" xml:space="preserve">
<style type="text/css">
	.st0{fill:none;stroke:#222829;stroke-width:2;stroke-miterlimit:10;}
	.st1{fill:none;stroke:#222829;stroke-width:2;stroke-linejoin:round;stroke-miterlimit:10;}
	.st2{fill:none;stroke:#222829;stroke-width:2;stroke-linecap:round;stroke-linejoin:round;stroke-miterlimit:10;}
</style>
<g>
	<path class="st0" d="M50,15.5"/>
	<path class="st0" d="M75.3,40.7"/>
	<path class="st0" d="M24.7,40.7"/>
	<line class="st1" x1="75.3" y1="42.6" x2="75.3" y2="66"/>
	<polyline class="st2" points="71.5,62.3 75.3,66 79,62.3 	"/>
	<line class="st1" x1="24.7" y1="38.9" x2="24.7" y2="15.5"/>
	<polyline class="st2" points="21,19.2 24.7,15.5 28.5,19.2 	"/>
	<line class="st1" x1="51.9" y1="15.5" x2="75.3" y2="15.5"/>
	<line class="st2" x1="75.3" y1="15.5" x2="71.5" y2="11.7"/>
	<line class="st2" x1="75.3" y1="15.5" x2="71.5" y2="19.2"/>
	<line class="st1" x1="48.1" y1="66" x2="24.7" y2="66"/>
	<line class="st2" x1="24.7" y1="66" x2="28.5" y2="62.3"/>
	<line class="st2" x1="24.7" y1="66" x2="28.5" y2="69.7"/>
	<g>
		<path class="st0" d="M45.3,36.5c0,3.3,1.8,6.1,4.7,6.1s4.7-2.8,4.7-6.1s-0.9-5.1-4.7-5.1S45.3,33.3,45.3,36.5z"/>
		<path class="st0" d="M47.2,41.7l-6.5,3.7c0,0,0,0.3,0,1.9s0.9,2.8,1.9,2.8h15c0.9,0,1.9-1.3,1.9-2.8s0-1.9,0-1.9l-6.5-3.7"/>
	</g>
	<circle class="st0" cx="50" cy="40.7" r="21.5"/>
	<path class="st0" d="M48.1,66c-12.5-0.9-22.4-10.9-23.3-23.3"/>
	<path class="st0" d="M75.2,42.6C74.3,55.1,64.4,65,52,65.9"/>
	<path class="st0" d="M51.9,15.6c12.5,0.9,22.4,10.9,23.3,23.3"/>
	<path class="st0" d="M24.8,38.8c1-12.4,10.9-22.3,23.3-23.2"/>
</g>
</svg>
