<?xml version="1.0" encoding="utf-8"?>
<!-- Generator: Adobe Illustrator 22.1.0, SVG Export Plug-In . SVG Version: 6.00 Build 0)  -->
<svg version="1.1" id="_x33_9_x5F_user_x5F_engagement"
	 xmlns="http://www.w3.org/2000/svg" xmlns:xlink="http://www.w3.org/1999/xlink" x="0px" y="0px" viewBox="0 0 100 80"
	 style="enable-background:new 0 0 100 80;" xml:space="preserve">
<style type="text/css">
	.st0{fill:none;stroke:#222829;stroke-width:2;stroke-miterlimit:10;}
</style>
<g>
	<g>
		<path class="st0" d="M40.5,35.7H24.2c-0.5,0-0.9,0.4-0.9,0.9v27.5c0,0.5,0.4,0.9,0.9,0.9h51.6c0.5,0,0.9-0.4,0.9-0.9V36.6
			c0-0.5-0.4-0.9-0.9-0.9H59.5"/>
		<line class="st0" x1="69.8" y1="38.3" x2="69.8" y2="64.9"/>
		<line class="st0" x1="73.2" y1="49.5" x2="73.2" y2="51.2"/>
		<line class="st0" x1="73.2" y1="46" x2="73.2" y2="47.7"/>
		<line class="st0" x1="73.2" y1="52.9" x2="73.2" y2="54.6"/>
		<line class="st0" x1="30.2" y1="36.6" x2="30.2" y2="62.3"/>
		<line class="st0" x1="26.8" y1="47.7" x2="26.8" y2="52.9"/>
	</g>
	<g>
		<line class="st0" x1="50" y1="47.7" x2="50" y2="62.3"/>
		<g>
			<path class="st0" d="M43.7,28.2c-0.4-0.9-0.6-1.8-0.6-2.8c0-3.8,3.1-6.9,6.9-6.9s6.9,3.1,6.9,6.9c0,1-0.2,1.9-0.6,2.8"/>
			<path class="st0" d="M41.1,30.5c-0.9-1.5-1.4-3.3-1.4-5.2c0-5.7,4.6-10.3,10.3-10.3s10.3,4.6,10.3,10.3c0,1.9-0.5,3.6-1.4,5.2"/>
		</g>
		<g>
			<line class="st0" x1="34.5" y1="25.4" x2="22.5" y2="25.4"/>
			<polyline class="st0" points="31.1,28.8 34.5,25.4 31.1,22 			"/>
		</g>
		<g>
			<line class="st0" x1="65.5" y1="25.4" x2="77.5" y2="25.4"/>
			<polyline class="st0" points="68.9,28.8 65.5,25.4 68.9,22 			"/>
		</g>
		<circle class="st0" cx="50" cy="25.4" r="2.6"/>
		<path class="st0" d="M45.7,62.3V46.9h-2.6V33.1c0-1.4,1.2-2.6,2.6-2.6h1.7l2.6,2.6l2.6-2.6h1.7c1.4,0,2.6,1.2,2.6,2.6v13.8h-2.6
			v15.5"/>
	</g>
</g>
</svg>
