<?xml version="1.0" encoding="iso-8859-1"?>
<!-- Generator: Adobe Illustrator 17.0.0, SVG Export Plug-In . SVG Version: 6.00 Build 0)  -->
<!DOCTYPE svg PUBLIC "-//W3C//DTD SVG 1.1//EN" "http://www.w3.org/Graphics/SVG/1.1/DTD/svg11.dtd">
<svg version="1.1" id="_x31_9_x5F_web_x5F_analytics"
	 xmlns="http://www.w3.org/2000/svg" xmlns:xlink="http://www.w3.org/1999/xlink" x="0px" y="0px" width="64px" height="60px"
	 viewBox="0 0 64 60" style="enable-background:new 0 0 64 60;" xml:space="preserve">
<g>
	<g>
		<polyline style="fill:none;stroke:#222829;stroke-width:2;stroke-miterlimit:10;" points="60,22 60,59 4,59 4,49 		"/>
		<polyline style="fill:none;stroke:#222829;stroke-width:2;stroke-miterlimit:10;" points="4,37 4,1 60,1 60,10 		"/>
		<g>
			<line style="fill:none;stroke:#222829;stroke-width:2;stroke-miterlimit:10;" x1="42" y1="34" x2="58" y2="18"/>
			<line style="fill:none;stroke:#222829;stroke-width:2;stroke-miterlimit:10;" x1="27" y1="24" x2="37" y2="34"/>
			<line style="fill:none;stroke:#222829;stroke-width:2;stroke-miterlimit:10;" x1="6" y1="41" x2="23" y2="24"/>
			<circle style="fill:none;stroke:#222829;stroke-width:2;stroke-miterlimit:10;" cx="4" cy="43" r="3"/>
			<circle style="fill:none;stroke:#222829;stroke-width:2;stroke-miterlimit:10;" cx="25" cy="22" r="3"/>
			<circle style="fill:none;stroke:#222829;stroke-width:2;stroke-miterlimit:10;" cx="40" cy="36" r="3"/>
			<circle style="fill:none;stroke:#222829;stroke-width:2;stroke-miterlimit:10;" cx="60" cy="16" r="3"/>
		</g>
		<g>
			<line style="fill:none;stroke:#222829;stroke-width:2;stroke-miterlimit:10;" x1="11" y1="7" x2="9" y2="7"/>
		</g>
		<g>
			<line style="fill:none;stroke:#222829;stroke-width:2;stroke-miterlimit:10;" x1="11" y1="11" x2="9" y2="11"/>
		</g>
		<line style="fill:none;stroke:#222829;stroke-width:2;stroke-miterlimit:10;" x1="8" y1="48" x2="8" y2="56"/>
		<line style="fill:none;stroke:#222829;stroke-width:2;stroke-miterlimit:10;" x1="12" y1="40" x2="12" y2="56"/>
		<line style="fill:none;stroke:#222829;stroke-width:2;stroke-miterlimit:10;" x1="36" y1="41" x2="36" y2="56"/>
		<line style="fill:none;stroke:#222829;stroke-width:2;stroke-miterlimit:10;" x1="40" y1="42" x2="40" y2="56"/>
		<line style="fill:none;stroke:#222829;stroke-width:2;stroke-miterlimit:10;" x1="44" y1="41" x2="44" y2="56"/>
		<line style="fill:none;stroke:#222829;stroke-width:2;stroke-miterlimit:10;" x1="48" y1="33" x2="48" y2="56"/>
		<line style="fill:none;stroke:#222829;stroke-width:2;stroke-miterlimit:10;" x1="52" y1="29" x2="52" y2="56"/>
		<line style="fill:none;stroke:#222829;stroke-width:2;stroke-miterlimit:10;" x1="56" y1="25" x2="56" y2="56"/>
		<line style="fill:none;stroke:#222829;stroke-width:2;stroke-miterlimit:10;" x1="16" y1="36" x2="16" y2="56"/>
		<line style="fill:none;stroke:#222829;stroke-width:2;stroke-miterlimit:10;" x1="20" y1="32" x2="20" y2="56"/>
		<line style="fill:none;stroke:#222829;stroke-width:2;stroke-miterlimit:10;" x1="32" y1="34" x2="32" y2="56"/>
		<line style="fill:none;stroke:#222829;stroke-width:2;stroke-miterlimit:10;" x1="28" y1="30" x2="28" y2="56"/>
		<line style="fill:none;stroke:#222829;stroke-width:2;stroke-miterlimit:10;" x1="24" y1="28" x2="24" y2="56"/>
		<line style="fill:none;stroke:#222829;stroke-width:2;stroke-miterlimit:10;" x1="27" y1="7" x2="53" y2="7"/>
		<line style="fill:none;stroke:#222829;stroke-width:2;stroke-miterlimit:10;" x1="13" y1="7" x2="25" y2="7"/>
		<line style="fill:none;stroke:#222829;stroke-width:2;stroke-miterlimit:10;" x1="13" y1="11" x2="43" y2="11"/>
	</g>
</g>
</svg>
