<svg id="Layer_1" data-name="Layer 1" xmlns="http://www.w3.org/2000/svg" viewBox="0 0 500 500"><title>Artboard 1</title><path d="M495,311.14c0-49.65-32.54-87.73-76.82-91.56-3-42.3-32.29-69.22-76.3-69.22h-3.24C315.52,111.92,274.14,89.11,227,89.11c-69.3,0-126.11,54.42-130,122.78A99.66,99.66,0,0,0,5,311.14C5,366,49.56,410.8,104.37,410.89H395.5C450.37,410.87,495,366,495,311.14Zm-99.53,84H104.53a84.1,84.1,0,1,1,0-168.2h7.66v-7.66A115,115,0,0,1,227,104.42c43,0,80.61,21.42,100.49,57.3l2.18,3.95h12.17c45.16,0,61.25,31.64,61.25,61.25v7.66h7.66c39.28,0,68.91,32.91,68.91,76.56A84.11,84.11,0,0,1,395.47,395.13Z"/></svg>