<svg xmlns="http://www.w3.org/2000/svg" viewBox="0 0 69.64 56.58"><defs><style>.cls-1{fill:#003851;}</style></defs><title>Wholesale and Distribution</title><g id="Layer_2" data-name="Layer 2"><g id="Layer_1-2" data-name="Layer 1"><rect class="cls-1" x="8.7" y="29.38" width="32.64" height="2.18"/><rect class="cls-1" x="23.94" y="33.73" width="17.41" height="2.18"/><circle class="cls-1" cx="15.23" cy="48.96" r="2.18"/><path class="cls-1" d="M64.2,49A7.62,7.62,0,1,0,51.26,54.4H20.55a7.61,7.61,0,1,0-10.64,0H0v2.18H69.64V54.4H61.9A7.61,7.61,0,0,0,64.2,49ZM9.79,49a5.44,5.44,0,1,1,5.44,5.44A5.45,5.45,0,0,1,9.79,49Zm41.35,0a5.44,5.44,0,1,1,5.44,5.44A5.45,5.45,0,0,1,51.14,49Z"/><circle class="cls-1" cx="56.58" cy="48.96" r="2.18"/><path class="cls-1" d="M59.35,14.14H45.7V0H0V44.61H6.53V42.43H2.18V38.08H6.53v-8.7H2.18V19.59h25v3.26a1.11,1.11,0,0,0,.61,1,1.16,1.16,0,0,0,.48.11,1.11,1.11,0,0,0,.67-.23l9.79-7.62a1.06,1.06,0,0,0,.42-.86,1.09,1.09,0,0,0-.42-.86L29,6.76a1.09,1.09,0,0,0-1.76.86v3.26h-25V2.18H43.52V42.43H23.94v2.18H47.87V42.43H45.7V16.32H58.16l1.4,2.18H47.87V40.26h2.18V31.55H67.46v2.18H63.11v6.53h4.35v2.17H65.28v2.18h4.36V30.15Zm-55,17.41v4.36H2.18V31.55ZM28.29,13.06A1.09,1.09,0,0,0,29.38,12V9.84l6.93,5.39-6.93,5.39V18.5a1.09,1.09,0,0,0-1.09-1.09H2.18V13.06Zm37,25V35.91h2.18v2.17ZM50.05,20.67H60.93v0l5.62,8.75H50.05Z"/><rect class="cls-1" x="52.23" y="33.73" width="2.18" height="2.18"/><rect class="cls-1" x="20.67" y="21.76" width="2.18" height="2.18"/><rect class="cls-1" x="16.32" y="21.76" width="2.18" height="2.18"/><rect class="cls-1" x="11.97" y="21.76" width="2.18" height="2.18"/></g></g></svg>