<svg id="Layer_1" data-name="Layer 1" xmlns="http://www.w3.org/2000/svg" viewBox="0 0 500 500"><title>Artboard 9</title><path d="M178.84,353.72h29.23v34.7h83.86v-34.7h29.23v34.7H405V304.56H321.16v34.7H291.93v-34.7h-34.7v-28.8h72v-116H170.81v116h72v28.8h-34.7v34.7H178.84v-34.7H95v83.86h83.86ZM335.62,319h54.94V374H335.62ZM185.27,174.23H314.73V261.3H185.27ZM222.53,319h54.94V374H222.53ZM164.38,374H109.44V319h54.94Z"/><rect x="347.03" y="339.26" width="32.13" height="14.46"/><rect x="120.85" y="339.26" width="32.13" height="14.46"/><rect x="233.94" y="339.26" width="32.13" height="14.46"/><rect x="215.3" y="226.6" width="69.4" height="14.46"/><rect x="215.3" y="194.47" width="69.4" height="14.46"/><path d="M50,66.6V433.4H450V66.6ZM435.54,418.94H64.46V129.25H435.54ZM64.46,114.79V81.06H435.54v33.73Z"/><rect x="91.77" y="90.7" width="14.46" height="14.46"/><rect x="120.68" y="90.7" width="14.46" height="14.46"/><rect x="149.6" y="90.7" width="14.46" height="14.46"/></svg>